<svg width="335" height="74" viewBox="0 0 335 74" fill="none" xmlns="http://www.w3.org/2000/svg">
<path fillRule="evenodd" clipRule="evenodd" d="M154.167 26.1069H161.34V16.6135H182.225V10.4955H161.34V7.75297H182.278V1.00208H158.122C157.63 1.00208 157.156 1.12515 156.698 1.37127C156.241 1.58224 155.819 1.8811 155.433 2.26787C155.046 2.65464 154.729 3.09415 154.483 3.58641C154.272 4.07866 154.167 4.57091 154.167 5.06316V26.1069ZM161.34 27.109H154.167C153.499 27.109 153.165 26.775 153.165 26.1069V5.06316C153.165 4.43027 153.305 3.81495 153.587 3.21722C153.903 2.61948 154.29 2.09207 154.747 1.63498C155.239 1.14273 155.767 0.755958 156.329 0.474672C156.927 0.158224 157.525 0 158.122 0H182.278C182.946 0 183.28 0.334028 183.28 1.00208V7.75297C183.28 8.42102 182.946 8.75505 182.278 8.75505H162.342V9.49343H182.225C182.893 9.49343 183.227 9.82746 183.227 10.4955V16.6135C183.227 17.2816 182.893 17.6156 182.225 17.6156H162.342V26.1069C162.342 26.775 162.008 27.109 161.34 27.109ZM12.6579 17.3519H24.5774V19.1451H8.4386V8.22764H32.4886C32.8051 8.22764 32.9633 8.06942 32.9633 7.75297V0.791119C32.9633 0.474671 32.8051 0.316447 32.4886 0.316447H4.64123C4.07866 0.316447 3.51608 0.45709 2.95351 0.738378C2.4261 0.984503 1.93385 1.33611 1.47676 1.7932C1.05483 2.21513 0.703217 2.70738 0.42193 3.26996C0.140643 3.83253 0 4.39511 0 4.95768V22.4678C0 23.0655 0.140643 23.6457 0.42193 24.2082C0.703217 24.7357 1.05483 25.2279 1.47676 25.685C1.93385 26.1069 2.4261 26.4585 2.95351 26.7398C3.51608 26.986 4.07866 27.109 4.64123 27.109H28.3748C28.9374 27.109 29.4824 26.986 30.0098 26.7398C30.5724 26.4585 31.0646 26.1069 31.4865 25.685C31.9436 25.2279 32.2952 24.7357 32.5414 24.2082C32.8227 23.6457 32.9633 23.0655 32.9633 22.4678V14.7148C32.9633 14.1522 32.8227 13.5897 32.5414 13.0271C32.2952 12.4645 31.9436 11.9547 31.4865 11.4976C31.0646 11.0405 30.5724 10.6889 30.0098 10.4428C29.4824 10.1615 28.9374 10.0208 28.3748 10.0208H12.6579C12.3415 10.0208 12.1832 10.1966 12.1832 10.5483V16.8772C12.1832 17.1937 12.3415 17.3519 12.6579 17.3519ZM59.3409 9.01876C59.7629 9.01876 59.9738 9.1594 59.9738 9.44069V15.6114H53.223L57.5477 10.3373L57.495 10.39C57.7763 10.0736 58.0751 9.77472 58.3916 9.49343C58.7432 9.17698 59.0596 9.01876 59.3409 9.01876ZM68.3597 26.5816V6.6454C68.3597 5.41477 68.1663 4.39511 67.7795 3.58641C67.4279 2.77771 66.9181 2.12723 66.25 1.63498C65.6171 1.14273 64.826 0.808699 63.8767 0.632894C62.9625 0.421929 61.9428 0.316447 60.8177 0.316447C59.3409 0.316447 57.9169 0.45709 56.5457 0.738378C55.1744 1.01966 54.0492 1.51192 53.1702 2.21513L35.0799 26.2652C34.9745 26.441 34.9569 26.6343 35.0272 26.8453C35.0975 27.0211 35.2558 27.109 35.5019 27.109H44.1514C44.3976 27.109 44.5382 27.0387 44.5734 26.8981L47.7906 22.837H59.9738V26.5816C59.9738 26.9332 60.1496 27.109 60.5012 27.109H67.885C68.2015 27.109 68.3597 26.9332 68.3597 26.5816ZM80.6356 27.109H73.2519C72.9003 27.109 72.7244 26.9332 72.7244 26.5816V4.06108C72.7244 3.60399 72.8475 3.1469 73.0936 2.6898C73.3398 2.23271 73.6738 1.82836 74.0957 1.47675C74.5528 1.12515 75.0626 0.843859 75.6252 0.632894C76.1878 0.421929 76.7855 0.316447 77.4184 0.316447H79.4753C80.495 0.42193 81.4795 0.791119 82.4288 1.42401C83.3782 2.02175 84.1341 2.77771 84.6967 3.69189L92.3969 16.4553L100.15 3.69189C100.712 2.77771 101.451 2.02175 102.365 1.42401C103.314 0.791119 104.299 0.42193 105.319 0.316447H107.375C108.008 0.316447 108.606 0.421929 109.169 0.632894C109.766 0.843859 110.276 1.12515 110.698 1.47675C111.155 1.82836 111.507 2.23271 111.753 2.6898C111.999 3.1469 112.122 3.60399 112.122 4.06108V26.5816C112.122 26.9332 111.946 27.109 111.595 27.109H104.211C103.859 27.109 103.684 26.9332 103.684 26.5816V14.1347C102.207 16.5959 100.836 18.7583 99.5698 20.6218C98.3391 22.4502 97.3898 23.8215 96.7217 24.7357C95.9482 25.7553 95.2274 26.4058 94.5593 26.6871C93.8913 26.9684 93.3639 27.109 92.9771 27.109H91.8695C91.2366 27.109 90.6389 26.9684 90.0763 26.6871C89.5489 26.4058 88.8984 25.7553 88.1249 24.7357C87.4217 23.8215 86.4372 22.4502 85.1714 20.6218C83.9408 18.7583 82.5871 16.5959 81.1103 14.1347V26.5816C81.1103 26.9332 80.9521 27.109 80.6356 27.109ZM127.234 10.0208H140.788V8.22764H124.966V19.1451H148.699C149.016 19.1451 149.174 19.3209 149.174 19.6725V26.5816C149.174 26.9332 149.016 27.109 148.699 27.109H121.169C120.606 27.109 120.043 26.986 119.481 26.7398C118.953 26.4585 118.461 26.1069 118.004 25.685C117.582 25.2279 117.231 24.7357 116.949 24.2082C116.668 23.6457 116.527 23.0655 116.527 22.4678V4.95768C116.527 4.39511 116.668 3.83253 116.949 3.26996C117.231 2.70738 117.582 2.21513 118.004 1.7932C118.461 1.33611 118.953 0.984503 119.481 0.738378C120.043 0.45709 120.606 0.316447 121.169 0.316447H144.586C145.148 0.316447 145.693 0.45709 146.221 0.738378C146.783 0.984503 147.275 1.33611 147.697 1.7932C148.154 2.21513 148.506 2.70738 148.752 3.26996C149.034 3.83253 149.174 4.39511 149.174 4.95768V12.7107C149.174 13.3084 149.034 13.8885 148.752 14.4511C148.506 14.9785 148.154 15.4708 147.697 15.9279C147.275 16.3498 146.783 16.7014 146.221 16.9827C145.693 17.2288 145.148 17.3519 144.586 17.3519H127.234C126.917 17.3519 126.759 17.1937 126.759 16.8772V10.5483C126.759 10.1966 126.917 10.0208 127.234 10.0208ZM195.143 1.58224V26.1069H188.023V1.58224H195.143ZM196.092 26.1069V1.58224C196.092 0.914181 195.776 0.580153 195.143 0.580153H188.023C187.39 0.580153 187.074 0.914181 187.074 1.58224V26.1069C187.074 26.775 187.39 27.109 188.023 27.109H195.143C195.776 27.109 196.092 26.775 196.092 26.1069ZM221.998 13.4495C221.717 13.3001 221.437 13.2254 221.157 13.2254H208.663C208.383 13.2254 208.094 13.3001 207.795 13.4495C207.515 13.5802 207.253 13.767 207.01 14.0098C206.786 14.2339 206.6 14.4953 206.45 14.7941C206.319 15.0929 206.254 15.3918 206.254 15.6906V24.8509C206.254 25.1684 206.319 25.4765 206.45 25.7753C206.6 26.0555 206.786 26.3169 207.01 26.5597C207.253 26.7838 207.515 26.9706 207.795 27.12C208.094 27.2507 208.383 27.316 208.663 27.316H221.157C221.437 27.316 221.717 27.2507 221.998 27.12C222.296 26.9706 222.558 26.7838 222.782 26.5597C223.025 26.3169 223.211 26.0555 223.342 25.7753C223.492 25.4765 223.566 25.1684 223.566 24.8509V15.6906C223.566 15.3918 223.492 15.0929 223.342 14.7941C223.211 14.4953 223.025 14.2339 222.782 14.0098C222.558 13.767 222.296 13.5802 221.998 13.4495ZM210.652 17.3994H219.14V23.1421H210.652V17.3994ZM204.181 23.3662V27.0359C204.181 27.2227 204.097 27.316 203.929 27.316H200.007C199.82 27.316 199.727 27.2227 199.727 27.0359V23.3662C199.727 23.1794 199.82 23.0861 200.007 23.0861H203.929C204.097 23.0861 204.181 23.1794 204.181 23.3662ZM226.298 18.3518H237.896V17.3994H226.298C226.13 17.3994 226.046 17.306 226.046 17.1192V13.5055C226.046 13.3188 226.13 13.2254 226.298 13.2254H239.885C240.165 13.2254 240.445 13.3001 240.725 13.4495C241.024 13.5802 241.285 13.767 241.509 14.0098C241.752 14.2339 241.939 14.4953 242.07 14.7941C242.219 15.0929 242.294 15.3918 242.294 15.6906V19.7525C242.294 20.0513 242.219 20.3501 242.07 20.6489C241.939 20.929 241.752 21.1905 241.509 21.4333C241.285 21.6574 241.024 21.8441 240.725 21.9935C240.445 22.1243 240.165 22.1896 239.885 22.1896H239.324L242.714 26.8959C242.789 26.9892 242.798 27.0826 242.742 27.176C242.705 27.2694 242.621 27.316 242.49 27.316H238.092C237.98 27.316 237.914 27.2787 237.896 27.204L234.002 22.1896H230.444V27.0359C230.444 27.2227 230.36 27.316 230.192 27.316H226.298C226.13 27.316 226.046 27.2227 226.046 27.0359V18.6039C226.046 18.4359 226.13 18.3518 226.298 18.3518ZM251.383 22.1896H257.574V23.1421H249.142V17.3994H261.748C261.916 17.3994 262 17.306 262 17.1192V13.5055C262 13.3188 261.916 13.2254 261.748 13.2254H247.153C246.873 13.2254 246.583 13.3001 246.285 13.4495C246.004 13.5802 245.743 13.767 245.5 14.0098C245.276 14.2339 245.089 14.4953 244.94 14.7941C244.809 15.0929 244.744 15.3918 244.744 15.6906V24.8509C244.744 25.1684 244.809 25.4765 244.94 25.7753C245.089 26.0555 245.276 26.3169 245.5 26.5597C245.743 26.7838 246.004 26.9706 246.285 27.12C246.583 27.2507 246.873 27.316 247.153 27.316H259.591C259.871 27.316 260.151 27.2507 260.431 27.12C260.73 26.9706 260.991 26.7838 261.216 26.5597C261.458 26.3169 261.645 26.0555 261.776 25.7753C261.925 25.4765 262 25.1684 262 24.8509V20.789C262 20.4902 261.925 20.2007 261.776 19.9206C261.645 19.6217 261.458 19.3603 261.216 19.1362C260.991 18.8934 260.73 18.7067 260.431 18.5759C260.151 18.4265 259.871 18.3518 259.591 18.3518H251.383C251.215 18.3518 251.131 18.4359 251.131 18.6039V21.9375C251.131 22.1056 251.215 22.1896 251.383 22.1896Z" fill="#7FF252"/>
<path d="M1.69815 56.6796H3.37997L7.33452 66.3386H7.47088L11.4254 56.6796H13.1072V68.3159H11.7891V59.475H11.6754L8.03906 68.3159H6.76634L3.12997 59.475H3.01634V68.3159H1.69815V56.6796ZM18.3189 68.5205C17.7659 68.5205 17.264 68.4163 16.8132 68.208C16.3625 67.9958 16.0045 67.6909 15.7393 67.2932C15.4742 66.8917 15.3416 66.4068 15.3416 65.8386C15.3416 65.3386 15.4401 64.9333 15.6371 64.6227C15.834 64.3083 16.0973 64.0621 16.4268 63.8841C16.7564 63.7061 17.12 63.5735 17.5178 63.4864C17.9193 63.3955 18.3227 63.3235 18.728 63.2705C19.2583 63.2023 19.6882 63.1511 20.0178 63.1171C20.3511 63.0792 20.5935 63.0167 20.745 62.9296C20.9003 62.8424 20.978 62.6909 20.978 62.475V62.4296C20.978 61.8689 20.8246 61.4333 20.5178 61.1227C20.2147 60.8121 19.7545 60.6568 19.1371 60.6568C18.4969 60.6568 17.995 60.797 17.6314 61.0773C17.2678 61.3576 17.0121 61.6568 16.8643 61.975L15.5916 61.5205C15.8189 60.9902 16.1219 60.5773 16.5007 60.2818C16.8833 59.9826 17.3 59.7743 17.7507 59.6568C18.2053 59.5356 18.6522 59.475 19.0916 59.475C19.3719 59.475 19.6939 59.5091 20.0575 59.5773C20.425 59.6417 20.7791 59.7761 21.12 59.9807C21.4647 60.1852 21.7507 60.4939 21.978 60.9068C22.2053 61.3197 22.3189 61.8727 22.3189 62.5659V68.3159H20.978V67.1341H20.9098C20.8189 67.3235 20.6674 67.5261 20.4553 67.7421C20.2431 67.958 19.9609 68.1417 19.6087 68.2932C19.2564 68.4447 18.8265 68.5205 18.3189 68.5205ZM18.5234 67.3159C19.0537 67.3159 19.5007 67.2118 19.8643 67.0034C20.2318 66.7951 20.5083 66.5261 20.6939 66.1966C20.8833 65.8671 20.978 65.5205 20.978 65.1568V63.9296C20.9212 63.9977 20.7962 64.0602 20.603 64.1171C20.4136 64.1701 20.1939 64.2174 19.9439 64.2591C19.6977 64.297 19.4571 64.3311 19.2223 64.3614C18.9912 64.3879 18.8037 64.4106 18.6598 64.4296C18.3113 64.475 17.9856 64.5489 17.6825 64.6511C17.3833 64.7496 17.1409 64.8993 16.9553 65.1C16.7734 65.297 16.6825 65.5659 16.6825 65.9068C16.6825 66.3727 16.8549 66.725 17.1996 66.9636C17.5481 67.1985 17.9893 67.3159 18.5234 67.3159ZM25.7663 59.5886L27.8572 63.1568L29.9482 59.5886H31.4936L28.6754 63.9523L31.4936 68.3159H29.9482L27.8572 64.9296L25.7663 68.3159H24.2209L26.9936 63.9523L24.2209 59.5886H25.7663ZM33.407 68.3159V59.5886H34.7479V68.3159H33.407ZM34.0888 58.1341C33.8274 58.1341 33.602 58.0451 33.4126 57.8671C33.227 57.689 33.1342 57.475 33.1342 57.225C33.1342 56.975 33.227 56.761 33.4126 56.583C33.602 56.4049 33.8274 56.3159 34.0888 56.3159C34.3501 56.3159 34.5736 56.4049 34.7592 56.583C34.9486 56.761 35.0433 56.975 35.0433 57.225C35.0433 57.475 34.9486 57.689 34.7592 57.8671C34.5736 58.0451 34.3501 58.1341 34.0888 58.1341ZM37.2038 68.3159V59.5886H38.4993V60.9523H38.6129C38.7947 60.4864 39.0883 60.1246 39.4936 59.8671C39.8989 59.6057 40.3857 59.475 40.9538 59.475C41.5296 59.475 42.0088 59.6057 42.3913 59.8671C42.7777 60.1246 43.0788 60.4864 43.2947 60.9523H43.3857C43.6091 60.5015 43.9444 60.1436 44.3913 59.8784C44.8383 59.6095 45.3743 59.475 45.9993 59.475C46.7796 59.475 47.4179 59.7193 47.9141 60.208C48.4103 60.6928 48.6584 61.4485 48.6584 62.475V68.3159H47.3175V62.475C47.3175 61.8311 47.1413 61.3708 46.7891 61.0943C46.4368 60.8178 46.022 60.6796 45.5447 60.6796C44.9311 60.6796 44.4557 60.8652 44.1186 61.2364C43.7815 61.6038 43.6129 62.0697 43.6129 62.6341V68.3159H42.2493V62.3386C42.2493 61.8424 42.0883 61.4428 41.7663 61.1398C41.4444 60.833 41.0296 60.6796 40.522 60.6796C40.1735 60.6796 39.8478 60.7724 39.5447 60.958C39.2455 61.1436 39.0031 61.4011 38.8175 61.7307C38.6357 62.0564 38.5447 62.4333 38.5447 62.8614V68.3159H37.2038ZM56.6101 64.7477V59.5886H57.951V68.3159H56.6101V66.8386H56.5192C56.3146 67.2818 55.9964 67.6587 55.5646 67.9693C55.1328 68.2761 54.5874 68.4296 53.9283 68.4296C53.3828 68.4296 52.898 68.3102 52.4737 68.0716C52.0495 67.8292 51.7161 67.4655 51.4737 66.9807C51.2313 66.4921 51.1101 65.8765 51.1101 65.1341V59.5886H52.451V65.0432C52.451 65.6796 52.629 66.1871 52.9851 66.5659C53.3449 66.9447 53.8033 67.1341 54.3601 67.1341C54.6934 67.1341 55.0324 67.0489 55.3771 66.8784C55.7256 66.708 56.0173 66.4466 56.2521 66.0943C56.4908 65.7421 56.6101 65.2932 56.6101 64.7477ZM60.407 68.3159V59.5886H61.7024V60.9523H61.8161C61.9979 60.4864 62.2914 60.1246 62.6967 59.8671C63.102 59.6057 63.5888 59.475 64.157 59.475C64.7327 59.475 65.2119 59.6057 65.5945 59.8671C65.9808 60.1246 66.282 60.4864 66.4979 60.9523H66.5888C66.8123 60.5015 67.1475 60.1436 67.5945 59.8784C68.0414 59.6095 68.5774 59.475 69.2024 59.475C69.9827 59.475 70.621 59.7193 71.1172 60.208C71.6134 60.6928 71.8615 61.4485 71.8615 62.475V68.3159H70.5206V62.475C70.5206 61.8311 70.3445 61.3708 69.9922 61.0943C69.6399 60.8178 69.2251 60.6796 68.7479 60.6796C68.1342 60.6796 67.6589 60.8652 67.3217 61.2364C66.9846 61.6038 66.8161 62.0697 66.8161 62.6341V68.3159H65.4524V62.3386C65.4524 61.8424 65.2914 61.4428 64.9695 61.1398C64.6475 60.833 64.2327 60.6796 63.7251 60.6796C63.3767 60.6796 63.0509 60.7724 62.7479 60.958C62.4486 61.1436 62.2062 61.4011 62.0206 61.7307C61.8388 62.0564 61.7479 62.4333 61.7479 62.8614V68.3159H60.407ZM82.4723 68.4977C81.6314 68.4977 80.906 68.3121 80.2962 67.9409C79.6901 67.5659 79.2223 67.0432 78.8928 66.3727C78.567 65.6985 78.4041 64.9144 78.4041 64.0205C78.4041 63.1265 78.567 62.3386 78.8928 61.6568C79.2223 60.9712 79.6806 60.4371 80.2678 60.0546C80.8587 59.6682 81.5481 59.475 82.3359 59.475C82.7905 59.475 83.2393 59.5508 83.6825 59.7023C84.1257 59.8538 84.5291 60.1 84.8928 60.4409C85.2564 60.778 85.5462 61.225 85.7621 61.7818C85.978 62.3386 86.0859 63.0243 86.0859 63.8386V64.4068H79.3587V63.2477H84.7223C84.7223 62.7553 84.6238 62.3159 84.4268 61.9296C84.2337 61.5432 83.9571 61.2383 83.5973 61.0148C83.2412 60.7913 82.8208 60.6796 82.3359 60.6796C81.8018 60.6796 81.3397 60.8121 80.9496 61.0773C80.5632 61.3386 80.2659 61.6796 80.0575 62.1C79.8492 62.5205 79.745 62.9712 79.745 63.4523V64.225C79.745 64.8841 79.8587 65.4428 80.0859 65.9011C80.317 66.3557 80.6371 66.7023 81.0462 66.9409C81.4553 67.1758 81.9306 67.2932 82.4723 67.2932C82.8246 67.2932 83.1428 67.2439 83.4268 67.1455C83.7147 67.0432 83.9628 66.8917 84.1712 66.6909C84.3795 66.4864 84.5405 66.2326 84.6541 65.9296L85.9496 66.2932C85.8132 66.7326 85.584 67.1189 85.2621 67.4523C84.9401 67.7818 84.5424 68.0394 84.0689 68.225C83.5954 68.4068 83.0632 68.4977 82.4723 68.4977ZM88.8913 59.5886L90.9822 63.1568L93.0732 59.5886H94.6186L91.8004 63.9523L94.6186 68.3159H93.0732L90.9822 64.9296L88.8913 68.3159H87.3459L90.1186 63.9523L87.3459 59.5886H88.8913ZM96.532 71.5886V59.5886H97.8274V60.975H97.9865C98.085 60.8235 98.2214 60.6303 98.3956 60.3955C98.5736 60.1568 98.8274 59.9447 99.157 59.7591C99.4903 59.5697 99.9411 59.475 100.509 59.475C101.244 59.475 101.892 59.6587 102.452 60.0261C103.013 60.3936 103.451 60.9144 103.765 61.5886C104.079 62.2629 104.237 63.0583 104.237 63.975C104.237 64.8993 104.079 65.7004 103.765 66.3784C103.451 67.0527 103.015 67.5754 102.458 67.9466C101.901 68.314 101.259 68.4977 100.532 68.4977C99.9714 68.4977 99.5225 68.4049 99.1854 68.2193C98.8482 68.0299 98.5888 67.8159 98.407 67.5773C98.2251 67.3349 98.085 67.1341 97.9865 66.975H97.8729V71.5886H96.532ZM97.8501 63.9523C97.8501 64.6114 97.9467 65.1928 98.1399 65.6966C98.3331 66.1966 98.6153 66.5886 98.9865 66.8727C99.3577 67.153 99.8123 67.2932 100.35 67.2932C100.911 67.2932 101.379 67.1455 101.754 66.85C102.132 66.5508 102.416 66.1493 102.606 65.6455C102.799 65.1379 102.896 64.5735 102.896 63.9523C102.896 63.3386 102.801 62.7856 102.612 62.2932C102.426 61.797 102.144 61.4049 101.765 61.1171C101.39 60.8254 100.918 60.6796 100.35 60.6796C99.8047 60.6796 99.3464 60.8178 98.9751 61.0943C98.6039 61.3671 98.3236 61.7496 98.1342 62.2421C97.9448 62.7307 97.8501 63.3008 97.8501 63.9523ZM109.941 68.4977C109.1 68.4977 108.375 68.3121 107.765 67.9409C107.159 67.5659 106.691 67.0432 106.362 66.3727C106.036 65.6985 105.873 64.9144 105.873 64.0205C105.873 63.1265 106.036 62.3386 106.362 61.6568C106.691 60.9712 107.149 60.4371 107.737 60.0546C108.327 59.6682 109.017 59.475 109.805 59.475C110.259 59.475 110.708 59.5508 111.151 59.7023C111.594 59.8538 111.998 60.1 112.362 60.4409C112.725 60.778 113.015 61.225 113.231 61.7818C113.447 62.3386 113.555 63.0243 113.555 63.8386V64.4068H106.827V63.2477H112.191C112.191 62.7553 112.093 62.3159 111.896 61.9296C111.702 61.5432 111.426 61.2383 111.066 61.0148C110.71 60.7913 110.29 60.6796 109.805 60.6796C109.271 60.6796 108.808 60.8121 108.418 61.0773C108.032 61.3386 107.735 61.6796 107.526 62.1C107.318 62.5205 107.214 62.9712 107.214 63.4523V64.225C107.214 64.8841 107.327 65.4428 107.555 65.9011C107.786 66.3557 108.106 66.7023 108.515 66.9409C108.924 67.1758 109.399 67.2932 109.941 67.2932C110.293 67.2932 110.612 67.2439 110.896 67.1455C111.183 67.0432 111.432 66.8917 111.64 66.6909C111.848 66.4864 112.009 66.2326 112.123 65.9296L113.418 66.2932C113.282 66.7326 113.053 67.1189 112.731 67.4523C112.409 67.7818 112.011 68.0394 111.538 68.225C111.064 68.4068 110.532 68.4977 109.941 68.4977ZM115.594 68.3159V59.5886H116.89V60.9068H116.981C117.14 60.475 117.428 60.1246 117.844 59.8557C118.261 59.5868 118.731 59.4523 119.254 59.4523C119.352 59.4523 119.475 59.4542 119.623 59.458C119.771 59.4618 119.882 59.4674 119.958 59.475V60.8386C119.913 60.8273 119.808 60.8102 119.646 60.7875C119.487 60.761 119.318 60.7477 119.14 60.7477C118.716 60.7477 118.337 60.8368 118.004 61.0148C117.674 61.189 117.413 61.4314 117.219 61.7421C117.03 62.0489 116.935 62.3993 116.935 62.7932V68.3159H115.594ZM121.548 68.3159V59.5886H122.888V68.3159H121.548ZM122.229 58.1341C121.968 58.1341 121.743 58.0451 121.553 57.8671C121.368 57.689 121.275 57.475 121.275 57.225C121.275 56.975 121.368 56.761 121.553 56.583C121.743 56.4049 121.968 56.3159 122.229 56.3159C122.491 56.3159 122.714 56.4049 122.9 56.583C123.089 56.761 123.184 56.975 123.184 57.225C123.184 57.475 123.089 57.689 122.9 57.8671C122.714 58.0451 122.491 58.1341 122.229 58.1341ZM129.004 68.4977C128.163 68.4977 127.437 68.3121 126.827 67.9409C126.221 67.5659 125.754 67.0432 125.424 66.3727C125.098 65.6985 124.935 64.9144 124.935 64.0205C124.935 63.1265 125.098 62.3386 125.424 61.6568C125.754 60.9712 126.212 60.4371 126.799 60.0546C127.39 59.6682 128.079 59.475 128.867 59.475C129.322 59.475 129.771 59.5508 130.214 59.7023C130.657 59.8538 131.06 60.1 131.424 60.4409C131.788 60.778 132.077 61.225 132.293 61.7818C132.509 62.3386 132.617 63.0243 132.617 63.8386V64.4068H125.89V63.2477H131.254C131.254 62.7553 131.155 62.3159 130.958 61.9296C130.765 61.5432 130.488 61.2383 130.129 61.0148C129.772 60.7913 129.352 60.6796 128.867 60.6796C128.333 60.6796 127.871 60.8121 127.481 61.0773C127.094 61.3386 126.797 61.6796 126.589 62.1C126.38 62.5205 126.276 62.9712 126.276 63.4523V64.225C126.276 64.8841 126.39 65.4428 126.617 65.9011C126.848 66.3557 127.168 66.7023 127.577 66.9409C127.987 67.1758 128.462 67.2932 129.004 67.2932C129.356 67.2932 129.674 67.2439 129.958 67.1455C130.246 67.0432 130.494 66.8917 130.702 66.6909C130.911 66.4864 131.072 66.2326 131.185 65.9296L132.481 66.2932C132.344 66.7326 132.115 67.1189 131.793 67.4523C131.471 67.7818 131.074 68.0394 130.6 68.225C130.127 68.4068 129.594 68.4977 129.004 68.4977ZM135.998 63.0659V68.3159H134.657V59.5886H135.952V60.9523H136.066C136.271 60.5091 136.581 60.153 136.998 59.8841C137.415 59.6114 137.952 59.475 138.612 59.475C139.202 59.475 139.719 59.5962 140.163 59.8386C140.606 60.0773 140.951 60.4409 141.197 60.9296C141.443 61.4144 141.566 62.028 141.566 62.7705V68.3159H140.225V62.8614C140.225 62.1758 140.047 61.6417 139.691 61.2591C139.335 60.8727 138.846 60.6796 138.225 60.6796C137.797 60.6796 137.415 60.7724 137.077 60.958C136.744 61.1436 136.481 61.4144 136.288 61.7705C136.094 62.1265 135.998 62.5583 135.998 63.0659ZM147.562 68.4977C146.744 68.4977 146.039 68.3046 145.448 67.9182C144.857 67.5318 144.403 66.9996 144.085 66.3216C143.766 65.6436 143.607 64.8689 143.607 63.9977C143.607 63.1114 143.77 62.3292 144.096 61.6511C144.425 60.9693 144.884 60.4371 145.471 60.0546C146.062 59.6682 146.751 59.475 147.539 59.475C148.153 59.475 148.706 59.5886 149.198 59.8159C149.691 60.0432 150.094 60.3614 150.408 60.7705C150.723 61.1796 150.918 61.6568 150.994 62.2023H149.653C149.55 61.8046 149.323 61.4523 148.971 61.1455C148.622 60.8349 148.153 60.6796 147.562 60.6796C147.039 60.6796 146.581 60.8159 146.187 61.0886C145.797 61.3576 145.492 61.7383 145.272 62.2307C145.056 62.7193 144.948 63.2932 144.948 63.9523C144.948 64.6265 145.054 65.2136 145.266 65.7136C145.482 66.2136 145.785 66.6019 146.175 66.8784C146.569 67.1549 147.031 67.2932 147.562 67.2932C147.91 67.2932 148.227 67.2326 148.511 67.1114C148.795 66.9902 149.035 66.8159 149.232 66.5886C149.429 66.3614 149.569 66.0886 149.653 65.7705H150.994C150.918 66.2856 150.73 66.7496 150.431 67.1625C150.136 67.5716 149.744 67.8974 149.255 68.1398C148.77 68.3784 148.206 68.4977 147.562 68.4977ZM156.613 68.4977C155.772 68.4977 155.047 68.3121 154.437 67.9409C153.831 67.5659 153.363 67.0432 153.033 66.3727C152.708 65.6985 152.545 64.9144 152.545 64.0205C152.545 63.1265 152.708 62.3386 153.033 61.6568C153.363 60.9712 153.821 60.4371 154.408 60.0546C154.999 59.6682 155.689 59.475 156.477 59.475C156.931 59.475 157.38 59.5508 157.823 59.7023C158.266 59.8538 158.67 60.1 159.033 60.4409C159.397 60.778 159.687 61.225 159.903 61.7818C160.119 62.3386 160.227 63.0243 160.227 63.8386V64.4068H153.499V63.2477H158.863C158.863 62.7553 158.764 62.3159 158.567 61.9296C158.374 61.5432 158.098 61.2383 157.738 61.0148C157.382 60.7913 156.961 60.6796 156.477 60.6796C155.942 60.6796 155.48 60.8121 155.09 61.0773C154.704 61.3386 154.406 61.6796 154.198 62.1C153.99 62.5205 153.886 62.9712 153.886 63.4523V64.225C153.886 64.8841 153.999 65.4428 154.227 65.9011C154.458 66.3557 154.778 66.7023 155.187 66.9409C155.596 67.1758 156.071 67.2932 156.613 67.2932C156.965 67.2932 157.283 67.2439 157.567 67.1455C157.855 67.0432 158.103 66.8917 158.312 66.6909C158.52 66.4864 158.681 66.2326 158.795 65.9296L160.09 66.2932C159.954 66.7326 159.725 67.1189 159.403 67.4523C159.081 67.7818 158.683 68.0394 158.21 68.225C157.736 68.4068 157.204 68.4977 156.613 68.4977ZM164.266 66.725L164.175 67.3386C164.111 67.7705 164.013 68.2326 163.88 68.725C163.751 69.2174 163.617 69.6814 163.477 70.1171C163.336 70.5527 163.221 70.8993 163.13 71.1568H162.107C162.156 70.9144 162.221 70.5943 162.3 70.1966C162.38 69.7989 162.46 69.3538 162.539 68.8614C162.622 68.3727 162.691 67.8727 162.744 67.3614L162.812 66.725H164.266ZM171.251 68.3159V59.5886H172.546V60.9523H172.66C172.842 60.4864 173.135 60.1246 173.54 59.8671C173.946 59.6057 174.433 59.475 175.001 59.475C175.576 59.475 176.056 59.6057 176.438 59.8671C176.825 60.1246 177.126 60.4864 177.342 60.9523H177.433C177.656 60.5015 177.991 60.1436 178.438 59.8784C178.885 59.6095 179.421 59.475 180.046 59.475C180.826 59.475 181.465 59.7193 181.961 60.208C182.457 60.6928 182.705 61.4485 182.705 62.475V68.3159H181.364V62.475C181.364 61.8311 181.188 61.3708 180.836 61.0943C180.484 60.8178 180.069 60.6796 179.592 60.6796C178.978 60.6796 178.503 60.8652 178.165 61.2364C177.828 61.6038 177.66 62.0697 177.66 62.6341V68.3159H176.296V62.3386C176.296 61.8424 176.135 61.4428 175.813 61.1398C175.491 60.833 175.076 60.6796 174.569 60.6796C174.22 60.6796 173.895 60.7724 173.592 60.958C173.292 61.1436 173.05 61.4011 172.864 61.7307C172.683 62.0564 172.592 62.4333 172.592 62.8614V68.3159H171.251ZM187.725 68.5205C187.172 68.5205 186.67 68.4163 186.219 68.208C185.769 67.9958 185.411 67.6909 185.146 67.2932C184.88 66.8917 184.748 66.4068 184.748 65.8386C184.748 65.3386 184.846 64.9333 185.043 64.6227C185.24 64.3083 185.504 64.0621 185.833 63.8841C186.163 63.7061 186.526 63.5735 186.924 63.4864C187.326 63.3955 187.729 63.3235 188.134 63.2705C188.665 63.2023 189.094 63.1511 189.424 63.1171C189.757 63.0792 190 63.0167 190.151 62.9296C190.307 62.8424 190.384 62.6909 190.384 62.475V62.4296C190.384 61.8689 190.231 61.4333 189.924 61.1227C189.621 60.8121 189.161 60.6568 188.543 60.6568C187.903 60.6568 187.401 60.797 187.038 61.0773C186.674 61.3576 186.418 61.6568 186.271 61.975L184.998 61.5205C185.225 60.9902 185.528 60.5773 185.907 60.2818C186.29 59.9826 186.706 59.7743 187.157 59.6568C187.612 59.5356 188.058 59.475 188.498 59.475C188.778 59.475 189.1 59.5091 189.464 59.5773C189.831 59.6417 190.185 59.7761 190.526 59.9807C190.871 60.1852 191.157 60.4939 191.384 60.9068C191.612 61.3197 191.725 61.8727 191.725 62.5659V68.3159H190.384V67.1341H190.316C190.225 67.3235 190.074 67.5261 189.862 67.7421C189.649 67.958 189.367 68.1417 189.015 68.2932C188.663 68.4447 188.233 68.5205 187.725 68.5205ZM187.93 67.3159C188.46 67.3159 188.907 67.2118 189.271 67.0034C189.638 66.7951 189.915 66.5261 190.1 66.1966C190.29 65.8671 190.384 65.5205 190.384 65.1568V63.9296C190.327 63.9977 190.202 64.0602 190.009 64.1171C189.82 64.1701 189.6 64.2174 189.35 64.2591C189.104 64.297 188.863 64.3311 188.629 64.3614C188.397 64.3879 188.21 64.4106 188.066 64.4296C187.718 64.475 187.392 64.5489 187.089 64.6511C186.79 64.7496 186.547 64.8993 186.362 65.1C186.18 65.297 186.089 65.5659 186.089 65.9068C186.089 66.3727 186.261 66.725 186.606 66.9636C186.954 67.1985 187.396 67.3159 187.93 67.3159ZM195.173 59.5886L197.263 63.1568L199.354 59.5886H200.9L198.082 63.9523L200.9 68.3159H199.354L197.263 64.9296L195.173 68.3159H193.627L196.4 63.9523L193.627 59.5886H195.173ZM202.813 68.3159V59.5886H204.154V68.3159H202.813ZM203.495 58.1341C203.234 58.1341 203.008 58.0451 202.819 57.8671C202.633 57.689 202.54 57.475 202.54 57.225C202.54 56.975 202.633 56.761 202.819 56.583C203.008 56.4049 203.234 56.3159 203.495 56.3159C203.756 56.3159 203.98 56.4049 204.165 56.583C204.355 56.761 204.45 56.975 204.45 57.225C204.45 57.475 204.355 57.689 204.165 57.8671C203.98 58.0451 203.756 58.1341 203.495 58.1341ZM206.61 68.3159V59.5886H207.906V60.9523H208.019C208.201 60.4864 208.495 60.1246 208.9 59.8671C209.305 59.6057 209.792 59.475 210.36 59.475C210.936 59.475 211.415 59.6057 211.798 59.8671C212.184 60.1246 212.485 60.4864 212.701 60.9523H212.792C213.015 60.5015 213.351 60.1436 213.798 59.8784C214.245 59.6095 214.781 59.475 215.406 59.475C216.186 59.475 216.824 59.7193 217.32 60.208C217.817 60.6928 218.065 61.4485 218.065 62.475V68.3159H216.724V62.475C216.724 61.8311 216.548 61.3708 216.195 61.0943C215.843 60.8178 215.428 60.6796 214.951 60.6796C214.337 60.6796 213.862 60.8652 213.525 61.2364C213.188 61.6038 213.019 62.0697 213.019 62.6341V68.3159H211.656V62.3386C211.656 61.8424 211.495 61.4428 211.173 61.1398C210.851 60.833 210.436 60.6796 209.928 60.6796C209.58 60.6796 209.254 60.7724 208.951 60.958C208.652 61.1436 208.409 61.4011 208.224 61.7307C208.042 62.0564 207.951 62.4333 207.951 62.8614V68.3159H206.61ZM226.016 64.7477V59.5886H227.357V68.3159H226.016V66.8386H225.925C225.721 67.2818 225.403 67.6587 224.971 67.9693C224.539 68.2761 223.994 68.4296 223.335 68.4296C222.789 68.4296 222.304 68.3102 221.88 68.0716C221.456 67.8292 221.122 67.4655 220.88 66.9807C220.638 66.4921 220.516 65.8765 220.516 65.1341V59.5886H221.857V65.0432C221.857 65.6796 222.035 66.1871 222.391 66.5659C222.751 66.9447 223.21 67.1341 223.766 67.1341C224.1 67.1341 224.439 67.0489 224.783 66.8784C225.132 66.708 225.424 66.4466 225.658 66.0943C225.897 65.7421 226.016 65.2932 226.016 64.7477ZM229.813 68.3159V59.5886H231.109V60.9523H231.222C231.404 60.4864 231.698 60.1246 232.103 59.8671C232.508 59.6057 232.995 59.475 233.563 59.475C234.139 59.475 234.618 59.6057 235.001 59.8671C235.387 60.1246 235.688 60.4864 235.904 60.9523H235.995C236.219 60.5015 236.554 60.1436 237.001 59.8784C237.448 59.6095 237.984 59.475 238.609 59.475C239.389 59.475 240.027 59.7193 240.523 60.208C241.02 60.6928 241.268 61.4485 241.268 62.475V68.3159H239.927V62.475C239.927 61.8311 239.751 61.3708 239.398 61.0943C239.046 60.8178 238.631 60.6796 238.154 60.6796C237.54 60.6796 237.065 60.8652 236.728 61.2364C236.391 61.6038 236.222 62.0697 236.222 62.6341V68.3159H234.859V62.3386C234.859 61.8424 234.698 61.4428 234.376 61.1398C234.054 60.833 233.639 60.6796 233.131 60.6796C232.783 60.6796 232.457 60.7724 232.154 60.958C231.855 61.1436 231.612 61.4011 231.427 61.7307C231.245 62.0564 231.154 62.4333 231.154 62.8614V68.3159H229.813ZM248.219 68.3159V59.5886H249.56V68.3159H248.219ZM248.901 58.1341C248.64 58.1341 248.415 58.0451 248.225 57.8671C248.04 57.689 247.947 57.475 247.947 57.225C247.947 56.975 248.04 56.761 248.225 56.583C248.415 56.4049 248.64 56.3159 248.901 56.3159C249.163 56.3159 249.386 56.4049 249.572 56.583C249.761 56.761 249.856 56.975 249.856 57.225C249.856 57.475 249.761 57.689 249.572 57.8671C249.386 58.0451 249.163 58.1341 248.901 58.1341ZM253.357 63.0659V68.3159H252.016V59.5886H253.312V60.9523H253.425C253.63 60.5091 253.941 60.153 254.357 59.8841C254.774 59.6114 255.312 59.475 255.971 59.475C256.562 59.475 257.079 59.5962 257.522 59.8386C257.965 60.0773 258.31 60.4409 258.556 60.9296C258.802 61.4144 258.925 62.028 258.925 62.7705V68.3159H257.585V62.8614C257.585 62.1758 257.406 61.6417 257.05 61.2591C256.694 60.8727 256.206 60.6796 255.585 60.6796C255.156 60.6796 254.774 60.7724 254.437 60.958C254.103 61.1436 253.84 61.4144 253.647 61.7705C253.454 62.1265 253.357 62.5583 253.357 63.0659ZM268.2 59.5886L264.972 68.3159H263.609L260.381 59.5886H261.836L264.245 66.5432H264.336L266.745 59.5886H268.2ZM273.316 68.4977C272.475 68.4977 271.75 68.3121 271.14 67.9409C270.534 67.5659 270.066 67.0432 269.737 66.3727C269.411 65.6985 269.248 64.9144 269.248 64.0205C269.248 63.1265 269.411 62.3386 269.737 61.6568C270.066 60.9712 270.524 60.4371 271.112 60.0546C271.702 59.6682 272.392 59.475 273.18 59.475C273.634 59.475 274.083 59.5508 274.526 59.7023C274.969 59.8538 275.373 60.1 275.737 60.4409C276.1 60.778 276.39 61.225 276.606 61.7818C276.822 62.3386 276.93 63.0243 276.93 63.8386V64.4068H270.202V63.2477H275.566C275.566 62.7553 275.468 62.3159 275.271 61.9296C275.077 61.5432 274.801 61.2383 274.441 61.0148C274.085 60.7913 273.665 60.6796 273.18 60.6796C272.646 60.6796 272.183 60.8121 271.793 61.0773C271.407 61.3386 271.11 61.6796 270.901 62.1C270.693 62.5205 270.589 62.9712 270.589 63.4523V64.225C270.589 64.8841 270.702 65.4428 270.93 65.9011C271.161 66.3557 271.481 66.7023 271.89 66.9409C272.299 67.1758 272.774 67.2932 273.316 67.2932C273.668 67.2932 273.987 67.2439 274.271 67.1455C274.558 67.0432 274.807 66.8917 275.015 66.6909C275.223 66.4864 275.384 66.2326 275.498 65.9296L276.793 66.2932C276.657 66.7326 276.428 67.1189 276.106 67.4523C275.784 67.7818 275.386 68.0394 274.913 68.225C274.439 68.4068 273.907 68.4977 273.316 68.4977ZM285.151 61.5432L283.947 61.8841C283.871 61.6833 283.759 61.4883 283.612 61.2989C283.468 61.1057 283.271 60.9466 283.021 60.8216C282.771 60.6966 282.451 60.6341 282.06 60.6341C281.526 60.6341 281.081 60.7572 280.725 61.0034C280.373 61.2458 280.197 61.5546 280.197 61.9296C280.197 62.2629 280.318 62.5261 280.56 62.7193C280.803 62.9125 281.182 63.0735 281.697 63.2023L282.992 63.5205C283.772 63.7099 284.354 63.9996 284.737 64.3898C285.119 64.7761 285.31 65.2743 285.31 65.8841C285.31 66.3841 285.166 66.8311 284.879 67.225C284.594 67.6189 284.197 67.9296 283.685 68.1568C283.174 68.3841 282.579 68.4977 281.901 68.4977C281.011 68.4977 280.274 68.3046 279.691 67.9182C279.108 67.5318 278.738 66.9674 278.583 66.225L279.856 65.9068C279.977 66.3765 280.206 66.7288 280.543 66.9636C280.884 67.1985 281.329 67.3159 281.879 67.3159C282.504 67.3159 283 67.1833 283.367 66.9182C283.738 66.6493 283.924 66.3273 283.924 65.9523C283.924 65.6493 283.818 65.3955 283.606 65.1909C283.394 64.9826 283.068 64.8273 282.629 64.725L281.174 64.3841C280.375 64.1947 279.788 63.9011 279.413 63.5034C279.041 63.1019 278.856 62.6 278.856 61.9977C278.856 61.5053 278.994 61.0697 279.271 60.6909C279.551 60.3121 279.932 60.0148 280.413 59.7989C280.897 59.583 281.447 59.475 282.06 59.475C282.924 59.475 283.602 59.6644 284.094 60.0432C284.591 60.422 284.943 60.922 285.151 61.5432ZM291.124 59.5886V60.725H286.602V59.5886H291.124ZM287.92 57.4977H289.261V65.8159C289.261 66.1947 289.316 66.4788 289.425 66.6682C289.539 66.8538 289.683 66.9788 289.857 67.0432C290.035 67.1038 290.223 67.1341 290.42 67.1341C290.567 67.1341 290.689 67.1265 290.783 67.1114C290.878 67.0924 290.954 67.0773 291.011 67.0659L291.283 68.2705C291.192 68.3046 291.066 68.3386 290.903 68.3727C290.74 68.4106 290.533 68.4296 290.283 68.4296C289.905 68.4296 289.533 68.3481 289.17 68.1852C288.81 68.0224 288.511 67.7743 288.272 67.4409C288.037 67.1076 287.92 66.6871 287.92 66.1796V57.4977ZM293.141 68.3159V59.5886H294.437V60.9523H294.55C294.732 60.4864 295.026 60.1246 295.431 59.8671C295.836 59.6057 296.323 59.475 296.891 59.475C297.467 59.475 297.946 59.6057 298.329 59.8671C298.715 60.1246 299.016 60.4864 299.232 60.9523H299.323C299.547 60.5015 299.882 60.1436 300.329 59.8784C300.776 59.6095 301.312 59.475 301.937 59.475C302.717 59.475 303.355 59.7193 303.852 60.208C304.348 60.6928 304.596 61.4485 304.596 62.475V68.3159H303.255V62.475C303.255 61.8311 303.079 61.3708 302.727 61.0943C302.374 60.8178 301.96 60.6796 301.482 60.6796C300.869 60.6796 300.393 60.8652 300.056 61.2364C299.719 61.6038 299.55 62.0697 299.55 62.6341V68.3159H298.187V62.3386C298.187 61.8424 298.026 61.4428 297.704 61.1398C297.382 60.833 296.967 60.6796 296.46 60.6796C296.111 60.6796 295.785 60.7724 295.482 60.958C295.183 61.1436 294.941 61.4011 294.755 61.7307C294.573 62.0564 294.482 62.4333 294.482 62.8614V68.3159H293.141ZM310.707 68.4977C309.866 68.4977 309.14 68.3121 308.531 67.9409C307.924 67.5659 307.457 67.0432 307.127 66.3727C306.801 65.6985 306.638 64.9144 306.638 64.0205C306.638 63.1265 306.801 62.3386 307.127 61.6568C307.457 60.9712 307.915 60.4371 308.502 60.0546C309.093 59.6682 309.782 59.475 310.57 59.475C311.025 59.475 311.474 59.5508 311.917 59.7023C312.36 59.8538 312.763 60.1 313.127 60.4409C313.491 60.778 313.781 61.225 313.996 61.7818C314.212 62.3386 314.32 63.0243 314.32 63.8386V64.4068H307.593V63.2477H312.957C312.957 62.7553 312.858 62.3159 312.661 61.9296C312.468 61.5432 312.192 61.2383 311.832 61.0148C311.476 60.7913 311.055 60.6796 310.57 60.6796C310.036 60.6796 309.574 60.8121 309.184 61.0773C308.798 61.3386 308.5 61.6796 308.292 62.1C308.084 62.5205 307.979 62.9712 307.979 63.4523V64.225C307.979 64.8841 308.093 65.4428 308.32 65.9011C308.551 66.3557 308.871 66.7023 309.281 66.9409C309.69 67.1758 310.165 67.2932 310.707 67.2932C311.059 67.2932 311.377 67.2439 311.661 67.1455C311.949 67.0432 312.197 66.8917 312.406 66.6909C312.614 66.4864 312.775 66.2326 312.888 65.9296L314.184 66.2932C314.048 66.7326 313.818 67.1189 313.496 67.4523C313.174 67.7818 312.777 68.0394 312.303 68.225C311.83 68.4068 311.298 68.4977 310.707 68.4977ZM317.701 63.0659V68.3159H316.36V59.5886H317.656V60.9523H317.769C317.974 60.5091 318.284 60.153 318.701 59.8841C319.118 59.6114 319.656 59.475 320.315 59.475C320.906 59.475 321.423 59.5962 321.866 59.8386C322.309 60.0773 322.654 60.4409 322.9 60.9296C323.146 61.4144 323.269 62.028 323.269 62.7705V68.3159H321.928V62.8614C321.928 62.1758 321.75 61.6417 321.394 61.2591C321.038 60.8727 320.549 60.6796 319.928 60.6796C319.5 60.6796 319.118 60.7724 318.781 60.958C318.447 61.1436 318.184 61.4144 317.991 61.7705C317.798 62.1265 317.701 62.5583 317.701 63.0659ZM329.515 59.5886V60.725H324.992V59.5886H329.515ZM326.31 57.4977H327.651V65.8159C327.651 66.1947 327.706 66.4788 327.816 66.6682C327.93 66.8538 328.074 66.9788 328.248 67.0432C328.426 67.1038 328.613 67.1341 328.81 67.1341C328.958 67.1341 329.079 67.1265 329.174 67.1114C329.269 67.0924 329.344 67.0773 329.401 67.0659L329.674 68.2705C329.583 68.3046 329.456 68.3386 329.293 68.3727C329.13 68.4106 328.924 68.4296 328.674 68.4296C328.295 68.4296 327.924 68.3481 327.56 68.1852C327.201 68.0224 326.901 67.7743 326.663 67.4409C326.428 67.1076 326.31 66.6871 326.31 66.1796V57.4977ZM332.509 68.4068C332.229 68.4068 331.988 68.3064 331.788 68.1057C331.587 67.9049 331.487 67.6644 331.487 67.3841C331.487 67.1038 331.587 66.8633 331.788 66.6625C331.988 66.4618 332.229 66.3614 332.509 66.3614C332.79 66.3614 333.03 66.4618 333.231 66.6625C333.432 66.8633 333.532 67.1038 333.532 67.3841C333.532 67.5697 333.485 67.7402 333.39 67.8955C333.299 68.0508 333.176 68.1758 333.021 68.2705C332.869 68.3614 332.699 68.4068 332.509 68.4068Z" fill="white"/>
</svg>
