<svg width="49" height="49" viewBox="0 0 49 49" fill="none" xmlns="http://www.w3.org/2000/svg">
<g clip-path="url(#clip0_1208_360)">
<path fill-rule="evenodd" clip-rule="evenodd" d="M0.875 24.9419C0.875 11.7419 11.675 0.941895 24.875 0.941895C38.075 0.941895 48.875 11.7419 48.875 24.9419C48.875 38.1419 38.075 48.9419 24.875 48.9419C11.675 48.9419 0.875 38.1419 0.875 24.9419ZM13.2119 33.1396C14.2936 33.6745 15.5488 33.9419 16.9774 33.9419C18.4265 33.9419 19.6714 33.6745 20.7123 33.1396C21.7736 32.5842 22.6002 31.8128 23.192 30.8253C23.7839 29.8173 24.0798 28.6345 24.0798 27.2768V24.2322H16.4264V27.5648H20.215C20.1666 28.4757 19.8834 29.1923 19.3653 29.7145C18.8143 30.2905 18.0183 30.5785 16.9774 30.5785C15.9366 30.5785 15.1304 30.2905 14.5589 29.7145C13.9875 29.1385 13.7017 28.3259 13.7017 27.2768V22.5762C13.7017 21.527 13.9875 20.7248 14.5589 20.1693C15.1304 19.6139 15.9366 19.3362 16.9774 19.3362C18.0183 19.3362 18.8143 19.6139 19.3653 20.1693C19.9368 20.7248 20.2225 21.5373 20.2225 22.607H24.0798C24.0798 21.2288 23.7839 20.0459 23.192 19.0585C22.6002 18.071 21.7736 17.3099 20.7123 16.775C19.6714 16.2196 18.4265 15.9419 16.9774 15.9419C15.5488 15.9419 14.2936 16.2196 13.2119 16.775C12.1506 17.3099 11.3241 18.071 10.7322 19.0585C10.1607 20.0459 9.875 21.2288 9.875 22.607V27.2768C9.875 28.6345 10.1607 29.8173 10.7322 30.8253C11.3241 31.8128 12.1506 32.5842 13.2119 33.1396ZM39.875 16.2505H25.9763V33.6333H29.803V26.855H39.079V23.2756H29.7418V19.8299H39.875V16.2505Z" fill="#7FF252"/>
</g>
<defs>
<clipPath id="clip0_1208_360">
<rect width="48" height="48" fill="white" transform="translate(0.875 0.941895)"/>
</clipPath>
</defs>
</svg>
