<svg width="45" height="37" viewBox="0 0 45 37" fill="none" xmlns="http://www.w3.org/2000/svg">
<path id="&#239;&#147;&#188;" d="M19.2234 22.3169C25.8272 22.3169 31.1928 27.8013 31.1928 34.5513C31.1928 35.8872 30.0922 36.9419 28.7852 36.9419H2.71385C1.40685 36.9419 0.375 35.8872 0.375 34.5513C0.375 27.8013 5.67181 22.3169 12.2756 22.3169H19.2234ZM15.7839 18.9419C10.8998 18.9419 6.97882 14.9341 6.97882 9.94189C6.97882 5.02002 10.8998 0.941895 15.7839 0.941895C20.5992 0.941895 24.589 5.02002 24.589 9.94189C24.589 14.9341 20.5992 18.9419 15.7839 18.9419ZM43.8501 10.4341C44.538 11.0669 44.538 12.1216 43.9189 12.8247L36.7648 20.6997C36.4896 21.0513 36.0081 21.1919 35.5954 21.1919C35.1138 21.1919 34.7011 21.0513 34.4259 20.6997L30.5737 16.7622C29.8858 16.1294 29.8858 15.0747 30.5737 14.4419C31.1928 13.7388 32.2247 13.7388 32.8438 14.4419L35.5266 17.1138L41.5113 10.5044C42.1304 9.80127 43.1622 9.80127 43.8501 10.4341Z" fill="#7FF252"/>
</svg>
