<svg width="67" height="55" viewBox="0 0 67 55" fill="none" xmlns="http://www.w3.org/2000/svg">
<g id="&#239;&#161;&#156;" filter="url(#filter0_d_1208_702)">
<path d="M33.625 36.4419C20.8672 36.4419 10.625 30.7752 10.625 23.6919C10.625 16.6971 20.8672 10.9419 33.625 10.9419C46.293 10.9419 56.625 16.6971 56.625 23.6919C56.625 30.7752 46.293 36.4419 33.625 36.4419ZM18.3516 27.3221C19.4297 28.2961 20.8672 29.0929 22.3945 29.6242C25.3594 30.8638 29.3125 31.4836 33.625 31.4836C37.8477 31.4836 41.8008 30.8638 44.8555 29.6242C46.293 29.0929 47.7305 28.2961 48.8086 27.3221C49.8867 26.2596 50.875 24.8429 50.875 22.9836C50.875 21.2127 49.8867 19.7961 48.8086 18.7336C47.7305 17.7596 46.293 16.9627 44.8555 16.3429C41.8008 15.1919 37.8477 14.4836 33.625 14.4836C29.3125 14.4836 25.3594 15.1919 22.3945 16.3429C20.8672 16.9627 19.4297 17.7596 18.3516 18.7336C17.2734 19.7961 16.375 21.2127 16.375 22.9836C16.375 24.8429 17.2734 26.2596 18.3516 27.3221ZM19.25 22.9836C19.25 19.8846 25.6289 17.3169 33.625 17.3169C41.5312 17.3169 48 19.8846 48 22.9836C48 26.1711 41.5312 28.6502 33.625 28.6502C25.6289 28.6502 19.25 26.1711 19.25 22.9836ZM10.625 31.0409C11.793 32.369 13.2305 33.6086 14.9375 34.5825V40.2492C12.1523 38.3898 10.625 36.0877 10.625 33.6086V31.0409ZM17.8125 41.8429V36.1763C20.3281 37.3273 23.2031 38.2127 26.4375 38.744V44.4106C23.1133 43.8794 20.2383 42.994 17.8125 41.8429ZM29.3125 44.7648V39.0981C30.6602 39.2752 32.0977 39.3638 33.625 39.3638C35.0625 39.3638 36.5 39.2752 37.9375 39.0981V44.7648C36.5 44.9419 35.0625 44.9419 33.625 44.9419C32.0977 44.9419 30.6602 44.9419 29.3125 44.7648ZM40.8125 44.4106V38.744C43.957 38.2127 46.832 37.3273 49.4375 36.1763V41.9315C46.9219 42.994 44.0469 43.8794 40.8125 44.4106ZM52.3125 40.2492V34.5825C53.9297 33.6086 55.3672 32.369 56.625 31.0409V33.6086C56.625 36.0877 55.0078 38.3898 52.3125 40.2492Z" fill="#7FF252"/>
</g>
<defs>
<filter id="filter0_d_1208_702" x="0.625" y="0.941895" width="66" height="54" filterUnits="userSpaceOnUse" color-interpolation-filters="sRGB">
<feFlood flood-opacity="0" result="BackgroundImageFix"/>
<feColorMatrix in="SourceAlpha" type="matrix" values="0 0 0 0 0 0 0 0 0 0 0 0 0 0 0 0 0 0 127 0" result="hardAlpha"/>
<feOffset/>
<feGaussianBlur stdDeviation="5"/>
<feComposite in2="hardAlpha" operator="out"/>
<feColorMatrix type="matrix" values="0 0 0 0 0 0 0 0 0 0 0 0 0 0 0 0 0 0 0.2 0"/>
<feBlend mode="normal" in2="BackgroundImageFix" result="effect1_dropShadow_1208_702"/>
<feBlend mode="normal" in="SourceGraphic" in2="effect1_dropShadow_1208_702" result="shape"/>
</filter>
</defs>
</svg>
