<svg width="43" height="43" viewBox="0 0 43 43" fill="none" xmlns="http://www.w3.org/2000/svg">
<path id="&#239;&#140;&#182;" d="M42.125 21.9419C42.125 24.977 40.6484 27.602 38.2695 29.0786C38.8438 31.7856 38.1055 34.7388 35.9727 36.7896C33.9219 38.9224 30.9687 39.7427 28.2617 39.1685C26.7031 41.4653 24.1602 42.9419 21.125 42.9419C18.1719 42.9419 15.5469 41.4653 13.9883 39.1685C11.2812 39.7427 8.41016 38.9224 6.27734 36.7896C4.22656 34.7388 3.40625 31.7856 3.98047 29.0786C1.68359 27.602 0.125 24.977 0.125 21.9419C0.125 18.9888 1.68359 16.3638 3.98047 14.8872C3.40625 12.1802 4.22656 9.22705 6.27734 7.09424C8.41016 5.04346 11.3633 4.22314 13.9883 4.79736C15.5469 2.50049 18.1719 0.941895 21.125 0.941895C24.1602 0.941895 26.7031 2.50049 28.2617 4.79736C30.9687 4.22314 33.9219 5.04346 35.9727 7.09424C38.1055 9.22705 38.8438 12.1802 38.2695 14.8872C40.5664 16.3638 42.125 18.9888 42.125 21.9419ZM29.082 18.7427C29.9023 18.0044 29.9023 16.7739 29.082 16.0356C28.3437 15.2153 27.1133 15.2153 26.375 16.0356L18.582 23.8286L15.957 21.2856C15.2187 20.4653 13.9883 20.4653 13.25 21.2856C12.4297 22.0239 12.4297 23.2544 13.25 23.9927L17.1875 27.9302C17.5156 28.3403 18.0078 28.5044 18.582 28.5044C19.0742 28.5044 19.5664 28.3403 19.8945 27.9302L29.082 18.7427Z" fill="#7FF252"/>
</svg>
