<svg width="50" height="41" viewBox="0 0 50 41" fill="none" xmlns="http://www.w3.org/2000/svg">
<path d="M27.6563 5.19531L31.7188 5.82031C32.0833 5.8724 32.3177 6.08073 32.4219 6.44531C32.5781 6.75781 32.526 7.04427 32.2656 7.30469L29.2969 10.1953L30 14.2578C30 14.6224 29.8698 14.9089 29.6094 15.1172C29.349 15.3255 29.0365 15.3516 28.6719 15.1953L25 13.3203L21.3281 15.2734C20.9635 15.4297 20.651 15.4036 20.3906 15.1953C20.1302 14.987 20.026 14.7005 20.0781 14.3359L20.7813 10.1953L17.8125 7.30469C17.5521 7.04427 17.474 6.73177 17.5781 6.36719C17.6823 6.05469 17.9167 5.8724 18.2813 5.82031L22.3438 5.19531L24.2188 1.44531C24.4271 1.13281 24.6875 0.976562 25 0.976562C25.3646 0.976562 25.625 1.13281 25.7813 1.44531L27.6563 5.19531ZM20 20.9766H30C30.7292 20.9766 31.3281 21.2109 31.7969 21.6797C32.2656 22.1484 32.5 22.7474 32.5 23.4766V38.4766C32.5 39.2057 32.2656 39.8047 31.7969 40.2734C31.3281 40.7422 30.7292 40.9766 30 40.9766H20C19.2708 40.9766 18.6719 40.7422 18.2031 40.2734C17.7344 39.8047 17.5 39.2057 17.5 38.4766V23.4766C17.5 22.7474 17.7344 22.1484 18.2031 21.6797C18.6719 21.2109 19.2708 20.9766 20 20.9766ZM2.5 25.9766H12.5C13.2292 25.9766 13.8281 26.2109 14.2969 26.6797C14.7656 27.1484 15 27.7474 15 28.4766V38.4766C15 39.2057 14.7656 39.8047 14.2969 40.2734C13.8281 40.7422 13.2292 40.9766 12.5 40.9766H2.5C1.77083 40.9766 1.17188 40.7422 0.703125 40.2734C0.234375 39.8047 0 39.2057 0 38.4766V28.4766C0 27.7474 0.234375 27.1484 0.703125 26.6797C1.17188 26.2109 1.77083 25.9766 2.5 25.9766ZM35 33.4766C35 32.7474 35.2344 32.1484 35.7031 31.6797C36.1719 31.2109 36.7708 30.9766 37.5 30.9766H47.5C48.2292 30.9766 48.8281 31.2109 49.2969 31.6797C49.7656 32.1484 50 32.7474 50 33.4766V38.4766C50 39.2057 49.7656 39.8047 49.2969 40.2734C48.8281 40.7422 48.2292 40.9766 47.5 40.9766H37.5C36.7708 40.9766 36.1719 40.7422 35.7031 40.2734C35.2344 39.8047 35 39.2057 35 38.4766V33.4766Z" fill="white"/>
</svg>
