<svg width="40" height="50" viewBox="0 0 40 50" fill="none" xmlns="http://www.w3.org/2000/svg">
<path d="M8.10065 36.8848H1.34101C0.436731 36.8848 -0.209713 36.0723 0.063064 35.2737L6.69192 15.8206C6.86754 15.3055 7.3832 14.9529 7.96986 14.9529H14.7332C15.6375 14.9529 16.284 15.7653 16.0112 16.5639L9.38232 36.0205C9.2067 36.5356 8.69104 36.8882 8.10438 36.8882L8.10065 36.8848Z" fill="white"/>
<path d="M16.8558 36.8848H13.3022C12.3979 36.8848 11.7515 36.0723 12.0242 35.2737L18.6531 15.8206C18.8287 15.302 19.3481 14.9529 19.931 14.9529H24.1161C26.2983 14.9529 27.8528 16.9131 27.1951 18.8387L22.3076 33.1857C21.5565 35.3878 19.3519 36.8848 16.8558 36.8848Z" fill="white"/>
<path d="M32.0265 36.8848H25.2631C24.3588 36.8848 23.7124 36.0723 23.9852 35.2737L30.6178 15.8206C30.7934 15.3055 31.3091 14.9529 31.8957 14.9529H38.6591C39.5634 14.9529 40.2098 15.7653 39.937 16.5639L33.3082 36.0205C33.1326 36.5356 32.6169 36.8882 32.0302 36.8882L32.0265 36.8848Z" fill="white"/>
</svg>
