<svg width="450" height="160" viewBox="0 0 450 160" fill="none" xmlns="http://www.w3.org/2000/svg">
<path d="M40.1006 91.885H33.341C32.4367 91.885 31.7903 91.0726 32.0631 90.274L38.6919 70.8209C38.8675 70.3057 39.3832 69.9531 39.9699 69.9531H46.7332C47.6375 69.9531 48.284 70.7655 48.0112 71.5641L41.3823 91.0207C41.2067 91.5358 40.691 91.8885 40.1044 91.8885L40.1006 91.885Z" fill="white"/>
<path d="M48.8555 91.885H45.3019C44.3977 91.885 43.7512 91.0726 44.024 90.274L50.6529 70.8209C50.8285 70.3023 51.3479 69.9531 51.9308 69.9531H56.1159C58.2981 69.9531 59.8525 71.9133 59.1949 73.8389L54.3073 88.1859C53.5563 90.3881 51.3516 91.885 48.8555 91.885Z" fill="white"/>
<path d="M64.0263 91.885H57.2629C56.3586 91.885 55.7122 91.0726 55.9849 90.274L62.6175 70.8209C62.7932 70.3057 63.3088 69.9531 63.8955 69.9531H70.6588C71.5631 69.9531 72.2096 70.7655 71.9368 71.5641L65.3079 91.0207C65.1323 91.5358 64.6167 91.8885 64.03 91.8885L64.0263 91.885Z" fill="white"/>
<path d="M102.42 59H97.2642V44.4545H102.463C103.926 44.4545 105.186 44.7457 106.241 45.3281C107.297 45.9058 108.109 46.7367 108.678 47.821C109.25 48.9053 109.537 50.2027 109.537 51.7131C109.537 53.2282 109.25 54.5303 108.678 55.6193C108.109 56.7083 107.293 57.544 106.227 58.1264C105.167 58.7088 103.898 59 102.42 59ZM100.339 56.3651H102.293C103.202 56.3651 103.966 56.2041 104.587 55.8821C105.212 55.5554 105.68 55.0511 105.993 54.3693C106.31 53.6828 106.469 52.7973 106.469 51.7131C106.469 50.6383 106.31 49.7599 105.993 49.0781C105.68 48.3963 105.214 47.8944 104.594 47.5724C103.973 47.2505 103.209 47.0895 102.3 47.0895H100.339V56.3651ZM111.758 59V48.0909H114.642V50.0156H114.77C114.997 49.3764 115.376 48.8722 115.906 48.5028C116.436 48.1335 117.071 47.9489 117.809 47.9489C118.557 47.9489 119.194 48.1359 119.72 48.5099C120.245 48.8793 120.596 49.3812 120.771 50.0156H120.885C121.107 49.3906 121.51 48.8911 122.092 48.517C122.679 48.1383 123.373 47.9489 124.173 47.9489C125.191 47.9489 126.017 48.2732 126.652 48.9219C127.291 49.5658 127.61 50.4796 127.61 51.6634V59H124.592V52.2599C124.592 51.6539 124.431 51.1993 124.109 50.8963C123.787 50.5933 123.385 50.4418 122.902 50.4418C122.352 50.4418 121.924 50.617 121.616 50.9673C121.308 51.313 121.154 51.7699 121.154 52.3381V59H118.221V52.196C118.221 51.661 118.067 51.2348 117.76 50.9176C117.457 50.6004 117.056 50.4418 116.559 50.4418C116.223 50.4418 115.92 50.527 115.65 50.6974C115.385 50.8632 115.174 51.0975 115.018 51.4006C114.862 51.6989 114.784 52.0492 114.784 52.4517V59H111.758ZM130 59V48.0909H133.026V59H130ZM131.52 46.6847C131.07 46.6847 130.685 46.5355 130.363 46.2372C130.045 45.9342 129.887 45.572 129.887 45.1506C129.887 44.7339 130.045 44.3764 130.363 44.0781C130.685 43.7751 131.07 43.6236 131.52 43.6236C131.97 43.6236 132.354 43.7751 132.671 44.0781C132.993 44.3764 133.154 44.7339 133.154 45.1506C133.154 45.572 132.993 45.9342 132.671 46.2372C132.354 46.5355 131.97 46.6847 131.52 46.6847ZM144.526 51.2017L141.756 51.3722C141.709 51.1354 141.607 50.9223 141.451 50.733C141.295 50.5388 141.089 50.3849 140.833 50.2713C140.582 50.1529 140.281 50.0938 139.931 50.0938C139.462 50.0938 139.067 50.1932 138.745 50.392C138.423 50.5862 138.262 50.8466 138.262 51.1733C138.262 51.4337 138.366 51.6539 138.575 51.8338C138.783 52.0137 139.14 52.1581 139.647 52.267L141.621 52.6648C142.682 52.8826 143.473 53.233 143.994 53.7159C144.514 54.1989 144.775 54.8333 144.775 55.6193C144.775 56.3343 144.564 56.9616 144.143 57.5014C143.726 58.0412 143.153 58.4626 142.424 58.7656C141.7 59.0639 140.864 59.2131 139.917 59.2131C138.473 59.2131 137.322 58.9124 136.465 58.3111C135.613 57.705 135.113 56.8812 134.967 55.8395L137.942 55.6832C138.032 56.1236 138.25 56.4598 138.596 56.6918C138.942 56.919 139.384 57.0327 139.924 57.0327C140.454 57.0327 140.88 56.9309 141.202 56.7273C141.529 56.5189 141.695 56.2514 141.7 55.9247C141.695 55.6501 141.579 55.4252 141.352 55.25C141.124 55.0701 140.774 54.9328 140.3 54.8381L138.411 54.4616C137.346 54.2486 136.553 53.8793 136.032 53.3537C135.516 52.8281 135.258 52.1581 135.258 51.3438C135.258 50.643 135.447 50.0393 135.826 49.5327C136.21 49.026 136.747 48.6354 137.438 48.3608C138.134 48.0862 138.949 47.9489 139.881 47.9489C141.259 47.9489 142.344 48.2401 143.134 48.8224C143.93 49.4048 144.394 50.1979 144.526 51.2017ZM155.757 51.2017L152.987 51.3722C152.94 51.1354 152.838 50.9223 152.681 50.733C152.525 50.5388 152.319 50.3849 152.064 50.2713C151.813 50.1529 151.512 50.0938 151.162 50.0938C150.693 50.0938 150.297 50.1932 149.975 50.392C149.654 50.5862 149.493 50.8466 149.493 51.1733C149.493 51.4337 149.597 51.6539 149.805 51.8338C150.013 52.0137 150.371 52.1581 150.877 52.267L152.852 52.6648C153.913 52.8826 154.703 53.233 155.224 53.7159C155.745 54.1989 156.005 54.8333 156.005 55.6193C156.005 56.3343 155.795 56.9616 155.373 57.5014C154.957 58.0412 154.384 58.4626 153.654 58.7656C152.93 59.0639 152.094 59.2131 151.147 59.2131C149.703 59.2131 148.553 58.9124 147.696 58.3111C146.843 57.705 146.344 56.8812 146.197 55.8395L149.173 55.6832C149.263 56.1236 149.481 56.4598 149.826 56.6918C150.172 56.919 150.615 57.0327 151.154 57.0327C151.685 57.0327 152.111 56.9309 152.433 56.7273C152.76 56.5189 152.925 56.2514 152.93 55.9247C152.925 55.6501 152.809 55.4252 152.582 55.25C152.355 55.0701 152.004 54.9328 151.531 54.8381L149.642 54.4616C148.576 54.2486 147.783 53.8793 147.262 53.3537C146.746 52.8281 146.488 52.1581 146.488 51.3438C146.488 50.643 146.678 50.0393 147.056 49.5327C147.44 49.026 147.977 48.6354 148.669 48.3608C149.365 48.0862 150.179 47.9489 151.112 47.9489C152.49 47.9489 153.574 48.2401 154.365 48.8224C155.16 49.4048 155.624 50.1979 155.757 51.2017ZM157.911 59V48.0909H160.936V59H157.911ZM159.43 46.6847C158.981 46.6847 158.595 46.5355 158.273 46.2372C157.955 45.9342 157.797 45.572 157.797 45.1506C157.797 44.7339 157.955 44.3764 158.273 44.0781C158.595 43.7751 158.981 43.6236 159.43 43.6236C159.88 43.6236 160.264 43.7751 160.581 44.0781C160.903 44.3764 161.064 44.7339 161.064 45.1506C161.064 45.572 160.903 45.9342 160.581 46.2372C160.264 46.5355 159.88 46.6847 159.43 46.6847ZM168.289 59.2131C167.185 59.2131 166.231 58.9787 165.426 58.5099C164.626 58.0365 164.008 57.3783 163.573 56.5355C163.137 55.688 162.919 54.7055 162.919 53.5881C162.919 52.4612 163.137 51.4763 163.573 50.6335C164.008 49.786 164.626 49.1278 165.426 48.6591C166.231 48.1856 167.185 47.9489 168.289 47.9489C169.392 47.9489 170.344 48.1856 171.144 48.6591C171.949 49.1278 172.569 49.786 173.005 50.6335C173.44 51.4763 173.658 52.4612 173.658 53.5881C173.658 54.7055 173.44 55.688 173.005 56.5355C172.569 57.3783 171.949 58.0365 171.144 58.5099C170.344 58.9787 169.392 59.2131 168.289 59.2131ZM168.303 56.8693C168.805 56.8693 169.224 56.7273 169.56 56.4432C169.896 56.1544 170.15 55.7614 170.32 55.2642C170.495 54.767 170.583 54.2012 170.583 53.5668C170.583 52.9323 170.495 52.3665 170.32 51.8693C170.15 51.3722 169.896 50.9792 169.56 50.6903C169.224 50.4015 168.805 50.2571 168.303 50.2571C167.796 50.2571 167.37 50.4015 167.025 50.6903C166.684 50.9792 166.426 51.3722 166.25 51.8693C166.08 52.3665 165.995 52.9323 165.995 53.5668C165.995 54.2012 166.08 54.767 166.25 55.2642C166.426 55.7614 166.684 56.1544 167.025 56.4432C167.37 56.7273 167.796 56.8693 168.303 56.8693ZM178.651 52.6932V59H175.625V48.0909H178.509V50.0156H178.637C178.878 49.3812 179.283 48.8793 179.851 48.5099C180.419 48.1359 181.108 47.9489 181.918 47.9489C182.676 47.9489 183.336 48.1146 183.9 48.446C184.463 48.7775 184.901 49.2509 185.213 49.8665C185.526 50.4773 185.682 51.2064 185.682 52.054V59H182.657V52.5938C182.661 51.9261 182.491 51.4053 182.145 51.0312C181.8 50.6525 181.324 50.4631 180.718 50.4631C180.31 50.4631 179.951 50.5507 179.638 50.7259C179.33 50.901 179.089 51.1567 178.914 51.4929C178.743 51.8243 178.656 52.2244 178.651 52.6932Z" fill="white"/>
<rect x="195" y="38" width="102" height="28" rx="14" fill="#00F0FF" fill-opacity="0.1"/>
<path d="M215.009 50.0348C214.913 49.7332 214.784 49.4631 214.621 49.2244C214.462 48.9825 214.272 48.777 214.05 48.608C213.828 48.4356 213.574 48.3047 213.289 48.2152C213.007 48.1257 212.697 48.081 212.359 48.081C211.786 48.081 211.269 48.2285 210.808 48.5234C210.348 48.8184 209.983 49.2509 209.714 49.821C209.449 50.3878 209.317 51.0821 209.317 51.9041C209.317 52.7294 209.451 53.4271 209.719 53.9972C209.988 54.5672 210.356 54.9998 210.823 55.2947C211.29 55.5897 211.822 55.7372 212.419 55.7372C212.973 55.7372 213.455 55.6245 213.866 55.3991C214.28 55.1738 214.6 54.8556 214.825 54.4446C215.054 54.0303 215.168 53.5431 215.168 52.983L215.566 53.0575H212.653V51.7898H216.655V52.9482C216.655 53.8033 216.473 54.5457 216.108 55.1754C215.747 55.8018 215.246 56.2857 214.607 56.6271C213.97 56.9685 213.241 57.1392 212.419 57.1392C211.498 57.1392 210.689 56.9271 209.993 56.5028C209.3 56.0786 208.76 55.477 208.372 54.6982C207.984 53.916 207.79 52.9879 207.79 51.9141C207.79 51.102 207.903 50.3729 208.129 49.7266C208.354 49.0803 208.67 48.5317 209.078 48.081C209.489 47.6269 209.971 47.2805 210.525 47.0419C211.082 46.8 211.69 46.679 212.349 46.679C212.9 46.679 213.412 46.7602 213.886 46.9226C214.363 47.085 214.787 47.3153 215.158 47.6136C215.533 47.9119 215.843 48.2666 216.088 48.6776C216.333 49.0852 216.499 49.5376 216.585 50.0348H215.009ZM220.708 57.169C220.224 57.169 219.787 57.0795 219.395 56.9006C219.004 56.7183 218.694 56.4548 218.466 56.1101C218.24 55.7654 218.128 55.3428 218.128 54.8423C218.128 54.4115 218.211 54.0568 218.376 53.7784C218.542 53.5 218.766 53.2796 219.047 53.1172C219.329 52.9548 219.644 52.8321 219.992 52.7493C220.34 52.6664 220.695 52.6035 221.056 52.5604C221.513 52.5073 221.885 52.4643 222.17 52.4311C222.455 52.3946 222.662 52.3366 222.791 52.2571C222.92 52.1776 222.985 52.0483 222.985 51.8693V51.8345C222.985 51.4003 222.862 51.0639 222.617 50.8253C222.375 50.5866 222.014 50.4673 221.533 50.4673C221.033 50.4673 220.638 50.5784 220.35 50.8004C220.065 51.0192 219.868 51.2628 219.758 51.5312L218.361 51.2131C218.527 50.7491 218.769 50.3745 219.087 50.0895C219.409 49.8011 219.778 49.5923 220.196 49.4631C220.613 49.3305 221.053 49.2642 221.513 49.2642C221.818 49.2642 222.141 49.3007 222.483 49.3736C222.827 49.4432 223.149 49.5724 223.447 49.7614C223.749 49.9503 223.996 50.2204 224.188 50.5717C224.38 50.9197 224.476 51.3722 224.476 51.929V57H223.025V55.956H222.965C222.869 56.1482 222.725 56.3371 222.532 56.5227C222.34 56.7083 222.093 56.8625 221.792 56.9851C221.49 57.1077 221.129 57.169 220.708 57.169ZM221.031 55.9759C221.442 55.9759 221.793 55.8946 222.085 55.7322C222.38 55.5698 222.604 55.3577 222.756 55.0959C222.912 54.8307 222.99 54.5473 222.99 54.2457V53.2614C222.937 53.3144 222.834 53.3641 222.682 53.4105C222.532 53.4536 222.362 53.4917 222.17 53.5249C221.977 53.5547 221.79 53.5829 221.608 53.6094C221.425 53.6326 221.273 53.6525 221.15 53.669C220.862 53.7055 220.599 53.7668 220.36 53.853C220.125 53.9392 219.936 54.0634 219.793 54.2259C219.654 54.3849 219.584 54.5971 219.584 54.8622C219.584 55.2301 219.72 55.5085 219.992 55.6974C220.264 55.883 220.61 55.9759 221.031 55.9759ZM226.456 57V49.3636H227.883V50.6065H227.978C228.137 50.1856 228.397 49.8575 228.758 49.6222C229.119 49.3835 229.552 49.2642 230.056 49.2642C230.566 49.2642 230.994 49.3835 231.338 49.6222C231.686 49.8608 231.943 50.1889 232.109 50.6065H232.189C232.371 50.1989 232.661 49.8741 233.059 49.6321C233.456 49.3868 233.93 49.2642 234.48 49.2642C235.173 49.2642 235.738 49.4813 236.176 49.9155C236.617 50.3497 236.837 51.0043 236.837 51.8793V57H235.35V52.0185C235.35 51.5014 235.21 51.1269 234.928 50.8949C234.646 50.6629 234.31 50.5469 233.919 50.5469C233.435 50.5469 233.059 50.696 232.79 50.9943C232.522 51.2893 232.387 51.6688 232.387 52.1328V57H230.906V51.924C230.906 51.5097 230.777 51.1766 230.518 50.9247C230.26 50.6728 229.923 50.5469 229.509 50.5469C229.227 50.5469 228.967 50.6214 228.728 50.7706C228.493 50.9164 228.302 51.1203 228.157 51.3821C228.014 51.6439 227.943 51.9472 227.943 52.2919V57H226.456ZM242.121 57.1541C241.368 57.1541 240.72 56.9934 240.177 56.6719C239.636 56.3471 239.219 55.8913 238.924 55.3047C238.632 54.7147 238.486 54.0237 238.486 53.2315C238.486 52.4493 238.632 51.7599 238.924 51.1634C239.219 50.5668 239.63 50.1011 240.157 49.7663C240.687 49.4316 241.307 49.2642 242.016 49.2642C242.447 49.2642 242.865 49.3355 243.269 49.478C243.673 49.6205 244.036 49.8442 244.358 50.1491C244.679 50.4541 244.933 50.8501 245.118 51.3374C245.304 51.8213 245.397 52.4096 245.397 53.1023V53.6293H239.327V52.5156H243.94C243.94 52.1245 243.861 51.7782 243.702 51.4766C243.542 51.1716 243.319 50.9313 243.03 50.7557C242.745 50.58 242.411 50.4922 242.026 50.4922C241.608 50.4922 241.244 50.5949 240.932 50.8004C240.624 51.0026 240.385 51.2678 240.216 51.5959C240.051 51.9207 239.968 52.2737 239.968 52.6548V53.5249C239.968 54.0353 240.057 54.4695 240.236 54.8274C240.419 55.1854 240.672 55.4588 240.997 55.6477C241.322 55.8333 241.701 55.9261 242.135 55.9261C242.417 55.9261 242.674 55.8864 242.906 55.8068C243.138 55.724 243.339 55.6013 243.508 55.4389C243.677 55.2765 243.806 55.076 243.895 54.8374L245.302 55.0909C245.19 55.5052 244.988 55.8681 244.696 56.1797C244.407 56.4879 244.045 56.7282 243.607 56.9006C243.173 57.0696 242.677 57.1541 242.121 57.1541ZM248.448 57L245.624 46.8182H247.24L249.224 54.7031H249.318L251.381 46.8182H252.982L255.045 54.7081H255.14L257.119 46.8182H258.739L255.911 57H254.364L252.222 49.3736H252.142L249.999 57H248.448ZM262.485 57.1541C261.77 57.1541 261.145 56.9901 260.611 56.6619C260.078 56.3338 259.663 55.8748 259.368 55.2848C259.073 54.6948 258.926 54.0054 258.926 53.2166C258.926 52.4245 259.073 51.7318 259.368 51.1385C259.663 50.5452 260.078 50.0845 260.611 49.7564C261.145 49.4283 261.77 49.2642 262.485 49.2642C263.201 49.2642 263.826 49.4283 264.36 49.7564C264.893 50.0845 265.308 50.5452 265.603 51.1385C265.898 51.7318 266.045 52.4245 266.045 53.2166C266.045 54.0054 265.898 54.6948 265.603 55.2848C265.308 55.8748 264.893 56.3338 264.36 56.6619C263.826 56.9901 263.201 57.1541 262.485 57.1541ZM262.49 55.9062C262.954 55.9062 263.339 55.7836 263.644 55.5384C263.949 55.2931 264.174 54.9666 264.32 54.5589C264.469 54.1513 264.544 53.7022 264.544 53.2116C264.544 52.7244 264.469 52.277 264.32 51.8693C264.174 51.4583 263.949 51.1286 263.644 50.88C263.339 50.6314 262.954 50.5071 262.49 50.5071C262.023 50.5071 261.635 50.6314 261.327 50.88C261.022 51.1286 260.795 51.4583 260.646 51.8693C260.5 52.277 260.427 52.7244 260.427 53.2116C260.427 53.7022 260.5 54.1513 260.646 54.5589C260.795 54.9666 261.022 55.2931 261.327 55.5384C261.635 55.7836 262.023 55.9062 262.49 55.9062ZM267.704 57V49.3636H269.141V50.5767H269.221C269.36 50.1657 269.605 49.8426 269.956 49.6072C270.311 49.3686 270.712 49.2493 271.16 49.2493C271.252 49.2493 271.362 49.2526 271.488 49.2592C271.617 49.2659 271.718 49.2741 271.791 49.2841V50.706C271.731 50.6894 271.625 50.6712 271.473 50.6513C271.32 50.6281 271.168 50.6165 271.015 50.6165C270.664 50.6165 270.351 50.6911 270.076 50.8402C269.804 50.986 269.589 51.1899 269.43 51.4517C269.27 51.7102 269.191 52.0052 269.191 52.3366V57H267.704ZM274.564 46.8182V57H273.077V46.8182H274.564ZM279.422 57.1491C278.806 57.1491 278.256 56.9917 277.772 56.6768C277.291 56.3587 276.913 55.9062 276.638 55.3196C276.367 54.7296 276.231 54.022 276.231 53.1967C276.231 52.3714 276.368 51.6655 276.643 51.0788C276.922 50.4922 277.303 50.0431 277.787 49.7315C278.271 49.42 278.819 49.2642 279.432 49.2642C279.906 49.2642 280.287 49.3438 280.576 49.5028C280.867 49.6586 281.093 49.8409 281.252 50.0497C281.414 50.2585 281.54 50.4425 281.63 50.6016H281.719V46.8182H283.206V57H281.754V55.8118H281.63C281.54 55.9742 281.411 56.1598 281.242 56.3686C281.076 56.5774 280.848 56.7597 280.556 56.9155C280.264 57.0713 279.886 57.1491 279.422 57.1491ZM279.751 55.8814C280.178 55.8814 280.539 55.7687 280.834 55.5433C281.133 55.3146 281.358 54.9981 281.51 54.5938C281.666 54.1894 281.744 53.7187 281.744 53.1818C281.744 52.6515 281.668 52.1875 281.515 51.7898C281.363 51.392 281.139 51.0821 280.844 50.8601C280.549 50.638 280.185 50.527 279.751 50.527C279.303 50.527 278.93 50.643 278.632 50.875C278.334 51.107 278.108 51.4235 277.956 51.8246C277.807 52.2256 277.732 52.678 277.732 53.1818C277.732 53.6922 277.808 54.1513 277.961 54.5589C278.113 54.9666 278.339 55.2898 278.637 55.5284C278.939 55.7637 279.31 55.8814 279.751 55.8814Z" fill="#00F0FF"/>
<path d="M310.25 57L308.654 54.592L307.24 57H305.14L307.674 53.108L305.112 49.244H307.324L308.906 51.638L310.334 49.244H312.434L309.886 53.108L312.462 57H310.25Z" fill="white"/>
<rect x="321" y="38" width="68" height="28" rx="14" fill="#FF5B43" fill-opacity="0.1"/>
<path d="M333.616 48.1406V46.8182H341.496V48.1406H338.32V57H336.788V48.1406H333.616ZM344.302 57.169C343.818 57.169 343.38 57.0795 342.989 56.9006C342.598 56.7183 342.288 56.4548 342.059 56.1101C341.834 55.7654 341.721 55.3428 341.721 54.8423C341.721 54.4115 341.804 54.0568 341.97 53.7784C342.136 53.5 342.359 53.2796 342.641 53.1172C342.923 52.9548 343.238 52.8321 343.586 52.7493C343.934 52.6664 344.288 52.6035 344.65 52.5604C345.107 52.5073 345.478 52.4643 345.763 52.4311C346.048 52.3946 346.256 52.3366 346.385 52.2571C346.514 52.1776 346.579 52.0483 346.579 51.8693V51.8345C346.579 51.4003 346.456 51.0639 346.211 50.8253C345.969 50.5866 345.608 50.4673 345.127 50.4673C344.626 50.4673 344.232 50.5784 343.944 50.8004C343.659 51.0192 343.461 51.2628 343.352 51.5312L341.955 51.2131C342.121 50.7491 342.363 50.3745 342.681 50.0895C343.002 49.8011 343.372 49.5923 343.79 49.4631C344.207 49.3305 344.646 49.2642 345.107 49.2642C345.412 49.2642 345.735 49.3007 346.077 49.3736C346.421 49.4432 346.743 49.5724 347.041 49.7614C347.343 49.9503 347.59 50.2204 347.782 50.5717C347.974 50.9197 348.07 51.3722 348.07 51.929V57H346.618V55.956H346.559C346.463 56.1482 346.318 56.3371 346.126 56.5227C345.934 56.7083 345.687 56.8625 345.385 56.9851C345.084 57.1077 344.723 57.169 344.302 57.169ZM344.625 55.9759C345.036 55.9759 345.387 55.8946 345.679 55.7322C345.974 55.5698 346.198 55.3577 346.35 55.0959C346.506 54.8307 346.584 54.5473 346.584 54.2457V53.2614C346.531 53.3144 346.428 53.3641 346.275 53.4105C346.126 53.4536 345.956 53.4917 345.763 53.5249C345.571 53.5547 345.384 53.5829 345.202 53.6094C345.019 53.6326 344.867 53.6525 344.744 53.669C344.456 53.7055 344.192 53.7668 343.954 53.853C343.718 53.9392 343.529 54.0634 343.387 54.2259C343.248 54.3849 343.178 54.5971 343.178 54.8622C343.178 55.2301 343.314 55.5085 343.586 55.6974C343.858 55.883 344.204 55.9759 344.625 55.9759ZM355.772 51.228L354.425 51.4666C354.369 51.2943 354.279 51.1302 354.157 50.9744C354.037 50.8187 353.875 50.6911 353.669 50.5916C353.464 50.4922 353.207 50.4425 352.899 50.4425C352.478 50.4425 352.127 50.5369 351.845 50.7259C351.563 50.9115 351.422 51.1518 351.422 51.4467C351.422 51.7019 351.517 51.9074 351.706 52.0632C351.895 52.219 352.199 52.3466 352.62 52.446L353.833 52.7244C354.536 52.8868 355.06 53.1371 355.404 53.4751C355.749 53.8132 355.922 54.2524 355.922 54.7926C355.922 55.25 355.789 55.6577 355.524 56.0156C355.262 56.3703 354.896 56.6487 354.425 56.8509C353.958 57.053 353.416 57.1541 352.799 57.1541C351.944 57.1541 351.247 56.9718 350.706 56.6072C350.166 56.2393 349.835 55.7173 349.712 55.0412L351.149 54.8224C351.238 55.197 351.422 55.4804 351.701 55.6726C351.979 55.8615 352.342 55.956 352.789 55.956C353.277 55.956 353.666 55.8549 353.958 55.6527C354.249 55.4472 354.395 55.197 354.395 54.902C354.395 54.6634 354.306 54.4628 354.127 54.3004C353.951 54.138 353.681 54.0154 353.316 53.9325L352.024 53.6491C351.311 53.4867 350.784 53.2282 350.443 52.8736C350.105 52.5189 349.936 52.0698 349.936 51.5263C349.936 51.0755 350.062 50.6811 350.314 50.343C350.565 50.005 350.913 49.7415 351.358 49.5526C351.802 49.3603 352.31 49.2642 352.884 49.2642C353.709 49.2642 354.359 49.4432 354.833 49.8011C355.307 50.1558 355.62 50.6314 355.772 51.228ZM358.923 54.4098L358.913 52.5952H359.172L362.214 49.3636H363.994L360.524 53.0426H360.29L358.923 54.4098ZM357.556 57V46.8182H359.042V57H357.556ZM362.378 57L359.644 53.3707L360.668 52.3317L364.203 57H362.378ZM365.468 57V46.8182H371.782V48.1406H367.004V51.2429H371.33V52.5604H367.004V57H365.468ZM373.552 57V49.3636H375.039V57H373.552ZM374.303 48.1854C374.044 48.1854 373.822 48.0992 373.637 47.9268C373.454 47.7512 373.363 47.5424 373.363 47.3004C373.363 47.0552 373.454 46.8464 373.637 46.674C373.822 46.4983 374.044 46.4105 374.303 46.4105C374.561 46.4105 374.782 46.4983 374.964 46.674C375.15 46.8464 375.242 47.0552 375.242 47.3004C375.242 47.5424 375.15 47.7512 374.964 47.9268C374.782 48.0992 374.561 48.1854 374.303 48.1854Z" fill="#FF5B43"/>
<path d="M97.6506 97H96.358L100.097 86.8182H101.369L105.108 97H103.815L100.773 88.429H100.693L97.6506 97ZM98.1278 93.0227H103.338V94.1165H98.1278V93.0227ZM107.708 92.4062V97H106.535V89.3636H107.668V90.5568H107.768C107.947 90.169 108.219 89.8575 108.583 89.6222C108.948 89.3835 109.418 89.2642 109.995 89.2642C110.512 89.2642 110.964 89.3703 111.352 89.5824C111.74 89.7912 112.042 90.1094 112.257 90.5369C112.473 90.9612 112.58 91.4981 112.58 92.1477V97H111.407V92.2273C111.407 91.6274 111.251 91.16 110.94 90.8253C110.628 90.4872 110.201 90.3182 109.657 90.3182C109.282 90.3182 108.948 90.3994 108.653 90.5618C108.361 90.7242 108.131 90.9612 107.962 91.2727C107.793 91.5843 107.708 91.9621 107.708 92.4062ZM118.821 97V86.8182H124.966V87.9119H120.054V91.3523H124.648V92.446H120.054V95.9062H125.045V97H118.821ZM128.202 92.4062V97H127.029V89.3636H128.162V90.5568H128.262C128.441 90.169 128.713 89.8575 129.077 89.6222C129.442 89.3835 129.912 89.2642 130.489 89.2642C131.006 89.2642 131.459 89.3703 131.846 89.5824C132.234 89.7912 132.536 90.1094 132.751 90.5369C132.967 90.9612 133.074 91.4981 133.074 92.1477V97H131.901V92.2273C131.901 91.6274 131.745 91.16 131.434 90.8253C131.122 90.4872 130.695 90.3182 130.151 90.3182C129.777 90.3182 129.442 90.3994 129.147 90.5618C128.855 90.7242 128.625 90.9612 128.456 91.2727C128.287 91.5843 128.202 91.9621 128.202 92.4062ZM138.301 100.023C137.734 100.023 137.247 99.9498 136.839 99.804C136.431 99.6615 136.092 99.4725 135.82 99.2372C135.551 99.0052 135.338 98.7566 135.179 98.4915L136.113 97.8352C136.219 97.9744 136.354 98.1335 136.516 98.3125C136.678 98.4948 136.9 98.6522 137.182 98.7848C137.467 98.9207 137.84 98.9886 138.301 98.9886C138.917 98.9886 139.426 98.8395 139.827 98.5412C140.228 98.2429 140.429 97.7756 140.429 97.1392V95.5881H140.329C140.243 95.7273 140.12 95.8996 139.961 96.1051C139.806 96.3073 139.58 96.4879 139.285 96.647C138.993 96.8028 138.599 96.8807 138.102 96.8807C137.485 96.8807 136.932 96.7348 136.441 96.4432C135.954 96.1515 135.568 95.7273 135.283 95.1705C135.001 94.6136 134.86 93.9375 134.86 93.142C134.86 92.3598 134.998 91.6787 135.273 91.0987C135.548 90.5154 135.931 90.0646 136.422 89.7464C136.912 89.425 137.479 89.2642 138.122 89.2642C138.619 89.2642 139.013 89.3471 139.305 89.5128C139.6 89.6752 139.825 89.8608 139.981 90.0696C140.14 90.2751 140.263 90.4441 140.349 90.5767H140.468V89.3636H141.602V97.2188C141.602 97.875 141.453 98.4086 141.154 98.8196C140.859 99.2339 140.462 99.5372 139.961 99.7294C139.464 99.925 138.911 100.023 138.301 100.023ZM138.261 95.8267C138.732 95.8267 139.129 95.719 139.454 95.5036C139.779 95.2881 140.026 94.9782 140.195 94.5739C140.364 94.1695 140.449 93.6856 140.449 93.1222C140.449 92.572 140.366 92.0864 140.2 91.6655C140.034 91.2446 139.789 90.9148 139.464 90.6761C139.139 90.4375 138.738 90.3182 138.261 90.3182C137.764 90.3182 137.35 90.4441 137.018 90.696C136.69 90.9479 136.443 91.286 136.277 91.7102C136.115 92.1345 136.034 92.6051 136.034 93.1222C136.034 93.6525 136.117 94.1214 136.282 94.5291C136.451 94.9335 136.7 95.2517 137.028 95.4837C137.359 95.7124 137.77 95.8267 138.261 95.8267ZM145.997 97.179C145.513 97.179 145.074 97.0878 144.679 96.9055C144.285 96.7199 143.972 96.4531 143.74 96.1051C143.508 95.7538 143.392 95.3295 143.392 94.8324C143.392 94.3949 143.478 94.0402 143.65 93.7685C143.823 93.4934 144.053 93.2779 144.341 93.1222C144.63 92.9664 144.948 92.8504 145.296 92.7741C145.647 92.6946 146 92.6316 146.355 92.5852C146.819 92.5256 147.195 92.4808 147.483 92.451C147.775 92.4179 147.987 92.3632 148.12 92.2869C148.256 92.2107 148.324 92.0781 148.324 91.8892V91.8494C148.324 91.3589 148.189 90.9777 147.921 90.706C147.656 90.4342 147.253 90.2983 146.713 90.2983C146.153 90.2983 145.713 90.4209 145.395 90.6662C145.077 90.9115 144.853 91.1733 144.724 91.4517L143.61 91.054C143.809 90.59 144.074 90.2287 144.406 89.9702C144.741 89.7083 145.105 89.526 145.5 89.4233C145.897 89.3172 146.288 89.2642 146.673 89.2642C146.918 89.2642 147.2 89.294 147.518 89.3537C147.84 89.41 148.15 89.5277 148.448 89.7067C148.749 89.8857 149 90.1558 149.199 90.517C149.397 90.8783 149.497 91.3622 149.497 91.9688V97H148.324V95.9659H148.264C148.184 96.1316 148.052 96.3089 147.866 96.4979C147.681 96.6868 147.434 96.8475 147.125 96.9801C146.817 97.1127 146.441 97.179 145.997 97.179ZM146.176 96.125C146.64 96.125 147.031 96.0339 147.349 95.8516C147.671 95.6693 147.913 95.4339 148.075 95.1456C148.241 94.8572 148.324 94.554 148.324 94.2358V93.1619C148.274 93.2216 148.164 93.2763 147.995 93.326C147.83 93.3724 147.637 93.4138 147.419 93.4503C147.203 93.4834 146.993 93.5133 146.787 93.5398C146.585 93.563 146.421 93.5829 146.295 93.5994C145.99 93.6392 145.705 93.7038 145.44 93.7933C145.178 93.8795 144.966 94.0104 144.804 94.1861C144.645 94.3584 144.565 94.5937 144.565 94.892C144.565 95.2997 144.716 95.608 145.017 95.8168C145.322 96.0223 145.708 96.125 146.176 96.125ZM154.721 100.023C154.154 100.023 153.667 99.9498 153.259 99.804C152.851 99.6615 152.512 99.4725 152.24 99.2372C151.971 99.0052 151.758 98.7566 151.599 98.4915L152.533 97.8352C152.639 97.9744 152.773 98.1335 152.936 98.3125C153.098 98.4948 153.32 98.6522 153.602 98.7848C153.887 98.9207 154.26 98.9886 154.721 98.9886C155.337 98.9886 155.846 98.8395 156.247 98.5412C156.648 98.2429 156.849 97.7756 156.849 97.1392V95.5881H156.749C156.663 95.7273 156.54 95.8996 156.381 96.1051C156.225 96.3073 156 96.4879 155.705 96.647C155.413 96.8028 155.019 96.8807 154.522 96.8807C153.905 96.8807 153.352 96.7348 152.861 96.4432C152.374 96.1515 151.988 95.7273 151.703 95.1705C151.421 94.6136 151.28 93.9375 151.28 93.142C151.28 92.3598 151.418 91.6787 151.693 91.0987C151.968 90.5154 152.351 90.0646 152.841 89.7464C153.332 89.425 153.899 89.2642 154.542 89.2642C155.039 89.2642 155.433 89.3471 155.725 89.5128C156.02 89.6752 156.245 89.8608 156.401 90.0696C156.56 90.2751 156.683 90.4441 156.769 90.5767H156.888V89.3636H158.022V97.2188C158.022 97.875 157.873 98.4086 157.574 98.8196C157.279 99.2339 156.882 99.5372 156.381 99.7294C155.884 99.925 155.331 100.023 154.721 100.023ZM154.681 95.8267C155.152 95.8267 155.549 95.719 155.874 95.5036C156.199 95.2881 156.446 94.9782 156.615 94.5739C156.784 94.1695 156.868 93.6856 156.868 93.1222C156.868 92.572 156.786 92.0864 156.62 91.6655C156.454 91.2446 156.209 90.9148 155.884 90.6761C155.559 90.4375 155.158 90.3182 154.681 90.3182C154.184 90.3182 153.769 90.4441 153.438 90.696C153.11 90.9479 152.863 91.286 152.697 91.7102C152.535 92.1345 152.454 92.6051 152.454 93.1222C152.454 93.6525 152.537 94.1214 152.702 94.5291C152.871 94.9335 153.12 95.2517 153.448 95.4837C153.779 95.7124 154.19 95.8267 154.681 95.8267ZM163.371 97.1591C162.635 97.1591 162.001 96.9967 161.467 96.6719C160.937 96.3438 160.528 95.8864 160.239 95.2997C159.954 94.7098 159.812 94.0237 159.812 93.2415C159.812 92.4593 159.954 91.7699 160.239 91.1733C160.528 90.5734 160.929 90.1061 161.442 89.7713C161.959 89.4332 162.563 89.2642 163.252 89.2642C163.65 89.2642 164.042 89.3305 164.43 89.4631C164.818 89.5956 165.171 89.8111 165.489 90.1094C165.807 90.4044 166.061 90.7955 166.25 91.2827C166.439 91.7699 166.533 92.3698 166.533 93.0824V93.5795H160.647V92.5653H165.34C165.34 92.1345 165.254 91.75 165.081 91.4119C164.912 91.0739 164.671 90.8071 164.356 90.6115C164.044 90.416 163.676 90.3182 163.252 90.3182C162.785 90.3182 162.38 90.4342 162.039 90.6662C161.701 90.8949 161.441 91.1932 161.258 91.5611C161.076 91.929 160.985 92.3234 160.985 92.7443V93.4205C160.985 93.9972 161.084 94.486 161.283 94.8871C161.485 95.2848 161.765 95.5881 162.123 95.7969C162.481 96.0024 162.897 96.1051 163.371 96.1051C163.68 96.1051 163.958 96.062 164.206 95.9759C164.458 95.8864 164.675 95.7538 164.858 95.5781C165.04 95.3991 165.181 95.1771 165.28 94.9119L166.414 95.2301C166.295 95.6146 166.094 95.9527 165.812 96.2443C165.531 96.5327 165.183 96.758 164.768 96.9205C164.354 97.0795 163.888 97.1591 163.371 97.1591ZM172.693 92.0881V93.1818H168.238V92.0881H172.693ZM178.078 89.3636V90.358H174.121V89.3636H178.078ZM175.275 87.5341H176.448V94.8125C176.448 95.1439 176.496 95.3925 176.592 95.5582C176.691 95.7206 176.817 95.83 176.97 95.8864C177.126 95.9394 177.29 95.9659 177.462 95.9659C177.591 95.9659 177.697 95.9593 177.78 95.946C177.863 95.9295 177.929 95.9162 177.979 95.9062L178.218 96.9602C178.138 96.9901 178.027 97.0199 177.885 97.0497C177.742 97.0829 177.561 97.0994 177.343 97.0994C177.011 97.0994 176.686 97.0282 176.368 96.8857C176.053 96.7431 175.792 96.526 175.583 96.2344C175.377 95.9427 175.275 95.5748 175.275 95.1307V87.5341ZM182.864 97.1591C182.174 97.1591 181.569 96.995 181.049 96.6669C180.532 96.3388 180.128 95.8797 179.836 95.2898C179.548 94.6998 179.403 94.0104 179.403 93.2216C179.403 92.4261 179.548 91.7318 179.836 91.1385C180.128 90.5452 180.532 90.0845 181.049 89.7564C181.569 89.4283 182.174 89.2642 182.864 89.2642C183.553 89.2642 184.156 89.4283 184.673 89.7564C185.194 90.0845 185.598 90.5452 185.886 91.1385C186.178 91.7318 186.324 92.4261 186.324 93.2216C186.324 94.0104 186.178 94.6998 185.886 95.2898C185.598 95.8797 185.194 96.3388 184.673 96.6669C184.156 96.995 183.553 97.1591 182.864 97.1591ZM182.864 96.1051C183.387 96.1051 183.818 95.9709 184.156 95.7024C184.494 95.4339 184.745 95.081 184.907 94.6435C185.069 94.206 185.151 93.732 185.151 93.2216C185.151 92.7112 185.069 92.2356 184.907 91.7947C184.745 91.3539 184.494 90.9976 184.156 90.7259C183.818 90.4541 183.387 90.3182 182.864 90.3182C182.34 90.3182 181.909 90.4541 181.571 90.7259C181.233 90.9976 180.983 91.3539 180.82 91.7947C180.658 92.2356 180.577 92.7112 180.577 93.2216C180.577 93.732 180.658 94.206 180.82 94.6435C180.983 95.081 181.233 95.4339 181.571 95.7024C181.909 95.9709 182.34 96.1051 182.864 96.1051ZM192.49 92.0881V93.1818H188.035V92.0881H192.49ZM194.713 97V86.8182H200.858V87.9119H195.946V91.3523H200.54V92.446H195.946V95.9062H200.938V97H194.713ZM205.169 97.179C204.685 97.179 204.246 97.0878 203.851 96.9055C203.457 96.7199 203.144 96.4531 202.912 96.1051C202.68 95.7538 202.564 95.3295 202.564 94.8324C202.564 94.3949 202.65 94.0402 202.822 93.7685C202.994 93.4934 203.225 93.2779 203.513 93.1222C203.801 92.9664 204.12 92.8504 204.468 92.7741C204.819 92.6946 205.172 92.6316 205.527 92.5852C205.991 92.5256 206.367 92.4808 206.655 92.451C206.947 92.4179 207.159 92.3632 207.292 92.2869C207.427 92.2107 207.495 92.0781 207.495 91.8892V91.8494C207.495 91.3589 207.361 90.9777 207.093 90.706C206.828 90.4342 206.425 90.2983 205.885 90.2983C205.324 90.2983 204.885 90.4209 204.567 90.6662C204.249 90.9115 204.025 91.1733 203.896 91.4517L202.782 91.054C202.981 90.59 203.246 90.2287 203.578 89.9702C203.913 89.7083 204.277 89.526 204.672 89.4233C205.069 89.3172 205.46 89.2642 205.845 89.2642C206.09 89.2642 206.372 89.294 206.69 89.3537C207.011 89.41 207.321 89.5277 207.62 89.7067C207.921 89.8857 208.172 90.1558 208.37 90.517C208.569 90.8783 208.669 91.3622 208.669 91.9688V97H207.495V95.9659H207.436C207.356 96.1316 207.224 96.3089 207.038 96.4979C206.852 96.6868 206.605 96.8475 206.297 96.9801C205.989 97.1127 205.613 97.179 205.169 97.179ZM205.348 96.125C205.812 96.125 206.203 96.0339 206.521 95.8516C206.842 95.6693 207.084 95.4339 207.247 95.1456C207.413 94.8572 207.495 94.554 207.495 94.2358V93.1619C207.446 93.2216 207.336 93.2763 207.167 93.326C207.002 93.3724 206.809 93.4138 206.591 93.4503C206.375 93.4834 206.165 93.5133 205.959 93.5398C205.757 93.563 205.593 93.5829 205.467 93.5994C205.162 93.6392 204.877 93.7038 204.612 93.7933C204.35 93.8795 204.138 94.0104 203.975 94.1861C203.816 94.3584 203.737 94.5937 203.737 94.892C203.737 95.2997 203.888 95.608 204.189 95.8168C204.494 96.0223 204.88 96.125 205.348 96.125ZM210.81 97V89.3636H211.944V90.517H212.023C212.162 90.1392 212.414 89.8326 212.779 89.5973C213.144 89.362 213.555 89.2443 214.012 89.2443C214.098 89.2443 214.206 89.246 214.335 89.2493C214.464 89.2526 214.562 89.2576 214.628 89.2642V90.4574C214.589 90.4474 214.497 90.4325 214.355 90.4126C214.216 90.3894 214.068 90.3778 213.912 90.3778C213.541 90.3778 213.21 90.4557 212.918 90.6115C212.63 90.764 212.401 90.9761 212.232 91.2479C212.066 91.5163 211.983 91.8229 211.983 92.1676V97H210.81ZM217.192 92.4062V97H216.019V89.3636H217.153V90.5568H217.252C217.431 90.169 217.703 89.8575 218.067 89.6222C218.432 89.3835 218.903 89.2642 219.479 89.2642C219.996 89.2642 220.449 89.3703 220.837 89.5824C221.224 89.7912 221.526 90.1094 221.741 90.5369C221.957 90.9612 222.065 91.4981 222.065 92.1477V97H220.891V92.2273C220.891 91.6274 220.736 91.16 220.424 90.8253C220.112 90.4872 219.685 90.3182 219.141 90.3182C218.767 90.3182 218.432 90.3994 218.137 90.5618C217.845 90.7242 217.615 90.9612 217.446 91.2727C217.277 91.5843 217.192 91.9621 217.192 92.4062ZM228.146 99.8636V89.3636H229.28V90.5767H229.419C229.505 90.4441 229.624 90.2751 229.777 90.0696C229.933 89.8608 230.155 89.6752 230.443 89.5128C230.735 89.3471 231.129 89.2642 231.626 89.2642C232.269 89.2642 232.836 89.425 233.327 89.7464C233.817 90.0679 234.2 90.5237 234.475 91.1136C234.75 91.7036 234.888 92.3996 234.888 93.2017C234.888 94.0104 234.75 94.7114 234.475 95.3047C234.2 95.8946 233.819 96.352 233.331 96.6768C232.844 96.9983 232.282 97.1591 231.646 97.1591C231.156 97.1591 230.763 97.0779 230.468 96.9155C230.173 96.7498 229.946 96.5625 229.787 96.3537C229.628 96.1416 229.505 95.9659 229.419 95.8267H229.319V99.8636H228.146ZM229.3 93.1818C229.3 93.7585 229.384 94.2673 229.553 94.7081C229.722 95.1456 229.969 95.4886 230.294 95.7372C230.619 95.9825 231.016 96.1051 231.487 96.1051C231.978 96.1051 232.387 95.9759 232.715 95.7173C233.046 95.4555 233.295 95.1042 233.461 94.6634C233.63 94.2192 233.714 93.7254 233.714 93.1818C233.714 92.6449 233.631 92.161 233.466 91.7301C233.303 91.2959 233.056 90.9529 232.725 90.701C232.397 90.4458 231.984 90.3182 231.487 90.3182C231.01 90.3182 230.609 90.4392 230.284 90.6811C229.959 90.9197 229.714 91.2545 229.548 91.6854C229.382 92.1129 229.3 92.6117 229.3 93.1818ZM237.851 86.8182V97H236.677V86.8182H237.851ZM242.247 97.179C241.763 97.179 241.324 97.0878 240.929 96.9055C240.535 96.7199 240.222 96.4531 239.99 96.1051C239.758 95.7538 239.642 95.3295 239.642 94.8324C239.642 94.3949 239.728 94.0402 239.9 93.7685C240.073 93.4934 240.303 93.2779 240.591 93.1222C240.88 92.9664 241.198 92.8504 241.546 92.7741C241.897 92.6946 242.25 92.6316 242.605 92.5852C243.069 92.5256 243.445 92.4808 243.733 92.451C244.025 92.4179 244.237 92.3632 244.37 92.2869C244.506 92.2107 244.574 92.0781 244.574 91.8892V91.8494C244.574 91.3589 244.439 90.9777 244.171 90.706C243.906 90.4342 243.503 90.2983 242.963 90.2983C242.403 90.2983 241.963 90.4209 241.645 90.6662C241.327 90.9115 241.103 91.1733 240.974 91.4517L239.86 91.054C240.059 90.59 240.324 90.2287 240.656 89.9702C240.991 89.7083 241.355 89.526 241.75 89.4233C242.147 89.3172 242.538 89.2642 242.923 89.2642C243.168 89.2642 243.45 89.294 243.768 89.3537C244.09 89.41 244.4 89.5277 244.698 89.7067C244.999 89.8857 245.25 90.1558 245.449 90.517C245.647 90.8783 245.747 91.3622 245.747 91.9688V97H244.574V95.9659H244.514C244.434 96.1316 244.302 96.3089 244.116 96.4979C243.931 96.6868 243.684 96.8475 243.375 96.9801C243.067 97.1127 242.691 97.179 242.247 97.179ZM242.426 96.125C242.89 96.125 243.281 96.0339 243.599 95.8516C243.921 95.6693 244.163 95.4339 244.325 95.1456C244.491 94.8572 244.574 94.554 244.574 94.2358V93.1619C244.524 93.2216 244.414 93.2763 244.245 93.326C244.08 93.3724 243.887 93.4138 243.669 93.4503C243.453 93.4834 243.243 93.5133 243.037 93.5398C242.835 93.563 242.671 93.5829 242.545 93.5994C242.24 93.6392 241.955 93.7038 241.69 93.7933C241.428 93.8795 241.216 94.0104 241.054 94.1861C240.895 94.3584 240.815 94.5937 240.815 94.892C240.815 95.2997 240.966 95.608 241.267 95.8168C241.572 96.0223 241.958 96.125 242.426 96.125ZM248.371 99.8636C248.172 99.8636 247.994 99.8471 247.839 99.8139C247.683 99.7841 247.575 99.7543 247.515 99.7244L247.814 98.6903C248.099 98.7633 248.351 98.7898 248.569 98.7699C248.788 98.75 248.982 98.6522 249.151 98.4766C249.323 98.3042 249.481 98.0241 249.623 97.6364L249.842 97.0398L247.018 89.3636H248.291L250.399 95.4489H250.479L252.586 89.3636H253.859L250.618 98.1136C250.472 98.508 250.291 98.8345 250.076 99.093C249.86 99.3549 249.61 99.5488 249.325 99.6747C249.043 99.8007 248.725 99.8636 248.371 99.8636ZM258.217 100.023C257.65 100.023 257.163 99.9498 256.755 99.804C256.347 99.6615 256.008 99.4725 255.736 99.2372C255.468 99.0052 255.254 98.7566 255.095 98.4915L256.029 97.8352C256.135 97.9744 256.27 98.1335 256.432 98.3125C256.594 98.4948 256.816 98.6522 257.098 98.7848C257.383 98.9207 257.756 98.9886 258.217 98.9886C258.833 98.9886 259.342 98.8395 259.743 98.5412C260.144 98.2429 260.345 97.7756 260.345 97.1392V95.5881H260.245C260.159 95.7273 260.036 95.8996 259.877 96.1051C259.722 96.3073 259.496 96.4879 259.201 96.647C258.91 96.8028 258.515 96.8807 258.018 96.8807C257.401 96.8807 256.848 96.7348 256.357 96.4432C255.87 96.1515 255.484 95.7273 255.199 95.1705C254.917 94.6136 254.776 93.9375 254.776 93.142C254.776 92.3598 254.914 91.6787 255.189 91.0987C255.464 90.5154 255.847 90.0646 256.338 89.7464C256.828 89.425 257.395 89.2642 258.038 89.2642C258.535 89.2642 258.929 89.3471 259.221 89.5128C259.516 89.6752 259.741 89.8608 259.897 90.0696C260.056 90.2751 260.179 90.4441 260.265 90.5767H260.384V89.3636H261.518V97.2188C261.518 97.875 261.369 98.4086 261.07 98.8196C260.776 99.2339 260.378 99.5372 259.877 99.7294C259.38 99.925 258.827 100.023 258.217 100.023ZM258.177 95.8267C258.648 95.8267 259.045 95.719 259.37 95.5036C259.695 95.2881 259.942 94.9782 260.111 94.5739C260.28 94.1695 260.365 93.6856 260.365 93.1222C260.365 92.572 260.282 92.0864 260.116 91.6655C259.95 91.2446 259.705 90.9148 259.38 90.6761C259.055 90.4375 258.654 90.3182 258.177 90.3182C257.68 90.3182 257.266 90.4441 256.934 90.696C256.606 90.9479 256.359 91.286 256.193 91.7102C256.031 92.1345 255.95 92.6051 255.95 93.1222C255.95 93.6525 256.033 94.1214 256.198 94.5291C256.367 94.9335 256.616 95.2517 256.944 95.4837C257.276 95.7124 257.686 95.8267 258.177 95.8267ZM263.666 97V89.3636H264.799V90.517H264.879C265.018 90.1392 265.27 89.8326 265.634 89.5973C265.999 89.362 266.41 89.2443 266.867 89.2443C266.954 89.2443 267.061 89.246 267.191 89.2493C267.32 89.2526 267.418 89.2576 267.484 89.2642V90.4574C267.444 90.4474 267.353 90.4325 267.21 90.4126C267.071 90.3894 266.924 90.3778 266.768 90.3778C266.397 90.3778 266.065 90.4557 265.774 90.6115C265.485 90.764 265.257 90.9761 265.088 91.2479C264.922 91.5163 264.839 91.8229 264.839 92.1676V97H263.666ZM271.744 97.1591C271.055 97.1591 270.45 96.995 269.93 96.6669C269.413 96.3388 269.008 95.8797 268.717 95.2898C268.428 94.6998 268.284 94.0104 268.284 93.2216C268.284 92.4261 268.428 91.7318 268.717 91.1385C269.008 90.5452 269.413 90.0845 269.93 89.7564C270.45 89.4283 271.055 89.2642 271.744 89.2642C272.434 89.2642 273.037 89.4283 273.554 89.7564C274.075 90.0845 274.479 90.5452 274.767 91.1385C275.059 91.7318 275.205 92.4261 275.205 93.2216C275.205 94.0104 275.059 94.6998 274.767 95.2898C274.479 95.8797 274.075 96.3388 273.554 96.6669C273.037 96.995 272.434 97.1591 271.744 97.1591ZM271.744 96.1051C272.268 96.1051 272.699 95.9709 273.037 95.7024C273.375 95.4339 273.625 95.081 273.788 94.6435C273.95 94.206 274.031 93.732 274.031 93.2216C274.031 92.7112 273.95 92.2356 273.788 91.7947C273.625 91.3539 273.375 90.9976 273.037 90.7259C272.699 90.4541 272.268 90.3182 271.744 90.3182C271.221 90.3182 270.79 90.4541 270.452 90.7259C270.114 90.9976 269.864 91.3539 269.701 91.7947C269.539 92.2356 269.458 92.7112 269.458 93.2216C269.458 93.732 269.539 94.206 269.701 94.6435C269.864 95.081 270.114 95.4339 270.452 95.7024C270.79 95.9709 271.221 96.1051 271.744 96.1051ZM281.808 93.8778V89.3636H282.982V97H281.808V95.7074H281.729C281.55 96.0952 281.271 96.425 280.893 96.6967C280.516 96.9652 280.038 97.0994 279.462 97.0994C278.984 97.0994 278.56 96.995 278.189 96.7862C277.818 96.5741 277.526 96.2559 277.314 95.8317C277.102 95.4041 276.996 94.8655 276.996 94.2159V89.3636H278.169V94.1364C278.169 94.6932 278.325 95.1373 278.636 95.4688C278.951 95.8002 279.352 95.9659 279.839 95.9659C280.131 95.9659 280.428 95.8913 280.729 95.7422C281.034 95.593 281.29 95.3643 281.495 95.0561C281.704 94.7479 281.808 94.3551 281.808 93.8778ZM286.304 92.4062V97H285.131V89.3636H286.264V90.5568H286.363C286.542 90.169 286.814 89.8575 287.179 89.6222C287.543 89.3835 288.014 89.2642 288.591 89.2642C289.108 89.2642 289.56 89.3703 289.948 89.5824C290.336 89.7912 290.637 90.1094 290.853 90.5369C291.068 90.9612 291.176 91.4981 291.176 92.1477V97H290.003V92.2273C290.003 91.6274 289.847 91.16 289.535 90.8253C289.224 90.4872 288.796 90.3182 288.253 90.3182C287.878 90.3182 287.543 90.3994 287.248 90.5618C286.957 90.7242 286.726 90.9612 286.557 91.2727C286.388 91.5843 286.304 91.9621 286.304 92.4062ZM296.203 97.1591C295.567 97.1591 295.005 96.9983 294.518 96.6768C294.031 96.352 293.65 95.8946 293.375 95.3047C293.1 94.7114 292.962 94.0104 292.962 93.2017C292.962 92.3996 293.1 91.7036 293.375 91.1136C293.65 90.5237 294.033 90.0679 294.523 89.7464C295.014 89.425 295.58 89.2642 296.223 89.2642C296.721 89.2642 297.113 89.3471 297.402 89.5128C297.693 89.6752 297.915 89.8608 298.068 90.0696C298.224 90.2751 298.345 90.4441 298.431 90.5767H298.53V86.8182H299.703V97H298.57V95.8267H298.431C298.345 95.9659 298.222 96.1416 298.063 96.3537C297.904 96.5625 297.677 96.7498 297.382 96.9155C297.087 97.0779 296.694 97.1591 296.203 97.1591ZM296.363 96.1051C296.833 96.1051 297.231 95.9825 297.556 95.7372C297.881 95.4886 298.127 95.1456 298.297 94.7081C298.466 94.2673 298.55 93.7585 298.55 93.1818C298.55 92.6117 298.467 92.1129 298.301 91.6854C298.136 91.2545 297.891 90.9197 297.566 90.6811C297.241 90.4392 296.84 90.3182 296.363 90.3182C295.865 90.3182 295.451 90.4458 295.12 90.701C294.792 90.9529 294.545 91.2959 294.379 91.7301C294.217 92.161 294.135 92.6449 294.135 93.1818C294.135 93.7254 294.218 94.2192 294.384 94.6634C294.553 95.1042 294.801 95.4555 295.13 95.7173C295.461 95.9759 295.872 96.1051 296.363 96.1051ZM303.765 95.608L303.686 96.1449C303.629 96.5227 303.543 96.9271 303.427 97.358C303.315 97.7888 303.197 98.1948 303.074 98.576C302.952 98.9571 302.85 99.2604 302.771 99.4858H301.876C301.919 99.2737 301.975 98.9936 302.045 98.6456C302.115 98.2976 302.184 97.9081 302.254 97.4773C302.327 97.0497 302.386 96.6122 302.433 96.1648L302.493 95.608H303.765ZM311.607 97L309.28 89.3636H310.513L312.164 95.2102H312.243L313.874 89.3636H315.127L316.737 95.1903H316.817L318.468 89.3636H319.7L317.374 97H316.22L314.55 91.1335H314.431L312.76 97H311.607ZM322.425 92.4062V97H321.252V86.8182H322.425V90.5568H322.524C322.703 90.1624 322.972 89.8492 323.33 89.6172C323.691 89.3819 324.172 89.2642 324.771 89.2642C325.292 89.2642 325.748 89.3686 326.139 89.5774C326.53 89.7829 326.833 90.0994 327.048 90.527C327.267 90.9512 327.377 91.4915 327.377 92.1477V97H326.203V92.2273C326.203 91.6207 326.046 91.1518 325.731 90.8203C325.419 90.4856 324.987 90.3182 324.433 90.3182C324.049 90.3182 323.704 90.3994 323.399 90.5618C323.098 90.7242 322.859 90.9612 322.683 91.2727C322.511 91.5843 322.425 91.9621 322.425 92.4062ZM332.725 97.1591C331.989 97.1591 331.354 96.9967 330.821 96.6719C330.29 96.3438 329.881 95.8864 329.593 95.2997C329.308 94.7098 329.165 94.0237 329.165 93.2415C329.165 92.4593 329.308 91.7699 329.593 91.1733C329.881 90.5734 330.282 90.1061 330.796 89.7713C331.313 89.4332 331.916 89.2642 332.605 89.2642C333.003 89.2642 333.396 89.3305 333.784 89.4631C334.172 89.5956 334.525 89.8111 334.843 90.1094C335.161 90.4044 335.414 90.7955 335.603 91.2827C335.792 91.7699 335.887 92.3698 335.887 93.0824V93.5795H330V92.5653H334.694C334.694 92.1345 334.607 91.75 334.435 91.4119C334.266 91.0739 334.024 90.8071 333.709 90.6115C333.398 90.416 333.03 90.3182 332.605 90.3182C332.138 90.3182 331.734 90.4342 331.392 90.6662C331.054 90.8949 330.794 91.1932 330.612 91.5611C330.43 91.929 330.338 92.3234 330.338 92.7443V93.4205C330.338 93.9972 330.438 94.486 330.637 94.8871C330.839 95.2848 331.119 95.5881 331.477 95.7969C331.835 96.0024 332.251 96.1051 332.725 96.1051C333.033 96.1051 333.311 96.062 333.56 95.9759C333.812 95.8864 334.029 95.7538 334.211 95.5781C334.394 95.3991 334.534 95.1771 334.634 94.9119L335.767 95.2301C335.648 95.6146 335.448 95.9527 335.166 96.2443C334.884 96.5327 334.536 96.758 334.122 96.9205C333.708 97.0795 333.242 97.1591 332.725 97.1591ZM337.672 97V89.3636H338.805V90.517H338.885C339.024 90.1392 339.276 89.8326 339.64 89.5973C340.005 89.362 340.416 89.2443 340.873 89.2443C340.959 89.2443 341.067 89.246 341.196 89.2493C341.326 89.2526 341.423 89.2576 341.49 89.2642V90.4574C341.45 90.4474 341.359 90.4325 341.216 90.4126C341.077 90.3894 340.93 90.3778 340.774 90.3778C340.403 90.3778 340.071 90.4557 339.779 90.6115C339.491 90.764 339.262 90.9761 339.093 91.2479C338.928 91.5163 338.845 91.8229 338.845 92.1676V97H337.672ZM345.85 97.1591C345.114 97.1591 344.479 96.9967 343.946 96.6719C343.415 96.3438 343.006 95.8864 342.718 95.2997C342.433 94.7098 342.29 94.0237 342.29 93.2415C342.29 92.4593 342.433 91.7699 342.718 91.1733C343.006 90.5734 343.407 90.1061 343.921 89.7713C344.438 89.4332 345.041 89.2642 345.73 89.2642C346.128 89.2642 346.521 89.3305 346.909 89.4631C347.297 89.5956 347.65 89.8111 347.968 90.1094C348.286 90.4044 348.539 90.7955 348.728 91.2827C348.917 91.7699 349.012 92.3698 349.012 93.0824V93.5795H343.125V92.5653H347.819C347.819 92.1345 347.732 91.75 347.56 91.4119C347.391 91.0739 347.149 90.8071 346.834 90.6115C346.523 90.416 346.155 90.3182 345.73 90.3182C345.263 90.3182 344.859 90.4342 344.517 90.6662C344.179 90.8949 343.919 91.1932 343.737 91.5611C343.555 91.929 343.463 92.3234 343.463 92.7443V93.4205C343.463 93.9972 343.563 94.486 343.762 94.8871C343.964 95.2848 344.244 95.5881 344.602 95.7969C344.96 96.0024 345.376 96.1051 345.85 96.1051C346.158 96.1051 346.436 96.062 346.685 95.9759C346.937 95.8864 347.154 95.7538 347.336 95.5781C347.519 95.3991 347.659 95.1771 347.759 94.9119L348.892 95.2301C348.773 95.6146 348.573 95.9527 348.291 96.2443C348.009 96.5327 347.661 96.758 347.247 96.9205C346.833 97.0795 346.367 97.1591 345.85 97.1591ZM355.49 99.8636C355.291 99.8636 355.114 99.8471 354.958 99.8139C354.802 99.7841 354.694 99.7543 354.635 99.7244L354.933 98.6903C355.218 98.7633 355.47 98.7898 355.689 98.7699C355.907 98.75 356.101 98.6522 356.27 98.4766C356.443 98.3042 356.6 98.0241 356.743 97.6364L356.961 97.0398L354.137 89.3636H355.41L357.518 95.4489H357.598L359.706 89.3636H360.978L357.737 98.1136C357.591 98.508 357.41 98.8345 357.195 99.093C356.98 99.3549 356.729 99.5488 356.444 99.6747C356.163 99.8007 355.844 99.8636 355.49 99.8636ZM365.356 97.1591C364.666 97.1591 364.062 96.995 363.541 96.6669C363.024 96.3388 362.62 95.8797 362.328 95.2898C362.04 94.6998 361.896 94.0104 361.896 93.2216C361.896 92.4261 362.04 91.7318 362.328 91.1385C362.62 90.5452 363.024 90.0845 363.541 89.7564C364.062 89.4283 364.666 89.2642 365.356 89.2642C366.045 89.2642 366.648 89.4283 367.165 89.7564C367.686 90.0845 368.09 90.5452 368.379 91.1385C368.67 91.7318 368.816 92.4261 368.816 93.2216C368.816 94.0104 368.67 94.6998 368.379 95.2898C368.09 95.8797 367.686 96.3388 367.165 96.6669C366.648 96.995 366.045 97.1591 365.356 97.1591ZM365.356 96.1051C365.879 96.1051 366.31 95.9709 366.648 95.7024C366.987 95.4339 367.237 95.081 367.399 94.6435C367.562 94.206 367.643 93.732 367.643 93.2216C367.643 92.7112 367.562 92.2356 367.399 91.7947C367.237 91.3539 366.987 90.9976 366.648 90.7259C366.31 90.4541 365.879 90.3182 365.356 90.3182C364.832 90.3182 364.401 90.4541 364.063 90.7259C363.725 90.9976 363.475 91.3539 363.312 91.7947C363.15 92.2356 363.069 92.7112 363.069 93.2216C363.069 93.732 363.15 94.206 363.312 94.6435C363.475 95.081 363.725 95.4339 364.063 95.7024C364.401 95.9709 364.832 96.1051 365.356 96.1051ZM375.42 93.8778V89.3636H376.593V97H375.42V95.7074H375.34C375.161 96.0952 374.883 96.425 374.505 96.6967C374.127 96.9652 373.65 97.0994 373.073 97.0994C372.596 97.0994 372.171 96.995 371.8 96.7862C371.429 96.5741 371.137 96.2559 370.925 95.8317C370.713 95.4041 370.607 94.8655 370.607 94.2159V89.3636H371.78V94.1364C371.78 94.6932 371.936 95.1373 372.248 95.4688C372.563 95.8002 372.964 95.9659 373.451 95.9659C373.742 95.9659 374.039 95.8913 374.341 95.7422C374.646 95.593 374.901 95.3643 375.106 95.0561C375.315 94.7479 375.42 94.3551 375.42 93.8778ZM100.176 117.159C99.4602 117.159 98.8438 116.99 98.3267 116.652C97.8097 116.314 97.4119 115.848 97.1335 115.255C96.8551 114.662 96.7159 113.984 96.7159 113.222C96.7159 112.446 96.8584 111.762 97.1435 111.168C97.4318 110.572 97.8329 110.106 98.3466 109.771C98.8636 109.433 99.4669 109.264 100.156 109.264C100.693 109.264 101.177 109.364 101.608 109.562C102.039 109.761 102.392 110.04 102.667 110.398C102.942 110.756 103.113 111.173 103.179 111.651H102.006C101.916 111.303 101.717 110.994 101.409 110.726C101.104 110.454 100.693 110.318 100.176 110.318C99.7188 110.318 99.3177 110.437 98.973 110.676C98.6316 110.911 98.3648 111.245 98.1726 111.675C97.9837 112.103 97.8892 112.605 97.8892 113.182C97.8892 113.772 97.982 114.286 98.1676 114.723C98.3565 115.161 98.6217 115.5 98.9631 115.742C99.3078 115.984 99.7121 116.105 100.176 116.105C100.481 116.105 100.758 116.052 101.006 115.946C101.255 115.84 101.465 115.688 101.638 115.489C101.81 115.29 101.933 115.051 102.006 114.773H103.179C103.113 115.223 102.949 115.629 102.687 115.991C102.428 116.349 102.085 116.634 101.658 116.846C101.233 117.055 100.74 117.159 100.176 117.159ZM107.996 117.159C107.307 117.159 106.702 116.995 106.182 116.667C105.665 116.339 105.26 115.88 104.969 115.29C104.68 114.7 104.536 114.01 104.536 113.222C104.536 112.426 104.68 111.732 104.969 111.138C105.26 110.545 105.665 110.085 106.182 109.756C106.702 109.428 107.307 109.264 107.996 109.264C108.686 109.264 109.289 109.428 109.806 109.756C110.326 110.085 110.731 110.545 111.019 111.138C111.311 111.732 111.457 112.426 111.457 113.222C111.457 114.01 111.311 114.7 111.019 115.29C110.731 115.88 110.326 116.339 109.806 116.667C109.289 116.995 108.686 117.159 107.996 117.159ZM107.996 116.105C108.52 116.105 108.951 115.971 109.289 115.702C109.627 115.434 109.877 115.081 110.04 114.643C110.202 114.206 110.283 113.732 110.283 113.222C110.283 112.711 110.202 112.236 110.04 111.795C109.877 111.354 109.627 110.998 109.289 110.726C108.951 110.454 108.52 110.318 107.996 110.318C107.473 110.318 107.042 110.454 106.704 110.726C106.366 110.998 106.116 111.354 105.953 111.795C105.791 112.236 105.71 112.711 105.71 113.222C105.71 113.732 105.791 114.206 105.953 114.643C106.116 115.081 106.366 115.434 106.704 115.702C107.042 115.971 107.473 116.105 107.996 116.105ZM114.421 112.406V117H113.248V109.364H114.381V110.557H114.481C114.66 110.169 114.931 109.857 115.296 109.622C115.661 109.384 116.131 109.264 116.708 109.264C117.225 109.264 117.677 109.37 118.065 109.582C118.453 109.791 118.755 110.109 118.97 110.537C119.185 110.961 119.293 111.498 119.293 112.148V117H118.12V112.227C118.12 111.627 117.964 111.16 117.653 110.825C117.341 110.487 116.913 110.318 116.37 110.318C115.995 110.318 115.661 110.399 115.366 110.562C115.074 110.724 114.844 110.961 114.675 111.273C114.506 111.584 114.421 111.962 114.421 112.406ZM126.647 119.864V115.827H126.548C126.462 115.966 126.339 116.142 126.18 116.354C126.021 116.562 125.794 116.75 125.499 116.915C125.204 117.078 124.811 117.159 124.321 117.159C123.684 117.159 123.123 116.998 122.635 116.677C122.148 116.352 121.767 115.895 121.492 115.305C121.217 114.711 121.079 114.01 121.079 113.202C121.079 112.4 121.217 111.704 121.492 111.114C121.767 110.524 122.15 110.068 122.64 109.746C123.131 109.425 123.698 109.264 124.341 109.264C124.838 109.264 125.23 109.347 125.519 109.513C125.81 109.675 126.033 109.861 126.185 110.07C126.341 110.275 126.462 110.444 126.548 110.577H126.687V109.364H127.821V119.864H126.647ZM124.48 116.105C124.95 116.105 125.348 115.982 125.673 115.737C125.998 115.489 126.245 115.146 126.414 114.708C126.583 114.267 126.667 113.759 126.667 113.182C126.667 112.612 126.584 112.113 126.419 111.685C126.253 111.254 126.008 110.92 125.683 110.681C125.358 110.439 124.957 110.318 124.48 110.318C123.983 110.318 123.568 110.446 123.237 110.701C122.909 110.953 122.662 111.296 122.496 111.73C122.334 112.161 122.252 112.645 122.252 113.182C122.252 113.725 122.335 114.219 122.501 114.663C122.67 115.104 122.919 115.455 123.247 115.717C123.578 115.976 123.989 116.105 124.48 116.105ZM134.781 113.878V109.364H135.954V117H134.781V115.707H134.701C134.522 116.095 134.244 116.425 133.866 116.697C133.488 116.965 133.011 117.099 132.434 117.099C131.957 117.099 131.533 116.995 131.162 116.786C130.79 116.574 130.499 116.256 130.287 115.832C130.074 115.404 129.968 114.866 129.968 114.216V109.364H131.142V114.136C131.142 114.693 131.297 115.137 131.609 115.469C131.924 115.8 132.325 115.966 132.812 115.966C133.104 115.966 133.4 115.891 133.702 115.742C134.007 115.593 134.262 115.364 134.468 115.056C134.676 114.748 134.781 114.355 134.781 113.878ZM141.305 117.159C140.569 117.159 139.934 116.997 139.401 116.672C138.87 116.344 138.461 115.886 138.173 115.3C137.888 114.71 137.745 114.024 137.745 113.241C137.745 112.459 137.888 111.77 138.173 111.173C138.461 110.573 138.862 110.106 139.376 109.771C139.893 109.433 140.496 109.264 141.186 109.264C141.583 109.264 141.976 109.33 142.364 109.463C142.752 109.596 143.105 109.811 143.423 110.109C143.741 110.404 143.994 110.795 144.183 111.283C144.372 111.77 144.467 112.37 144.467 113.082V113.58H138.58V112.565H143.274C143.274 112.134 143.187 111.75 143.015 111.412C142.846 111.074 142.604 110.807 142.289 110.612C141.978 110.416 141.61 110.318 141.186 110.318C140.718 110.318 140.314 110.434 139.972 110.666C139.634 110.895 139.374 111.193 139.192 111.561C139.01 111.929 138.919 112.323 138.919 112.744V113.42C138.919 113.997 139.018 114.486 139.217 114.887C139.419 115.285 139.699 115.588 140.057 115.797C140.415 116.002 140.831 116.105 141.305 116.105C141.613 116.105 141.892 116.062 142.14 115.976C142.392 115.886 142.609 115.754 142.791 115.578C142.974 115.399 143.115 115.177 143.214 114.912L144.347 115.23C144.228 115.615 144.028 115.953 143.746 116.244C143.464 116.533 143.116 116.758 142.702 116.92C142.288 117.08 141.822 117.159 141.305 117.159ZM146.252 117V109.364H147.385V110.517H147.465C147.604 110.139 147.856 109.833 148.22 109.597C148.585 109.362 148.996 109.244 149.453 109.244C149.539 109.244 149.647 109.246 149.776 109.249C149.906 109.253 150.003 109.258 150.07 109.264V110.457C150.03 110.447 149.939 110.433 149.796 110.413C149.657 110.389 149.51 110.378 149.354 110.378C148.983 110.378 148.651 110.456 148.36 110.612C148.071 110.764 147.843 110.976 147.673 111.248C147.508 111.516 147.425 111.823 147.425 112.168V117H146.252ZM158.5 117.159C157.784 117.159 157.168 116.99 156.651 116.652C156.134 116.314 155.736 115.848 155.458 115.255C155.179 114.662 155.04 113.984 155.04 113.222C155.04 112.446 155.183 111.762 155.468 111.168C155.756 110.572 156.157 110.106 156.671 109.771C157.188 109.433 157.791 109.264 158.48 109.264C159.017 109.264 159.501 109.364 159.932 109.562C160.363 109.761 160.716 110.04 160.991 110.398C161.266 110.756 161.437 111.173 161.503 111.651H160.33C160.24 111.303 160.042 110.994 159.733 110.726C159.428 110.454 159.017 110.318 158.5 110.318C158.043 110.318 157.642 110.437 157.297 110.676C156.956 110.911 156.689 111.245 156.497 111.675C156.308 112.103 156.213 112.605 156.213 113.182C156.213 113.772 156.306 114.286 156.492 114.723C156.681 115.161 156.946 115.5 157.287 115.742C157.632 115.984 158.036 116.105 158.5 116.105C158.805 116.105 159.082 116.052 159.331 115.946C159.579 115.84 159.79 115.688 159.962 115.489C160.134 115.29 160.257 115.051 160.33 114.773H161.503C161.437 115.223 161.273 115.629 161.011 115.991C160.752 116.349 160.409 116.634 159.982 116.846C159.558 117.055 159.064 117.159 158.5 117.159ZM165.466 117.179C164.982 117.179 164.542 117.088 164.148 116.906C163.754 116.72 163.44 116.453 163.208 116.105C162.976 115.754 162.86 115.33 162.86 114.832C162.86 114.395 162.947 114.04 163.119 113.768C163.291 113.493 163.522 113.278 163.81 113.122C164.098 112.966 164.417 112.85 164.765 112.774C165.116 112.695 165.469 112.632 165.824 112.585C166.288 112.526 166.664 112.481 166.952 112.451C167.244 112.418 167.456 112.363 167.588 112.287C167.724 112.211 167.792 112.078 167.792 111.889V111.849C167.792 111.359 167.658 110.978 167.39 110.706C167.124 110.434 166.722 110.298 166.181 110.298C165.621 110.298 165.182 110.421 164.864 110.666C164.546 110.911 164.322 111.173 164.193 111.452L163.079 111.054C163.278 110.59 163.543 110.229 163.875 109.97C164.209 109.708 164.574 109.526 164.968 109.423C165.366 109.317 165.757 109.264 166.142 109.264C166.387 109.264 166.669 109.294 166.987 109.354C167.308 109.41 167.618 109.528 167.917 109.707C168.218 109.886 168.468 110.156 168.667 110.517C168.866 110.878 168.966 111.362 168.966 111.969V117H167.792V115.966H167.733C167.653 116.132 167.52 116.309 167.335 116.498C167.149 116.687 166.902 116.848 166.594 116.98C166.286 117.113 165.91 117.179 165.466 117.179ZM165.645 116.125C166.109 116.125 166.5 116.034 166.818 115.852C167.139 115.669 167.381 115.434 167.544 115.146C167.709 114.857 167.792 114.554 167.792 114.236V113.162C167.743 113.222 167.633 113.276 167.464 113.326C167.298 113.372 167.106 113.414 166.887 113.45C166.672 113.483 166.462 113.513 166.256 113.54C166.054 113.563 165.89 113.583 165.764 113.599C165.459 113.639 165.174 113.704 164.909 113.793C164.647 113.879 164.435 114.01 164.272 114.186C164.113 114.358 164.034 114.594 164.034 114.892C164.034 115.3 164.185 115.608 164.486 115.817C164.791 116.022 165.177 116.125 165.645 116.125ZM171.107 119.864V109.364H172.241V110.577H172.38C172.466 110.444 172.585 110.275 172.738 110.07C172.894 109.861 173.116 109.675 173.404 109.513C173.696 109.347 174.09 109.264 174.587 109.264C175.23 109.264 175.797 109.425 176.287 109.746C176.778 110.068 177.161 110.524 177.436 111.114C177.711 111.704 177.849 112.4 177.849 113.202C177.849 114.01 177.711 114.711 177.436 115.305C177.161 115.895 176.78 116.352 176.292 116.677C175.805 116.998 175.243 117.159 174.607 117.159C174.117 117.159 173.724 117.078 173.429 116.915C173.134 116.75 172.907 116.562 172.748 116.354C172.589 116.142 172.466 115.966 172.38 115.827H172.28V119.864H171.107ZM172.26 113.182C172.26 113.759 172.345 114.267 172.514 114.708C172.683 115.146 172.93 115.489 173.255 115.737C173.58 115.982 173.977 116.105 174.448 116.105C174.939 116.105 175.348 115.976 175.676 115.717C176.007 115.455 176.256 115.104 176.422 114.663C176.591 114.219 176.675 113.725 176.675 113.182C176.675 112.645 176.592 112.161 176.427 111.73C176.264 111.296 176.017 110.953 175.686 110.701C175.358 110.446 174.945 110.318 174.448 110.318C173.971 110.318 173.57 110.439 173.245 110.681C172.92 110.92 172.675 111.254 172.509 111.685C172.343 112.113 172.26 112.612 172.26 113.182ZM182.959 109.364V110.358H179.002V109.364H182.959ZM180.155 107.534H181.329V114.812C181.329 115.144 181.377 115.393 181.473 115.558C181.572 115.721 181.698 115.83 181.851 115.886C182.006 115.939 182.171 115.966 182.343 115.966C182.472 115.966 182.578 115.959 182.661 115.946C182.744 115.929 182.81 115.916 182.86 115.906L183.099 116.96C183.019 116.99 182.908 117.02 182.765 117.05C182.623 117.083 182.442 117.099 182.224 117.099C181.892 117.099 181.567 117.028 181.249 116.886C180.934 116.743 180.672 116.526 180.464 116.234C180.258 115.943 180.155 115.575 180.155 115.131V107.534ZM184.724 117V109.364H185.898V117H184.724ZM185.321 108.091C185.092 108.091 184.895 108.013 184.729 107.857C184.567 107.701 184.486 107.514 184.486 107.295C184.486 107.077 184.567 106.889 184.729 106.734C184.895 106.578 185.092 106.5 185.321 106.5C185.55 106.5 185.745 106.578 185.907 106.734C186.073 106.889 186.156 107.077 186.156 107.295C186.156 107.514 186.073 107.701 185.907 107.857C185.745 108.013 185.55 108.091 185.321 108.091ZM194.291 109.364L191.467 117H190.274L187.45 109.364H188.723L190.831 115.449H190.91L193.018 109.364H194.291ZM197.854 117.179C197.37 117.179 196.931 117.088 196.537 116.906C196.142 116.72 195.829 116.453 195.597 116.105C195.365 115.754 195.249 115.33 195.249 114.832C195.249 114.395 195.335 114.04 195.508 113.768C195.68 113.493 195.91 113.278 196.199 113.122C196.487 112.966 196.805 112.85 197.153 112.774C197.505 112.695 197.858 112.632 198.212 112.585C198.676 112.526 199.052 112.481 199.341 112.451C199.632 112.418 199.845 112.363 199.977 112.287C200.113 112.211 200.181 112.078 200.181 111.889V111.849C200.181 111.359 200.047 110.978 199.778 110.706C199.513 110.434 199.11 110.298 198.57 110.298C198.01 110.298 197.571 110.421 197.253 110.666C196.934 110.911 196.711 111.173 196.581 111.452L195.468 111.054C195.667 110.59 195.932 110.229 196.263 109.97C196.598 109.708 196.963 109.526 197.357 109.423C197.755 109.317 198.146 109.264 198.53 109.264C198.776 109.264 199.057 109.294 199.376 109.354C199.697 109.41 200.007 109.528 200.305 109.707C200.607 109.886 200.857 110.156 201.056 110.517C201.255 110.878 201.354 111.362 201.354 111.969V117H200.181V115.966H200.121C200.042 116.132 199.909 116.309 199.724 116.498C199.538 116.687 199.291 116.848 198.983 116.98C198.675 117.113 198.298 117.179 197.854 117.179ZM198.033 116.125C198.497 116.125 198.888 116.034 199.206 115.852C199.528 115.669 199.77 115.434 199.932 115.146C200.098 114.857 200.181 114.554 200.181 114.236V113.162C200.131 113.222 200.022 113.276 199.853 113.326C199.687 113.372 199.495 113.414 199.276 113.45C199.061 113.483 198.85 113.513 198.645 113.54C198.443 113.563 198.278 113.583 198.153 113.599C197.848 113.639 197.563 113.704 197.297 113.793C197.036 113.879 196.823 114.01 196.661 114.186C196.502 114.358 196.422 114.594 196.422 114.892C196.422 115.3 196.573 115.608 196.875 115.817C197.18 116.022 197.566 116.125 198.033 116.125ZM206.817 109.364V110.358H202.859V109.364H206.817ZM204.013 107.534H205.186V114.812C205.186 115.144 205.234 115.393 205.33 115.558C205.43 115.721 205.556 115.83 205.708 115.886C205.864 115.939 206.028 115.966 206.2 115.966C206.33 115.966 206.436 115.959 206.518 115.946C206.601 115.929 206.668 115.916 206.717 115.906L206.956 116.96C206.876 116.99 206.765 117.02 206.623 117.05C206.48 117.083 206.3 117.099 206.081 117.099C205.75 117.099 205.425 117.028 205.107 116.886C204.792 116.743 204.53 116.526 204.321 116.234C204.116 115.943 204.013 115.575 204.013 115.131V107.534ZM208.582 117V109.364H209.755V117H208.582ZM209.178 108.091C208.95 108.091 208.752 108.013 208.587 107.857C208.424 107.701 208.343 107.514 208.343 107.295C208.343 107.077 208.424 106.889 208.587 106.734C208.752 106.578 208.95 106.5 209.178 106.5C209.407 106.5 209.603 106.578 209.765 106.734C209.931 106.889 210.013 107.077 210.013 107.295C210.013 107.514 209.931 107.701 209.765 107.857C209.603 108.013 209.407 108.091 209.178 108.091ZM213.077 112.406V117H211.904V109.364H213.037V110.557H213.137C213.316 110.169 213.588 109.857 213.952 109.622C214.317 109.384 214.787 109.264 215.364 109.264C215.881 109.264 216.334 109.37 216.721 109.582C217.109 109.791 217.411 110.109 217.626 110.537C217.842 110.961 217.949 111.498 217.949 112.148V117H216.776V112.227C216.776 111.627 216.62 111.16 216.309 110.825C215.997 110.487 215.57 110.318 215.026 110.318C214.652 110.318 214.317 110.399 214.022 110.562C213.73 110.724 213.5 110.961 213.331 111.273C213.162 111.584 213.077 111.962 213.077 112.406ZM223.176 120.023C222.609 120.023 222.122 119.95 221.714 119.804C221.306 119.661 220.967 119.473 220.695 119.237C220.426 119.005 220.213 118.757 220.054 118.491L220.988 117.835C221.094 117.974 221.229 118.134 221.391 118.312C221.553 118.495 221.775 118.652 222.057 118.785C222.342 118.921 222.715 118.989 223.176 118.989C223.792 118.989 224.301 118.839 224.702 118.541C225.103 118.243 225.304 117.776 225.304 117.139V115.588H225.204C225.118 115.727 224.995 115.9 224.836 116.105C224.681 116.307 224.455 116.488 224.16 116.647C223.868 116.803 223.474 116.881 222.977 116.881C222.36 116.881 221.807 116.735 221.316 116.443C220.829 116.152 220.443 115.727 220.158 115.17C219.876 114.614 219.735 113.937 219.735 113.142C219.735 112.36 219.873 111.679 220.148 111.099C220.423 110.515 220.806 110.065 221.297 109.746C221.787 109.425 222.354 109.264 222.997 109.264C223.494 109.264 223.888 109.347 224.18 109.513C224.475 109.675 224.7 109.861 224.856 110.07C225.015 110.275 225.138 110.444 225.224 110.577H225.343V109.364H226.477V117.219C226.477 117.875 226.328 118.409 226.029 118.82C225.734 119.234 225.337 119.537 224.836 119.729C224.339 119.925 223.786 120.023 223.176 120.023ZM223.136 115.827C223.607 115.827 224.004 115.719 224.329 115.504C224.654 115.288 224.901 114.978 225.07 114.574C225.239 114.17 225.324 113.686 225.324 113.122C225.324 112.572 225.241 112.086 225.075 111.665C224.909 111.245 224.664 110.915 224.339 110.676C224.014 110.437 223.613 110.318 223.136 110.318C222.639 110.318 222.225 110.444 221.893 110.696C221.565 110.948 221.318 111.286 221.152 111.71C220.99 112.134 220.909 112.605 220.909 113.122C220.909 113.652 220.992 114.121 221.157 114.529C221.326 114.933 221.575 115.252 221.903 115.484C222.234 115.712 222.645 115.827 223.136 115.827ZM232.562 117V109.364H233.696V110.557H233.795C233.954 110.149 234.211 109.833 234.566 109.607C234.92 109.379 235.346 109.264 235.843 109.264C236.347 109.264 236.766 109.379 237.101 109.607C237.439 109.833 237.703 110.149 237.892 110.557H237.971C238.167 110.162 238.46 109.849 238.851 109.617C239.242 109.382 239.711 109.264 240.258 109.264C240.941 109.264 241.499 109.478 241.934 109.906C242.368 110.33 242.585 110.991 242.585 111.889V117H241.412V111.889C241.412 111.326 241.257 110.923 240.949 110.681C240.641 110.439 240.278 110.318 239.86 110.318C239.324 110.318 238.908 110.481 238.613 110.805C238.318 111.127 238.17 111.535 238.17 112.028V117H236.977V111.77C236.977 111.336 236.836 110.986 236.554 110.721C236.273 110.452 235.91 110.318 235.466 110.318C235.161 110.318 234.876 110.399 234.61 110.562C234.349 110.724 234.136 110.95 233.974 111.238C233.815 111.523 233.735 111.853 233.735 112.227V117H232.562ZM244.73 117V109.364H245.903V117H244.73ZM245.327 108.091C245.098 108.091 244.901 108.013 244.735 107.857C244.573 107.701 244.491 107.514 244.491 107.295C244.491 107.077 244.573 106.889 244.735 106.734C244.901 106.578 245.098 106.5 245.327 106.5C245.555 106.5 245.751 106.578 245.913 106.734C246.079 106.889 246.162 107.077 246.162 107.295C246.162 107.514 246.079 107.701 245.913 107.857C245.751 108.013 245.555 108.091 245.327 108.091ZM253.461 111.074L252.407 111.372C252.341 111.196 252.243 111.026 252.114 110.86C251.988 110.691 251.816 110.552 251.597 110.442C251.378 110.333 251.098 110.278 250.757 110.278C250.29 110.278 249.9 110.386 249.589 110.602C249.28 110.814 249.126 111.084 249.126 111.412C249.126 111.704 249.232 111.934 249.444 112.103C249.657 112.272 249.988 112.413 250.439 112.526L251.572 112.804C252.255 112.97 252.764 113.223 253.099 113.565C253.433 113.903 253.601 114.339 253.601 114.872C253.601 115.31 253.475 115.701 253.223 116.045C252.974 116.39 252.626 116.662 252.179 116.861C251.731 117.06 251.211 117.159 250.618 117.159C249.839 117.159 249.194 116.99 248.684 116.652C248.173 116.314 247.85 115.82 247.714 115.17L248.828 114.892C248.934 115.303 249.135 115.611 249.43 115.817C249.728 116.022 250.117 116.125 250.598 116.125C251.145 116.125 251.579 116.009 251.9 115.777C252.225 115.542 252.388 115.26 252.388 114.932C252.388 114.667 252.295 114.445 252.109 114.266C251.924 114.083 251.639 113.947 251.254 113.858L249.981 113.56C249.282 113.394 248.768 113.137 248.44 112.789C248.115 112.438 247.953 111.999 247.953 111.472C247.953 111.041 248.074 110.66 248.316 110.328C248.561 109.997 248.894 109.737 249.315 109.548C249.739 109.359 250.22 109.264 250.757 109.264C251.513 109.264 252.106 109.43 252.537 109.761C252.971 110.093 253.279 110.53 253.461 111.074ZM260.776 111.074L259.722 111.372C259.656 111.196 259.558 111.026 259.429 110.86C259.303 110.691 259.13 110.552 258.912 110.442C258.693 110.333 258.413 110.278 258.071 110.278C257.604 110.278 257.215 110.386 256.903 110.602C256.595 110.814 256.441 111.084 256.441 111.412C256.441 111.704 256.547 111.934 256.759 112.103C256.971 112.272 257.302 112.413 257.753 112.526L258.887 112.804C259.569 112.97 260.078 113.223 260.413 113.565C260.748 113.903 260.915 114.339 260.915 114.872C260.915 115.31 260.789 115.701 260.537 116.045C260.289 116.39 259.941 116.662 259.493 116.861C259.046 117.06 258.525 117.159 257.932 117.159C257.153 117.159 256.509 116.99 255.998 116.652C255.488 116.314 255.165 115.82 255.029 115.17L256.142 114.892C256.248 115.303 256.449 115.611 256.744 115.817C257.042 116.022 257.432 116.125 257.912 116.125C258.459 116.125 258.893 116.009 259.215 115.777C259.54 115.542 259.702 115.26 259.702 114.932C259.702 114.667 259.609 114.445 259.424 114.266C259.238 114.083 258.953 113.947 258.569 113.858L257.296 113.56C256.596 113.394 256.083 113.137 255.755 112.789C255.43 112.438 255.267 111.999 255.267 111.472C255.267 111.041 255.388 110.66 255.63 110.328C255.876 109.997 256.209 109.737 256.63 109.548C257.054 109.359 257.534 109.264 258.071 109.264C258.827 109.264 259.42 109.43 259.851 109.761C260.285 110.093 260.594 110.53 260.776 111.074ZM262.681 117V109.364H263.855V117H262.681ZM263.278 108.091C263.049 108.091 262.852 108.013 262.686 107.857C262.524 107.701 262.443 107.514 262.443 107.295C262.443 107.077 262.524 106.889 262.686 106.734C262.852 106.578 263.049 106.5 263.278 106.5C263.507 106.5 263.702 106.578 263.865 106.734C264.03 106.889 264.113 107.077 264.113 107.295C264.113 107.514 264.03 107.701 263.865 107.857C263.702 108.013 263.507 108.091 263.278 108.091ZM269.106 117.159C268.416 117.159 267.812 116.995 267.291 116.667C266.774 116.339 266.37 115.88 266.078 115.29C265.79 114.7 265.646 114.01 265.646 113.222C265.646 112.426 265.79 111.732 266.078 111.138C266.37 110.545 266.774 110.085 267.291 109.756C267.812 109.428 268.416 109.264 269.106 109.264C269.795 109.264 270.398 109.428 270.915 109.756C271.436 110.085 271.84 110.545 272.129 111.138C272.42 111.732 272.566 112.426 272.566 113.222C272.566 114.01 272.42 114.7 272.129 115.29C271.84 115.88 271.436 116.339 270.915 116.667C270.398 116.995 269.795 117.159 269.106 117.159ZM269.106 116.105C269.629 116.105 270.06 115.971 270.398 115.702C270.737 115.434 270.987 115.081 271.149 114.643C271.312 114.206 271.393 113.732 271.393 113.222C271.393 112.711 271.312 112.236 271.149 111.795C270.987 111.354 270.737 110.998 270.398 110.726C270.06 110.454 269.629 110.318 269.106 110.318C268.582 110.318 268.151 110.454 267.813 110.726C267.475 110.998 267.225 111.354 267.062 111.795C266.9 112.236 266.819 112.711 266.819 113.222C266.819 113.732 266.9 114.206 267.062 114.643C267.225 115.081 267.475 115.434 267.813 115.702C268.151 115.971 268.582 116.105 269.106 116.105ZM275.53 112.406V117H274.357V109.364H275.491V110.557H275.59C275.769 110.169 276.041 109.857 276.405 109.622C276.77 109.384 277.241 109.264 277.817 109.264C278.334 109.264 278.787 109.37 279.175 109.582C279.562 109.791 279.864 110.109 280.079 110.537C280.295 110.961 280.403 111.498 280.403 112.148V117H279.229V112.227C279.229 111.627 279.073 111.16 278.762 110.825C278.45 110.487 278.023 110.318 277.479 110.318C277.105 110.318 276.77 110.399 276.475 110.562C276.183 110.724 275.953 110.961 275.784 111.273C275.615 111.584 275.53 111.962 275.53 112.406ZM287.956 111.074L286.902 111.372C286.835 111.196 286.738 111.026 286.608 110.86C286.482 110.691 286.31 110.552 286.091 110.442C285.873 110.333 285.592 110.278 285.251 110.278C284.784 110.278 284.394 110.386 284.083 110.602C283.775 110.814 283.62 111.084 283.62 111.412C283.62 111.704 283.726 111.934 283.939 112.103C284.151 112.272 284.482 112.413 284.933 112.526L286.066 112.804C286.749 112.97 287.258 113.223 287.593 113.565C287.927 113.903 288.095 114.339 288.095 114.872C288.095 115.31 287.969 115.701 287.717 116.045C287.468 116.39 287.12 116.662 286.673 116.861C286.225 117.06 285.705 117.159 285.112 117.159C284.333 117.159 283.688 116.99 283.178 116.652C282.667 116.314 282.344 115.82 282.208 115.17L283.322 114.892C283.428 115.303 283.629 115.611 283.924 115.817C284.222 116.022 284.611 116.125 285.092 116.125C285.639 116.125 286.073 116.009 286.395 115.777C286.719 115.542 286.882 115.26 286.882 114.932C286.882 114.667 286.789 114.445 286.603 114.266C286.418 114.083 286.133 113.947 285.748 113.858L284.475 113.56C283.776 113.394 283.262 113.137 282.934 112.789C282.609 112.438 282.447 111.999 282.447 111.472C282.447 111.041 282.568 110.66 282.81 110.328C283.055 109.997 283.388 109.737 283.809 109.548C284.234 109.359 284.714 109.264 285.251 109.264C286.007 109.264 286.6 109.43 287.031 109.761C287.465 110.093 287.773 110.53 287.956 111.074Z" fill="#C8C8C8"/>
</svg>
