<svg width="450" height="160" viewBox="0 0 450 160" fill="none" xmlns="http://www.w3.org/2000/svg">
<g filter="url(#filter0_d_716_99)">
<path d="M52.9978 76.2188L38.8547 66.3359C38.1605 66.7656 37.3796 67.0234 36.5119 67.0234C33.9957 67.0234 32 65.0469 32 62.5547C32 60.0625 33.9957 58 36.5119 58C39.0282 58 41.0239 60.0625 41.0239 62.5547C41.0239 62.8984 41.0239 63.3281 40.8503 63.6719C45.3623 67.1094 53.1714 72.6094 55.5141 74.4141C56.6421 73.8125 57.9436 73.4688 59.2451 73.2969V67.9688C57.6833 67.3672 56.8156 65.9922 56.8156 64.3594C56.8156 62.0391 58.551 60.2344 60.8069 60.2344C63.1497 60.2344 64.885 62.0391 64.885 64.3594C64.885 65.9922 64.0174 67.3672 62.4555 67.9688V73.2969C67.9219 74.1562 72 78.7969 72 84.3828C72 90.5703 66.9675 95.5547 60.7202 95.5547C58.2039 95.5547 55.7744 94.6953 53.8655 93.2344L49.5271 97.5312C49.6139 97.875 49.7007 98.2188 49.7007 98.5625C49.7007 99.5078 49.3536 100.367 48.6594 101.055C48.0521 101.742 47.0976 102 46.2299 102C45.2755 102 44.4078 101.656 43.7137 101.055C43.1063 100.367 42.6725 99.5078 42.6725 98.5625C42.6725 97.7031 43.1063 96.7578 43.7137 96.1562C44.4078 95.4688 45.2755 95.125 46.2299 95.125C46.6638 95.125 47.0108 95.2109 47.4447 95.2969L51.6963 91.0859C50.308 89.1953 49.4403 86.875 49.4403 84.3828C49.4403 81.1172 50.8286 78.2812 52.9978 76.2188ZM60.7202 90.3125C64.1041 90.3125 66.7072 87.6484 66.7072 84.3828C66.7072 81.1172 64.1041 78.4531 60.7202 78.4531C57.423 78.4531 54.7332 81.1172 54.7332 84.3828C54.7332 87.6484 57.423 90.3125 60.7202 90.3125Z" fill="white"/>
</g>
<path d="M97.2642 59V44.4545H100.339V50.456H106.582V44.4545H109.651V59H106.582V52.9915H100.339V59H97.2642ZM119.125 54.3551V48.0909H122.151V59H119.246V57.0185H119.132C118.886 57.6577 118.476 58.1714 117.903 58.5597C117.335 58.9479 116.642 59.142 115.822 59.142C115.093 59.142 114.452 58.9763 113.898 58.6449C113.344 58.3134 112.911 57.8423 112.598 57.2315C112.29 56.6207 112.134 55.8892 112.129 55.0369V48.0909H115.155V54.4972C115.16 55.1411 115.332 55.6501 115.673 56.0241C116.014 56.3982 116.471 56.5852 117.044 56.5852C117.409 56.5852 117.75 56.5024 118.067 56.3366C118.384 56.1662 118.64 55.9152 118.834 55.5838C119.033 55.2524 119.13 54.8428 119.125 54.3551ZM124.627 59V44.4545H127.653V49.9233H127.745C127.878 49.6297 128.07 49.3314 128.321 49.0284C128.576 48.7206 128.908 48.465 129.315 48.2614C129.727 48.053 130.238 47.9489 130.849 47.9489C131.645 47.9489 132.378 48.1572 133.051 48.5739C133.723 48.9858 134.261 49.6084 134.663 50.4418C135.065 51.2704 135.267 52.3097 135.267 53.5597C135.267 54.7765 135.07 55.804 134.677 56.642C134.289 57.4754 133.759 58.1075 133.086 58.5384C132.419 58.9645 131.671 59.1776 130.842 59.1776C130.255 59.1776 129.755 59.0805 129.343 58.8864C128.936 58.6922 128.602 58.4484 128.342 58.1548C128.082 57.8565 127.883 57.5559 127.745 57.2528H127.61V59H124.627ZM127.589 53.5455C127.589 54.1941 127.679 54.7599 127.859 55.2429C128.039 55.7259 128.299 56.1023 128.64 56.3722C128.981 56.6373 129.395 56.7699 129.883 56.7699C130.376 56.7699 130.792 56.6349 131.133 56.3651C131.474 56.0904 131.732 55.7116 131.907 55.2287C132.087 54.741 132.177 54.1799 132.177 53.5455C132.177 52.9157 132.09 52.3617 131.914 51.8835C131.739 51.4053 131.481 51.0312 131.14 50.7614C130.799 50.4915 130.38 50.3565 129.883 50.3565C129.391 50.3565 128.974 50.4867 128.633 50.7472C128.297 51.0076 128.039 51.3769 127.859 51.8551C127.679 52.3333 127.589 52.8968 127.589 53.5455Z" fill="white"/>
<rect x="145" y="38" width="102" height="28" rx="14" fill="#00F0FF" fill-opacity="0.1"/>
<path d="M165.009 50.0348C164.913 49.7332 164.784 49.4631 164.621 49.2244C164.462 48.9825 164.272 48.777 164.05 48.608C163.828 48.4356 163.574 48.3047 163.289 48.2152C163.007 48.1257 162.697 48.081 162.359 48.081C161.786 48.081 161.269 48.2285 160.808 48.5234C160.348 48.8184 159.983 49.2509 159.714 49.821C159.449 50.3878 159.317 51.0821 159.317 51.9041C159.317 52.7294 159.451 53.4271 159.719 53.9972C159.988 54.5672 160.356 54.9998 160.823 55.2947C161.29 55.5897 161.822 55.7372 162.419 55.7372C162.973 55.7372 163.455 55.6245 163.866 55.3991C164.28 55.1738 164.6 54.8556 164.825 54.4446C165.054 54.0303 165.168 53.5431 165.168 52.983L165.566 53.0575H162.653V51.7898H166.655V52.9482C166.655 53.8033 166.473 54.5457 166.108 55.1754C165.747 55.8018 165.246 56.2857 164.607 56.6271C163.97 56.9685 163.241 57.1392 162.419 57.1392C161.498 57.1392 160.689 56.9271 159.993 56.5028C159.3 56.0786 158.76 55.477 158.372 54.6982C157.984 53.916 157.79 52.9879 157.79 51.9141C157.79 51.102 157.903 50.3729 158.129 49.7266C158.354 49.0803 158.67 48.5317 159.078 48.081C159.489 47.6269 159.971 47.2805 160.525 47.0419C161.082 46.8 161.69 46.679 162.349 46.679C162.9 46.679 163.412 46.7602 163.886 46.9226C164.363 47.085 164.787 47.3153 165.158 47.6136C165.533 47.9119 165.843 48.2666 166.088 48.6776C166.333 49.0852 166.499 49.5376 166.585 50.0348H165.009ZM170.708 57.169C170.224 57.169 169.787 57.0795 169.395 56.9006C169.004 56.7183 168.694 56.4548 168.466 56.1101C168.24 55.7654 168.128 55.3428 168.128 54.8423C168.128 54.4115 168.211 54.0568 168.376 53.7784C168.542 53.5 168.766 53.2796 169.047 53.1172C169.329 52.9548 169.644 52.8321 169.992 52.7493C170.34 52.6664 170.695 52.6035 171.056 52.5604C171.513 52.5073 171.885 52.4643 172.17 52.4311C172.455 52.3946 172.662 52.3366 172.791 52.2571C172.92 52.1776 172.985 52.0483 172.985 51.8693V51.8345C172.985 51.4003 172.862 51.0639 172.617 50.8253C172.375 50.5866 172.014 50.4673 171.533 50.4673C171.033 50.4673 170.638 50.5784 170.35 50.8004C170.065 51.0192 169.868 51.2628 169.758 51.5312L168.361 51.2131C168.527 50.7491 168.769 50.3745 169.087 50.0895C169.409 49.8011 169.778 49.5923 170.196 49.4631C170.613 49.3305 171.053 49.2642 171.513 49.2642C171.818 49.2642 172.141 49.3007 172.483 49.3736C172.827 49.4432 173.149 49.5724 173.447 49.7614C173.749 49.9503 173.996 50.2204 174.188 50.5717C174.38 50.9197 174.476 51.3722 174.476 51.929V57H173.025V55.956H172.965C172.869 56.1482 172.725 56.3371 172.532 56.5227C172.34 56.7083 172.093 56.8625 171.792 56.9851C171.49 57.1077 171.129 57.169 170.708 57.169ZM171.031 55.9759C171.442 55.9759 171.793 55.8946 172.085 55.7322C172.38 55.5698 172.604 55.3577 172.756 55.0959C172.912 54.8307 172.99 54.5473 172.99 54.2457V53.2614C172.937 53.3144 172.834 53.3641 172.682 53.4105C172.532 53.4536 172.362 53.4917 172.17 53.5249C171.977 53.5547 171.79 53.5829 171.608 53.6094C171.425 53.6326 171.273 53.6525 171.15 53.669C170.862 53.7055 170.599 53.7668 170.36 53.853C170.125 53.9392 169.936 54.0634 169.793 54.2259C169.654 54.3849 169.584 54.5971 169.584 54.8622C169.584 55.2301 169.72 55.5085 169.992 55.6974C170.264 55.883 170.61 55.9759 171.031 55.9759ZM176.456 57V49.3636H177.883V50.6065H177.978C178.137 50.1856 178.397 49.8575 178.758 49.6222C179.119 49.3835 179.552 49.2642 180.056 49.2642C180.566 49.2642 180.994 49.3835 181.338 49.6222C181.686 49.8608 181.943 50.1889 182.109 50.6065H182.189C182.371 50.1989 182.661 49.8741 183.059 49.6321C183.456 49.3868 183.93 49.2642 184.48 49.2642C185.173 49.2642 185.738 49.4813 186.176 49.9155C186.617 50.3497 186.837 51.0043 186.837 51.8793V57H185.35V52.0185C185.35 51.5014 185.21 51.1269 184.928 50.8949C184.646 50.6629 184.31 50.5469 183.919 50.5469C183.435 50.5469 183.059 50.696 182.79 50.9943C182.522 51.2893 182.387 51.6688 182.387 52.1328V57H180.906V51.924C180.906 51.5097 180.777 51.1766 180.518 50.9247C180.26 50.6728 179.923 50.5469 179.509 50.5469C179.227 50.5469 178.967 50.6214 178.728 50.7706C178.493 50.9164 178.302 51.1203 178.157 51.3821C178.014 51.6439 177.943 51.9472 177.943 52.2919V57H176.456ZM192.121 57.1541C191.368 57.1541 190.72 56.9934 190.177 56.6719C189.636 56.3471 189.219 55.8913 188.924 55.3047C188.632 54.7147 188.486 54.0237 188.486 53.2315C188.486 52.4493 188.632 51.7599 188.924 51.1634C189.219 50.5668 189.63 50.1011 190.157 49.7663C190.687 49.4316 191.307 49.2642 192.016 49.2642C192.447 49.2642 192.865 49.3355 193.269 49.478C193.673 49.6205 194.036 49.8442 194.358 50.1491C194.679 50.4541 194.933 50.8501 195.118 51.3374C195.304 51.8213 195.397 52.4096 195.397 53.1023V53.6293H189.327V52.5156H193.94C193.94 52.1245 193.861 51.7782 193.702 51.4766C193.542 51.1716 193.319 50.9313 193.03 50.7557C192.745 50.58 192.411 50.4922 192.026 50.4922C191.608 50.4922 191.244 50.5949 190.932 50.8004C190.624 51.0026 190.385 51.2678 190.216 51.5959C190.051 51.9207 189.968 52.2737 189.968 52.6548V53.5249C189.968 54.0353 190.057 54.4695 190.236 54.8274C190.419 55.1854 190.672 55.4588 190.997 55.6477C191.322 55.8333 191.701 55.9261 192.135 55.9261C192.417 55.9261 192.674 55.8864 192.906 55.8068C193.138 55.724 193.339 55.6013 193.508 55.4389C193.677 55.2765 193.806 55.076 193.895 54.8374L195.302 55.0909C195.19 55.5052 194.988 55.8681 194.696 56.1797C194.407 56.4879 194.045 56.7282 193.607 56.9006C193.173 57.0696 192.677 57.1541 192.121 57.1541ZM198.448 57L195.624 46.8182H197.24L199.224 54.7031H199.318L201.381 46.8182H202.982L205.045 54.7081H205.14L207.119 46.8182H208.739L205.911 57H204.364L202.222 49.3736H202.142L199.999 57H198.448ZM212.485 57.1541C211.77 57.1541 211.145 56.9901 210.611 56.6619C210.078 56.3338 209.663 55.8748 209.368 55.2848C209.073 54.6948 208.926 54.0054 208.926 53.2166C208.926 52.4245 209.073 51.7318 209.368 51.1385C209.663 50.5452 210.078 50.0845 210.611 49.7564C211.145 49.4283 211.77 49.2642 212.485 49.2642C213.201 49.2642 213.826 49.4283 214.36 49.7564C214.893 50.0845 215.308 50.5452 215.603 51.1385C215.898 51.7318 216.045 52.4245 216.045 53.2166C216.045 54.0054 215.898 54.6948 215.603 55.2848C215.308 55.8748 214.893 56.3338 214.36 56.6619C213.826 56.9901 213.201 57.1541 212.485 57.1541ZM212.49 55.9062C212.954 55.9062 213.339 55.7836 213.644 55.5384C213.949 55.2931 214.174 54.9666 214.32 54.5589C214.469 54.1513 214.544 53.7022 214.544 53.2116C214.544 52.7244 214.469 52.277 214.32 51.8693C214.174 51.4583 213.949 51.1286 213.644 50.88C213.339 50.6314 212.954 50.5071 212.49 50.5071C212.023 50.5071 211.635 50.6314 211.327 50.88C211.022 51.1286 210.795 51.4583 210.646 51.8693C210.5 52.277 210.427 52.7244 210.427 53.2116C210.427 53.7022 210.5 54.1513 210.646 54.5589C210.795 54.9666 211.022 55.2931 211.327 55.5384C211.635 55.7836 212.023 55.9062 212.49 55.9062ZM217.704 57V49.3636H219.141V50.5767H219.221C219.36 50.1657 219.605 49.8426 219.956 49.6072C220.311 49.3686 220.712 49.2493 221.16 49.2493C221.252 49.2493 221.362 49.2526 221.488 49.2592C221.617 49.2659 221.718 49.2741 221.791 49.2841V50.706C221.731 50.6894 221.625 50.6712 221.473 50.6513C221.32 50.6281 221.168 50.6165 221.015 50.6165C220.664 50.6165 220.351 50.6911 220.076 50.8402C219.804 50.986 219.589 51.1899 219.43 51.4517C219.27 51.7102 219.191 52.0052 219.191 52.3366V57H217.704ZM224.564 46.8182V57H223.077V46.8182H224.564ZM229.422 57.1491C228.806 57.1491 228.256 56.9917 227.772 56.6768C227.291 56.3587 226.913 55.9062 226.638 55.3196C226.367 54.7296 226.231 54.022 226.231 53.1967C226.231 52.3714 226.368 51.6655 226.643 51.0788C226.922 50.4922 227.303 50.0431 227.787 49.7315C228.271 49.42 228.819 49.2642 229.432 49.2642C229.906 49.2642 230.287 49.3438 230.576 49.5028C230.867 49.6586 231.093 49.8409 231.252 50.0497C231.414 50.2585 231.54 50.4425 231.63 50.6016H231.719V46.8182H233.206V57H231.754V55.8118H231.63C231.54 55.9742 231.411 56.1598 231.242 56.3686C231.076 56.5774 230.848 56.7597 230.556 56.9155C230.264 57.0713 229.886 57.1491 229.422 57.1491ZM229.751 55.8814C230.178 55.8814 230.539 55.7687 230.834 55.5433C231.133 55.3146 231.358 54.9981 231.51 54.5938C231.666 54.1894 231.744 53.7187 231.744 53.1818C231.744 52.6515 231.668 52.1875 231.515 51.7898C231.363 51.392 231.139 51.0821 230.844 50.8601C230.549 50.638 230.185 50.527 229.751 50.527C229.303 50.527 228.93 50.643 228.632 50.875C228.334 51.107 228.108 51.4235 227.956 51.8246C227.807 52.2256 227.732 52.678 227.732 53.1818C227.732 53.6922 227.808 54.1513 227.961 54.5589C228.113 54.9666 228.339 55.2898 228.637 55.5284C228.939 55.7637 229.31 55.8814 229.751 55.8814Z" fill="#00F0FF"/>
<path d="M97.6506 97H96.358L100.097 86.8182H101.369L105.108 97H103.815L100.773 88.429H100.693L97.6506 97ZM98.1278 93.0227H103.338V94.1165H98.1278V93.0227ZM113.575 97.1591C112.859 97.1591 112.242 96.9901 111.725 96.652C111.208 96.3139 110.81 95.8482 110.532 95.255C110.254 94.6617 110.114 93.9839 110.114 93.2216C110.114 92.446 110.257 91.7616 110.542 91.1683C110.83 90.5717 111.231 90.1061 111.745 89.7713C112.262 89.4332 112.865 89.2642 113.555 89.2642C114.092 89.2642 114.576 89.3636 115.006 89.5625C115.437 89.7614 115.79 90.0398 116.065 90.3977C116.34 90.7557 116.511 91.1733 116.577 91.6506H115.404C115.315 91.3026 115.116 90.9943 114.808 90.7259C114.503 90.4541 114.092 90.3182 113.575 90.3182C113.117 90.3182 112.716 90.4375 112.371 90.6761C112.03 90.9115 111.763 91.2446 111.571 91.6754C111.382 92.103 111.288 92.6051 111.288 93.1818C111.288 93.7718 111.38 94.2855 111.566 94.723C111.755 95.1605 112.02 95.5002 112.362 95.7422C112.706 95.9841 113.111 96.1051 113.575 96.1051C113.879 96.1051 114.156 96.0521 114.405 95.946C114.653 95.84 114.864 95.6875 115.036 95.4886C115.209 95.2898 115.331 95.0511 115.404 94.7727H116.577C116.511 95.2235 116.347 95.6295 116.085 95.9908C115.827 96.3487 115.484 96.6338 115.056 96.8459C114.632 97.0547 114.138 97.1591 113.575 97.1591ZM121.395 97.1591C120.705 97.1591 120.101 96.995 119.58 96.6669C119.063 96.3388 118.659 95.8797 118.367 95.2898C118.079 94.6998 117.935 94.0104 117.935 93.2216C117.935 92.4261 118.079 91.7318 118.367 91.1385C118.659 90.5452 119.063 90.0845 119.58 89.7564C120.101 89.4283 120.705 89.2642 121.395 89.2642C122.084 89.2642 122.688 89.4283 123.205 89.7564C123.725 90.0845 124.129 90.5452 124.418 91.1385C124.709 91.7318 124.855 92.4261 124.855 93.2216C124.855 94.0104 124.709 94.6998 124.418 95.2898C124.129 95.8797 123.725 96.3388 123.205 96.6669C122.688 96.995 122.084 97.1591 121.395 97.1591ZM121.395 96.1051C121.919 96.1051 122.349 95.9709 122.688 95.7024C123.026 95.4339 123.276 95.081 123.438 94.6435C123.601 94.206 123.682 93.732 123.682 93.2216C123.682 92.7112 123.601 92.2356 123.438 91.7947C123.276 91.3539 123.026 90.9976 122.688 90.7259C122.349 90.4541 121.919 90.3182 121.395 90.3182C120.871 90.3182 120.44 90.4541 120.102 90.7259C119.764 90.9976 119.514 91.3539 119.352 91.7947C119.189 92.2356 119.108 92.7112 119.108 93.2216C119.108 93.732 119.189 94.206 119.352 94.6435C119.514 95.081 119.764 95.4339 120.102 95.7024C120.44 95.9709 120.871 96.1051 121.395 96.1051ZM126.646 97V89.3636H127.78V90.5568H127.879C128.038 90.1491 128.295 89.8326 128.65 89.6072C129.004 89.3786 129.43 89.2642 129.927 89.2642C130.431 89.2642 130.85 89.3786 131.185 89.6072C131.523 89.8326 131.787 90.1491 131.976 90.5568H132.055C132.251 90.1624 132.544 89.8492 132.935 89.6172C133.326 89.3819 133.795 89.2642 134.342 89.2642C135.025 89.2642 135.583 89.478 136.018 89.9055C136.452 90.3298 136.669 90.991 136.669 91.8892V97H135.496V91.8892C135.496 91.3258 135.341 90.9231 135.033 90.6811C134.725 90.4392 134.362 90.3182 133.944 90.3182C133.407 90.3182 132.992 90.4806 132.697 90.8054C132.402 91.1269 132.254 91.5346 132.254 92.0284V97H131.061V91.7699C131.061 91.3357 130.92 90.986 130.638 90.7209C130.357 90.4524 129.994 90.3182 129.55 90.3182C129.245 90.3182 128.96 90.3994 128.694 90.5618C128.433 90.7242 128.22 90.9496 128.058 91.2379C127.899 91.523 127.819 91.8527 127.819 92.2273V97H126.646ZM138.814 99.8636V89.3636H139.948V90.5767H140.087C140.173 90.4441 140.292 90.2751 140.445 90.0696C140.601 89.8608 140.823 89.6752 141.111 89.5128C141.403 89.3471 141.797 89.2642 142.294 89.2642C142.937 89.2642 143.504 89.425 143.994 89.7464C144.485 90.0679 144.868 90.5237 145.143 91.1136C145.418 91.7036 145.556 92.3996 145.556 93.2017C145.556 94.0104 145.418 94.7114 145.143 95.3047C144.868 95.8946 144.487 96.352 143.999 96.6768C143.512 96.9983 142.95 97.1591 142.314 97.1591C141.824 97.1591 141.431 97.0779 141.136 96.9155C140.841 96.7498 140.614 96.5625 140.455 96.3537C140.296 96.1416 140.173 95.9659 140.087 95.8267H139.987V99.8636H138.814ZM139.968 93.1818C139.968 93.7585 140.052 94.2673 140.221 94.7081C140.39 95.1456 140.637 95.4886 140.962 95.7372C141.287 95.9825 141.684 96.1051 142.155 96.1051C142.646 96.1051 143.055 95.9759 143.383 95.7173C143.714 95.4555 143.963 95.1042 144.129 94.6634C144.298 94.2192 144.382 93.7254 144.382 93.1818C144.382 92.6449 144.299 92.161 144.134 91.7301C143.971 91.2959 143.724 90.9529 143.393 90.701C143.065 90.4458 142.652 90.3182 142.155 90.3182C141.678 90.3182 141.277 90.4392 140.952 90.6811C140.627 90.9197 140.382 91.2545 140.216 91.6854C140.05 92.1129 139.968 92.6117 139.968 93.1818ZM148.519 86.8182V97H147.345V86.8182H148.519ZM153.869 97.1591C153.134 97.1591 152.499 96.9967 151.965 96.6719C151.435 96.3438 151.026 95.8864 150.737 95.2997C150.452 94.7098 150.31 94.0237 150.31 93.2415C150.31 92.4593 150.452 91.7699 150.737 91.1733C151.026 90.5734 151.427 90.1061 151.94 89.7713C152.457 89.4332 153.061 89.2642 153.75 89.2642C154.148 89.2642 154.54 89.3305 154.928 89.4631C155.316 89.5956 155.669 89.8111 155.987 90.1094C156.305 90.4044 156.559 90.7955 156.748 91.2827C156.937 91.7699 157.031 92.3698 157.031 93.0824V93.5795H151.145V92.5653H155.838C155.838 92.1345 155.752 91.75 155.58 91.4119C155.411 91.0739 155.169 90.8071 154.854 90.6115C154.542 90.416 154.174 90.3182 153.75 90.3182C153.283 90.3182 152.878 90.4342 152.537 90.6662C152.199 90.8949 151.939 91.1932 151.756 91.5611C151.574 91.929 151.483 92.3234 151.483 92.7443V93.4205C151.483 93.9972 151.582 94.486 151.781 94.8871C151.983 95.2848 152.263 95.5881 152.621 95.7969C152.979 96.0024 153.395 96.1051 153.869 96.1051C154.178 96.1051 154.456 96.062 154.705 95.9759C154.956 95.8864 155.174 95.7538 155.356 95.5781C155.538 95.3991 155.679 95.1771 155.778 94.9119L156.912 95.2301C156.793 95.6146 156.592 95.9527 156.31 96.2443C156.029 96.5327 155.681 96.758 155.266 96.9205C154.852 97.0795 154.386 97.1591 153.869 97.1591ZM162.137 89.3636V90.358H158.18V89.3636H162.137ZM159.333 87.5341H160.506V94.8125C160.506 95.1439 160.554 95.3925 160.651 95.5582C160.75 95.7206 160.876 95.83 161.028 95.8864C161.184 95.9394 161.348 95.9659 161.521 95.9659C161.65 95.9659 161.756 95.9593 161.839 95.946C161.922 95.9295 161.988 95.9162 162.038 95.9062L162.276 96.9602C162.197 96.9901 162.086 97.0199 161.943 97.0497C161.801 97.0829 161.62 97.0994 161.401 97.0994C161.07 97.0994 160.745 97.0282 160.427 96.8857C160.112 96.7431 159.85 96.526 159.641 96.2344C159.436 95.9427 159.333 95.5748 159.333 95.1307V87.5341ZM167.022 97.1591C166.286 97.1591 165.651 96.9967 165.118 96.6719C164.587 96.3438 164.178 95.8864 163.89 95.2997C163.605 94.7098 163.462 94.0237 163.462 93.2415C163.462 92.4593 163.605 91.7699 163.89 91.1733C164.178 90.5734 164.579 90.1061 165.093 89.7713C165.61 89.4332 166.213 89.2642 166.902 89.2642C167.3 89.2642 167.693 89.3305 168.081 89.4631C168.468 89.5956 168.821 89.8111 169.14 90.1094C169.458 90.4044 169.711 90.7955 169.9 91.2827C170.089 91.7699 170.184 92.3698 170.184 93.0824V93.5795H164.297V92.5653H168.99C168.99 92.1345 168.904 91.75 168.732 91.4119C168.563 91.0739 168.321 90.8071 168.006 90.6115C167.694 90.416 167.327 90.3182 166.902 90.3182C166.435 90.3182 166.031 90.4342 165.689 90.6662C165.351 90.8949 165.091 91.1932 164.909 91.5611C164.726 91.929 164.635 92.3234 164.635 92.7443V93.4205C164.635 93.9972 164.735 94.486 164.934 94.8871C165.136 95.2848 165.416 95.5881 165.774 95.7969C166.132 96.0024 166.548 96.1051 167.022 96.1051C167.33 96.1051 167.608 96.062 167.857 95.9759C168.109 95.8864 168.326 95.7538 168.508 95.5781C168.69 95.3991 168.831 95.1771 168.931 94.9119L170.064 95.2301C169.945 95.6146 169.744 95.9527 169.463 96.2443C169.181 96.5327 168.833 96.758 168.419 96.9205C168.004 97.0795 167.539 97.1591 167.022 97.1591ZM181.315 91.0739L180.261 91.3722C180.195 91.1965 180.097 91.0258 179.968 90.8601C179.842 90.6911 179.669 90.5518 179.451 90.4425C179.232 90.3331 178.952 90.2784 178.61 90.2784C178.143 90.2784 177.754 90.3861 177.442 90.6016C177.134 90.8137 176.98 91.0838 176.98 91.4119C176.98 91.7036 177.086 91.9339 177.298 92.103C177.51 92.272 177.842 92.4129 178.292 92.5256L179.426 92.804C180.109 92.9697 180.617 93.2232 180.952 93.5646C181.287 93.9027 181.454 94.3385 181.454 94.8722C181.454 95.3097 181.328 95.7008 181.076 96.0455C180.828 96.3902 180.48 96.6619 180.032 96.8608C179.585 97.0597 179.065 97.1591 178.471 97.1591C177.692 97.1591 177.048 96.9901 176.537 96.652C176.027 96.3139 175.704 95.8201 175.568 95.1705L176.681 94.892C176.788 95.303 176.988 95.6113 177.283 95.8168C177.581 96.0223 177.971 96.125 178.451 96.125C178.998 96.125 179.432 96.009 179.754 95.777C180.079 95.5417 180.241 95.2599 180.241 94.9318C180.241 94.6667 180.148 94.4446 179.963 94.2656C179.777 94.0833 179.492 93.9474 179.108 93.858L177.835 93.5597C177.136 93.3939 176.622 93.1371 176.294 92.7891C175.969 92.4377 175.806 91.9986 175.806 91.4716C175.806 91.0407 175.927 90.6596 176.169 90.3281C176.415 89.9967 176.748 89.7365 177.169 89.5476C177.593 89.3587 178.074 89.2642 178.61 89.2642C179.366 89.2642 179.959 89.4299 180.39 89.7614C180.824 90.0928 181.133 90.5303 181.315 91.0739ZM186.323 97.1591C185.633 97.1591 185.028 96.995 184.508 96.6669C183.991 96.3388 183.587 95.8797 183.295 95.2898C183.007 94.6998 182.862 94.0104 182.862 93.2216C182.862 92.4261 183.007 91.7318 183.295 91.1385C183.587 90.5452 183.991 90.0845 184.508 89.7564C185.028 89.4283 185.633 89.2642 186.323 89.2642C187.012 89.2642 187.615 89.4283 188.132 89.7564C188.653 90.0845 189.057 90.5452 189.345 91.1385C189.637 91.7318 189.783 92.4261 189.783 93.2216C189.783 94.0104 189.637 94.6998 189.345 95.2898C189.057 95.8797 188.653 96.3388 188.132 96.6669C187.615 96.995 187.012 97.1591 186.323 97.1591ZM186.323 96.1051C186.846 96.1051 187.277 95.9709 187.615 95.7024C187.953 95.4339 188.204 95.081 188.366 94.6435C188.528 94.206 188.61 93.732 188.61 93.2216C188.61 92.7112 188.528 92.2356 188.366 91.7947C188.204 91.3539 187.953 90.9976 187.615 90.7259C187.277 90.4541 186.846 90.3182 186.323 90.3182C185.799 90.3182 185.368 90.4541 185.03 90.7259C184.692 90.9976 184.442 91.3539 184.279 91.7947C184.117 92.2356 184.036 92.7112 184.036 93.2216C184.036 93.732 184.117 94.206 184.279 94.6435C184.442 95.081 184.692 95.4339 185.03 95.7024C185.368 95.9709 185.799 96.1051 186.323 96.1051ZM196.386 93.8778V89.3636H197.56V97H196.386V95.7074H196.307C196.128 96.0952 195.849 96.425 195.472 96.6967C195.094 96.9652 194.616 97.0994 194.04 97.0994C193.562 97.0994 193.138 96.995 192.767 96.7862C192.396 96.5741 192.104 96.2559 191.892 95.8317C191.68 95.4041 191.574 94.8655 191.574 94.2159V89.3636H192.747V94.1364C192.747 94.6932 192.903 95.1373 193.214 95.4688C193.529 95.8002 193.93 95.9659 194.418 95.9659C194.709 95.9659 195.006 95.8913 195.308 95.7422C195.612 95.593 195.868 95.3643 196.073 95.0561C196.282 94.7479 196.386 94.3551 196.386 93.8778ZM199.709 97V89.3636H200.842V90.517H200.922C201.061 90.1392 201.313 89.8326 201.677 89.5973C202.042 89.362 202.453 89.2443 202.91 89.2443C202.997 89.2443 203.104 89.246 203.233 89.2493C203.363 89.2526 203.461 89.2576 203.527 89.2642V90.4574C203.487 90.4474 203.396 90.4325 203.253 90.4126C203.114 90.3894 202.967 90.3778 202.811 90.3778C202.44 90.3778 202.108 90.4557 201.817 90.6115C201.528 90.764 201.3 90.9761 201.131 91.2479C200.965 91.5163 200.882 91.8229 200.882 92.1676V97H199.709ZM207.787 97.1591C207.072 97.1591 206.455 96.9901 205.938 96.652C205.421 96.3139 205.023 95.8482 204.745 95.255C204.466 94.6617 204.327 93.9839 204.327 93.2216C204.327 92.446 204.47 91.7616 204.755 91.1683C205.043 90.5717 205.444 90.1061 205.958 89.7713C206.475 89.4332 207.078 89.2642 207.768 89.2642C208.305 89.2642 208.788 89.3636 209.219 89.5625C209.65 89.7614 210.003 90.0398 210.278 90.3977C210.553 90.7557 210.724 91.1733 210.79 91.6506H209.617C209.528 91.3026 209.329 90.9943 209.02 90.7259C208.715 90.4541 208.305 90.3182 207.787 90.3182C207.33 90.3182 206.929 90.4375 206.584 90.6761C206.243 90.9115 205.976 91.2446 205.784 91.6754C205.595 92.103 205.501 92.6051 205.501 93.1818C205.501 93.7718 205.593 94.2855 205.779 94.723C205.968 95.1605 206.233 95.5002 206.574 95.7422C206.919 95.9841 207.323 96.1051 207.787 96.1051C208.092 96.1051 208.369 96.0521 208.618 95.946C208.866 95.84 209.077 95.6875 209.249 95.4886C209.421 95.2898 209.544 95.0511 209.617 94.7727H210.79C210.724 95.2235 210.56 95.6295 210.298 95.9908C210.04 96.3487 209.697 96.6338 209.269 96.8459C208.845 97.0547 208.351 97.1591 207.787 97.1591ZM215.707 97.1591C214.971 97.1591 214.337 96.9967 213.803 96.6719C213.273 96.3438 212.863 95.8864 212.575 95.2997C212.29 94.7098 212.148 94.0237 212.148 93.2415C212.148 92.4593 212.29 91.7699 212.575 91.1733C212.863 90.5734 213.265 90.1061 213.778 89.7713C214.295 89.4332 214.898 89.2642 215.588 89.2642C215.986 89.2642 216.378 89.3305 216.766 89.4631C217.154 89.5956 217.507 89.8111 217.825 90.1094C218.143 90.4044 218.397 90.7955 218.586 91.2827C218.775 91.7699 218.869 92.3698 218.869 93.0824V93.5795H212.983V92.5653H217.676C217.676 92.1345 217.59 91.75 217.417 91.4119C217.248 91.0739 217.006 90.8071 216.692 90.6115C216.38 90.416 216.012 90.3182 215.588 90.3182C215.121 90.3182 214.716 90.4342 214.375 90.6662C214.037 90.8949 213.777 91.1932 213.594 91.5611C213.412 91.929 213.321 92.3234 213.321 92.7443V93.4205C213.321 93.9972 213.42 94.486 213.619 94.8871C213.821 95.2848 214.101 95.5881 214.459 95.7969C214.817 96.0024 215.233 96.1051 215.707 96.1051C216.015 96.1051 216.294 96.062 216.542 95.9759C216.794 95.8864 217.011 95.7538 217.194 95.5781C217.376 95.3991 217.517 95.1771 217.616 94.9119L218.75 95.2301C218.631 95.6146 218.43 95.9527 218.148 96.2443C217.867 96.5327 217.519 96.758 217.104 96.9205C216.69 97.0795 216.224 97.1591 215.707 97.1591ZM227.694 97.1591C227.004 97.1591 226.399 96.995 225.879 96.6669C225.362 96.3388 224.958 95.8797 224.666 95.2898C224.378 94.6998 224.233 94.0104 224.233 93.2216C224.233 92.4261 224.378 91.7318 224.666 91.1385C224.958 90.5452 225.362 90.0845 225.879 89.7564C226.399 89.4283 227.004 89.2642 227.694 89.2642C228.383 89.2642 228.986 89.4283 229.503 89.7564C230.024 90.0845 230.428 90.5452 230.716 91.1385C231.008 91.7318 231.154 92.4261 231.154 93.2216C231.154 94.0104 231.008 94.6998 230.716 95.2898C230.428 95.8797 230.024 96.3388 229.503 96.6669C228.986 96.995 228.383 97.1591 227.694 97.1591ZM227.694 96.1051C228.217 96.1051 228.648 95.9709 228.986 95.7024C229.324 95.4339 229.575 95.081 229.737 94.6435C229.899 94.206 229.981 93.732 229.981 93.2216C229.981 92.7112 229.899 92.2356 229.737 91.7947C229.575 91.3539 229.324 90.9976 228.986 90.7259C228.648 90.4541 228.217 90.3182 227.694 90.3182C227.17 90.3182 226.739 90.4541 226.401 90.7259C226.063 90.9976 225.813 91.3539 225.65 91.7947C225.488 92.2356 225.407 92.7112 225.407 93.2216C225.407 93.732 225.488 94.206 225.65 94.6435C225.813 95.081 226.063 95.4339 226.401 95.7024C226.739 95.9709 227.17 96.1051 227.694 96.1051ZM236.346 89.3636V90.358H232.229V89.3636H236.346ZM233.462 97V88.3097C233.462 87.8722 233.565 87.5076 233.77 87.2159C233.976 86.9242 234.243 86.7055 234.571 86.5597C234.899 86.4138 235.245 86.3409 235.61 86.3409C235.898 86.3409 236.133 86.3641 236.316 86.4105C236.498 86.4569 236.634 86.5 236.723 86.5398L236.385 87.554C236.326 87.5341 236.243 87.5092 236.137 87.4794C236.034 87.4496 235.898 87.4347 235.729 87.4347C235.341 87.4347 235.061 87.5324 234.889 87.728C234.72 87.9235 234.635 88.2102 234.635 88.5881V97H233.462ZM241.927 97V89.3636H243.101V97H241.927ZM242.524 88.0909C242.295 88.0909 242.098 88.013 241.932 87.8572C241.77 87.7015 241.689 87.5142 241.689 87.2955C241.689 87.0767 241.77 86.8894 241.932 86.7337C242.098 86.5779 242.295 86.5 242.524 86.5C242.753 86.5 242.948 86.5779 243.111 86.7337C243.276 86.8894 243.359 87.0767 243.359 87.2955C243.359 87.5142 243.276 87.7015 243.111 87.8572C242.948 88.013 242.753 88.0909 242.524 88.0909ZM246.423 92.4062V97H245.25V89.3636H246.383V90.5568H246.483C246.662 90.169 246.933 89.8575 247.298 89.6222C247.663 89.3835 248.133 89.2642 248.71 89.2642C249.227 89.2642 249.679 89.3703 250.067 89.5824C250.455 89.7912 250.757 90.1094 250.972 90.5369C251.187 90.9612 251.295 91.4981 251.295 92.1477V97H250.122V92.2273C250.122 91.6274 249.966 91.16 249.654 90.8253C249.343 90.4872 248.915 90.3182 248.372 90.3182C247.997 90.3182 247.663 90.3994 247.368 90.5618C247.076 90.7242 246.846 90.9612 246.676 91.2727C246.507 91.5843 246.423 91.9621 246.423 92.4062ZM256.84 89.3636V90.358H252.723V89.3636H256.84ZM253.956 97V88.3097C253.956 87.8722 254.059 87.5076 254.264 87.2159C254.47 86.9242 254.737 86.7055 255.065 86.5597C255.393 86.4138 255.739 86.3409 256.104 86.3409C256.392 86.3409 256.628 86.3641 256.81 86.4105C256.992 86.4569 257.128 86.5 257.218 86.5398L256.879 87.554C256.82 87.5341 256.737 87.5092 256.631 87.4794C256.528 87.4496 256.392 87.4347 256.223 87.4347C255.835 87.4347 255.555 87.5324 255.383 87.728C255.214 87.9235 255.129 88.2102 255.129 88.5881V97H253.956ZM261.272 97.1591C260.582 97.1591 259.978 96.995 259.457 96.6669C258.94 96.3388 258.536 95.8797 258.244 95.2898C257.956 94.6998 257.812 94.0104 257.812 93.2216C257.812 92.4261 257.956 91.7318 258.244 91.1385C258.536 90.5452 258.94 90.0845 259.457 89.7564C259.978 89.4283 260.582 89.2642 261.272 89.2642C261.961 89.2642 262.564 89.4283 263.081 89.7564C263.602 90.0845 264.006 90.5452 264.295 91.1385C264.586 91.7318 264.732 92.4261 264.732 93.2216C264.732 94.0104 264.586 94.6998 264.295 95.2898C264.006 95.8797 263.602 96.3388 263.081 96.6669C262.564 96.995 261.961 97.1591 261.272 97.1591ZM261.272 96.1051C261.796 96.1051 262.226 95.9709 262.564 95.7024C262.903 95.4339 263.153 95.081 263.315 94.6435C263.478 94.206 263.559 93.732 263.559 93.2216C263.559 92.7112 263.478 92.2356 263.315 91.7947C263.153 91.3539 262.903 90.9976 262.564 90.7259C262.226 90.4541 261.796 90.3182 261.272 90.3182C260.748 90.3182 260.317 90.4541 259.979 90.7259C259.641 90.9976 259.391 91.3539 259.229 91.7947C259.066 92.2356 258.985 92.7112 258.985 93.2216C258.985 93.732 259.066 94.206 259.229 94.6435C259.391 95.081 259.641 95.4339 259.979 95.7024C260.317 95.9709 260.748 96.1051 261.272 96.1051ZM266.523 97V89.3636H267.657V90.517H267.736C267.875 90.1392 268.127 89.8326 268.492 89.5973C268.856 89.362 269.267 89.2443 269.725 89.2443C269.811 89.2443 269.919 89.246 270.048 89.2493C270.177 89.2526 270.275 89.2576 270.341 89.2642V90.4574C270.301 90.4474 270.21 90.4325 270.068 90.4126C269.929 90.3894 269.781 90.3778 269.625 90.3778C269.254 90.3778 268.923 90.4557 268.631 90.6115C268.343 90.764 268.114 90.9761 267.945 91.2479C267.779 91.5163 267.696 91.8229 267.696 92.1676V97H266.523ZM271.732 97V89.3636H272.866V90.5568H272.965C273.124 90.1491 273.381 89.8326 273.736 89.6072C274.09 89.3786 274.516 89.2642 275.013 89.2642C275.517 89.2642 275.936 89.3786 276.271 89.6072C276.609 89.8326 276.873 90.1491 277.062 90.5568H277.141C277.337 90.1624 277.63 89.8492 278.021 89.6172C278.412 89.3819 278.881 89.2642 279.428 89.2642C280.111 89.2642 280.669 89.478 281.104 89.9055C281.538 90.3298 281.755 90.991 281.755 91.8892V97H280.581V91.8892C280.581 91.3258 280.427 90.9231 280.119 90.6811C279.811 90.4392 279.448 90.3182 279.03 90.3182C278.493 90.3182 278.077 90.4806 277.782 90.8054C277.488 91.1269 277.34 91.5346 277.34 92.0284V97H276.147V91.7699C276.147 91.3357 276.006 90.986 275.724 90.7209C275.443 90.4524 275.08 90.3182 274.635 90.3182C274.331 90.3182 274.046 90.3994 273.78 90.5618C273.519 90.7242 273.306 90.9496 273.144 91.2379C272.985 91.523 272.905 91.8527 272.905 92.2273V97H271.732ZM286.147 97.179C285.663 97.179 285.224 97.0878 284.83 96.9055C284.435 96.7199 284.122 96.4531 283.89 96.1051C283.658 95.7538 283.542 95.3295 283.542 94.8324C283.542 94.3949 283.628 94.0402 283.801 93.7685C283.973 93.4934 284.203 93.2779 284.492 93.1222C284.78 92.9664 285.098 92.8504 285.446 92.7741C285.798 92.6946 286.151 92.6316 286.505 92.5852C286.969 92.5256 287.345 92.4808 287.634 92.451C287.925 92.4179 288.137 92.3632 288.27 92.2869C288.406 92.2107 288.474 92.0781 288.474 91.8892V91.8494C288.474 91.3589 288.34 90.9777 288.071 90.706C287.806 90.4342 287.403 90.2983 286.863 90.2983C286.303 90.2983 285.864 90.4209 285.546 90.6662C285.227 90.9115 285.004 91.1733 284.874 91.4517L283.761 91.054C283.96 90.59 284.225 90.2287 284.556 89.9702C284.891 89.7083 285.256 89.526 285.65 89.4233C286.048 89.3172 286.439 89.2642 286.823 89.2642C287.069 89.2642 287.35 89.294 287.669 89.3537C287.99 89.41 288.3 89.5277 288.598 89.7067C288.9 89.8857 289.15 90.1558 289.349 90.517C289.548 90.8783 289.647 91.3622 289.647 91.9688V97H288.474V95.9659H288.414C288.335 96.1316 288.202 96.3089 288.017 96.4979C287.831 96.6868 287.584 96.8475 287.276 96.9801C286.968 97.1127 286.591 97.179 286.147 97.179ZM286.326 96.125C286.79 96.125 287.181 96.0339 287.499 95.8516C287.821 95.6693 288.063 95.4339 288.225 95.1456C288.391 94.8572 288.474 94.554 288.474 94.2358V93.1619C288.424 93.2216 288.315 93.2763 288.146 93.326C287.98 93.3724 287.788 93.4138 287.569 93.4503C287.354 93.4834 287.143 93.5133 286.938 93.5398C286.735 93.563 286.571 93.5829 286.445 93.5994C286.141 93.6392 285.856 93.7038 285.59 93.7933C285.329 93.8795 285.116 94.0104 284.954 94.1861C284.795 94.3584 284.715 94.5937 284.715 94.892C284.715 95.2997 284.866 95.608 285.168 95.8168C285.473 96.0223 285.859 96.125 286.326 96.125ZM295.11 89.3636V90.358H291.152V89.3636H295.11ZM292.306 87.5341H293.479V94.8125C293.479 95.1439 293.527 95.3925 293.623 95.5582C293.723 95.7206 293.849 95.83 294.001 95.8864C294.157 95.9394 294.321 95.9659 294.493 95.9659C294.623 95.9659 294.729 95.9593 294.811 95.946C294.894 95.9295 294.961 95.9162 295.01 95.9062L295.249 96.9602C295.169 96.9901 295.058 97.0199 294.916 97.0497C294.773 97.0829 294.593 97.0994 294.374 97.0994C294.042 97.0994 293.718 97.0282 293.4 96.8857C293.085 96.7431 292.823 96.526 292.614 96.2344C292.408 95.9427 292.306 95.5748 292.306 95.1307V87.5341ZM296.875 97V89.3636H298.048V97H296.875ZM297.471 88.0909C297.243 88.0909 297.045 88.013 296.88 87.8572C296.717 87.7015 296.636 87.5142 296.636 87.2955C296.636 87.0767 296.717 86.8894 296.88 86.7337C297.045 86.5779 297.243 86.5 297.471 86.5C297.7 86.5 297.895 86.5779 298.058 86.7337C298.224 86.8894 298.306 87.0767 298.306 87.2955C298.306 87.5142 298.224 87.7015 298.058 87.8572C297.895 88.013 297.7 88.0909 297.471 88.0909ZM303.299 97.1591C302.61 97.1591 302.005 96.995 301.485 96.6669C300.968 96.3388 300.563 95.8797 300.271 95.2898C299.983 94.6998 299.839 94.0104 299.839 93.2216C299.839 92.4261 299.983 91.7318 300.271 91.1385C300.563 90.5452 300.968 90.0845 301.485 89.7564C302.005 89.4283 302.61 89.2642 303.299 89.2642C303.989 89.2642 304.592 89.4283 305.109 89.7564C305.629 90.0845 306.034 90.5452 306.322 91.1385C306.614 91.7318 306.759 92.4261 306.759 93.2216C306.759 94.0104 306.614 94.6998 306.322 95.2898C306.034 95.8797 305.629 96.3388 305.109 96.6669C304.592 96.995 303.989 97.1591 303.299 97.1591ZM303.299 96.1051C303.823 96.1051 304.254 95.9709 304.592 95.7024C304.93 95.4339 305.18 95.081 305.343 94.6435C305.505 94.206 305.586 93.732 305.586 93.2216C305.586 92.7112 305.505 92.2356 305.343 91.7947C305.18 91.3539 304.93 90.9976 304.592 90.7259C304.254 90.4541 303.823 90.3182 303.299 90.3182C302.776 90.3182 302.345 90.4541 302.007 90.7259C301.669 90.9976 301.418 91.3539 301.256 91.7947C301.093 92.2356 301.012 92.7112 301.012 93.2216C301.012 93.732 301.093 94.206 301.256 94.6435C301.418 95.081 301.669 95.4339 302.007 95.7024C302.345 95.9709 302.776 96.1051 303.299 96.1051ZM309.724 92.4062V97H308.55V89.3636H309.684V90.5568H309.783C309.962 90.169 310.234 89.8575 310.599 89.6222C310.963 89.3835 311.434 89.2642 312.011 89.2642C312.528 89.2642 312.98 89.3703 313.368 89.5824C313.756 89.7912 314.057 90.1094 314.273 90.5369C314.488 90.9612 314.596 91.4981 314.596 92.1477V97H313.423V92.2273C313.423 91.6274 313.267 91.16 312.955 90.8253C312.644 90.4872 312.216 90.3182 311.673 90.3182C311.298 90.3182 310.963 90.3994 310.668 90.5618C310.377 90.7242 310.146 90.9612 309.977 91.2727C309.808 91.5843 309.724 91.9621 309.724 92.4062ZM322.925 97.179C322.441 97.179 322.001 97.0878 321.607 96.9055C321.213 96.7199 320.899 96.4531 320.667 96.1051C320.435 95.7538 320.319 95.3295 320.319 94.8324C320.319 94.3949 320.406 94.0402 320.578 93.7685C320.75 93.4934 320.981 93.2779 321.269 93.1222C321.557 92.9664 321.876 92.8504 322.224 92.7741C322.575 92.6946 322.928 92.6316 323.282 92.5852C323.747 92.5256 324.123 92.4808 324.411 92.451C324.703 92.4179 324.915 92.3632 325.047 92.2869C325.183 92.2107 325.251 92.0781 325.251 91.8892V91.8494C325.251 91.3589 325.117 90.9777 324.849 90.706C324.583 90.4342 324.181 90.2983 323.64 90.2983C323.08 90.2983 322.641 90.4209 322.323 90.6662C322.005 90.9115 321.781 91.1733 321.652 91.4517L320.538 91.054C320.737 90.59 321.002 90.2287 321.334 89.9702C321.668 89.7083 322.033 89.526 322.427 89.4233C322.825 89.3172 323.216 89.2642 323.601 89.2642C323.846 89.2642 324.128 89.294 324.446 89.3537C324.767 89.41 325.077 89.5277 325.376 89.7067C325.677 89.8857 325.927 90.1558 326.126 90.517C326.325 90.8783 326.425 91.3622 326.425 91.9688V97H325.251V95.9659H325.192C325.112 96.1316 324.979 96.3089 324.794 96.4979C324.608 96.6868 324.361 96.8475 324.053 96.9801C323.745 97.1127 323.369 97.179 322.925 97.179ZM323.104 96.125C323.568 96.125 323.959 96.0339 324.277 95.8516C324.598 95.6693 324.84 95.4339 325.003 95.1456C325.168 94.8572 325.251 94.554 325.251 94.2358V93.1619C325.202 93.2216 325.092 93.2763 324.923 93.326C324.757 93.3724 324.565 93.4138 324.346 93.4503C324.131 93.4834 323.921 93.5133 323.715 93.5398C323.513 93.563 323.349 93.5829 323.223 93.5994C322.918 93.6392 322.633 93.7038 322.368 93.7933C322.106 93.8795 321.894 94.0104 321.731 94.1861C321.572 94.3584 321.493 94.5937 321.493 94.892C321.493 95.2997 321.644 95.608 321.945 95.8168C322.25 96.0223 322.636 96.125 323.104 96.125ZM329.739 92.4062V97H328.566V89.3636H329.7V90.5568H329.799C329.978 90.169 330.25 89.8575 330.614 89.6222C330.979 89.3835 331.45 89.2642 332.026 89.2642C332.543 89.2642 332.996 89.3703 333.384 89.5824C333.771 89.7912 334.073 90.1094 334.288 90.5369C334.504 90.9612 334.612 91.4981 334.612 92.1477V97H333.438V92.2273C333.438 91.6274 333.282 91.16 332.971 90.8253C332.659 90.4872 332.232 90.3182 331.688 90.3182C331.314 90.3182 330.979 90.3994 330.684 90.5618C330.392 90.7242 330.162 90.9612 329.993 91.2727C329.824 91.5843 329.739 91.9621 329.739 92.4062ZM339.639 97.1591C339.003 97.1591 338.441 96.9983 337.954 96.6768C337.466 96.352 337.085 95.8946 336.81 95.3047C336.535 94.7114 336.398 94.0104 336.398 93.2017C336.398 92.3996 336.535 91.7036 336.81 91.1136C337.085 90.5237 337.468 90.0679 337.959 89.7464C338.449 89.425 339.016 89.2642 339.659 89.2642C340.156 89.2642 340.549 89.3471 340.837 89.5128C341.129 89.6752 341.351 89.8608 341.503 90.0696C341.659 90.2751 341.78 90.4441 341.866 90.5767H341.966V86.8182H343.139V97H342.006V95.8267H341.866C341.78 95.9659 341.657 96.1416 341.498 96.3537C341.339 96.5625 341.112 96.7498 340.817 96.9155C340.522 97.0779 340.13 97.1591 339.639 97.1591ZM339.798 96.1051C340.269 96.1051 340.666 95.9825 340.991 95.7372C341.316 95.4886 341.563 95.1456 341.732 94.7081C341.901 94.2673 341.986 93.7585 341.986 93.1818C341.986 92.6117 341.903 92.1129 341.737 91.6854C341.571 91.2545 341.326 90.9197 341.001 90.6811C340.676 90.4392 340.275 90.3182 339.798 90.3182C339.301 90.3182 338.887 90.4458 338.555 90.701C338.227 90.9529 337.98 91.2959 337.814 91.7301C337.652 92.161 337.571 92.6449 337.571 93.1818C337.571 93.7254 337.654 94.2192 337.819 94.6634C337.988 95.1042 338.237 95.4555 338.565 95.7173C338.897 95.9759 339.308 96.1051 339.798 96.1051ZM351.635 97.179C351.152 97.179 350.712 97.0878 350.318 96.9055C349.924 96.7199 349.61 96.4531 349.378 96.1051C349.146 95.7538 349.03 95.3295 349.03 94.8324C349.03 94.3949 349.117 94.0402 349.289 93.7685C349.461 93.4934 349.692 93.2779 349.98 93.1222C350.268 92.9664 350.586 92.8504 350.934 92.7741C351.286 92.6946 351.639 92.6316 351.993 92.5852C352.457 92.5256 352.834 92.4808 353.122 92.451C353.414 92.4179 353.626 92.3632 353.758 92.2869C353.894 92.2107 353.962 92.0781 353.962 91.8892V91.8494C353.962 91.3589 353.828 90.9777 353.559 90.706C353.294 90.4342 352.892 90.2983 352.351 90.2983C351.791 90.2983 351.352 90.4209 351.034 90.6662C350.716 90.9115 350.492 91.1733 350.363 91.4517L349.249 91.054C349.448 90.59 349.713 90.2287 350.045 89.9702C350.379 89.7083 350.744 89.526 351.138 89.4233C351.536 89.3172 351.927 89.2642 352.312 89.2642C352.557 89.2642 352.839 89.294 353.157 89.3537C353.478 89.41 353.788 89.5277 354.086 89.7067C354.388 89.8857 354.638 90.1558 354.837 90.517C355.036 90.8783 355.135 91.3622 355.135 91.9688V97H353.962V95.9659H353.903C353.823 96.1316 353.69 96.3089 353.505 96.4979C353.319 96.6868 353.072 96.8475 352.764 96.9801C352.456 97.1127 352.08 97.179 351.635 97.179ZM351.814 96.125C352.278 96.125 352.67 96.0339 352.988 95.8516C353.309 95.6693 353.551 95.4339 353.714 95.1456C353.879 94.8572 353.962 94.554 353.962 94.2358V93.1619C353.912 93.2216 353.803 93.2763 353.634 93.326C353.468 93.3724 353.276 93.4138 353.057 93.4503C352.842 93.4834 352.631 93.5133 352.426 93.5398C352.224 93.563 352.06 93.5829 351.934 93.5994C351.629 93.6392 351.344 93.7038 351.079 93.7933C350.817 93.8795 350.605 94.0104 350.442 94.1861C350.283 94.3584 350.204 94.5937 350.204 94.892C350.204 95.2997 350.354 95.608 350.656 95.8168C350.961 96.0223 351.347 96.125 351.814 96.125ZM361.214 99.8636V89.3636H362.348V90.5767H362.487C362.573 90.4441 362.693 90.2751 362.845 90.0696C363.001 89.8608 363.223 89.6752 363.511 89.5128C363.803 89.3471 364.197 89.2642 364.695 89.2642C365.338 89.2642 365.904 89.425 366.395 89.7464C366.885 90.0679 367.268 90.5237 367.543 91.1136C367.818 91.7036 367.956 92.3996 367.956 93.2017C367.956 94.0104 367.818 94.7114 367.543 95.3047C367.268 95.8946 366.887 96.352 366.4 96.6768C365.913 96.9983 365.351 97.1591 364.714 97.1591C364.224 97.1591 363.831 97.0779 363.536 96.9155C363.241 96.7498 363.014 96.5625 362.855 96.3537C362.696 96.1416 362.573 95.9659 362.487 95.8267H362.388V99.8636H361.214ZM362.368 93.1818C362.368 93.7585 362.452 94.2673 362.621 94.7081C362.79 95.1456 363.037 95.4886 363.362 95.7372C363.687 95.9825 364.085 96.1051 364.555 96.1051C365.046 96.1051 365.455 95.9759 365.783 95.7173C366.115 95.4555 366.363 95.1042 366.529 94.6634C366.698 94.2192 366.783 93.7254 366.783 93.1818C366.783 92.6449 366.7 92.161 366.534 91.7301C366.372 91.2959 366.125 90.9529 365.793 90.701C365.465 90.4458 365.053 90.3182 364.555 90.3182C364.078 90.3182 363.677 90.4392 363.352 90.6811C363.027 90.9197 362.782 91.2545 362.616 91.6854C362.451 92.1129 362.368 92.6117 362.368 93.1818ZM370.919 86.8182V97H369.746V86.8182H370.919ZM375.315 97.179C374.831 97.179 374.392 97.0878 373.998 96.9055C373.603 96.7199 373.29 96.4531 373.058 96.1051C372.826 95.7538 372.71 95.3295 372.71 94.8324C372.71 94.3949 372.796 94.0402 372.969 93.7685C373.141 93.4934 373.371 93.2779 373.66 93.1222C373.948 92.9664 374.266 92.8504 374.614 92.7741C374.965 92.6946 375.318 92.6316 375.673 92.5852C376.137 92.5256 376.513 92.4808 376.802 92.451C377.093 92.4179 377.305 92.3632 377.438 92.2869C377.574 92.2107 377.642 92.0781 377.642 91.8892V91.8494C377.642 91.3589 377.508 90.9777 377.239 90.706C376.974 90.4342 376.571 90.2983 376.031 90.2983C375.471 90.2983 375.032 90.4209 374.714 90.6662C374.395 90.9115 374.172 91.1733 374.042 91.4517L372.929 91.054C373.128 90.59 373.393 90.2287 373.724 89.9702C374.059 89.7083 374.424 89.526 374.818 89.4233C375.216 89.3172 375.607 89.2642 375.991 89.2642C376.237 89.2642 376.518 89.294 376.836 89.3537C377.158 89.41 377.468 89.5277 377.766 89.7067C378.068 89.8857 378.318 90.1558 378.517 90.517C378.716 90.8783 378.815 91.3622 378.815 91.9688V97H377.642V95.9659H377.582C377.503 96.1316 377.37 96.3089 377.184 96.4979C376.999 96.6868 376.752 96.8475 376.444 96.9801C376.135 97.1127 375.759 97.179 375.315 97.179ZM375.494 96.125C375.958 96.125 376.349 96.0339 376.667 95.8516C376.989 95.6693 377.231 95.4339 377.393 95.1456C377.559 94.8572 377.642 94.554 377.642 94.2358V93.1619C377.592 93.2216 377.483 93.2763 377.314 93.326C377.148 93.3724 376.956 93.4138 376.737 93.4503C376.522 93.4834 376.311 93.5133 376.106 93.5398C375.903 93.563 375.739 93.5829 375.613 93.5994C375.309 93.6392 375.023 93.7038 374.758 93.7933C374.497 93.8795 374.284 94.0104 374.122 94.1861C373.963 94.3584 373.883 94.5937 373.883 94.892C373.883 95.2997 374.034 95.608 374.336 95.8168C374.641 96.0223 375.027 96.125 375.494 96.125ZM384.059 97.1591C383.343 97.1591 382.727 96.9901 382.21 96.652C381.692 96.3139 381.295 95.8482 381.016 95.255C380.738 94.6617 380.599 93.9839 380.599 93.2216C380.599 92.446 380.741 91.7616 381.026 91.1683C381.315 90.5717 381.716 90.1061 382.229 89.7713C382.746 89.4332 383.35 89.2642 384.039 89.2642C384.576 89.2642 385.06 89.3636 385.491 89.5625C385.922 89.7614 386.275 90.0398 386.55 90.3977C386.825 90.7557 386.996 91.1733 387.062 91.6506H385.888C385.799 91.3026 385.6 90.9943 385.292 90.7259C384.987 90.4541 384.576 90.3182 384.059 90.3182C383.602 90.3182 383.201 90.4375 382.856 90.6761C382.514 90.9115 382.248 91.2446 382.055 91.6754C381.866 92.103 381.772 92.6051 381.772 93.1818C381.772 93.7718 381.865 94.2855 382.05 94.723C382.239 95.1605 382.504 95.5002 382.846 95.7422C383.191 95.9841 383.595 96.1051 384.059 96.1051C384.364 96.1051 384.641 96.0521 384.889 95.946C385.138 95.84 385.348 95.6875 385.521 95.4886C385.693 95.2898 385.816 95.0511 385.888 94.7727H387.062C386.996 95.2235 386.831 95.6295 386.57 95.9908C386.311 96.3487 385.968 96.6338 385.54 96.8459C385.116 97.0547 384.622 97.1591 384.059 97.1591ZM391.979 97.1591C391.243 97.1591 390.608 96.9967 390.075 96.6719C389.544 96.3438 389.135 95.8864 388.847 95.2997C388.562 94.7098 388.419 94.0237 388.419 93.2415C388.419 92.4593 388.562 91.7699 388.847 91.1733C389.135 90.5734 389.536 90.1061 390.05 89.7713C390.567 89.4332 391.17 89.2642 391.859 89.2642C392.257 89.2642 392.65 89.3305 393.038 89.4631C393.425 89.5956 393.778 89.8111 394.097 90.1094C394.415 90.4044 394.668 90.7955 394.857 91.2827C395.046 91.7699 395.141 92.3698 395.141 93.0824V93.5795H389.254V92.5653H393.947C393.947 92.1345 393.861 91.75 393.689 91.4119C393.52 91.0739 393.278 90.8071 392.963 90.6115C392.652 90.416 392.284 90.3182 391.859 90.3182C391.392 90.3182 390.988 90.4342 390.646 90.6662C390.308 90.8949 390.048 91.1932 389.866 91.5611C389.683 91.929 389.592 92.3234 389.592 92.7443V93.4205C389.592 93.9972 389.692 94.486 389.891 94.8871C390.093 95.2848 390.373 95.5881 390.731 95.7969C391.089 96.0024 391.505 96.1051 391.979 96.1051C392.287 96.1051 392.565 96.062 392.814 95.9759C393.066 95.8864 393.283 95.7538 393.465 95.5781C393.647 95.3991 393.788 95.1771 393.888 94.9119L395.021 95.2301C394.902 95.6146 394.701 95.9527 394.42 96.2443C394.138 96.5327 393.79 96.758 393.376 96.9205C392.961 97.0795 392.496 97.1591 391.979 97.1591ZM404.184 89.3636V90.358H400.227V89.3636H404.184ZM401.38 87.5341H402.553V94.8125C402.553 95.1439 402.601 95.3925 402.697 95.5582C402.797 95.7206 402.923 95.83 403.075 95.8864C403.231 95.9394 403.395 95.9659 403.567 95.9659C403.697 95.9659 403.803 95.9593 403.886 95.946C403.969 95.9295 404.035 95.9162 404.085 95.9062L404.323 96.9602C404.244 96.9901 404.133 97.0199 403.99 97.0497C403.848 97.0829 403.667 97.0994 403.448 97.0994C403.117 97.0994 402.792 97.0282 402.474 96.8857C402.159 96.7431 401.897 96.526 401.688 96.2344C401.483 95.9427 401.38 95.5748 401.38 95.1307V87.5341ZM408.969 97.1591C408.28 97.1591 407.675 96.995 407.154 96.6669C406.637 96.3388 406.233 95.8797 405.941 95.2898C405.653 94.6998 405.509 94.0104 405.509 93.2216C405.509 92.4261 405.653 91.7318 405.941 91.1385C406.233 90.5452 406.637 90.0845 407.154 89.7564C407.675 89.4283 408.28 89.2642 408.969 89.2642C409.658 89.2642 410.262 89.4283 410.779 89.7564C411.299 90.0845 411.703 90.5452 411.992 91.1385C412.283 91.7318 412.429 92.4261 412.429 93.2216C412.429 94.0104 412.283 94.6998 411.992 95.2898C411.703 95.8797 411.299 96.3388 410.779 96.6669C410.262 96.995 409.658 97.1591 408.969 97.1591ZM408.969 96.1051C409.493 96.1051 409.924 95.9709 410.262 95.7024C410.6 95.4339 410.85 95.081 411.012 94.6435C411.175 94.206 411.256 93.732 411.256 93.2216C411.256 92.7112 411.175 92.2356 411.012 91.7947C410.85 91.3539 410.6 90.9976 410.262 90.7259C409.924 90.4541 409.493 90.3182 408.969 90.3182C408.445 90.3182 408.015 90.4541 407.676 90.7259C407.338 90.9976 407.088 91.3539 406.926 91.7947C406.763 92.2356 406.682 92.7112 406.682 93.2216C406.682 93.732 406.763 94.206 406.926 94.6435C407.088 95.081 407.338 95.4339 407.676 95.7024C408.015 95.9709 408.445 96.1051 408.969 96.1051ZM100.176 117.159C99.4602 117.159 98.8438 116.99 98.3267 116.652C97.8097 116.314 97.4119 115.848 97.1335 115.255C96.8551 114.662 96.7159 113.984 96.7159 113.222C96.7159 112.446 96.8584 111.762 97.1435 111.168C97.4318 110.572 97.8329 110.106 98.3466 109.771C98.8636 109.433 99.4669 109.264 100.156 109.264C100.693 109.264 101.177 109.364 101.608 109.562C102.039 109.761 102.392 110.04 102.667 110.398C102.942 110.756 103.113 111.173 103.179 111.651H102.006C101.916 111.303 101.717 110.994 101.409 110.726C101.104 110.454 100.693 110.318 100.176 110.318C99.7188 110.318 99.3177 110.437 98.973 110.676C98.6316 110.911 98.3648 111.245 98.1726 111.675C97.9837 112.103 97.8892 112.605 97.8892 113.182C97.8892 113.772 97.982 114.286 98.1676 114.723C98.3565 115.161 98.6217 115.5 98.9631 115.742C99.3078 115.984 99.7121 116.105 100.176 116.105C100.481 116.105 100.758 116.052 101.006 115.946C101.255 115.84 101.465 115.688 101.638 115.489C101.81 115.29 101.933 115.051 102.006 114.773H103.179C103.113 115.223 102.949 115.629 102.687 115.991C102.428 116.349 102.085 116.634 101.658 116.846C101.233 117.055 100.74 117.159 100.176 117.159ZM107.996 117.159C107.307 117.159 106.702 116.995 106.182 116.667C105.665 116.339 105.26 115.88 104.969 115.29C104.68 114.7 104.536 114.01 104.536 113.222C104.536 112.426 104.68 111.732 104.969 111.138C105.26 110.545 105.665 110.085 106.182 109.756C106.702 109.428 107.307 109.264 107.996 109.264C108.686 109.264 109.289 109.428 109.806 109.756C110.326 110.085 110.731 110.545 111.019 111.138C111.311 111.732 111.457 112.426 111.457 113.222C111.457 114.01 111.311 114.7 111.019 115.29C110.731 115.88 110.326 116.339 109.806 116.667C109.289 116.995 108.686 117.159 107.996 117.159ZM107.996 116.105C108.52 116.105 108.951 115.971 109.289 115.702C109.627 115.434 109.877 115.081 110.04 114.643C110.202 114.206 110.283 113.732 110.283 113.222C110.283 112.711 110.202 112.236 110.04 111.795C109.877 111.354 109.627 110.998 109.289 110.726C108.951 110.454 108.52 110.318 107.996 110.318C107.473 110.318 107.042 110.454 106.704 110.726C106.366 110.998 106.116 111.354 105.953 111.795C105.791 112.236 105.71 112.711 105.71 113.222C105.71 113.732 105.791 114.206 105.953 114.643C106.116 115.081 106.366 115.434 106.704 115.702C107.042 115.971 107.473 116.105 107.996 116.105ZM114.421 112.406V117H113.248V109.364H114.381V110.557H114.481C114.66 110.169 114.931 109.857 115.296 109.622C115.661 109.384 116.131 109.264 116.708 109.264C117.225 109.264 117.677 109.37 118.065 109.582C118.453 109.791 118.755 110.109 118.97 110.537C119.185 110.961 119.293 111.498 119.293 112.148V117H118.12V112.227C118.12 111.627 117.964 111.16 117.653 110.825C117.341 110.487 116.913 110.318 116.37 110.318C115.995 110.318 115.661 110.399 115.366 110.562C115.074 110.724 114.844 110.961 114.675 111.273C114.506 111.584 114.421 111.962 114.421 112.406ZM122.61 112.406V117H121.437V109.364H122.571V110.557H122.67C122.849 110.169 123.121 109.857 123.485 109.622C123.85 109.384 124.321 109.264 124.897 109.264C125.414 109.264 125.867 109.37 126.255 109.582C126.642 109.791 126.944 110.109 127.159 110.537C127.375 110.961 127.483 111.498 127.483 112.148V117H126.309V112.227C126.309 111.627 126.154 111.16 125.842 110.825C125.53 110.487 125.103 110.318 124.559 110.318C124.185 110.318 123.85 110.399 123.555 110.562C123.263 110.724 123.033 110.961 122.864 111.273C122.695 111.584 122.61 111.962 122.61 112.406ZM132.828 117.159C132.093 117.159 131.458 116.997 130.924 116.672C130.394 116.344 129.985 115.886 129.696 115.3C129.411 114.71 129.269 114.024 129.269 113.241C129.269 112.459 129.411 111.77 129.696 111.173C129.985 110.573 130.386 110.106 130.899 109.771C131.416 109.433 132.02 109.264 132.709 109.264C133.107 109.264 133.499 109.33 133.887 109.463C134.275 109.596 134.628 109.811 134.946 110.109C135.264 110.404 135.518 110.795 135.707 111.283C135.896 111.77 135.99 112.37 135.99 113.082V113.58H130.104V112.565H134.797C134.797 112.134 134.711 111.75 134.539 111.412C134.369 111.074 134.128 110.807 133.813 110.612C133.501 110.416 133.133 110.318 132.709 110.318C132.242 110.318 131.837 110.434 131.496 110.666C131.158 110.895 130.898 111.193 130.715 111.561C130.533 111.929 130.442 112.323 130.442 112.744V113.42C130.442 113.997 130.541 114.486 130.74 114.887C130.942 115.285 131.222 115.588 131.58 115.797C131.938 116.002 132.354 116.105 132.828 116.105C133.137 116.105 133.415 116.062 133.664 115.976C133.915 115.886 134.133 115.754 134.315 115.578C134.497 115.399 134.638 115.177 134.737 114.912L135.871 115.23C135.752 115.615 135.551 115.953 135.269 116.244C134.988 116.533 134.64 116.758 134.225 116.92C133.811 117.08 133.345 117.159 132.828 117.159ZM140.877 117.159C140.161 117.159 139.545 116.99 139.028 116.652C138.511 116.314 138.113 115.848 137.835 115.255C137.556 114.662 137.417 113.984 137.417 113.222C137.417 112.446 137.56 111.762 137.845 111.168C138.133 110.572 138.534 110.106 139.048 109.771C139.565 109.433 140.168 109.264 140.857 109.264C141.394 109.264 141.878 109.364 142.309 109.562C142.74 109.761 143.093 110.04 143.368 110.398C143.643 110.756 143.814 111.173 143.88 111.651H142.707C142.617 111.303 142.419 110.994 142.11 110.726C141.805 110.454 141.394 110.318 140.877 110.318C140.42 110.318 140.019 110.437 139.674 110.676C139.333 110.911 139.066 111.245 138.874 111.675C138.685 112.103 138.59 112.605 138.59 113.182C138.59 113.772 138.683 114.286 138.869 114.723C139.058 115.161 139.323 115.5 139.664 115.742C140.009 115.984 140.413 116.105 140.877 116.105C141.182 116.105 141.459 116.052 141.708 115.946C141.956 115.84 142.167 115.688 142.339 115.489C142.511 115.29 142.634 115.051 142.707 114.773H143.88C143.814 115.223 143.65 115.629 143.388 115.991C143.129 116.349 142.786 116.634 142.359 116.846C141.935 117.055 141.441 117.159 140.877 117.159ZM148.916 109.364V110.358H144.959V109.364H148.916ZM146.112 107.534H147.286V114.812C147.286 115.144 147.334 115.393 147.43 115.558C147.529 115.721 147.655 115.83 147.808 115.886C147.963 115.939 148.128 115.966 148.3 115.966C148.429 115.966 148.535 115.959 148.618 115.946C148.701 115.929 148.767 115.916 148.817 115.906L149.056 116.96C148.976 116.99 148.865 117.02 148.722 117.05C148.58 117.083 148.399 117.099 148.181 117.099C147.849 117.099 147.524 117.028 147.206 116.886C146.891 116.743 146.629 116.526 146.421 116.234C146.215 115.943 146.112 115.575 146.112 115.131V107.534ZM156.349 117L154.022 109.364H155.255L156.906 115.21H156.985L158.616 109.364H159.869L161.48 115.19H161.559L163.21 109.364H164.443L162.116 117H160.963L159.292 111.134H159.173L157.502 117H156.349ZM168.936 117.159C168.2 117.159 167.565 116.997 167.032 116.672C166.501 116.344 166.092 115.886 165.804 115.3C165.519 114.71 165.376 114.024 165.376 113.241C165.376 112.459 165.519 111.77 165.804 111.173C166.092 110.573 166.493 110.106 167.007 109.771C167.524 109.433 168.127 109.264 168.816 109.264C169.214 109.264 169.607 109.33 169.995 109.463C170.382 109.596 170.735 109.811 171.054 110.109C171.372 110.404 171.625 110.795 171.814 111.283C172.003 111.77 172.098 112.37 172.098 113.082V113.58H166.211V112.565H170.904C170.904 112.134 170.818 111.75 170.646 111.412C170.477 111.074 170.235 110.807 169.92 110.612C169.609 110.416 169.241 110.318 168.816 110.318C168.349 110.318 167.945 110.434 167.603 110.666C167.265 110.895 167.005 111.193 166.823 111.561C166.641 111.929 166.549 112.323 166.549 112.744V113.42C166.549 113.997 166.649 114.486 166.848 114.887C167.05 115.285 167.33 115.588 167.688 115.797C168.046 116.002 168.462 116.105 168.936 116.105C169.244 116.105 169.522 116.062 169.771 115.976C170.023 115.886 170.24 115.754 170.422 115.578C170.605 115.399 170.745 115.177 170.845 114.912L171.978 115.23C171.859 115.615 171.658 115.953 171.377 116.244C171.095 116.533 170.747 116.758 170.333 116.92C169.918 117.08 169.453 117.159 168.936 117.159ZM174.042 117V106.818H175.215V110.577H175.314C175.4 110.444 175.52 110.275 175.672 110.07C175.828 109.861 176.05 109.675 176.338 109.513C176.63 109.347 177.025 109.264 177.522 109.264C178.165 109.264 178.731 109.425 179.222 109.746C179.712 110.068 180.095 110.524 180.37 111.114C180.645 111.704 180.783 112.4 180.783 113.202C180.783 114.01 180.645 114.711 180.37 115.305C180.095 115.895 179.714 116.352 179.227 116.677C178.74 116.998 178.178 117.159 177.542 117.159C177.051 117.159 176.658 117.078 176.363 116.915C176.068 116.75 175.841 116.562 175.682 116.354C175.523 116.142 175.4 115.966 175.314 115.827H175.175V117H174.042ZM175.195 113.182C175.195 113.759 175.279 114.267 175.449 114.708C175.618 115.146 175.864 115.489 176.189 115.737C176.514 115.982 176.912 116.105 177.382 116.105C177.873 116.105 178.282 115.976 178.61 115.717C178.942 115.455 179.19 115.104 179.356 114.663C179.525 114.219 179.61 113.725 179.61 113.182C179.61 112.645 179.527 112.161 179.361 111.73C179.199 111.296 178.952 110.953 178.62 110.701C178.292 110.446 177.88 110.318 177.382 110.318C176.905 110.318 176.504 110.439 176.179 110.681C175.855 110.92 175.609 111.254 175.444 111.685C175.278 112.113 175.195 112.612 175.195 113.182ZM185.998 117.139C185.342 117.139 184.757 117.027 184.243 116.801C183.733 116.576 183.327 116.263 183.025 115.862C182.727 115.457 182.565 114.988 182.538 114.455H183.791C183.817 114.783 183.93 115.066 184.129 115.305C184.328 115.54 184.588 115.722 184.909 115.852C185.231 115.981 185.587 116.045 185.978 116.045C186.416 116.045 186.804 115.969 187.142 115.817C187.48 115.664 187.745 115.452 187.937 115.18C188.129 114.909 188.225 114.594 188.225 114.236C188.225 113.861 188.133 113.531 187.947 113.246C187.761 112.958 187.49 112.733 187.132 112.57C186.774 112.408 186.336 112.327 185.819 112.327H185.004V111.233H185.819C186.224 111.233 186.578 111.16 186.883 111.014C187.191 110.868 187.432 110.663 187.604 110.398C187.78 110.133 187.868 109.821 187.868 109.463C187.868 109.118 187.791 108.818 187.639 108.563C187.486 108.308 187.271 108.109 186.993 107.967C186.717 107.824 186.393 107.753 186.018 107.753C185.667 107.753 185.335 107.817 185.024 107.947C184.716 108.073 184.464 108.257 184.268 108.499C184.073 108.737 183.967 109.026 183.95 109.364H182.757C182.777 108.83 182.937 108.363 183.239 107.962C183.541 107.557 183.935 107.242 184.422 107.017C184.913 106.792 185.451 106.679 186.038 106.679C186.668 106.679 187.208 106.807 187.659 107.062C188.109 107.314 188.456 107.647 188.698 108.061C188.94 108.475 189.061 108.923 189.061 109.403C189.061 109.977 188.91 110.466 188.608 110.87C188.31 111.274 187.904 111.554 187.39 111.71V111.79C188.033 111.896 188.535 112.169 188.897 112.61C189.258 113.048 189.439 113.589 189.439 114.236C189.439 114.789 189.288 115.286 188.986 115.727C188.688 116.165 188.28 116.509 187.763 116.761C187.246 117.013 186.658 117.139 185.998 117.139ZM198.512 120.023C197.945 120.023 197.458 119.95 197.05 119.804C196.642 119.661 196.303 119.473 196.031 119.237C195.762 119.005 195.549 118.757 195.39 118.491L196.324 117.835C196.43 117.974 196.565 118.134 196.727 118.312C196.889 118.495 197.111 118.652 197.393 118.785C197.678 118.921 198.051 118.989 198.512 118.989C199.128 118.989 199.637 118.839 200.038 118.541C200.439 118.243 200.64 117.776 200.64 117.139V115.588H200.54C200.454 115.727 200.331 115.9 200.172 116.105C200.016 116.307 199.791 116.488 199.496 116.647C199.204 116.803 198.81 116.881 198.313 116.881C197.696 116.881 197.143 116.735 196.652 116.443C196.165 116.152 195.779 115.727 195.494 115.17C195.212 114.614 195.071 113.937 195.071 113.142C195.071 112.36 195.209 111.679 195.484 111.099C195.759 110.515 196.142 110.065 196.632 109.746C197.123 109.425 197.69 109.264 198.333 109.264C198.83 109.264 199.224 109.347 199.516 109.513C199.811 109.675 200.036 109.861 200.192 110.07C200.351 110.275 200.474 110.444 200.56 110.577H200.679V109.364H201.813V117.219C201.813 117.875 201.664 118.409 201.365 118.82C201.07 119.234 200.673 119.537 200.172 119.729C199.675 119.925 199.122 120.023 198.512 120.023ZM198.472 115.827C198.943 115.827 199.34 115.719 199.665 115.504C199.99 115.288 200.237 114.978 200.406 114.574C200.575 114.17 200.659 113.686 200.659 113.122C200.659 112.572 200.577 112.086 200.411 111.665C200.245 111.245 200 110.915 199.675 110.676C199.35 110.437 198.949 110.318 198.472 110.318C197.975 110.318 197.56 110.444 197.229 110.696C196.901 110.948 196.654 111.286 196.488 111.71C196.326 112.134 196.245 112.605 196.245 113.122C196.245 113.652 196.328 114.121 196.493 114.529C196.662 114.933 196.911 115.252 197.239 115.484C197.57 115.712 197.981 115.827 198.472 115.827ZM206.208 117.179C205.724 117.179 205.285 117.088 204.89 116.906C204.496 116.72 204.183 116.453 203.951 116.105C203.719 115.754 203.603 115.33 203.603 114.832C203.603 114.395 203.689 114.04 203.861 113.768C204.033 113.493 204.264 113.278 204.552 113.122C204.841 112.966 205.159 112.85 205.507 112.774C205.858 112.695 206.211 112.632 206.566 112.585C207.03 112.526 207.406 112.481 207.694 112.451C207.986 112.418 208.198 112.363 208.331 112.287C208.467 112.211 208.534 112.078 208.534 111.889V111.849C208.534 111.359 208.4 110.978 208.132 110.706C207.867 110.434 207.464 110.298 206.924 110.298C206.364 110.298 205.924 110.421 205.606 110.666C205.288 110.911 205.064 111.173 204.935 111.452L203.821 111.054C204.02 110.59 204.285 110.229 204.617 109.97C204.952 109.708 205.316 109.526 205.711 109.423C206.108 109.317 206.499 109.264 206.884 109.264C207.129 109.264 207.411 109.294 207.729 109.354C208.051 109.41 208.36 109.528 208.659 109.707C208.96 109.886 209.211 110.156 209.409 110.517C209.608 110.878 209.708 111.362 209.708 111.969V117H208.534V115.966H208.475C208.395 116.132 208.263 116.309 208.077 116.498C207.891 116.687 207.645 116.848 207.336 116.98C207.028 117.113 206.652 117.179 206.208 117.179ZM206.387 116.125C206.851 116.125 207.242 116.034 207.56 115.852C207.882 115.669 208.123 115.434 208.286 115.146C208.452 114.857 208.534 114.554 208.534 114.236V113.162C208.485 113.222 208.375 113.276 208.206 113.326C208.041 113.372 207.848 113.414 207.63 113.45C207.414 113.483 207.204 113.513 206.998 113.54C206.796 113.563 206.632 113.583 206.506 113.599C206.201 113.639 205.916 113.704 205.651 113.793C205.389 113.879 205.177 114.01 205.015 114.186C204.855 114.358 204.776 114.594 204.776 114.892C204.776 115.3 204.927 115.608 205.228 115.817C205.533 116.022 205.919 116.125 206.387 116.125ZM211.849 117V109.364H212.983V110.557H213.082C213.241 110.149 213.498 109.833 213.853 109.607C214.207 109.379 214.633 109.264 215.131 109.264C215.634 109.264 216.054 109.379 216.388 109.607C216.726 109.833 216.99 110.149 217.179 110.557H217.258C217.454 110.162 217.747 109.849 218.138 109.617C218.529 109.382 218.998 109.264 219.545 109.264C220.228 109.264 220.787 109.478 221.221 109.906C221.655 110.33 221.872 110.991 221.872 111.889V117H220.699V111.889C220.699 111.326 220.545 110.923 220.236 110.681C219.928 110.439 219.565 110.318 219.148 110.318C218.611 110.318 218.195 110.481 217.9 110.805C217.605 111.127 217.457 111.535 217.457 112.028V117H216.264V111.77C216.264 111.336 216.123 110.986 215.841 110.721C215.56 110.452 215.197 110.318 214.753 110.318C214.448 110.318 214.163 110.399 213.898 110.562C213.636 110.724 213.424 110.95 213.261 111.238C213.102 111.523 213.023 111.853 213.023 112.227V117H211.849ZM224.017 117V109.364H225.191V117H224.017ZM224.614 108.091C224.385 108.091 224.188 108.013 224.022 107.857C223.86 107.701 223.779 107.514 223.779 107.295C223.779 107.077 223.86 106.889 224.022 106.734C224.188 106.578 224.385 106.5 224.614 106.5C224.843 106.5 225.038 106.578 225.2 106.734C225.366 106.889 225.449 107.077 225.449 107.295C225.449 107.514 225.366 107.701 225.2 107.857C225.038 108.013 224.843 108.091 224.614 108.091ZM228.513 112.406V117H227.339V109.364H228.473V110.557H228.572C228.751 110.169 229.023 109.857 229.388 109.622C229.752 109.384 230.223 109.264 230.8 109.264C231.317 109.264 231.769 109.37 232.157 109.582C232.545 109.791 232.846 110.109 233.062 110.537C233.277 110.961 233.385 111.498 233.385 112.148V117H232.212V112.227C232.212 111.627 232.056 111.16 231.744 110.825C231.433 110.487 231.005 110.318 230.462 110.318C230.087 110.318 229.752 110.399 229.457 110.562C229.166 110.724 228.935 110.961 228.766 111.273C228.597 111.584 228.513 111.962 228.513 112.406ZM238.611 120.023C238.045 120.023 237.557 119.95 237.15 119.804C236.742 119.661 236.402 119.473 236.131 119.237C235.862 119.005 235.648 118.757 235.489 118.491L236.424 117.835C236.53 117.974 236.664 118.134 236.827 118.312C236.989 118.495 237.211 118.652 237.493 118.785C237.778 118.921 238.151 118.989 238.611 118.989C239.228 118.989 239.737 118.839 240.138 118.541C240.539 118.243 240.739 117.776 240.739 117.139V115.588H240.64C240.554 115.727 240.431 115.9 240.272 116.105C240.116 116.307 239.891 116.488 239.596 116.647C239.304 116.803 238.91 116.881 238.412 116.881C237.796 116.881 237.242 116.735 236.752 116.443C236.265 116.152 235.879 115.727 235.594 115.17C235.312 114.614 235.171 113.937 235.171 113.142C235.171 112.36 235.309 111.679 235.584 111.099C235.859 110.515 236.242 110.065 236.732 109.746C237.223 109.425 237.789 109.264 238.432 109.264C238.93 109.264 239.324 109.347 239.616 109.513C239.911 109.675 240.136 109.861 240.292 110.07C240.451 110.275 240.573 110.444 240.66 110.577H240.779V109.364H241.912V117.219C241.912 117.875 241.763 118.409 241.465 118.82C241.17 119.234 240.772 119.537 240.272 119.729C239.775 119.925 239.221 120.023 238.611 120.023ZM238.572 115.827C239.042 115.827 239.44 115.719 239.765 115.504C240.09 115.288 240.336 114.978 240.506 114.574C240.675 114.17 240.759 113.686 240.759 113.122C240.759 112.572 240.676 112.086 240.51 111.665C240.345 111.245 240.099 110.915 239.775 110.676C239.45 110.437 239.049 110.318 238.572 110.318C238.074 110.318 237.66 110.444 237.329 110.696C237.001 110.948 236.754 111.286 236.588 111.71C236.425 112.134 236.344 112.605 236.344 113.122C236.344 113.652 236.427 114.121 236.593 114.529C236.762 114.933 237.01 115.252 237.339 115.484C237.67 115.712 238.081 115.827 238.572 115.827ZM249.728 117L247.401 109.364H248.634L250.285 115.21H250.364L251.995 109.364H253.248L254.858 115.19H254.938L256.589 109.364H257.822L255.495 117H254.341L252.671 111.134H252.552L250.881 117H249.728ZM262.215 117.159C261.526 117.159 260.921 116.995 260.401 116.667C259.884 116.339 259.479 115.88 259.188 115.29C258.899 114.7 258.755 114.01 258.755 113.222C258.755 112.426 258.899 111.732 259.188 111.138C259.479 110.545 259.884 110.085 260.401 109.756C260.921 109.428 261.526 109.264 262.215 109.264C262.905 109.264 263.508 109.428 264.025 109.756C264.545 110.085 264.95 110.545 265.238 111.138C265.53 111.732 265.675 112.426 265.675 113.222C265.675 114.01 265.53 114.7 265.238 115.29C264.95 115.88 264.545 116.339 264.025 116.667C263.508 116.995 262.905 117.159 262.215 117.159ZM262.215 116.105C262.739 116.105 263.17 115.971 263.508 115.702C263.846 115.434 264.096 115.081 264.259 114.643C264.421 114.206 264.502 113.732 264.502 113.222C264.502 112.711 264.421 112.236 264.259 111.795C264.096 111.354 263.846 110.998 263.508 110.726C263.17 110.454 262.739 110.318 262.215 110.318C261.692 110.318 261.261 110.454 260.923 110.726C260.585 110.998 260.334 111.354 260.172 111.795C260.009 112.236 259.928 112.711 259.928 113.222C259.928 113.732 260.009 114.206 260.172 114.643C260.334 115.081 260.585 115.434 260.923 115.702C261.261 115.971 261.692 116.105 262.215 116.105ZM267.466 117V109.364H268.6V110.517H268.68C268.819 110.139 269.071 109.833 269.435 109.597C269.8 109.362 270.211 109.244 270.668 109.244C270.754 109.244 270.862 109.246 270.991 109.249C271.121 109.253 271.218 109.258 271.285 109.264V110.457C271.245 110.447 271.154 110.433 271.011 110.413C270.872 110.389 270.724 110.378 270.569 110.378C270.198 110.378 269.866 110.456 269.574 110.612C269.286 110.764 269.057 110.976 268.888 111.248C268.723 111.516 268.64 111.823 268.64 112.168V117H267.466ZM273.849 106.818V117H272.675V106.818H273.849ZM278.881 117.159C278.245 117.159 277.683 116.998 277.196 116.677C276.709 116.352 276.327 115.895 276.052 115.305C275.777 114.711 275.64 114.01 275.64 113.202C275.64 112.4 275.777 111.704 276.052 111.114C276.327 110.524 276.71 110.068 277.201 109.746C277.691 109.425 278.258 109.264 278.901 109.264C279.398 109.264 279.791 109.347 280.079 109.513C280.371 109.675 280.593 109.861 280.746 110.07C280.901 110.275 281.022 110.444 281.108 110.577H281.208V106.818H282.381V117H281.248V115.827H281.108C281.022 115.966 280.9 116.142 280.741 116.354C280.581 116.562 280.354 116.75 280.059 116.915C279.765 117.078 279.372 117.159 278.881 117.159ZM279.04 116.105C279.511 116.105 279.909 115.982 280.233 115.737C280.558 115.489 280.805 115.146 280.974 114.708C281.143 114.267 281.228 113.759 281.228 113.182C281.228 112.612 281.145 112.113 280.979 111.685C280.814 111.254 280.568 110.92 280.243 110.681C279.919 110.439 279.518 110.318 279.04 110.318C278.543 110.318 278.129 110.446 277.797 110.701C277.469 110.953 277.222 111.296 277.057 111.73C276.894 112.161 276.813 112.645 276.813 113.182C276.813 113.725 276.896 114.219 277.062 114.663C277.231 115.104 277.479 115.455 277.807 115.717C278.139 115.976 278.55 116.105 279.04 116.105Z" fill="#C8C8C8"/>
<defs>
<filter id="filter0_d_716_99" x="22" y="48" width="60" height="64" filterUnits="userSpaceOnUse" color-interpolation-filters="sRGB">
<feFlood flood-opacity="0" result="BackgroundImageFix"/>
<feColorMatrix in="SourceAlpha" type="matrix" values="0 0 0 0 0 0 0 0 0 0 0 0 0 0 0 0 0 0 127 0" result="hardAlpha"/>
<feOffset/>
<feGaussianBlur stdDeviation="5"/>
<feComposite in2="hardAlpha" operator="out"/>
<feColorMatrix type="matrix" values="0 0 0 0 0 0 0 0 0 0 0 0 0 0 0 0 0 0 0.2 0"/>
<feBlend mode="normal" in2="BackgroundImageFix" result="effect1_dropShadow_716_99"/>
<feBlend mode="normal" in="SourceGraphic" in2="effect1_dropShadow_716_99" result="shape"/>
</filter>
</defs>
</svg>
