<svg width="60" height="64" viewBox="0 0 60 64" fill="none" xmlns="http://www.w3.org/2000/svg">
<g filter="url(#filter0_d_458_189)">
<path d="M30.9978 28.2188L16.8547 18.3359C16.1605 18.7656 15.3796 19.0234 14.5119 19.0234C11.9957 19.0234 10 17.0469 10 14.5547C10 12.0625 11.9957 10 14.5119 10C17.0282 10 19.0239 12.0625 19.0239 14.5547C19.0239 14.8984 19.0239 15.3281 18.8503 15.6719C23.3623 19.1094 31.1714 24.6094 33.5141 26.4141C34.6421 25.8125 35.9436 25.4688 37.2451 25.2969V19.9688C35.6833 19.3672 34.8156 17.9922 34.8156 16.3594C34.8156 14.0391 36.551 12.2344 38.8069 12.2344C41.1497 12.2344 42.885 14.0391 42.885 16.3594C42.885 17.9922 42.0174 19.3672 40.4555 19.9688V25.2969C45.9219 26.1562 50 30.7969 50 36.3828C50 42.5703 44.9675 47.5547 38.7202 47.5547C36.2039 47.5547 33.7744 46.6953 31.8655 45.2344L27.5271 49.5312C27.6139 49.875 27.7007 50.2188 27.7007 50.5625C27.7007 51.5078 27.3536 52.3672 26.6594 53.0547C26.0521 53.7422 25.0976 54 24.2299 54C23.2755 54 22.4078 53.6562 21.7137 53.0547C21.1063 52.3672 20.6725 51.5078 20.6725 50.5625C20.6725 49.7031 21.1063 48.7578 21.7137 48.1562C22.4078 47.4688 23.2755 47.125 24.2299 47.125C24.6638 47.125 25.0108 47.2109 25.4447 47.2969L29.6963 43.0859C28.308 41.1953 27.4403 38.875 27.4403 36.3828C27.4403 33.1172 28.8286 30.2812 30.9978 28.2188ZM38.7202 42.3125C42.1041 42.3125 44.7072 39.6484 44.7072 36.3828C44.7072 33.1172 42.1041 30.4531 38.7202 30.4531C35.423 30.4531 32.7332 33.1172 32.7332 36.3828C32.7332 39.6484 35.423 42.3125 38.7202 42.3125Z" fill="white"/>
</g>
<defs>
<filter id="filter0_d_458_189" x="0" y="0" width="60" height="64" filterUnits="userSpaceOnUse" color-interpolation-filters="sRGB">
<feFlood flood-opacity="0" result="BackgroundImageFix"/>
<feColorMatrix in="SourceAlpha" type="matrix" values="0 0 0 0 0 0 0 0 0 0 0 0 0 0 0 0 0 0 127 0" result="hardAlpha"/>
<feOffset/>
<feGaussianBlur stdDeviation="5"/>
<feComposite in2="hardAlpha" operator="out"/>
<feColorMatrix type="matrix" values="0 0 0 0 0 0 0 0 0 0 0 0 0 0 0 0 0 0 0.2 0"/>
<feBlend mode="normal" in2="BackgroundImageFix" result="effect1_dropShadow_458_189"/>
<feBlend mode="normal" in="SourceGraphic" in2="effect1_dropShadow_458_189" result="shape"/>
</filter>
</defs>
</svg>
