<svg width="60" height="60" viewBox="0 0 60 60" fill="none" xmlns="http://www.w3.org/2000/svg">
<g filter="url(#filter0_d_458_158)">
<path d="M19.1975 19.947H26.2274C32.3982 9.71455 42.0057 9.324 47.7859 10.4175C48.7232 10.5738 49.4262 11.2768 49.5825 12.2141C50.676 17.9943 50.2854 27.6018 40.053 33.7726V40.8025C40.053 42.7553 38.9594 44.6299 37.241 45.6453L30.3673 49.7071C29.7424 50.0976 29.0394 50.0976 28.4926 49.7071C27.8678 49.3946 27.5553 48.7698 27.5553 48.0668V39.1622C27.5553 37.3656 26.8523 35.6472 25.6026 34.3974C24.3528 33.1477 22.6344 32.4447 20.8378 32.4447H11.9332C11.2302 32.4447 10.6054 32.1322 10.2929 31.5074C9.90236 30.9606 9.90236 30.2576 10.2929 29.6327L14.3547 22.759C15.3701 21.0406 17.2447 19.947 19.1975 19.947ZM43.1774 19.947C43.1774 18.2286 41.7714 16.8226 40.053 16.8226C38.2564 16.8226 36.9286 18.2286 36.9286 19.947C36.9286 21.7436 38.2564 23.0714 40.053 23.0714C41.7714 23.0714 43.1774 21.7436 43.1774 19.947ZM23.0249 46.6608C19.1975 50.5663 10.0586 49.9414 10.0586 49.9414C10.0586 49.9414 9.4337 40.8025 13.3392 36.9751C15.995 34.3193 20.3692 34.3193 23.0249 36.9751C25.6807 39.6308 25.6807 44.005 23.0249 46.6608ZM19.3537 43.8488C20.291 42.9896 20.291 41.5055 19.3537 40.6463C18.4945 39.709 17.0104 39.709 16.1512 40.6463C14.8233 41.896 15.0576 44.9424 15.0576 44.9424C15.0576 44.9424 18.104 45.1767 19.3537 43.8488Z" fill="white"/>
</g>
<defs>
<filter id="filter0_d_458_158" x="0" y="0" width="60" height="60" filterUnits="userSpaceOnUse" color-interpolation-filters="sRGB">
<feFlood flood-opacity="0" result="BackgroundImageFix"/>
<feColorMatrix in="SourceAlpha" type="matrix" values="0 0 0 0 0 0 0 0 0 0 0 0 0 0 0 0 0 0 127 0" result="hardAlpha"/>
<feOffset/>
<feGaussianBlur stdDeviation="5"/>
<feComposite in2="hardAlpha" operator="out"/>
<feColorMatrix type="matrix" values="0 0 0 0 0 0 0 0 0 0 0 0 0 0 0 0 0 0 0.2 0"/>
<feBlend mode="normal" in2="BackgroundImageFix" result="effect1_dropShadow_458_158"/>
<feBlend mode="normal" in="SourceGraphic" in2="effect1_dropShadow_458_158" result="shape"/>
</filter>
</defs>
</svg>
