<svg width="450" height="160" viewBox="0 0 450 160" fill="none" xmlns="http://www.w3.org/2000/svg">
<g filter="url(#filter0_d_716_68)">
<path d="M41.1975 69.947H48.2274C54.3982 59.7146 64.0057 59.324 69.7859 60.4175C70.7232 60.5738 71.4262 61.2768 71.5825 62.2141C72.676 67.9943 72.2854 77.6018 62.053 83.7726V90.8025C62.053 92.7553 60.9594 94.6299 59.241 95.6453L52.3673 99.7071C51.7424 100.098 51.0394 100.098 50.4926 99.7071C49.8678 99.3946 49.5553 98.7698 49.5553 98.0668V89.1622C49.5553 87.3656 48.8523 85.6472 47.6026 84.3974C46.3528 83.1477 44.6344 82.4447 42.8378 82.4447H33.9332C33.2302 82.4447 32.6054 82.1322 32.2929 81.5074C31.9024 80.9606 31.9024 80.2576 32.2929 79.6327L36.3547 72.759C37.3701 71.0406 39.2447 69.947 41.1975 69.947ZM65.1774 69.947C65.1774 68.2286 63.7714 66.8226 62.053 66.8226C60.2564 66.8226 58.9286 68.2286 58.9286 69.947C58.9286 71.7436 60.2564 73.0714 62.053 73.0714C63.7714 73.0714 65.1774 71.7436 65.1774 69.947ZM45.0249 96.6608C41.1975 100.566 32.0586 99.9414 32.0586 99.9414C32.0586 99.9414 31.4337 90.8025 35.3392 86.9751C37.995 84.3193 42.3692 84.3193 45.0249 86.9751C47.6807 89.6308 47.6807 94.005 45.0249 96.6608ZM41.3537 93.8488C42.291 92.9896 42.291 91.5055 41.3537 90.6463C40.4945 89.709 39.0104 89.709 38.1512 90.6463C36.8233 91.896 37.0576 94.9424 37.0576 94.9424C37.0576 94.9424 40.104 95.1767 41.3537 93.8488Z" fill="white"/>
</g>
<path d="M100.339 44.4545V59H97.2642V44.4545H100.339ZM108.026 59H102.87V44.4545H108.069C109.532 44.4545 110.791 44.7457 111.847 45.3281C112.903 45.9058 113.715 46.7367 114.283 47.821C114.856 48.9053 115.142 50.2027 115.142 51.7131C115.142 53.2282 114.856 54.5303 114.283 55.6193C113.715 56.7083 112.898 57.544 111.833 58.1264C110.772 58.7088 109.503 59 108.026 59ZM105.945 56.3651H107.898C108.807 56.3651 109.572 56.2041 110.192 55.8821C110.817 55.5554 111.286 55.0511 111.598 54.3693C111.916 53.6828 112.074 52.7973 112.074 51.7131C112.074 50.6383 111.916 49.7599 111.598 49.0781C111.286 48.3963 110.819 47.8944 110.199 47.5724C109.579 47.2505 108.814 47.0895 107.905 47.0895H105.945V56.3651ZM130.787 51.7273C130.787 53.3134 130.486 54.6629 129.885 55.7756C129.288 56.8883 128.474 57.7382 127.442 58.3253C126.414 58.9077 125.259 59.1989 123.976 59.1989C122.683 59.1989 121.523 58.9053 120.496 58.3182C119.468 57.7311 118.656 56.8812 118.06 55.7685C117.463 54.6558 117.165 53.3087 117.165 51.7273C117.165 50.1411 117.463 48.7917 118.06 47.679C118.656 46.5663 119.468 45.7187 120.496 45.1364C121.523 44.5492 122.683 44.2557 123.976 44.2557C125.259 44.2557 126.414 44.5492 127.442 45.1364C128.474 45.7187 129.288 46.5663 129.885 47.679C130.486 48.7917 130.787 50.1411 130.787 51.7273ZM127.669 51.7273C127.669 50.6998 127.515 49.8333 127.207 49.1278C126.904 48.4223 126.476 47.8873 125.922 47.5227C125.368 47.1581 124.719 46.9759 123.976 46.9759C123.232 46.9759 122.584 47.1581 122.03 47.5227C121.476 47.8873 121.045 48.4223 120.737 49.1278C120.434 49.8333 120.283 50.6998 120.283 51.7273C120.283 52.7547 120.434 53.6212 120.737 54.3267C121.045 55.0322 121.476 55.5672 122.03 55.9318C122.584 56.2964 123.232 56.4787 123.976 56.4787C124.719 56.4787 125.368 56.2964 125.922 55.9318C126.476 55.5672 126.904 55.0322 127.207 54.3267C127.515 53.6212 127.669 52.7547 127.669 51.7273Z" fill="white"/>
<rect x="140" y="38" width="99" height="28" rx="14" fill="#7FF252" fill-opacity="0.1"/>
<path d="M153.119 57V46.8182H154.655V55.6776H159.268V57H153.119ZM163.124 57.169C162.64 57.169 162.203 57.0795 161.811 56.9006C161.42 56.7183 161.11 56.4548 160.882 56.1101C160.656 55.7654 160.544 55.3428 160.544 54.8423C160.544 54.4115 160.627 54.0568 160.792 53.7784C160.958 53.5 161.182 53.2796 161.463 53.1172C161.745 52.9548 162.06 52.8321 162.408 52.7493C162.756 52.6664 163.111 52.6035 163.472 52.5604C163.929 52.5073 164.301 52.4643 164.586 52.4311C164.871 52.3946 165.078 52.3366 165.207 52.2571C165.336 52.1776 165.401 52.0483 165.401 51.8693V51.8345C165.401 51.4003 165.278 51.0639 165.033 50.8253C164.791 50.5866 164.43 50.4673 163.949 50.4673C163.449 50.4673 163.054 50.5784 162.766 50.8004C162.481 51.0192 162.284 51.2628 162.174 51.5312L160.777 51.2131C160.943 50.7491 161.185 50.3745 161.503 50.0895C161.825 49.8011 162.194 49.5923 162.612 49.4631C163.029 49.3305 163.469 49.2642 163.929 49.2642C164.234 49.2642 164.557 49.3007 164.899 49.3736C165.243 49.4432 165.565 49.5724 165.863 49.7614C166.165 49.9503 166.412 50.2204 166.604 50.5717C166.796 50.9197 166.892 51.3722 166.892 51.929V57H165.441V55.956H165.381C165.285 56.1482 165.141 56.3371 164.949 56.5227C164.756 56.7083 164.509 56.8625 164.208 56.9851C163.906 57.1077 163.545 57.169 163.124 57.169ZM163.447 55.9759C163.858 55.9759 164.209 55.8946 164.501 55.7322C164.796 55.5698 165.02 55.3577 165.172 55.0959C165.328 54.8307 165.406 54.5473 165.406 54.2457V53.2614C165.353 53.3144 165.25 53.3641 165.098 53.4105C164.949 53.4536 164.778 53.4917 164.586 53.5249C164.393 53.5547 164.206 53.5829 164.024 53.6094C163.842 53.6326 163.689 53.6525 163.566 53.669C163.278 53.7055 163.015 53.7668 162.776 53.853C162.541 53.9392 162.352 54.0634 162.209 54.2259C162.07 54.3849 162 54.5971 162 54.8622C162 55.2301 162.136 55.5085 162.408 55.6974C162.68 55.883 163.026 55.9759 163.447 55.9759ZM173.71 53.8331V49.3636H175.201V57H173.74V55.6776H173.66C173.484 56.0852 173.203 56.425 172.815 56.6967C172.43 56.9652 171.951 57.0994 171.378 57.0994C170.887 57.0994 170.453 56.9917 170.075 56.7763C169.701 56.5575 169.406 56.2344 169.191 55.8068C168.978 55.3793 168.872 54.8506 168.872 54.2209V49.3636H170.359V54.0419C170.359 54.5623 170.503 54.9766 170.791 55.2848C171.08 55.593 171.454 55.7472 171.915 55.7472C172.193 55.7472 172.47 55.6776 172.745 55.5384C173.024 55.3991 173.254 55.1887 173.436 54.907C173.622 54.6252 173.713 54.2673 173.71 53.8331ZM178.685 52.4659V57H177.199V49.3636H178.625V50.6065H178.72C178.895 50.2022 179.171 49.8774 179.545 49.6321C179.923 49.3868 180.399 49.2642 180.972 49.2642C181.492 49.2642 181.948 49.3736 182.339 49.5923C182.73 49.8078 183.033 50.1293 183.249 50.5568C183.464 50.9844 183.572 51.513 183.572 52.1428V57H182.086V52.3217C182.086 51.7682 181.941 51.3357 181.653 51.0241C181.365 50.7093 180.969 50.5518 180.465 50.5518C180.12 50.5518 179.814 50.6264 179.545 50.7756C179.28 50.9247 179.069 51.1435 178.914 51.4318C178.761 51.7169 178.685 52.0616 178.685 52.4659ZM188.782 57.1541C188.043 57.1541 187.407 56.9867 186.873 56.652C186.343 56.3139 185.935 55.8482 185.65 55.255C185.365 54.6617 185.223 53.9822 185.223 53.2166C185.223 52.4411 185.368 51.7566 185.66 51.1634C185.952 50.5668 186.363 50.1011 186.893 49.7663C187.423 49.4316 188.048 49.2642 188.767 49.2642C189.347 49.2642 189.864 49.3719 190.319 49.5874C190.773 49.7995 191.139 50.0978 191.417 50.4822C191.699 50.8667 191.866 51.3158 191.919 51.8295H190.473C190.393 51.4716 190.211 51.1634 189.926 50.9048C189.644 50.6463 189.266 50.517 188.792 50.517C188.378 50.517 188.015 50.6264 187.703 50.8452C187.395 51.0606 187.155 51.3688 186.983 51.7699C186.81 52.1676 186.724 52.6383 186.724 53.1818C186.724 53.7386 186.809 54.2192 186.978 54.6236C187.147 55.0279 187.385 55.3411 187.694 55.5632C188.005 55.7853 188.371 55.8963 188.792 55.8963C189.074 55.8963 189.329 55.8449 189.558 55.7422C189.79 55.6361 189.984 55.4853 190.14 55.2898C190.299 55.0942 190.41 54.8589 190.473 54.5838H191.919C191.866 55.0777 191.706 55.5185 191.437 55.9062C191.169 56.294 190.809 56.599 190.358 56.821C189.911 57.0431 189.386 57.1541 188.782 57.1541ZM194.996 52.4659V57H193.509V46.8182H194.976V50.6065H195.07C195.249 50.1955 195.523 49.8691 195.89 49.6271C196.258 49.3852 196.739 49.2642 197.332 49.2642C197.856 49.2642 198.313 49.3719 198.704 49.5874C199.099 49.8028 199.404 50.1243 199.619 50.5518C199.838 50.9761 199.947 51.5064 199.947 52.1428V57H198.461V52.3217C198.461 51.7616 198.317 51.3274 198.028 51.0192C197.74 50.7076 197.339 50.5518 196.825 50.5518C196.474 50.5518 196.159 50.6264 195.881 50.7756C195.605 50.9247 195.388 51.1435 195.229 51.4318C195.073 51.7169 194.996 52.0616 194.996 52.4659ZM201.931 59.8636V49.3636H203.383V50.6016H203.507C203.593 50.4425 203.717 50.2585 203.88 50.0497C204.042 49.8409 204.268 49.6586 204.556 49.5028C204.844 49.3438 205.225 49.2642 205.699 49.2642C206.316 49.2642 206.866 49.42 207.35 49.7315C207.834 50.0431 208.213 50.4922 208.488 51.0788C208.767 51.6655 208.906 52.3714 208.906 53.1967C208.906 54.022 208.769 54.7296 208.493 55.3196C208.218 55.9062 207.84 56.3587 207.36 56.6768C206.879 56.9917 206.331 57.1491 205.714 57.1491C205.25 57.1491 204.871 57.0713 204.576 56.9155C204.284 56.7597 204.055 56.5774 203.89 56.3686C203.724 56.1598 203.596 55.9742 203.507 55.8118H203.417V59.8636H201.931ZM203.388 53.1818C203.388 53.7187 203.465 54.1894 203.621 54.5938C203.777 54.9981 204.002 55.3146 204.297 55.5433C204.592 55.7687 204.954 55.8814 205.381 55.8814C205.825 55.8814 206.197 55.7637 206.495 55.5284C206.793 55.2898 207.019 54.9666 207.171 54.5589C207.327 54.1513 207.405 53.6922 207.405 53.1818C207.405 52.678 207.328 52.2256 207.176 51.8246C207.027 51.4235 206.801 51.107 206.5 50.875C206.202 50.643 205.829 50.527 205.381 50.527C204.95 50.527 204.586 50.638 204.287 50.8601C203.992 51.0821 203.769 51.392 203.616 51.7898C203.464 52.1875 203.388 52.6515 203.388 53.1818ZM212.794 57.169C212.31 57.169 211.872 57.0795 211.481 56.9006C211.09 56.7183 210.78 56.4548 210.552 56.1101C210.326 55.7654 210.214 55.3428 210.214 54.8423C210.214 54.4115 210.296 54.0568 210.462 53.7784C210.628 53.5 210.852 53.2796 211.133 53.1172C211.415 52.9548 211.73 52.8321 212.078 52.7493C212.426 52.6664 212.781 52.6035 213.142 52.5604C213.599 52.5073 213.97 52.4643 214.256 52.4311C214.541 52.3946 214.748 52.3366 214.877 52.2571C215.006 52.1776 215.071 52.0483 215.071 51.8693V51.8345C215.071 51.4003 214.948 51.0639 214.703 50.8253C214.461 50.5866 214.1 50.4673 213.619 50.4673C213.119 50.4673 212.724 50.5784 212.436 50.8004C212.151 51.0192 211.954 51.2628 211.844 51.5312L210.447 51.2131C210.613 50.7491 210.855 50.3745 211.173 50.0895C211.495 49.8011 211.864 49.5923 212.282 49.4631C212.699 49.3305 213.139 49.2642 213.599 49.2642C213.904 49.2642 214.227 49.3007 214.569 49.3736C214.913 49.4432 215.235 49.5724 215.533 49.7614C215.835 49.9503 216.082 50.2204 216.274 50.5717C216.466 50.9197 216.562 51.3722 216.562 51.929V57H215.111V55.956H215.051C214.955 56.1482 214.811 56.3371 214.618 56.5227C214.426 56.7083 214.179 56.8625 213.878 56.9851C213.576 57.1077 213.215 57.169 212.794 57.169ZM213.117 55.9759C213.528 55.9759 213.879 55.8946 214.171 55.7322C214.466 55.5698 214.69 55.3577 214.842 55.0959C214.998 54.8307 215.076 54.5473 215.076 54.2457V53.2614C215.023 53.3144 214.92 53.3641 214.768 53.4105C214.618 53.4536 214.448 53.4917 214.256 53.5249C214.063 53.5547 213.876 53.5829 213.694 53.6094C213.511 53.6326 213.359 53.6525 213.236 53.669C212.948 53.7055 212.684 53.7668 212.446 53.853C212.211 53.9392 212.022 54.0634 211.879 54.2259C211.74 54.3849 211.67 54.5971 211.67 54.8622C211.67 55.2301 211.806 55.5085 212.078 55.6974C212.35 55.883 212.696 55.9759 213.117 55.9759ZM221.401 57.1491C220.784 57.1491 220.234 56.9917 219.75 56.6768C219.27 56.3587 218.892 55.9062 218.617 55.3196C218.345 54.7296 218.209 54.022 218.209 53.1967C218.209 52.3714 218.347 51.6655 218.622 51.0788C218.9 50.4922 219.281 50.0431 219.765 49.7315C220.249 49.42 220.798 49.2642 221.411 49.2642C221.885 49.2642 222.266 49.3438 222.554 49.5028C222.846 49.6586 223.071 49.8409 223.23 50.0497C223.393 50.2585 223.519 50.4425 223.608 50.6016H223.698V46.8182H225.184V57H223.733V55.8118H223.608C223.519 55.9742 223.39 56.1598 223.221 56.3686C223.055 56.5774 222.826 56.7597 222.534 56.9155C222.243 57.0713 221.865 57.1491 221.401 57.1491ZM221.729 55.8814C222.157 55.8814 222.518 55.7687 222.813 55.5433C223.111 55.3146 223.337 54.9981 223.489 54.5938C223.645 54.1894 223.723 53.7187 223.723 53.1818C223.723 52.6515 223.646 52.1875 223.494 51.7898C223.342 51.392 223.118 51.0821 222.823 50.8601C222.528 50.638 222.163 50.527 221.729 50.527C221.282 50.527 220.909 50.643 220.61 50.875C220.312 51.107 220.087 51.4235 219.934 51.8246C219.785 52.2256 219.711 52.678 219.711 53.1818C219.711 53.6922 219.787 54.1513 219.939 54.5589C220.092 54.9666 220.317 55.2898 220.615 55.5284C220.917 55.7637 221.288 55.8814 221.729 55.8814Z" fill="#7FF252"/>
<path d="M97.6506 97H96.358L100.097 86.8182H101.369L105.108 97H103.815L100.773 88.429H100.693L97.6506 97ZM98.1278 93.0227H103.338V94.1165H98.1278V93.0227ZM109.637 97.1591C108.921 97.1591 108.305 96.9901 107.788 96.652C107.271 96.3139 106.873 95.8482 106.594 95.255C106.316 94.6617 106.177 93.9839 106.177 93.2216C106.177 92.446 106.319 91.7616 106.604 91.1683C106.893 90.5717 107.294 90.1061 107.808 89.7713C108.325 89.4332 108.928 89.2642 109.617 89.2642C110.154 89.2642 110.638 89.3636 111.069 89.5625C111.5 89.7614 111.853 90.0398 112.128 90.3977C112.403 90.7557 112.574 91.1733 112.64 91.6506H111.467C111.377 91.3026 111.178 90.9943 110.87 90.7259C110.565 90.4541 110.154 90.3182 109.637 90.3182C109.18 90.3182 108.779 90.4375 108.434 90.6761C108.093 90.9115 107.826 91.2446 107.634 91.6754C107.445 92.103 107.35 92.6051 107.35 93.1818C107.35 93.7718 107.443 94.2855 107.629 94.723C107.817 95.1605 108.083 95.5002 108.424 95.7422C108.769 95.9841 109.173 96.1051 109.637 96.1051C109.942 96.1051 110.219 96.0521 110.467 95.946C110.716 95.84 110.926 95.6875 111.099 95.4886C111.271 95.2898 111.394 95.0511 111.467 94.7727H112.64C112.574 95.2235 112.41 95.6295 112.148 95.9908C111.889 96.3487 111.546 96.6338 111.119 96.8459C110.694 97.0547 110.201 97.1591 109.637 97.1591ZM117.457 97.1591C116.741 97.1591 116.125 96.9901 115.608 96.652C115.091 96.3139 114.693 95.8482 114.415 95.255C114.136 94.6617 113.997 93.9839 113.997 93.2216C113.997 92.446 114.14 91.7616 114.425 91.1683C114.713 90.5717 115.114 90.1061 115.628 89.7713C116.145 89.4332 116.748 89.2642 117.438 89.2642C117.974 89.2642 118.458 89.3636 118.889 89.5625C119.32 89.7614 119.673 90.0398 119.948 90.3977C120.223 90.7557 120.394 91.1733 120.46 91.6506H119.287C119.197 91.3026 118.999 90.9943 118.69 90.7259C118.385 90.4541 117.974 90.3182 117.457 90.3182C117 90.3182 116.599 90.4375 116.254 90.6761C115.913 90.9115 115.646 91.2446 115.454 91.6754C115.265 92.103 115.17 92.6051 115.17 93.1818C115.17 93.7718 115.263 94.2855 115.449 94.723C115.638 95.1605 115.903 95.5002 116.244 95.7422C116.589 95.9841 116.993 96.1051 117.457 96.1051C117.762 96.1051 118.039 96.0521 118.288 95.946C118.536 95.84 118.747 95.6875 118.919 95.4886C119.091 95.2898 119.214 95.0511 119.287 94.7727H120.46C120.394 95.2235 120.23 95.6295 119.968 95.9908C119.71 96.3487 119.366 96.6338 118.939 96.8459C118.515 97.0547 118.021 97.1591 117.457 97.1591ZM125.377 97.1591C124.641 97.1591 124.007 96.9967 123.473 96.6719C122.943 96.3438 122.533 95.8864 122.245 95.2997C121.96 94.7098 121.817 94.0237 121.817 93.2415C121.817 92.4593 121.96 91.7699 122.245 91.1733C122.533 90.5734 122.934 90.1061 123.448 89.7713C123.965 89.4332 124.568 89.2642 125.258 89.2642C125.656 89.2642 126.048 89.3305 126.436 89.4631C126.824 89.5956 127.177 89.8111 127.495 90.1094C127.813 90.4044 128.067 90.7955 128.256 91.2827C128.445 91.7699 128.539 92.3698 128.539 93.0824V93.5795H122.653V92.5653H127.346C127.346 92.1345 127.26 91.75 127.087 91.4119C126.918 91.0739 126.676 90.8071 126.362 90.6115C126.05 90.416 125.682 90.3182 125.258 90.3182C124.79 90.3182 124.386 90.4342 124.045 90.6662C123.707 90.8949 123.446 91.1932 123.264 91.5611C123.082 91.929 122.991 92.3234 122.991 92.7443V93.4205C122.991 93.9972 123.09 94.486 123.289 94.8871C123.491 95.2848 123.771 95.5881 124.129 95.7969C124.487 96.0024 124.903 96.1051 125.377 96.1051C125.685 96.1051 125.964 96.062 126.212 95.9759C126.464 95.8864 126.681 95.7538 126.864 95.5781C127.046 95.3991 127.187 95.1771 127.286 94.9119L128.42 95.2301C128.3 95.6146 128.1 95.9527 127.818 96.2443C127.536 96.5327 127.188 96.758 126.774 96.9205C126.36 97.0795 125.894 97.1591 125.377 97.1591ZM135.733 91.0739L134.679 91.3722C134.613 91.1965 134.515 91.0258 134.386 90.8601C134.26 90.6911 134.087 90.5518 133.869 90.4425C133.65 90.3331 133.37 90.2784 133.028 90.2784C132.561 90.2784 132.172 90.3861 131.86 90.6016C131.552 90.8137 131.398 91.0838 131.398 91.4119C131.398 91.7036 131.504 91.9339 131.716 92.103C131.928 92.272 132.259 92.4129 132.71 92.5256L133.844 92.804C134.527 92.9697 135.035 93.2232 135.37 93.5646C135.705 93.9027 135.872 94.3385 135.872 94.8722C135.872 95.3097 135.746 95.7008 135.494 96.0455C135.246 96.3902 134.898 96.6619 134.45 96.8608C134.003 97.0597 133.482 97.1591 132.889 97.1591C132.11 97.1591 131.466 96.9901 130.955 96.652C130.445 96.3139 130.122 95.8201 129.986 95.1705L131.099 94.892C131.205 95.303 131.406 95.6113 131.701 95.8168C131.999 96.0223 132.389 96.125 132.869 96.125C133.416 96.125 133.85 96.009 134.172 95.777C134.497 95.5417 134.659 95.2599 134.659 94.9318C134.659 94.6667 134.566 94.4446 134.381 94.2656C134.195 94.0833 133.91 93.9474 133.526 93.858L132.253 93.5597C131.554 93.3939 131.04 93.1371 130.712 92.7891C130.387 92.4377 130.224 91.9986 130.224 91.4716C130.224 91.0407 130.345 90.6596 130.587 90.3281C130.833 89.9967 131.166 89.7365 131.587 89.5476C132.011 89.3587 132.491 89.2642 133.028 89.2642C133.784 89.2642 134.377 89.4299 134.808 89.7614C135.242 90.0928 135.551 90.5303 135.733 91.0739ZM143.047 91.0739L141.993 91.3722C141.927 91.1965 141.829 91.0258 141.7 90.8601C141.574 90.6911 141.402 90.5518 141.183 90.4425C140.964 90.3331 140.684 90.2784 140.343 90.2784C139.876 90.2784 139.486 90.3861 139.175 90.6016C138.866 90.8137 138.712 91.0838 138.712 91.4119C138.712 91.7036 138.818 91.9339 139.03 92.103C139.242 92.272 139.574 92.4129 140.025 92.5256L141.158 92.804C141.841 92.9697 142.35 93.2232 142.684 93.5646C143.019 93.9027 143.187 94.3385 143.187 94.8722C143.187 95.3097 143.061 95.7008 142.809 96.0455C142.56 96.3902 142.212 96.6619 141.765 96.8608C141.317 97.0597 140.797 97.1591 140.204 97.1591C139.425 97.1591 138.78 96.9901 138.27 96.652C137.759 96.3139 137.436 95.8201 137.3 95.1705L138.414 94.892C138.52 95.303 138.72 95.6113 139.015 95.8168C139.314 96.0223 139.703 96.125 140.184 96.125C140.731 96.125 141.165 96.009 141.486 95.777C141.811 95.5417 141.974 95.2599 141.974 94.9318C141.974 94.6667 141.881 94.4446 141.695 94.2656C141.51 94.0833 141.224 93.9474 140.84 93.858L139.567 93.5597C138.868 93.3939 138.354 93.1371 138.026 92.7891C137.701 92.4377 137.539 91.9986 137.539 91.4716C137.539 91.0407 137.66 90.6596 137.902 90.3281C138.147 89.9967 138.48 89.7365 138.901 89.5476C139.325 89.3587 139.806 89.2642 140.343 89.2642C141.099 89.2642 141.692 89.4299 142.123 89.7614C142.557 90.0928 142.865 90.5303 143.047 91.0739ZM156.01 90C155.9 89.6652 155.756 89.3653 155.577 89.1001C155.401 88.8317 155.191 88.603 154.946 88.4141C154.704 88.2251 154.429 88.081 154.12 87.9815C153.812 87.8821 153.474 87.8324 153.106 87.8324C152.503 87.8324 151.954 87.9882 151.461 88.2997C150.967 88.6113 150.574 89.0703 150.282 89.6768C149.991 90.2834 149.845 91.0275 149.845 91.9091C149.845 92.7907 149.992 93.5348 150.287 94.1413C150.582 94.7479 150.982 95.2069 151.485 95.5185C151.989 95.83 152.556 95.9858 153.186 95.9858C153.769 95.9858 154.283 95.8615 154.727 95.6129C155.174 95.361 155.522 95.0064 155.771 94.549C156.023 94.0883 156.149 93.5464 156.149 92.9233L156.527 93.0028H153.464V91.9091H157.342V93.0028C157.342 93.8414 157.163 94.5705 156.805 95.1903C156.45 95.8101 155.96 96.2907 155.333 96.6321C154.71 96.9702 153.994 97.1392 153.186 97.1392C152.284 97.1392 151.492 96.9271 150.809 96.5028C150.13 96.0786 149.6 95.4754 149.218 94.6932C148.841 93.911 148.652 92.983 148.652 91.9091C148.652 91.1037 148.759 90.3795 148.975 89.7365C149.194 89.0902 149.502 88.54 149.9 88.0859C150.297 87.6319 150.768 87.2839 151.311 87.0419C151.855 86.8 152.453 86.679 153.106 86.679C153.643 86.679 154.144 86.7602 154.608 86.9226C155.075 87.0817 155.491 87.3087 155.855 87.6037C156.223 87.8954 156.53 88.245 156.775 88.6527C157.02 89.0571 157.19 89.5062 157.282 90H156.01ZM161.542 97.179C161.058 97.179 160.619 97.0878 160.224 96.9055C159.83 96.7199 159.517 96.4531 159.285 96.1051C159.053 95.7538 158.937 95.3295 158.937 94.8324C158.937 94.3949 159.023 94.0402 159.195 93.7685C159.367 93.4934 159.598 93.2779 159.886 93.1222C160.175 92.9664 160.493 92.8504 160.841 92.7741C161.192 92.6946 161.545 92.6316 161.9 92.5852C162.364 92.5256 162.74 92.4808 163.028 92.451C163.32 92.4179 163.532 92.3632 163.665 92.2869C163.8 92.2107 163.868 92.0781 163.868 91.8892V91.8494C163.868 91.3589 163.734 90.9777 163.466 90.706C163.201 90.4342 162.798 90.2983 162.258 90.2983C161.698 90.2983 161.258 90.4209 160.94 90.6662C160.622 90.9115 160.398 91.1733 160.269 91.4517L159.155 91.054C159.354 90.59 159.619 90.2287 159.951 89.9702C160.286 89.7083 160.65 89.526 161.045 89.4233C161.442 89.3172 161.833 89.2642 162.218 89.2642C162.463 89.2642 162.745 89.294 163.063 89.3537C163.385 89.41 163.694 89.5277 163.993 89.7067C164.294 89.8857 164.545 90.1558 164.743 90.517C164.942 90.8783 165.042 91.3622 165.042 91.9688V97H163.868V95.9659H163.809C163.729 96.1316 163.597 96.3089 163.411 96.4979C163.225 96.6868 162.979 96.8475 162.67 96.9801C162.362 97.1127 161.986 97.179 161.542 97.179ZM161.721 96.125C162.185 96.125 162.576 96.0339 162.894 95.8516C163.215 95.6693 163.457 95.4339 163.62 95.1456C163.786 94.8572 163.868 94.554 163.868 94.2358V93.1619C163.819 93.2216 163.709 93.2763 163.54 93.326C163.375 93.3724 163.182 93.4138 162.964 93.4503C162.748 93.4834 162.538 93.5133 162.332 93.5398C162.13 93.563 161.966 93.5829 161.84 93.5994C161.535 93.6392 161.25 93.7038 160.985 93.7933C160.723 93.8795 160.511 94.0104 160.349 94.1861C160.189 94.3584 160.11 94.5937 160.11 94.892C160.11 95.2997 160.261 95.608 160.562 95.8168C160.867 96.0223 161.253 96.125 161.721 96.125ZM167.183 97V89.3636H168.317V90.5568H168.416C168.575 90.1491 168.832 89.8326 169.187 89.6072C169.541 89.3786 169.967 89.2642 170.464 89.2642C170.968 89.2642 171.388 89.3786 171.722 89.6072C172.06 89.8326 172.324 90.1491 172.513 90.5568H172.592C172.788 90.1624 173.081 89.8492 173.472 89.6172C173.863 89.3819 174.332 89.2642 174.879 89.2642C175.562 89.2642 176.121 89.478 176.555 89.9055C176.989 90.3298 177.206 90.991 177.206 91.8892V97H176.033V91.8892C176.033 91.3258 175.879 90.9231 175.57 90.6811C175.262 90.4392 174.899 90.3182 174.482 90.3182C173.945 90.3182 173.529 90.4806 173.234 90.8054C172.939 91.1269 172.791 91.5346 172.791 92.0284V97H171.598V91.7699C171.598 91.3357 171.457 90.986 171.175 90.7209C170.894 90.4524 170.531 90.3182 170.087 90.3182C169.782 90.3182 169.497 90.3994 169.232 90.5618C168.97 90.7242 168.758 90.9496 168.595 91.2379C168.436 91.523 168.357 91.8527 168.357 92.2273V97H167.183ZM182.553 97.1591C181.817 97.1591 181.182 96.9967 180.649 96.6719C180.118 96.3438 179.709 95.8864 179.421 95.2997C179.136 94.7098 178.993 94.0237 178.993 93.2415C178.993 92.4593 179.136 91.7699 179.421 91.1733C179.709 90.5734 180.11 90.1061 180.624 89.7713C181.141 89.4332 181.744 89.2642 182.434 89.2642C182.831 89.2642 183.224 89.3305 183.612 89.4631C184 89.5956 184.353 89.8111 184.671 90.1094C184.989 90.4044 185.243 90.7955 185.431 91.2827C185.62 91.7699 185.715 92.3698 185.715 93.0824V93.5795H179.828V92.5653H184.522C184.522 92.1345 184.435 91.75 184.263 91.4119C184.094 91.0739 183.852 90.8071 183.537 90.6115C183.226 90.416 182.858 90.3182 182.434 90.3182C181.966 90.3182 181.562 90.4342 181.221 90.6662C180.882 90.8949 180.622 91.1932 180.44 91.5611C180.258 91.929 180.167 92.3234 180.167 92.7443V93.4205C180.167 93.9972 180.266 94.486 180.465 94.8871C180.667 95.2848 180.947 95.5881 181.305 95.7969C181.663 96.0024 182.079 96.1051 182.553 96.1051C182.861 96.1051 183.14 96.062 183.388 95.9759C183.64 95.8864 183.857 95.7538 184.039 95.5781C184.222 95.3991 184.363 95.1771 184.462 94.9119L185.596 95.2301C185.476 95.6146 185.276 95.9527 184.994 96.2443C184.712 96.5327 184.364 96.758 183.95 96.9205C183.536 97.0795 183.07 97.1591 182.553 97.1591ZM187.659 97V86.8182H193.764V87.9119H188.892V91.3523H193.306V92.446H188.892V97H187.659ZM195.716 97V89.3636H196.89V97H195.716ZM196.313 88.0909C196.084 88.0909 195.887 88.013 195.721 87.8572C195.559 87.7015 195.478 87.5142 195.478 87.2955C195.478 87.0767 195.559 86.8894 195.721 86.7337C195.887 86.5779 196.084 86.5 196.313 86.5C196.542 86.5 196.737 86.5779 196.9 86.7337C197.065 86.8894 197.148 87.0767 197.148 87.2955C197.148 87.5142 197.065 87.7015 196.9 87.8572C196.737 88.013 196.542 88.0909 196.313 88.0909ZM202.976 97V89.3636H204.15V97H202.976ZM203.573 88.0909C203.344 88.0909 203.147 88.013 202.981 87.8572C202.819 87.7015 202.738 87.5142 202.738 87.2955C202.738 87.0767 202.819 86.8894 202.981 86.7337C203.147 86.5779 203.344 86.5 203.573 86.5C203.801 86.5 203.997 86.5779 204.159 86.7337C204.325 86.8894 204.408 87.0767 204.408 87.2955C204.408 87.5142 204.325 87.7015 204.159 87.8572C203.997 88.013 203.801 88.0909 203.573 88.0909ZM207.472 92.4062V97H206.298V89.3636H207.432V90.5568H207.531C207.71 90.169 207.982 89.8575 208.347 89.6222C208.711 89.3835 209.182 89.2642 209.759 89.2642C210.276 89.2642 210.728 89.3703 211.116 89.5824C211.504 89.7912 211.805 90.1094 212.021 90.5369C212.236 90.9612 212.344 91.4981 212.344 92.1477V97H211.171V92.2273C211.171 91.6274 211.015 91.16 210.703 90.8253C210.392 90.4872 209.964 90.3182 209.421 90.3182C209.046 90.3182 208.711 90.3994 208.416 90.5618C208.125 90.7242 207.894 90.9612 207.725 91.2727C207.556 91.5843 207.472 91.9621 207.472 92.4062ZM217.59 97.1591C216.874 97.1591 216.258 96.9901 215.741 96.652C215.224 96.3139 214.826 95.8482 214.548 95.255C214.269 94.6617 214.13 93.9839 214.13 93.2216C214.13 92.446 214.272 91.7616 214.558 91.1683C214.846 90.5717 215.247 90.1061 215.761 89.7713C216.278 89.4332 216.881 89.2642 217.57 89.2642C218.107 89.2642 218.591 89.3636 219.022 89.5625C219.453 89.7614 219.806 90.0398 220.081 90.3977C220.356 90.7557 220.527 91.1733 220.593 91.6506H219.42C219.33 91.3026 219.131 90.9943 218.823 90.7259C218.518 90.4541 218.107 90.3182 217.59 90.3182C217.133 90.3182 216.732 90.4375 216.387 90.6761C216.046 90.9115 215.779 91.2446 215.587 91.6754C215.398 92.103 215.303 92.6051 215.303 93.1818C215.303 93.7718 215.396 94.2855 215.582 94.723C215.771 95.1605 216.036 95.5002 216.377 95.7422C216.722 95.9841 217.126 96.1051 217.59 96.1051C217.895 96.1051 218.172 96.0521 218.42 95.946C218.669 95.84 218.879 95.6875 219.052 95.4886C219.224 95.2898 219.347 95.0511 219.42 94.7727H220.593C220.527 95.2235 220.363 95.6295 220.101 95.9908C219.842 96.3487 219.499 96.6338 219.072 96.8459C218.647 97.0547 218.154 97.1591 217.59 97.1591ZM227.121 93.8778V89.3636H228.294V97H227.121V95.7074H227.041C226.862 96.0952 226.584 96.425 226.206 96.6967C225.828 96.9652 225.351 97.0994 224.774 97.0994C224.297 97.0994 223.873 96.995 223.501 96.7862C223.13 96.5741 222.839 96.2559 222.626 95.8317C222.414 95.4041 222.308 94.8655 222.308 94.2159V89.3636H223.482V94.1364C223.482 94.6932 223.637 95.1373 223.949 95.4688C224.264 95.8002 224.665 95.9659 225.152 95.9659C225.444 95.9659 225.74 95.8913 226.042 95.7422C226.347 95.593 226.602 95.3643 226.808 95.0561C227.016 94.7479 227.121 94.3551 227.121 93.8778ZM230.602 97V86.8182H231.775V90.5767H231.875C231.961 90.4441 232.08 90.2751 232.233 90.0696C232.389 89.8608 232.611 89.6752 232.899 89.5128C233.191 89.3471 233.585 89.2642 234.082 89.2642C234.725 89.2642 235.292 89.425 235.782 89.7464C236.273 90.0679 236.656 90.5237 236.931 91.1136C237.206 91.7036 237.344 92.3996 237.344 93.2017C237.344 94.0104 237.206 94.7114 236.931 95.3047C236.656 95.8946 236.275 96.352 235.787 96.6768C235.3 96.9983 234.738 97.1591 234.102 97.1591C233.612 97.1591 233.219 97.0779 232.924 96.9155C232.629 96.7498 232.402 96.5625 232.243 96.3537C232.084 96.1416 231.961 95.9659 231.875 95.8267H231.736V97H230.602ZM231.756 93.1818C231.756 93.7585 231.84 94.2673 232.009 94.7081C232.178 95.1456 232.425 95.4886 232.75 95.7372C233.075 95.9825 233.472 96.1051 233.943 96.1051C234.434 96.1051 234.843 95.9759 235.171 95.7173C235.502 95.4555 235.751 95.1042 235.917 94.6634C236.086 94.2192 236.17 93.7254 236.17 93.1818C236.17 92.6449 236.087 92.161 235.922 91.7301C235.759 91.2959 235.512 90.9529 235.181 90.701C234.853 90.4458 234.44 90.3182 233.943 90.3182C233.466 90.3182 233.065 90.4392 232.74 90.6811C232.415 90.9197 232.17 91.2545 232.004 91.6854C231.838 92.1129 231.756 92.6117 231.756 93.1818ZM241.385 97.179C240.902 97.179 240.462 97.0878 240.068 96.9055C239.674 96.7199 239.36 96.4531 239.128 96.1051C238.896 95.7538 238.78 95.3295 238.78 94.8324C238.78 94.3949 238.867 94.0402 239.039 93.7685C239.211 93.4934 239.442 93.2779 239.73 93.1222C240.018 92.9664 240.336 92.8504 240.684 92.7741C241.036 92.6946 241.389 92.6316 241.743 92.5852C242.207 92.5256 242.584 92.4808 242.872 92.451C243.164 92.4179 243.376 92.3632 243.508 92.2869C243.644 92.2107 243.712 92.0781 243.712 91.8892V91.8494C243.712 91.3589 243.578 90.9777 243.309 90.706C243.044 90.4342 242.642 90.2983 242.101 90.2983C241.541 90.2983 241.102 90.4209 240.784 90.6662C240.466 90.9115 240.242 91.1733 240.113 91.4517L238.999 91.054C239.198 90.59 239.463 90.2287 239.795 89.9702C240.129 89.7083 240.494 89.526 240.888 89.4233C241.286 89.3172 241.677 89.2642 242.062 89.2642C242.307 89.2642 242.589 89.294 242.907 89.3537C243.228 89.41 243.538 89.5277 243.836 89.7067C244.138 89.8857 244.388 90.1558 244.587 90.517C244.786 90.8783 244.885 91.3622 244.885 91.9688V97H243.712V95.9659H243.653C243.573 96.1316 243.44 96.3089 243.255 96.4979C243.069 96.6868 242.822 96.8475 242.514 96.9801C242.206 97.1127 241.83 97.179 241.385 97.179ZM241.564 96.125C242.028 96.125 242.42 96.0339 242.738 95.8516C243.059 95.6693 243.301 95.4339 243.464 95.1456C243.629 94.8572 243.712 94.554 243.712 94.2358V93.1619C243.662 93.2216 243.553 93.2763 243.384 93.326C243.218 93.3724 243.026 93.4138 242.807 93.4503C242.592 93.4834 242.381 93.5133 242.176 93.5398C241.974 93.563 241.81 93.5829 241.684 93.5994C241.379 93.6392 241.094 93.7038 240.829 93.7933C240.567 93.8795 240.355 94.0104 240.192 94.1861C240.033 94.3584 239.954 94.5937 239.954 94.892C239.954 95.2997 240.104 95.608 240.406 95.8168C240.711 96.0223 241.097 96.125 241.564 96.125ZM250.348 89.3636V90.358H246.391V89.3636H250.348ZM247.544 87.5341H248.717V94.8125C248.717 95.1439 248.765 95.3925 248.862 95.5582C248.961 95.7206 249.087 95.83 249.239 95.8864C249.395 95.9394 249.559 95.9659 249.732 95.9659C249.861 95.9659 249.967 95.9593 250.05 95.946C250.133 95.9295 250.199 95.9162 250.249 95.9062L250.487 96.9602C250.408 96.9901 250.297 97.0199 250.154 97.0497C250.012 97.0829 249.831 97.0994 249.612 97.0994C249.281 97.0994 248.956 97.0282 248.638 96.8857C248.323 96.7431 248.061 96.526 247.852 96.2344C247.647 95.9427 247.544 95.5748 247.544 95.1307V87.5341ZM252.113 97V89.3636H253.286V97H252.113ZM252.71 88.0909C252.481 88.0909 252.284 88.013 252.118 87.8572C251.955 87.7015 251.874 87.5142 251.874 87.2955C251.874 87.0767 251.955 86.8894 252.118 86.7337C252.284 86.5779 252.481 86.5 252.71 86.5C252.938 86.5 253.134 86.5779 253.296 86.7337C253.462 86.8894 253.545 87.0767 253.545 87.2955C253.545 87.5142 253.462 87.7015 253.296 87.8572C253.134 88.013 252.938 88.0909 252.71 88.0909ZM258.537 97.1591C257.848 97.1591 257.243 96.995 256.723 96.6669C256.206 96.3388 255.801 95.8797 255.51 95.2898C255.221 94.6998 255.077 94.0104 255.077 93.2216C255.077 92.4261 255.221 91.7318 255.51 91.1385C255.801 90.5452 256.206 90.0845 256.723 89.7564C257.243 89.4283 257.848 89.2642 258.537 89.2642C259.227 89.2642 259.83 89.4283 260.347 89.7564C260.867 90.0845 261.272 90.5452 261.56 91.1385C261.852 91.7318 261.998 92.4261 261.998 93.2216C261.998 94.0104 261.852 94.6998 261.56 95.2898C261.272 95.8797 260.867 96.3388 260.347 96.6669C259.83 96.995 259.227 97.1591 258.537 97.1591ZM258.537 96.1051C259.061 96.1051 259.492 95.9709 259.83 95.7024C260.168 95.4339 260.418 95.081 260.581 94.6435C260.743 94.206 260.824 93.732 260.824 93.2216C260.824 92.7112 260.743 92.2356 260.581 91.7947C260.418 91.3539 260.168 90.9976 259.83 90.7259C259.492 90.4541 259.061 90.3182 258.537 90.3182C258.014 90.3182 257.583 90.4541 257.245 90.7259C256.907 90.9976 256.657 91.3539 256.494 91.7947C256.332 92.2356 256.251 92.7112 256.251 93.2216C256.251 93.732 256.332 94.206 256.494 94.6435C256.657 95.081 256.907 95.4339 257.245 95.7024C257.583 95.9709 258.014 96.1051 258.537 96.1051ZM264.962 92.4062V97H263.789V89.3636H264.922V90.5568H265.022C265.201 90.169 265.472 89.8575 265.837 89.6222C266.202 89.3835 266.672 89.2642 267.249 89.2642C267.766 89.2642 268.218 89.3703 268.606 89.5824C268.994 89.7912 269.296 90.1094 269.511 90.5369C269.726 90.9612 269.834 91.4981 269.834 92.1477V97H268.661V92.2273C268.661 91.6274 268.505 91.16 268.194 90.8253C267.882 90.4872 267.454 90.3182 266.911 90.3182C266.536 90.3182 266.202 90.3994 265.907 90.5618C265.615 90.7242 265.385 90.9612 265.216 91.2727C265.047 91.5843 264.962 91.9621 264.962 92.4062ZM277.387 91.0739L276.333 91.3722C276.267 91.1965 276.169 91.0258 276.04 90.8601C275.914 90.6911 275.742 90.5518 275.523 90.4425C275.304 90.3331 275.024 90.2784 274.683 90.2784C274.215 90.2784 273.826 90.3861 273.514 90.6016C273.206 90.8137 273.052 91.0838 273.052 91.4119C273.052 91.7036 273.158 91.9339 273.37 92.103C273.582 92.272 273.914 92.4129 274.365 92.5256L275.498 92.804C276.181 92.9697 276.69 93.2232 277.024 93.5646C277.359 93.9027 277.526 94.3385 277.526 94.8722C277.526 95.3097 277.401 95.7008 277.149 96.0455C276.9 96.3902 276.552 96.6619 276.105 96.8608C275.657 97.0597 275.137 97.1591 274.544 97.1591C273.765 97.1591 273.12 96.9901 272.61 96.652C272.099 96.3139 271.776 95.8201 271.64 95.1705L272.754 94.892C272.86 95.303 273.06 95.6113 273.355 95.8168C273.654 96.0223 274.043 96.125 274.524 96.125C275.07 96.125 275.505 96.009 275.826 95.777C276.151 95.5417 276.313 95.2599 276.313 94.9318C276.313 94.6667 276.221 94.4446 276.035 94.2656C275.849 94.0833 275.564 93.9474 275.18 93.858L273.907 93.5597C273.208 93.3939 272.694 93.1371 272.366 92.7891C272.041 92.4377 271.879 91.9986 271.879 91.4716C271.879 91.0407 272 90.6596 272.242 90.3281C272.487 89.9967 272.82 89.7365 273.241 89.5476C273.665 89.3587 274.146 89.2642 274.683 89.2642C275.438 89.2642 276.032 89.4299 276.463 89.7614C276.897 90.0928 277.205 90.5303 277.387 91.0739ZM285.477 97.179C284.993 97.179 284.554 97.0878 284.16 96.9055C283.765 96.7199 283.452 96.4531 283.22 96.1051C282.988 95.7538 282.872 95.3295 282.872 94.8324C282.872 94.3949 282.958 94.0402 283.131 93.7685C283.303 93.4934 283.533 93.2779 283.822 93.1222C284.11 92.9664 284.428 92.8504 284.776 92.7741C285.128 92.6946 285.481 92.6316 285.835 92.5852C286.299 92.5256 286.675 92.4808 286.964 92.451C287.255 92.4179 287.468 92.3632 287.6 92.2869C287.736 92.2107 287.804 92.0781 287.804 91.8892V91.8494C287.804 91.3589 287.67 90.9777 287.401 90.706C287.136 90.4342 286.733 90.2983 286.193 90.2983C285.633 90.2983 285.194 90.4209 284.876 90.6662C284.558 90.9115 284.334 91.1733 284.205 91.4517L283.091 91.054C283.29 90.59 283.555 90.2287 283.886 89.9702C284.221 89.7083 284.586 89.526 284.98 89.4233C285.378 89.3172 285.769 89.2642 286.153 89.2642C286.399 89.2642 286.68 89.294 286.999 89.3537C287.32 89.41 287.63 89.5277 287.928 89.7067C288.23 89.8857 288.48 90.1558 288.679 90.517C288.878 90.8783 288.977 91.3622 288.977 91.9688V97H287.804V95.9659H287.744C287.665 96.1316 287.532 96.3089 287.347 96.4979C287.161 96.6868 286.914 96.8475 286.606 96.9801C286.298 97.1127 285.921 97.179 285.477 97.179ZM285.656 96.125C286.12 96.125 286.511 96.0339 286.83 95.8516C287.151 95.6693 287.393 95.4339 287.555 95.1456C287.721 94.8572 287.804 94.554 287.804 94.2358V93.1619C287.754 93.2216 287.645 93.2763 287.476 93.326C287.31 93.3724 287.118 93.4138 286.899 93.4503C286.684 93.4834 286.473 93.5133 286.268 93.5398C286.066 93.563 285.902 93.5829 285.776 93.5994C285.471 93.6392 285.186 93.7038 284.92 93.7933C284.659 93.8795 284.446 94.0104 284.284 94.1861C284.125 94.3584 284.045 94.5937 284.045 94.892C284.045 95.2997 284.196 95.608 284.498 95.8168C284.803 96.0223 285.189 96.125 285.656 96.125ZM292.292 92.4062V97H291.119V89.3636H292.252V90.5568H292.352C292.531 90.169 292.802 89.8575 293.167 89.6222C293.532 89.3835 294.002 89.2642 294.579 89.2642C295.096 89.2642 295.548 89.3703 295.936 89.5824C296.324 89.7912 296.626 90.1094 296.841 90.5369C297.057 90.9612 297.164 91.4981 297.164 92.1477V97H295.991V92.2273C295.991 91.6274 295.835 91.16 295.524 90.8253C295.212 90.4872 294.785 90.3182 294.241 90.3182C293.866 90.3182 293.532 90.3994 293.237 90.5618C292.945 90.7242 292.715 90.9612 292.546 91.2727C292.377 91.5843 292.292 91.9621 292.292 92.4062ZM302.192 97.1591C301.555 97.1591 300.994 96.9983 300.506 96.6768C300.019 96.352 299.638 95.8946 299.363 95.3047C299.088 94.7114 298.95 94.0104 298.95 93.2017C298.95 92.3996 299.088 91.7036 299.363 91.1136C299.638 90.5237 300.021 90.0679 300.511 89.7464C301.002 89.425 301.569 89.2642 302.212 89.2642C302.709 89.2642 303.102 89.3471 303.39 89.5128C303.682 89.6752 303.904 89.8608 304.056 90.0696C304.212 90.2751 304.333 90.4441 304.419 90.5767H304.518V86.8182H305.692V97H304.558V95.8267H304.419C304.333 95.9659 304.21 96.1416 304.051 96.3537C303.892 96.5625 303.665 96.7498 303.37 96.9155C303.075 97.0779 302.682 97.1591 302.192 97.1591ZM302.351 96.1051C302.821 96.1051 303.219 95.9825 303.544 95.7372C303.869 95.4886 304.116 95.1456 304.285 94.7081C304.454 94.2673 304.538 93.7585 304.538 93.1818C304.538 92.6117 304.455 92.1129 304.29 91.6854C304.124 91.2545 303.879 90.9197 303.554 90.6811C303.229 90.4392 302.828 90.3182 302.351 90.3182C301.854 90.3182 301.439 90.4458 301.108 90.701C300.78 90.9529 300.533 91.2959 300.367 91.7301C300.205 92.161 300.124 92.6449 300.124 93.1818C300.124 93.7254 300.206 94.2192 300.372 94.6634C300.541 95.1042 300.79 95.4555 301.118 95.7173C301.449 95.9759 301.86 96.1051 302.351 96.1051ZM315.043 97.1591C314.354 97.1591 313.749 96.995 313.229 96.6669C312.712 96.3388 312.307 95.8797 312.016 95.2898C311.727 94.6998 311.583 94.0104 311.583 93.2216C311.583 92.4261 311.727 91.7318 312.016 91.1385C312.307 90.5452 312.712 90.0845 313.229 89.7564C313.749 89.4283 314.354 89.2642 315.043 89.2642C315.733 89.2642 316.336 89.4283 316.853 89.7564C317.373 90.0845 317.778 90.5452 318.066 91.1385C318.358 91.7318 318.504 92.4261 318.504 93.2216C318.504 94.0104 318.358 94.6998 318.066 95.2898C317.778 95.8797 317.373 96.3388 316.853 96.6669C316.336 96.995 315.733 97.1591 315.043 97.1591ZM315.043 96.1051C315.567 96.1051 315.998 95.9709 316.336 95.7024C316.674 95.4339 316.924 95.081 317.087 94.6435C317.249 94.206 317.33 93.732 317.33 93.2216C317.33 92.7112 317.249 92.2356 317.087 91.7947C316.924 91.3539 316.674 90.9976 316.336 90.7259C315.998 90.4541 315.567 90.3182 315.043 90.3182C314.52 90.3182 314.089 90.4541 313.751 90.7259C313.413 90.9976 313.162 91.3539 313 91.7947C312.838 92.2356 312.756 92.7112 312.756 93.2216C312.756 93.732 312.838 94.206 313 94.6435C313.162 95.081 313.413 95.4339 313.751 95.7024C314.089 95.9709 314.52 96.1051 315.043 96.1051ZM323.616 89.3636V90.358H319.658V89.3636H323.616ZM320.812 87.5341H321.985V94.8125C321.985 95.1439 322.033 95.3925 322.129 95.5582C322.229 95.7206 322.354 95.83 322.507 95.8864C322.663 95.9394 322.827 95.9659 322.999 95.9659C323.128 95.9659 323.234 95.9593 323.317 95.946C323.4 95.9295 323.466 95.9162 323.516 95.9062L323.755 96.9602C323.675 96.9901 323.564 97.0199 323.422 97.0497C323.279 97.0829 323.099 97.0994 322.88 97.0994C322.548 97.0994 322.224 97.0282 321.905 96.8857C321.59 96.7431 321.329 96.526 321.12 96.2344C320.914 95.9427 320.812 95.5748 320.812 95.1307V87.5341ZM326.718 92.4062V97H325.545V86.8182H326.718V90.5568H326.817C326.996 90.1624 327.265 89.8492 327.623 89.6172C327.984 89.3819 328.465 89.2642 329.064 89.2642C329.585 89.2642 330.041 89.3686 330.432 89.5774C330.823 89.7829 331.126 90.0994 331.341 90.527C331.56 90.9512 331.67 91.4915 331.67 92.1477V97H330.496V92.2273C330.496 91.6207 330.339 91.1518 330.024 90.8203C329.712 90.4856 329.28 90.3182 328.726 90.3182C328.342 90.3182 327.997 90.3994 327.692 90.5618C327.391 90.7242 327.152 90.9612 326.976 91.2727C326.804 91.5843 326.718 91.9621 326.718 92.4062ZM337.018 97.1591C336.282 97.1591 335.647 96.9967 335.114 96.6719C334.583 96.3438 334.174 95.8864 333.886 95.2997C333.601 94.7098 333.458 94.0237 333.458 93.2415C333.458 92.4593 333.601 91.7699 333.886 91.1733C334.174 90.5734 334.575 90.1061 335.089 89.7713C335.606 89.4332 336.209 89.2642 336.898 89.2642C337.296 89.2642 337.689 89.3305 338.077 89.4631C338.464 89.5956 338.817 89.8111 339.136 90.1094C339.454 90.4044 339.707 90.7955 339.896 91.2827C340.085 91.7699 340.18 92.3698 340.18 93.0824V93.5795H334.293V92.5653H338.987C338.987 92.1345 338.9 91.75 338.728 91.4119C338.559 91.0739 338.317 90.8071 338.002 90.6115C337.691 90.416 337.323 90.3182 336.898 90.3182C336.431 90.3182 336.027 90.4342 335.685 90.6662C335.347 90.8949 335.087 91.1932 334.905 91.5611C334.723 91.929 334.631 92.3234 334.631 92.7443V93.4205C334.631 93.9972 334.731 94.486 334.93 94.8871C335.132 95.2848 335.412 95.5881 335.77 95.7969C336.128 96.0024 336.544 96.1051 337.018 96.1051C337.326 96.1051 337.604 96.062 337.853 95.9759C338.105 95.8864 338.322 95.7538 338.504 95.5781C338.687 95.3991 338.827 95.1771 338.927 94.9119L340.06 95.2301C339.941 95.6146 339.741 95.9527 339.459 96.2443C339.177 96.5327 338.829 96.758 338.415 96.9205C338 97.0795 337.535 97.1591 337.018 97.1591ZM341.964 97V89.3636H343.098V90.517H343.178C343.317 90.1392 343.569 89.8326 343.933 89.5973C344.298 89.362 344.709 89.2443 345.166 89.2443C345.252 89.2443 345.36 89.246 345.489 89.2493C345.619 89.2526 345.716 89.2576 345.783 89.2642V90.4574C345.743 90.4474 345.652 90.4325 345.509 90.4126C345.37 90.3894 345.223 90.3778 345.067 90.3778C344.696 90.3778 344.364 90.4557 344.072 90.6115C343.784 90.764 343.555 90.9761 343.386 91.2479C343.221 91.5163 343.138 91.8229 343.138 92.1676V97H341.964ZM354.432 89.3636V90.358H350.475V89.3636H354.432ZM351.628 87.5341H352.801V94.8125C352.801 95.1439 352.849 95.3925 352.945 95.5582C353.045 95.7206 353.171 95.83 353.323 95.8864C353.479 95.9394 353.643 95.9659 353.816 95.9659C353.945 95.9659 354.051 95.9593 354.134 95.946C354.217 95.9295 354.283 95.9162 354.333 95.9062L354.571 96.9602C354.492 96.9901 354.381 97.0199 354.238 97.0497C354.096 97.0829 353.915 97.0994 353.696 97.0994C353.365 97.0994 353.04 97.0282 352.722 96.8857C352.407 96.7431 352.145 96.526 351.936 96.2344C351.731 95.9427 351.628 95.5748 351.628 95.1307V87.5341ZM359.217 97.1591C358.528 97.1591 357.923 96.995 357.403 96.6669C356.885 96.3388 356.481 95.8797 356.189 95.2898C355.901 94.6998 355.757 94.0104 355.757 93.2216C355.757 92.4261 355.901 91.7318 356.189 91.1385C356.481 90.5452 356.885 90.0845 357.403 89.7564C357.923 89.4283 358.528 89.2642 359.217 89.2642C359.907 89.2642 360.51 89.4283 361.027 89.7564C361.547 90.0845 361.952 90.5452 362.24 91.1385C362.532 91.7318 362.677 92.4261 362.677 93.2216C362.677 94.0104 362.532 94.6998 362.24 95.2898C361.952 95.8797 361.547 96.3388 361.027 96.6669C360.51 96.995 359.907 97.1591 359.217 97.1591ZM359.217 96.1051C359.741 96.1051 360.172 95.9709 360.51 95.7024C360.848 95.4339 361.098 95.081 361.26 94.6435C361.423 94.206 361.504 93.732 361.504 93.2216C361.504 92.7112 361.423 92.2356 361.26 91.7947C361.098 91.3539 360.848 90.9976 360.51 90.7259C360.172 90.4541 359.741 90.3182 359.217 90.3182C358.693 90.3182 358.263 90.4541 357.925 90.7259C357.586 90.9976 357.336 91.3539 357.174 91.7947C357.011 92.2356 356.93 92.7112 356.93 93.2216C356.93 93.732 357.011 94.206 357.174 94.6435C357.336 95.081 357.586 95.4339 357.925 95.7024C358.263 95.9709 358.693 96.1051 359.217 96.1051ZM364.468 99.8636V89.3636H365.602V90.5767H365.741C365.827 90.4441 365.947 90.2751 366.099 90.0696C366.255 89.8608 366.477 89.6752 366.765 89.5128C367.057 89.3471 367.451 89.2642 367.949 89.2642C368.592 89.2642 369.158 89.425 369.649 89.7464C370.139 90.0679 370.522 90.5237 370.797 91.1136C371.072 91.7036 371.21 92.3996 371.21 93.2017C371.21 94.0104 371.072 94.7114 370.797 95.3047C370.522 95.8946 370.141 96.352 369.654 96.6768C369.167 96.9983 368.605 97.1591 367.968 97.1591C367.478 97.1591 367.085 97.0779 366.79 96.9155C366.495 96.7498 366.268 96.5625 366.109 96.3537C365.95 96.1416 365.827 95.9659 365.741 95.8267H365.642V99.8636H364.468ZM365.622 93.1818C365.622 93.7585 365.706 94.2673 365.875 94.7081C366.044 95.1456 366.291 95.4886 366.616 95.7372C366.941 95.9825 367.339 96.1051 367.809 96.1051C368.3 96.1051 368.709 95.9759 369.037 95.7173C369.369 95.4555 369.617 95.1042 369.783 94.6634C369.952 94.2192 370.037 93.7254 370.037 93.1818C370.037 92.6449 369.954 92.161 369.788 91.7301C369.626 91.2959 369.379 90.9529 369.047 90.701C368.719 90.4458 368.306 90.3182 367.809 90.3182C367.332 90.3182 366.931 90.4392 366.606 90.6811C366.281 90.9197 366.036 91.2545 365.87 91.6854C365.705 92.1129 365.622 92.6117 365.622 93.1818ZM377.375 92.0881V93.1818H372.92V92.0881H377.375ZM382.76 89.3636V90.358H378.803V89.3636H382.76ZM379.956 87.5341H381.129V94.8125C381.129 95.1439 381.177 95.3925 381.274 95.5582C381.373 95.7206 381.499 95.83 381.651 95.8864C381.807 95.9394 381.971 95.9659 382.144 95.9659C382.273 95.9659 382.379 95.9593 382.462 95.946C382.545 95.9295 382.611 95.9162 382.661 95.9062L382.899 96.9602C382.82 96.9901 382.709 97.0199 382.566 97.0497C382.424 97.0829 382.243 97.0994 382.024 97.0994C381.693 97.0994 381.368 97.0282 381.05 96.8857C380.735 96.7431 380.473 96.526 380.264 96.2344C380.059 95.9427 379.956 95.5748 379.956 95.1307V87.5341ZM384.525 97V89.3636H385.698V97H384.525ZM385.122 88.0909C384.893 88.0909 384.696 88.013 384.53 87.8572C384.368 87.7015 384.286 87.5142 384.286 87.2955C384.286 87.0767 384.368 86.8894 384.53 86.7337C384.696 86.5779 384.893 86.5 385.122 86.5C385.35 86.5 385.546 86.5779 385.708 86.7337C385.874 86.8894 385.957 87.0767 385.957 87.2955C385.957 87.5142 385.874 87.7015 385.708 87.8572C385.546 88.013 385.35 88.0909 385.122 88.0909ZM391.049 97.1591C390.313 97.1591 389.679 96.9967 389.145 96.6719C388.615 96.3438 388.205 95.8864 387.917 95.2997C387.632 94.7098 387.489 94.0237 387.489 93.2415C387.489 92.4593 387.632 91.7699 387.917 91.1733C388.205 90.5734 388.606 90.1061 389.12 89.7713C389.637 89.4332 390.24 89.2642 390.93 89.2642C391.327 89.2642 391.72 89.3305 392.108 89.4631C392.496 89.5956 392.849 89.8111 393.167 90.1094C393.485 90.4044 393.739 90.7955 393.928 91.2827C394.116 91.7699 394.211 92.3698 394.211 93.0824V93.5795H388.325V92.5653H393.018C393.018 92.1345 392.932 91.75 392.759 91.4119C392.59 91.0739 392.348 90.8071 392.033 90.6115C391.722 90.416 391.354 90.3182 390.93 90.3182C390.462 90.3182 390.058 90.4342 389.717 90.6662C389.379 90.8949 389.118 91.1932 388.936 91.5611C388.754 91.929 388.663 92.3234 388.663 92.7443V93.4205C388.663 93.9972 388.762 94.486 388.961 94.8871C389.163 95.2848 389.443 95.5881 389.801 95.7969C390.159 96.0024 390.575 96.1051 391.049 96.1051C391.357 96.1051 391.636 96.062 391.884 95.9759C392.136 95.8864 392.353 95.7538 392.536 95.5781C392.718 95.3991 392.859 95.1771 392.958 94.9119L394.092 95.2301C393.972 95.6146 393.772 95.9527 393.49 96.2443C393.208 96.5327 392.86 96.758 392.446 96.9205C392.032 97.0795 391.566 97.1591 391.049 97.1591ZM395.996 97V89.3636H397.129V90.517H397.209C397.348 90.1392 397.6 89.8326 397.964 89.5973C398.329 89.362 398.74 89.2443 399.197 89.2443C399.284 89.2443 399.391 89.246 399.521 89.2493C399.65 89.2526 399.748 89.2576 399.814 89.2642V90.4574C399.774 90.4474 399.683 90.4325 399.54 90.4126C399.401 90.3894 399.254 90.3778 399.098 90.3778C398.727 90.3778 398.395 90.4557 398.104 90.6115C397.815 90.764 397.587 90.9761 397.418 91.2479C397.252 91.5163 397.169 91.8229 397.169 92.1676V97H395.996ZM100.395 109.364V110.358H96.4375V109.364H100.395ZM97.5909 107.534H98.7642V114.812C98.7642 115.144 98.8123 115.393 98.9084 115.558C99.0078 115.721 99.1338 115.83 99.2862 115.886C99.442 115.939 99.6061 115.966 99.7784 115.966C99.9077 115.966 100.014 115.959 100.097 115.946C100.179 115.929 100.246 115.916 100.295 115.906L100.534 116.96C100.455 116.99 100.344 117.02 100.201 117.05C100.058 117.083 99.8778 117.099 99.6591 117.099C99.3277 117.099 99.0028 117.028 98.6847 116.886C98.3698 116.743 98.108 116.526 97.8991 116.234C97.6937 115.943 97.5909 115.575 97.5909 115.131V107.534ZM105.18 117.159C104.491 117.159 103.886 116.995 103.365 116.667C102.848 116.339 102.444 115.88 102.152 115.29C101.864 114.7 101.72 114.01 101.72 113.222C101.72 112.426 101.864 111.732 102.152 111.138C102.444 110.545 102.848 110.085 103.365 109.756C103.886 109.428 104.491 109.264 105.18 109.264C105.869 109.264 106.473 109.428 106.99 109.756C107.51 110.085 107.914 110.545 108.203 111.138C108.494 111.732 108.64 112.426 108.64 113.222C108.64 114.01 108.494 114.7 108.203 115.29C107.914 115.88 107.51 116.339 106.99 116.667C106.473 116.995 105.869 117.159 105.18 117.159ZM105.18 116.105C105.704 116.105 106.135 115.971 106.473 115.702C106.811 115.434 107.061 115.081 107.223 114.643C107.386 114.206 107.467 113.732 107.467 113.222C107.467 112.711 107.386 112.236 107.223 111.795C107.061 111.354 106.811 110.998 106.473 110.726C106.135 110.454 105.704 110.318 105.18 110.318C104.656 110.318 104.225 110.454 103.887 110.726C103.549 110.998 103.299 111.354 103.137 111.795C102.974 112.236 102.893 112.711 102.893 113.222C102.893 113.732 102.974 114.206 103.137 114.643C103.299 115.081 103.549 115.434 103.887 115.702C104.225 115.971 104.656 116.105 105.18 116.105ZM111.525 114.216L111.505 112.764H111.744L115.085 109.364H116.536L112.977 112.963H112.877L111.525 114.216ZM110.431 117V106.818H111.605V117H110.431ZM115.284 117L112.301 113.222L113.136 112.406L116.775 117H115.284ZM120.934 117.159C120.198 117.159 119.563 116.997 119.03 116.672C118.499 116.344 118.09 115.886 117.802 115.3C117.517 114.71 117.374 114.024 117.374 113.241C117.374 112.459 117.517 111.77 117.802 111.173C118.09 110.573 118.491 110.106 119.005 109.771C119.522 109.433 120.125 109.264 120.814 109.264C121.212 109.264 121.605 109.33 121.993 109.463C122.381 109.596 122.733 109.811 123.052 110.109C123.37 110.404 123.623 110.795 123.812 111.283C124.001 111.77 124.096 112.37 124.096 113.082V113.58H118.209V112.565H122.903C122.903 112.134 122.816 111.75 122.644 111.412C122.475 111.074 122.233 110.807 121.918 110.612C121.607 110.416 121.239 110.318 120.814 110.318C120.347 110.318 119.943 110.434 119.601 110.666C119.263 110.895 119.003 111.193 118.821 111.561C118.639 111.929 118.547 112.323 118.547 112.744V113.42C118.547 113.997 118.647 114.486 118.846 114.887C119.048 115.285 119.328 115.588 119.686 115.797C120.044 116.002 120.46 116.105 120.934 116.105C121.242 116.105 121.52 116.062 121.769 115.976C122.021 115.886 122.238 115.754 122.42 115.578C122.603 115.399 122.743 115.177 122.843 114.912L123.976 115.23C123.857 115.615 123.657 115.953 123.375 116.244C123.093 116.533 122.745 116.758 122.331 116.92C121.916 117.08 121.451 117.159 120.934 117.159ZM127.054 112.406V117H125.881V109.364H127.014V110.557H127.113C127.292 110.169 127.564 109.857 127.929 109.622C128.293 109.384 128.764 109.264 129.341 109.264C129.858 109.264 130.31 109.37 130.698 109.582C131.086 109.791 131.387 110.109 131.603 110.537C131.818 110.961 131.926 111.498 131.926 112.148V117H130.753V112.227C130.753 111.627 130.597 111.16 130.285 110.825C129.974 110.487 129.546 110.318 129.003 110.318C128.628 110.318 128.293 110.399 127.998 110.562C127.707 110.724 127.476 110.961 127.307 111.273C127.138 111.584 127.054 111.962 127.054 112.406ZM139.479 111.074L138.425 111.372C138.359 111.196 138.261 111.026 138.132 110.86C138.006 110.691 137.833 110.552 137.615 110.442C137.396 110.333 137.116 110.278 136.775 110.278C136.307 110.278 135.918 110.386 135.606 110.602C135.298 110.814 135.144 111.084 135.144 111.412C135.144 111.704 135.25 111.934 135.462 112.103C135.674 112.272 136.006 112.413 136.456 112.526L137.59 112.804C138.273 112.97 138.781 113.223 139.116 113.565C139.451 113.903 139.618 114.339 139.618 114.872C139.618 115.31 139.492 115.701 139.24 116.045C138.992 116.39 138.644 116.662 138.196 116.861C137.749 117.06 137.229 117.159 136.635 117.159C135.856 117.159 135.212 116.99 134.701 116.652C134.191 116.314 133.868 115.82 133.732 115.17L134.846 114.892C134.952 115.303 135.152 115.611 135.447 115.817C135.745 116.022 136.135 116.125 136.615 116.125C137.162 116.125 137.596 116.009 137.918 115.777C138.243 115.542 138.405 115.26 138.405 114.932C138.405 114.667 138.312 114.445 138.127 114.266C137.941 114.083 137.656 113.947 137.272 113.858L135.999 113.56C135.3 113.394 134.786 113.137 134.458 112.789C134.133 112.438 133.971 111.999 133.971 111.472C133.971 111.041 134.092 110.66 134.333 110.328C134.579 109.997 134.912 109.737 135.333 109.548C135.757 109.359 136.238 109.264 136.775 109.264C137.53 109.264 138.123 109.43 138.554 109.761C138.989 110.093 139.297 110.53 139.479 111.074ZM147.569 117.179C147.085 117.179 146.646 117.088 146.252 116.906C145.857 116.72 145.544 116.453 145.312 116.105C145.08 115.754 144.964 115.33 144.964 114.832C144.964 114.395 145.05 114.04 145.222 113.768C145.395 113.493 145.625 113.278 145.914 113.122C146.202 112.966 146.52 112.85 146.868 112.774C147.219 112.695 147.572 112.632 147.927 112.585C148.391 112.526 148.767 112.481 149.056 112.451C149.347 112.418 149.559 112.363 149.692 112.287C149.828 112.211 149.896 112.078 149.896 111.889V111.849C149.896 111.359 149.762 110.978 149.493 110.706C149.228 110.434 148.825 110.298 148.285 110.298C147.725 110.298 147.286 110.421 146.968 110.666C146.649 110.911 146.426 111.173 146.296 111.452L145.183 111.054C145.382 110.59 145.647 110.229 145.978 109.97C146.313 109.708 146.677 109.526 147.072 109.423C147.47 109.317 147.861 109.264 148.245 109.264C148.49 109.264 148.772 109.294 149.09 109.354C149.412 109.41 149.722 109.528 150.02 109.707C150.322 109.886 150.572 110.156 150.771 110.517C150.97 110.878 151.069 111.362 151.069 111.969V117H149.896V115.966H149.836C149.757 116.132 149.624 116.309 149.438 116.498C149.253 116.687 149.006 116.848 148.698 116.98C148.389 117.113 148.013 117.179 147.569 117.179ZM147.748 116.125C148.212 116.125 148.603 116.034 148.921 115.852C149.243 115.669 149.485 115.434 149.647 115.146C149.813 114.857 149.896 114.554 149.896 114.236V113.162C149.846 113.222 149.737 113.276 149.568 113.326C149.402 113.372 149.21 113.414 148.991 113.45C148.776 113.483 148.565 113.513 148.36 113.54C148.157 113.563 147.993 113.583 147.867 113.599C147.562 113.639 147.277 113.704 147.012 113.793C146.75 113.879 146.538 114.01 146.376 114.186C146.217 114.358 146.137 114.594 146.137 114.892C146.137 115.3 146.288 115.608 146.59 115.817C146.895 116.022 147.281 116.125 147.748 116.125ZM154.384 112.406V117H153.211V109.364H154.344V110.557H154.444C154.623 110.169 154.894 109.857 155.259 109.622C155.623 109.384 156.094 109.264 156.671 109.264C157.188 109.264 157.64 109.37 158.028 109.582C158.416 109.791 158.717 110.109 158.933 110.537C159.148 110.961 159.256 111.498 159.256 112.148V117H158.083V112.227C158.083 111.627 157.927 111.16 157.615 110.825C157.304 110.487 156.876 110.318 156.333 110.318C155.958 110.318 155.623 110.399 155.328 110.562C155.037 110.724 154.806 110.961 154.637 111.273C154.468 111.584 154.384 111.962 154.384 112.406ZM164.284 117.159C163.647 117.159 163.085 116.998 162.598 116.677C162.111 116.352 161.73 115.895 161.455 115.305C161.18 114.711 161.042 114.01 161.042 113.202C161.042 112.4 161.18 111.704 161.455 111.114C161.73 110.524 162.113 110.068 162.603 109.746C163.094 109.425 163.66 109.264 164.303 109.264C164.801 109.264 165.193 109.347 165.482 109.513C165.773 109.675 165.995 109.861 166.148 110.07C166.304 110.275 166.425 110.444 166.511 110.577H166.61V106.818H167.784V117H166.65V115.827H166.511C166.425 115.966 166.302 116.142 166.143 116.354C165.984 116.562 165.757 116.75 165.462 116.915C165.167 117.078 164.774 117.159 164.284 117.159ZM164.443 116.105C164.913 116.105 165.311 115.982 165.636 115.737C165.961 115.489 166.208 115.146 166.377 114.708C166.546 114.267 166.63 113.759 166.63 113.182C166.63 112.612 166.547 112.113 166.382 111.685C166.216 111.254 165.971 110.92 165.646 110.681C165.321 110.439 164.92 110.318 164.443 110.318C163.945 110.318 163.531 110.446 163.2 110.701C162.872 110.953 162.625 111.296 162.459 111.73C162.297 112.161 162.215 112.645 162.215 113.182C162.215 113.725 162.298 114.219 162.464 114.663C162.633 115.104 162.882 115.455 163.21 115.717C163.541 115.976 163.952 116.105 164.443 116.105ZM182.266 106.818V117H181.073L175.524 109.006H175.425V117H174.192V106.818H175.385L180.953 114.832H181.053V106.818H182.266ZM184.733 117V106.818H190.838V107.912H185.966V111.352H190.381V112.446H185.966V117H184.733ZM192.393 107.912V106.818H200.029V107.912H196.828V117H195.595V107.912H192.393ZM205.711 119.864V109.364H206.844V110.577H206.983C207.069 110.444 207.189 110.275 207.341 110.07C207.497 109.861 207.719 109.675 208.007 109.513C208.299 109.347 208.694 109.264 209.191 109.264C209.834 109.264 210.4 109.425 210.891 109.746C211.382 110.068 211.764 110.524 212.039 111.114C212.315 111.704 212.452 112.4 212.452 113.202C212.452 114.01 212.315 114.711 212.039 115.305C211.764 115.895 211.383 116.352 210.896 116.677C210.409 116.998 209.847 117.159 209.211 117.159C208.72 117.159 208.327 117.078 208.032 116.915C207.737 116.75 207.51 116.562 207.351 116.354C207.192 116.142 207.069 115.966 206.983 115.827H206.884V119.864H205.711ZM206.864 113.182C206.864 113.759 206.949 114.267 207.118 114.708C207.287 115.146 207.533 115.489 207.858 115.737C208.183 115.982 208.581 116.105 209.051 116.105C209.542 116.105 209.951 115.976 210.279 115.717C210.611 115.455 210.859 115.104 211.025 114.663C211.194 114.219 211.279 113.725 211.279 113.182C211.279 112.645 211.196 112.161 211.03 111.73C210.868 111.296 210.621 110.953 210.289 110.701C209.961 110.446 209.549 110.318 209.051 110.318C208.574 110.318 208.173 110.439 207.848 110.681C207.524 110.92 207.278 111.254 207.113 111.685C206.947 112.113 206.864 112.612 206.864 113.182ZM214.242 117V109.364H215.375V110.517H215.455C215.594 110.139 215.846 109.833 216.211 109.597C216.575 109.362 216.986 109.244 217.444 109.244C217.53 109.244 217.637 109.246 217.767 109.249C217.896 109.253 217.994 109.258 218.06 109.264V110.457C218.02 110.447 217.929 110.433 217.787 110.413C217.647 110.389 217.5 110.378 217.344 110.378C216.973 110.378 216.641 110.456 216.35 110.612C216.061 110.764 215.833 110.976 215.664 111.248C215.498 111.516 215.415 111.823 215.415 112.168V117H214.242ZM222.321 117.159C221.631 117.159 221.026 116.995 220.506 116.667C219.989 116.339 219.585 115.88 219.293 115.29C219.005 114.7 218.86 114.01 218.86 113.222C218.86 112.426 219.005 111.732 219.293 111.138C219.585 110.545 219.989 110.085 220.506 109.756C221.026 109.428 221.631 109.264 222.321 109.264C223.01 109.264 223.613 109.428 224.13 109.756C224.651 110.085 225.055 110.545 225.343 111.138C225.635 111.732 225.781 112.426 225.781 113.222C225.781 114.01 225.635 114.7 225.343 115.29C225.055 115.88 224.651 116.339 224.13 116.667C223.613 116.995 223.01 117.159 222.321 117.159ZM222.321 116.105C222.844 116.105 223.275 115.971 223.613 115.702C223.951 115.434 224.202 115.081 224.364 114.643C224.526 114.206 224.608 113.732 224.608 113.222C224.608 112.711 224.526 112.236 224.364 111.795C224.202 111.354 223.951 110.998 223.613 110.726C223.275 110.454 222.844 110.318 222.321 110.318C221.797 110.318 221.366 110.454 221.028 110.726C220.69 110.998 220.44 111.354 220.277 111.795C220.115 112.236 220.034 112.711 220.034 113.222C220.034 113.732 220.115 114.206 220.277 114.643C220.44 115.081 220.69 115.434 221.028 115.702C221.366 115.971 221.797 116.105 222.321 116.105ZM227.572 109.364H228.745V117.557C228.745 118.027 228.664 118.435 228.502 118.78C228.343 119.125 228.101 119.391 227.776 119.58C227.454 119.769 227.048 119.864 226.558 119.864C226.518 119.864 226.478 119.864 226.438 119.864C226.399 119.864 226.359 119.864 226.319 119.864V118.77C226.359 118.77 226.395 118.77 226.428 118.77C226.462 118.77 226.498 118.77 226.538 118.77C226.896 118.77 227.158 118.664 227.323 118.452C227.489 118.243 227.572 117.945 227.572 117.557V109.364ZM228.149 108.091C227.92 108.091 227.723 108.013 227.557 107.857C227.395 107.701 227.313 107.514 227.313 107.295C227.313 107.077 227.395 106.889 227.557 106.734C227.723 106.578 227.92 106.5 228.149 106.5C228.377 106.5 228.573 106.578 228.735 106.734C228.901 106.889 228.984 107.077 228.984 107.295C228.984 107.514 228.901 107.701 228.735 107.857C228.573 108.013 228.377 108.091 228.149 108.091ZM234.096 117.159C233.36 117.159 232.725 116.997 232.192 116.672C231.661 116.344 231.252 115.886 230.964 115.3C230.679 114.71 230.536 114.024 230.536 113.241C230.536 112.459 230.679 111.77 230.964 111.173C231.252 110.573 231.653 110.106 232.167 109.771C232.684 109.433 233.287 109.264 233.977 109.264C234.374 109.264 234.767 109.33 235.155 109.463C235.543 109.596 235.896 109.811 236.214 110.109C236.532 110.404 236.786 110.795 236.974 111.283C237.163 111.77 237.258 112.37 237.258 113.082V113.58H231.371V112.565H236.065C236.065 112.134 235.978 111.75 235.806 111.412C235.637 111.074 235.395 110.807 235.08 110.612C234.769 110.416 234.401 110.318 233.977 110.318C233.509 110.318 233.105 110.434 232.763 110.666C232.425 110.895 232.165 111.193 231.983 111.561C231.801 111.929 231.71 112.323 231.71 112.744V113.42C231.71 113.997 231.809 114.486 232.008 114.887C232.21 115.285 232.49 115.588 232.848 115.797C233.206 116.002 233.622 116.105 234.096 116.105C234.404 116.105 234.683 116.062 234.931 115.976C235.183 115.886 235.4 115.754 235.582 115.578C235.765 115.399 235.906 115.177 236.005 114.912L237.138 115.23C237.019 115.615 236.819 115.953 236.537 116.244C236.255 116.533 235.907 116.758 235.493 116.92C235.079 117.08 234.613 117.159 234.096 117.159ZM242.145 117.159C241.429 117.159 240.813 116.99 240.295 116.652C239.778 116.314 239.381 115.848 239.102 115.255C238.824 114.662 238.685 113.984 238.685 113.222C238.685 112.446 238.827 111.762 239.112 111.168C239.401 110.572 239.802 110.106 240.315 109.771C240.832 109.433 241.436 109.264 242.125 109.264C242.662 109.264 243.146 109.364 243.577 109.562C244.008 109.761 244.361 110.04 244.636 110.398C244.911 110.756 245.081 111.173 245.148 111.651H243.974C243.885 111.303 243.686 110.994 243.378 110.726C243.073 110.454 242.662 110.318 242.145 110.318C241.688 110.318 241.286 110.437 240.942 110.676C240.6 110.911 240.334 111.245 240.141 111.675C239.952 112.103 239.858 112.605 239.858 113.182C239.858 113.772 239.951 114.286 240.136 114.723C240.325 115.161 240.59 115.5 240.932 115.742C241.277 115.984 241.681 116.105 242.145 116.105C242.45 116.105 242.727 116.052 242.975 115.946C243.224 115.84 243.434 115.688 243.607 115.489C243.779 115.29 243.902 115.051 243.974 114.773H245.148C245.081 115.223 244.917 115.629 244.656 115.991C244.397 116.349 244.054 116.634 243.626 116.846C243.202 117.055 242.708 117.159 242.145 117.159ZM250.184 109.364V110.358H246.227V109.364H250.184ZM247.38 107.534H248.553V114.812C248.553 115.144 248.601 115.393 248.697 115.558C248.797 115.721 248.923 115.83 249.075 115.886C249.231 115.939 249.395 115.966 249.567 115.966C249.697 115.966 249.803 115.959 249.886 115.946C249.969 115.929 250.035 115.916 250.085 115.906L250.323 116.96C250.244 116.99 250.133 117.02 249.99 117.05C249.848 117.083 249.667 117.099 249.448 117.099C249.117 117.099 248.792 117.028 248.474 116.886C248.159 116.743 247.897 116.526 247.688 116.234C247.483 115.943 247.38 115.575 247.38 115.131V107.534ZM257.221 111.074L256.167 111.372C256.101 111.196 256.003 111.026 255.874 110.86C255.748 110.691 255.576 110.552 255.357 110.442C255.138 110.333 254.858 110.278 254.517 110.278C254.049 110.278 253.66 110.386 253.348 110.602C253.04 110.814 252.886 111.084 252.886 111.412C252.886 111.704 252.992 111.934 253.204 112.103C253.416 112.272 253.748 112.413 254.199 112.526L255.332 112.804C256.015 112.97 256.524 113.223 256.858 113.565C257.193 113.903 257.36 114.339 257.36 114.872C257.36 115.31 257.234 115.701 256.983 116.045C256.734 116.39 256.386 116.662 255.939 116.861C255.491 117.06 254.971 117.159 254.377 117.159C253.599 117.159 252.954 116.99 252.444 116.652C251.933 116.314 251.61 115.82 251.474 115.17L252.588 114.892C252.694 115.303 252.894 115.611 253.189 115.817C253.488 116.022 253.877 116.125 254.358 116.125C254.904 116.125 255.339 116.009 255.66 115.777C255.985 115.542 256.147 115.26 256.147 114.932C256.147 114.667 256.055 114.445 255.869 114.266C255.683 114.083 255.398 113.947 255.014 113.858L253.741 113.56C253.042 113.394 252.528 113.137 252.2 112.789C251.875 112.438 251.713 111.999 251.713 111.472C251.713 111.041 251.834 110.66 252.076 110.328C252.321 109.997 252.654 109.737 253.075 109.548C253.499 109.359 253.98 109.264 254.517 109.264C255.272 109.264 255.866 109.43 256.297 109.761C256.731 110.093 257.039 110.53 257.221 111.074ZM263.223 117V106.818H264.396V110.577H264.496C264.582 110.444 264.701 110.275 264.854 110.07C265.01 109.861 265.232 109.675 265.52 109.513C265.812 109.347 266.206 109.264 266.703 109.264C267.346 109.264 267.913 109.425 268.404 109.746C268.894 110.068 269.277 110.524 269.552 111.114C269.827 111.704 269.965 112.4 269.965 113.202C269.965 114.01 269.827 114.711 269.552 115.305C269.277 115.895 268.896 116.352 268.409 116.677C267.921 116.998 267.36 117.159 266.723 117.159C266.233 117.159 265.84 117.078 265.545 116.915C265.25 116.75 265.023 116.562 264.864 116.354C264.705 116.142 264.582 115.966 264.496 115.827H264.357V117H263.223ZM264.377 113.182C264.377 113.759 264.461 114.267 264.63 114.708C264.799 115.146 265.046 115.489 265.371 115.737C265.696 115.982 266.093 116.105 266.564 116.105C267.055 116.105 267.464 115.976 267.792 115.717C268.124 115.455 268.372 115.104 268.538 114.663C268.707 114.219 268.791 113.725 268.791 113.182C268.791 112.645 268.709 112.161 268.543 111.73C268.38 111.296 268.133 110.953 267.802 110.701C267.474 110.446 267.061 110.318 266.564 110.318C266.087 110.318 265.686 110.439 265.361 110.681C265.036 110.92 264.791 111.254 264.625 111.685C264.459 112.113 264.377 112.612 264.377 113.182ZM274.961 117.159C274.225 117.159 273.591 116.997 273.057 116.672C272.527 116.344 272.117 115.886 271.829 115.3C271.544 114.71 271.401 114.024 271.401 113.241C271.401 112.459 271.544 111.77 271.829 111.173C272.117 110.573 272.518 110.106 273.032 109.771C273.549 109.433 274.152 109.264 274.842 109.264C275.24 109.264 275.632 109.33 276.02 109.463C276.408 109.596 276.761 109.811 277.079 110.109C277.397 110.404 277.651 110.795 277.84 111.283C278.029 111.77 278.123 112.37 278.123 113.082V113.58H272.237V112.565H276.93C276.93 112.134 276.844 111.75 276.671 111.412C276.502 111.074 276.26 110.807 275.945 110.612C275.634 110.416 275.266 110.318 274.842 110.318C274.374 110.318 273.97 110.434 273.629 110.666C273.291 110.895 273.03 111.193 272.848 111.561C272.666 111.929 272.575 112.323 272.575 112.744V113.42C272.575 113.997 272.674 114.486 272.873 114.887C273.075 115.285 273.355 115.588 273.713 115.797C274.071 116.002 274.487 116.105 274.961 116.105C275.269 116.105 275.548 116.062 275.796 115.976C276.048 115.886 276.265 115.754 276.448 115.578C276.63 115.399 276.771 115.177 276.87 114.912L278.004 115.23C277.884 115.615 277.684 115.953 277.402 116.244C277.12 116.533 276.772 116.758 276.358 116.92C275.944 117.08 275.478 117.159 274.961 117.159ZM283.308 109.364V110.358H279.192V109.364H283.308ZM280.425 117V108.31C280.425 107.872 280.528 107.508 280.733 107.216C280.939 106.924 281.205 106.705 281.534 106.56C281.862 106.414 282.208 106.341 282.573 106.341C282.861 106.341 283.096 106.364 283.279 106.411C283.461 106.457 283.597 106.5 283.686 106.54L283.348 107.554C283.289 107.534 283.206 107.509 283.1 107.479C282.997 107.45 282.861 107.435 282.692 107.435C282.304 107.435 282.024 107.532 281.852 107.728C281.683 107.924 281.598 108.21 281.598 108.588V117H280.425ZM287.741 117.159C287.051 117.159 286.446 116.995 285.926 116.667C285.409 116.339 285.005 115.88 284.713 115.29C284.425 114.7 284.28 114.01 284.28 113.222C284.28 112.426 284.425 111.732 284.713 111.138C285.005 110.545 285.409 110.085 285.926 109.756C286.446 109.428 287.051 109.264 287.741 109.264C288.43 109.264 289.033 109.428 289.55 109.756C290.071 110.085 290.475 110.545 290.763 111.138C291.055 111.732 291.201 112.426 291.201 113.222C291.201 114.01 291.055 114.7 290.763 115.29C290.475 115.88 290.071 116.339 289.55 116.667C289.033 116.995 288.43 117.159 287.741 117.159ZM287.741 116.105C288.264 116.105 288.695 115.971 289.033 115.702C289.371 115.434 289.622 115.081 289.784 114.643C289.946 114.206 290.028 113.732 290.028 113.222C290.028 112.711 289.946 112.236 289.784 111.795C289.622 111.354 289.371 110.998 289.033 110.726C288.695 110.454 288.264 110.318 287.741 110.318C287.217 110.318 286.786 110.454 286.448 110.726C286.11 110.998 285.86 111.354 285.697 111.795C285.535 112.236 285.454 112.711 285.454 113.222C285.454 113.732 285.535 114.206 285.697 114.643C285.86 115.081 286.11 115.434 286.448 115.702C286.786 115.971 287.217 116.105 287.741 116.105ZM292.992 117V109.364H294.125V110.517H294.205C294.344 110.139 294.596 109.833 294.961 109.597C295.325 109.362 295.736 109.244 296.194 109.244C296.28 109.244 296.387 109.246 296.517 109.249C296.646 109.253 296.744 109.258 296.81 109.264V110.457C296.77 110.447 296.679 110.433 296.537 110.413C296.397 110.389 296.25 110.378 296.094 110.378C295.723 110.378 295.391 110.456 295.1 110.612C294.811 110.764 294.583 110.976 294.414 111.248C294.248 111.516 294.165 111.823 294.165 112.168V117H292.992ZM301.17 117.159C300.434 117.159 299.8 116.997 299.266 116.672C298.736 116.344 298.326 115.886 298.038 115.3C297.753 114.71 297.61 114.024 297.61 113.241C297.61 112.459 297.753 111.77 298.038 111.173C298.326 110.573 298.727 110.106 299.241 109.771C299.758 109.433 300.361 109.264 301.051 109.264C301.449 109.264 301.841 109.33 302.229 109.463C302.617 109.596 302.97 109.811 303.288 110.109C303.606 110.404 303.86 110.795 304.049 111.283C304.238 111.77 304.332 112.37 304.332 113.082V113.58H298.446V112.565H303.139C303.139 112.134 303.053 111.75 302.88 111.412C302.711 111.074 302.469 110.807 302.154 110.612C301.843 110.416 301.475 110.318 301.051 110.318C300.583 110.318 300.179 110.434 299.838 110.666C299.5 110.895 299.239 111.193 299.057 111.561C298.875 111.929 298.784 112.323 298.784 112.744V113.42C298.784 113.997 298.883 114.486 299.082 114.887C299.284 115.285 299.564 115.588 299.922 115.797C300.28 116.002 300.696 116.105 301.17 116.105C301.478 116.105 301.757 116.062 302.005 115.976C302.257 115.886 302.474 115.754 302.657 115.578C302.839 115.399 302.98 115.177 303.079 114.912L304.213 115.23C304.093 115.615 303.893 115.953 303.611 116.244C303.329 116.533 302.981 116.758 302.567 116.92C302.153 117.08 301.687 117.159 301.17 117.159ZM313.375 109.364V110.358H309.418V109.364H313.375ZM310.571 107.534H311.745V114.812C311.745 115.144 311.793 115.393 311.889 115.558C311.988 115.721 312.114 115.83 312.267 115.886C312.422 115.939 312.587 115.966 312.759 115.966C312.888 115.966 312.994 115.959 313.077 115.946C313.16 115.929 313.226 115.916 313.276 115.906L313.515 116.96C313.435 116.99 313.324 117.02 313.181 117.05C313.039 117.083 312.858 117.099 312.64 117.099C312.308 117.099 311.983 117.028 311.665 116.886C311.35 116.743 311.088 116.526 310.88 116.234C310.674 115.943 310.571 115.575 310.571 115.131V107.534ZM316.478 112.406V117H315.304V106.818H316.478V110.557H316.577C316.756 110.162 317.025 109.849 317.382 109.617C317.744 109.382 318.224 109.264 318.824 109.264C319.345 109.264 319.8 109.369 320.191 109.577C320.583 109.783 320.886 110.099 321.101 110.527C321.32 110.951 321.429 111.491 321.429 112.148V117H320.256V112.227C320.256 111.621 320.099 111.152 319.784 110.82C319.472 110.486 319.04 110.318 318.486 110.318C318.102 110.318 317.757 110.399 317.452 110.562C317.15 110.724 316.912 110.961 316.736 111.273C316.564 111.584 316.478 111.962 316.478 112.406ZM326.778 117.159C326.042 117.159 325.407 116.997 324.873 116.672C324.343 116.344 323.934 115.886 323.645 115.3C323.36 114.71 323.218 114.024 323.218 113.241C323.218 112.459 323.36 111.77 323.645 111.173C323.934 110.573 324.335 110.106 324.849 109.771C325.366 109.433 325.969 109.264 326.658 109.264C327.056 109.264 327.449 109.33 327.836 109.463C328.224 109.596 328.577 109.811 328.895 110.109C329.214 110.404 329.467 110.795 329.656 111.283C329.845 111.77 329.939 112.37 329.939 113.082V113.58H324.053V112.565H328.746C328.746 112.134 328.66 111.75 328.488 111.412C328.319 111.074 328.077 110.807 327.762 110.612C327.45 110.416 327.082 110.318 326.658 110.318C326.191 110.318 325.787 110.434 325.445 110.666C325.107 110.895 324.847 111.193 324.665 111.561C324.482 111.929 324.391 112.323 324.391 112.744V113.42C324.391 113.997 324.491 114.486 324.689 114.887C324.892 115.285 325.172 115.588 325.53 115.797C325.888 116.002 326.304 116.105 326.778 116.105C327.086 116.105 327.364 116.062 327.613 115.976C327.865 115.886 328.082 115.754 328.264 115.578C328.446 115.399 328.587 115.177 328.687 114.912L329.82 115.23C329.701 115.615 329.5 115.953 329.219 116.244C328.937 116.533 328.589 116.758 328.175 116.92C327.76 117.08 327.295 117.159 326.778 117.159ZM332.248 119.864C332.049 119.864 331.871 119.847 331.716 119.814C331.56 119.784 331.452 119.754 331.392 119.724L331.691 118.69C331.976 118.763 332.228 118.79 332.446 118.77C332.665 118.75 332.859 118.652 333.028 118.477C333.2 118.304 333.358 118.024 333.5 117.636L333.719 117.04L330.895 109.364H332.168L334.276 115.449H334.355L336.463 109.364H337.736L334.495 118.114C334.349 118.508 334.168 118.835 333.953 119.093C333.737 119.355 333.487 119.549 333.202 119.675C332.92 119.801 332.602 119.864 332.248 119.864ZM343.222 117V109.364H344.356V110.517H344.435C344.575 110.139 344.826 109.833 345.191 109.597C345.556 109.362 345.967 109.244 346.424 109.244C346.51 109.244 346.618 109.246 346.747 109.249C346.876 109.253 346.974 109.258 347.04 109.264V110.457C347.001 110.447 346.91 110.433 346.767 110.413C346.628 110.389 346.48 110.378 346.325 110.378C345.953 110.378 345.622 110.456 345.33 110.612C345.042 110.764 344.813 110.976 344.644 111.248C344.478 111.516 344.396 111.823 344.396 112.168V117H343.222ZM351.401 117.159C350.665 117.159 350.03 116.997 349.496 116.672C348.966 116.344 348.557 115.886 348.268 115.3C347.983 114.71 347.841 114.024 347.841 113.241C347.841 112.459 347.983 111.77 348.268 111.173C348.557 110.573 348.958 110.106 349.472 109.771C349.989 109.433 350.592 109.264 351.281 109.264C351.679 109.264 352.072 109.33 352.46 109.463C352.847 109.596 353.2 109.811 353.518 110.109C353.837 110.404 354.09 110.795 354.279 111.283C354.468 111.77 354.562 112.37 354.562 113.082V113.58H348.676V112.565H353.369C353.369 112.134 353.283 111.75 353.111 111.412C352.942 111.074 352.7 110.807 352.385 110.612C352.073 110.416 351.705 110.318 351.281 110.318C350.814 110.318 350.41 110.434 350.068 110.666C349.73 110.895 349.47 111.193 349.288 111.561C349.105 111.929 349.014 112.323 349.014 112.744V113.42C349.014 113.997 349.114 114.486 349.312 114.887C349.515 115.285 349.795 115.588 350.153 115.797C350.511 116.002 350.927 116.105 351.401 116.105C351.709 116.105 351.987 116.062 352.236 115.976C352.488 115.886 352.705 115.754 352.887 115.578C353.069 115.399 353.21 115.177 353.31 114.912L354.443 115.23C354.324 115.615 354.123 115.953 353.842 116.244C353.56 116.533 353.212 116.758 352.798 116.92C352.383 117.08 351.918 117.159 351.401 117.159ZM358.594 117.179C358.111 117.179 357.671 117.088 357.277 116.906C356.883 116.72 356.569 116.453 356.337 116.105C356.105 115.754 355.989 115.33 355.989 114.832C355.989 114.395 356.076 114.04 356.248 113.768C356.42 113.493 356.651 113.278 356.939 113.122C357.227 112.966 357.545 112.85 357.893 112.774C358.245 112.695 358.598 112.632 358.952 112.585C359.416 112.526 359.793 112.481 360.081 112.451C360.373 112.418 360.585 112.363 360.717 112.287C360.853 112.211 360.921 112.078 360.921 111.889V111.849C360.921 111.359 360.787 110.978 360.518 110.706C360.253 110.434 359.851 110.298 359.31 110.298C358.75 110.298 358.311 110.421 357.993 110.666C357.675 110.911 357.451 111.173 357.322 111.452L356.208 111.054C356.407 110.59 356.672 110.229 357.004 109.97C357.338 109.708 357.703 109.526 358.097 109.423C358.495 109.317 358.886 109.264 359.271 109.264C359.516 109.264 359.798 109.294 360.116 109.354C360.437 109.41 360.747 109.528 361.045 109.707C361.347 109.886 361.597 110.156 361.796 110.517C361.995 110.878 362.094 111.362 362.094 111.969V117H360.921V115.966H360.862C360.782 116.132 360.649 116.309 360.464 116.498C360.278 116.687 360.031 116.848 359.723 116.98C359.415 117.113 359.039 117.179 358.594 117.179ZM358.773 116.125C359.237 116.125 359.629 116.034 359.947 115.852C360.268 115.669 360.51 115.434 360.673 115.146C360.838 114.857 360.921 114.554 360.921 114.236V113.162C360.871 113.222 360.762 113.276 360.593 113.326C360.427 113.372 360.235 113.414 360.016 113.45C359.801 113.483 359.59 113.513 359.385 113.54C359.183 113.563 359.019 113.583 358.893 113.599C358.588 113.639 358.303 113.704 358.038 113.793C357.776 113.879 357.564 114.01 357.401 114.186C357.242 114.358 357.163 114.594 357.163 114.892C357.163 115.3 357.313 115.608 357.615 115.817C357.92 116.022 358.306 116.125 358.773 116.125ZM367.338 117.159C366.622 117.159 366.006 116.99 365.489 116.652C364.972 116.314 364.574 115.848 364.296 115.255C364.017 114.662 363.878 113.984 363.878 113.222C363.878 112.446 364.021 111.762 364.306 111.168C364.594 110.572 364.995 110.106 365.509 109.771C366.026 109.433 366.629 109.264 367.318 109.264C367.855 109.264 368.339 109.364 368.77 109.562C369.201 109.761 369.554 110.04 369.829 110.398C370.104 110.756 370.275 111.173 370.341 111.651H369.168C369.078 111.303 368.879 110.994 368.571 110.726C368.266 110.454 367.855 110.318 367.338 110.318C366.881 110.318 366.48 110.437 366.135 110.676C365.794 110.911 365.527 111.245 365.335 111.675C365.146 112.103 365.051 112.605 365.051 113.182C365.051 113.772 365.144 114.286 365.33 114.723C365.519 115.161 365.784 115.5 366.125 115.742C366.47 115.984 366.874 116.105 367.338 116.105C367.643 116.105 367.92 116.052 368.169 115.946C368.417 115.84 368.628 115.688 368.8 115.489C368.972 115.29 369.095 115.051 369.168 114.773H370.341C370.275 115.223 370.111 115.629 369.849 115.991C369.59 116.349 369.247 116.634 368.82 116.846C368.396 117.055 367.902 117.159 367.338 117.159ZM373.23 112.406V117H372.056V106.818H373.23V110.557H373.329C373.508 110.162 373.776 109.849 374.134 109.617C374.496 109.382 374.976 109.264 375.576 109.264C376.097 109.264 376.552 109.369 376.943 109.577C377.334 109.783 377.638 110.099 377.853 110.527C378.072 110.951 378.181 111.491 378.181 112.148V117H377.008V112.227C377.008 111.621 376.851 111.152 376.536 110.82C376.224 110.486 375.792 110.318 375.238 110.318C374.854 110.318 374.509 110.399 374.204 110.562C373.902 110.724 373.664 110.961 373.488 111.273C373.316 111.584 373.23 111.962 373.23 112.406Z" fill="#C8C8C8"/>
<defs>
<filter id="filter0_d_716_68" x="22" y="50" width="60" height="60" filterUnits="userSpaceOnUse" color-interpolation-filters="sRGB">
<feFlood flood-opacity="0" result="BackgroundImageFix"/>
<feColorMatrix in="SourceAlpha" type="matrix" values="0 0 0 0 0 0 0 0 0 0 0 0 0 0 0 0 0 0 127 0" result="hardAlpha"/>
<feOffset/>
<feGaussianBlur stdDeviation="5"/>
<feComposite in2="hardAlpha" operator="out"/>
<feColorMatrix type="matrix" values="0 0 0 0 0 0 0 0 0 0 0 0 0 0 0 0 0 0 0.2 0"/>
<feBlend mode="normal" in2="BackgroundImageFix" result="effect1_dropShadow_716_68"/>
<feBlend mode="normal" in="SourceGraphic" in2="effect1_dropShadow_716_68" result="shape"/>
</filter>
</defs>
</svg>
