<svg width="450" height="160" viewBox="0 0 450 160" fill="none" xmlns="http://www.w3.org/2000/svg">
<g filter="url(#filter0_d_716_77)">
<path d="M41.1975 69.947H48.2274C54.3982 59.7146 64.0057 59.324 69.7859 60.4175C70.7232 60.5738 71.4262 61.2768 71.5825 62.2141C72.676 67.9943 72.2854 77.6018 62.053 83.7726V90.8025C62.053 92.7553 60.9594 94.6299 59.241 95.6453L52.3673 99.7071C51.7424 100.098 51.0394 100.098 50.4926 99.7071C49.8678 99.3946 49.5553 98.7698 49.5553 98.0668V89.1622C49.5553 87.3656 48.8523 85.6472 47.6026 84.3974C46.3528 83.1477 44.6344 82.4447 42.8378 82.4447H33.9332C33.2302 82.4447 32.6054 82.1322 32.2929 81.5074C31.9024 80.9606 31.9024 80.2576 32.2929 79.6327L36.3547 72.759C37.3701 71.0406 39.2447 69.947 41.1975 69.947ZM65.1774 69.947C65.1774 68.2286 63.7714 66.8226 62.053 66.8226C60.2564 66.8226 58.9286 68.2286 58.9286 69.947C58.9286 71.7436 60.2564 73.0714 62.053 73.0714C63.7714 73.0714 65.1774 71.7436 65.1774 69.947ZM45.0249 96.6608C41.1975 100.566 32.0586 99.9414 32.0586 99.9414C32.0586 99.9414 31.4337 90.8025 35.3392 86.9751C37.995 84.3193 42.3692 84.3193 45.0249 86.9751C47.6807 89.6308 47.6807 94.005 45.0249 96.6608ZM41.3537 93.8488C42.291 92.9896 42.291 91.5055 41.3537 90.6463C40.4945 89.709 39.0104 89.709 38.1512 90.6463C36.8233 91.896 37.0576 94.9424 37.0576 94.9424C37.0576 94.9424 40.104 95.1767 41.3537 93.8488Z" fill="white"/>
</g>
<path d="M100.339 44.4545V59H97.2642V44.4545H100.339ZM115.036 44.4545V59H112.38L106.051 49.8452H105.945V59H102.87V44.4545H105.569L111.847 53.6023H111.975V44.4545H115.036ZM130.943 51.7273C130.943 53.3134 130.643 54.6629 130.041 55.7756C129.445 56.8883 128.63 57.7382 127.598 58.3253C126.571 58.9077 125.415 59.1989 124.132 59.1989C122.839 59.1989 121.679 58.9053 120.652 58.3182C119.625 57.7311 118.813 56.8812 118.216 55.7685C117.619 54.6558 117.321 53.3087 117.321 51.7273C117.321 50.1411 117.619 48.7917 118.216 47.679C118.813 46.5663 119.625 45.7187 120.652 45.1364C121.679 44.5492 122.839 44.2557 124.132 44.2557C125.415 44.2557 126.571 44.5492 127.598 45.1364C128.63 45.7187 129.445 46.5663 130.041 47.679C130.643 48.7917 130.943 50.1411 130.943 51.7273ZM127.825 51.7273C127.825 50.6998 127.671 49.8333 127.364 49.1278C127.061 48.4223 126.632 47.8873 126.078 47.5227C125.524 47.1581 124.875 46.9759 124.132 46.9759C123.389 46.9759 122.74 47.1581 122.186 47.5227C121.632 47.8873 121.201 48.4223 120.893 49.1278C120.59 49.8333 120.439 50.6998 120.439 51.7273C120.439 52.7547 120.59 53.6212 120.893 54.3267C121.201 55.0322 121.632 55.5672 122.186 55.9318C122.74 56.2964 123.389 56.4787 124.132 56.4787C124.875 56.4787 125.524 56.2964 126.078 55.9318C126.632 55.5672 127.061 55.0322 127.364 54.3267C127.671 53.6212 127.825 52.7547 127.825 51.7273Z" fill="white"/>
<rect x="140" y="38" width="99" height="28" rx="14" fill="#7FF252" fill-opacity="0.1"/>
<path d="M153.119 57V46.8182H154.655V55.6776H159.268V57H153.119ZM163.124 57.169C162.64 57.169 162.203 57.0795 161.811 56.9006C161.42 56.7183 161.11 56.4548 160.882 56.1101C160.656 55.7654 160.544 55.3428 160.544 54.8423C160.544 54.4115 160.627 54.0568 160.792 53.7784C160.958 53.5 161.182 53.2796 161.463 53.1172C161.745 52.9548 162.06 52.8321 162.408 52.7493C162.756 52.6664 163.111 52.6035 163.472 52.5604C163.929 52.5073 164.301 52.4643 164.586 52.4311C164.871 52.3946 165.078 52.3366 165.207 52.2571C165.336 52.1776 165.401 52.0483 165.401 51.8693V51.8345C165.401 51.4003 165.278 51.0639 165.033 50.8253C164.791 50.5866 164.43 50.4673 163.949 50.4673C163.449 50.4673 163.054 50.5784 162.766 50.8004C162.481 51.0192 162.284 51.2628 162.174 51.5312L160.777 51.2131C160.943 50.7491 161.185 50.3745 161.503 50.0895C161.825 49.8011 162.194 49.5923 162.612 49.4631C163.029 49.3305 163.469 49.2642 163.929 49.2642C164.234 49.2642 164.557 49.3007 164.899 49.3736C165.243 49.4432 165.565 49.5724 165.863 49.7614C166.165 49.9503 166.412 50.2204 166.604 50.5717C166.796 50.9197 166.892 51.3722 166.892 51.929V57H165.441V55.956H165.381C165.285 56.1482 165.141 56.3371 164.949 56.5227C164.756 56.7083 164.509 56.8625 164.208 56.9851C163.906 57.1077 163.545 57.169 163.124 57.169ZM163.447 55.9759C163.858 55.9759 164.209 55.8946 164.501 55.7322C164.796 55.5698 165.02 55.3577 165.172 55.0959C165.328 54.8307 165.406 54.5473 165.406 54.2457V53.2614C165.353 53.3144 165.25 53.3641 165.098 53.4105C164.949 53.4536 164.778 53.4917 164.586 53.5249C164.393 53.5547 164.206 53.5829 164.024 53.6094C163.842 53.6326 163.689 53.6525 163.566 53.669C163.278 53.7055 163.015 53.7668 162.776 53.853C162.541 53.9392 162.352 54.0634 162.209 54.2259C162.07 54.3849 162 54.5971 162 54.8622C162 55.2301 162.136 55.5085 162.408 55.6974C162.68 55.883 163.026 55.9759 163.447 55.9759ZM173.71 53.8331V49.3636H175.201V57H173.74V55.6776H173.66C173.484 56.0852 173.203 56.425 172.815 56.6967C172.43 56.9652 171.951 57.0994 171.378 57.0994C170.887 57.0994 170.453 56.9917 170.075 56.7763C169.701 56.5575 169.406 56.2344 169.191 55.8068C168.978 55.3793 168.872 54.8506 168.872 54.2209V49.3636H170.359V54.0419C170.359 54.5623 170.503 54.9766 170.791 55.2848C171.08 55.593 171.454 55.7472 171.915 55.7472C172.193 55.7472 172.47 55.6776 172.745 55.5384C173.024 55.3991 173.254 55.1887 173.436 54.907C173.622 54.6252 173.713 54.2673 173.71 53.8331ZM178.685 52.4659V57H177.199V49.3636H178.625V50.6065H178.72C178.895 50.2022 179.171 49.8774 179.545 49.6321C179.923 49.3868 180.399 49.2642 180.972 49.2642C181.492 49.2642 181.948 49.3736 182.339 49.5923C182.73 49.8078 183.033 50.1293 183.249 50.5568C183.464 50.9844 183.572 51.513 183.572 52.1428V57H182.086V52.3217C182.086 51.7682 181.941 51.3357 181.653 51.0241C181.365 50.7093 180.969 50.5518 180.465 50.5518C180.12 50.5518 179.814 50.6264 179.545 50.7756C179.28 50.9247 179.069 51.1435 178.914 51.4318C178.761 51.7169 178.685 52.0616 178.685 52.4659ZM188.782 57.1541C188.043 57.1541 187.407 56.9867 186.873 56.652C186.343 56.3139 185.935 55.8482 185.65 55.255C185.365 54.6617 185.223 53.9822 185.223 53.2166C185.223 52.4411 185.368 51.7566 185.66 51.1634C185.952 50.5668 186.363 50.1011 186.893 49.7663C187.423 49.4316 188.048 49.2642 188.767 49.2642C189.347 49.2642 189.864 49.3719 190.319 49.5874C190.773 49.7995 191.139 50.0978 191.417 50.4822C191.699 50.8667 191.866 51.3158 191.919 51.8295H190.473C190.393 51.4716 190.211 51.1634 189.926 50.9048C189.644 50.6463 189.266 50.517 188.792 50.517C188.378 50.517 188.015 50.6264 187.703 50.8452C187.395 51.0606 187.155 51.3688 186.983 51.7699C186.81 52.1676 186.724 52.6383 186.724 53.1818C186.724 53.7386 186.809 54.2192 186.978 54.6236C187.147 55.0279 187.385 55.3411 187.694 55.5632C188.005 55.7853 188.371 55.8963 188.792 55.8963C189.074 55.8963 189.329 55.8449 189.558 55.7422C189.79 55.6361 189.984 55.4853 190.14 55.2898C190.299 55.0942 190.41 54.8589 190.473 54.5838H191.919C191.866 55.0777 191.706 55.5185 191.437 55.9062C191.169 56.294 190.809 56.599 190.358 56.821C189.911 57.0431 189.386 57.1541 188.782 57.1541ZM194.996 52.4659V57H193.509V46.8182H194.976V50.6065H195.07C195.249 50.1955 195.523 49.8691 195.89 49.6271C196.258 49.3852 196.739 49.2642 197.332 49.2642C197.856 49.2642 198.313 49.3719 198.704 49.5874C199.099 49.8028 199.404 50.1243 199.619 50.5518C199.838 50.9761 199.947 51.5064 199.947 52.1428V57H198.461V52.3217C198.461 51.7616 198.317 51.3274 198.028 51.0192C197.74 50.7076 197.339 50.5518 196.825 50.5518C196.474 50.5518 196.159 50.6264 195.881 50.7756C195.605 50.9247 195.388 51.1435 195.229 51.4318C195.073 51.7169 194.996 52.0616 194.996 52.4659ZM201.931 59.8636V49.3636H203.383V50.6016H203.507C203.593 50.4425 203.717 50.2585 203.88 50.0497C204.042 49.8409 204.268 49.6586 204.556 49.5028C204.844 49.3438 205.225 49.2642 205.699 49.2642C206.316 49.2642 206.866 49.42 207.35 49.7315C207.834 50.0431 208.213 50.4922 208.488 51.0788C208.767 51.6655 208.906 52.3714 208.906 53.1967C208.906 54.022 208.769 54.7296 208.493 55.3196C208.218 55.9062 207.84 56.3587 207.36 56.6768C206.879 56.9917 206.331 57.1491 205.714 57.1491C205.25 57.1491 204.871 57.0713 204.576 56.9155C204.284 56.7597 204.055 56.5774 203.89 56.3686C203.724 56.1598 203.596 55.9742 203.507 55.8118H203.417V59.8636H201.931ZM203.388 53.1818C203.388 53.7187 203.465 54.1894 203.621 54.5938C203.777 54.9981 204.002 55.3146 204.297 55.5433C204.592 55.7687 204.954 55.8814 205.381 55.8814C205.825 55.8814 206.197 55.7637 206.495 55.5284C206.793 55.2898 207.019 54.9666 207.171 54.5589C207.327 54.1513 207.405 53.6922 207.405 53.1818C207.405 52.678 207.328 52.2256 207.176 51.8246C207.027 51.4235 206.801 51.107 206.5 50.875C206.202 50.643 205.829 50.527 205.381 50.527C204.95 50.527 204.586 50.638 204.287 50.8601C203.992 51.0821 203.769 51.392 203.616 51.7898C203.464 52.1875 203.388 52.6515 203.388 53.1818ZM212.794 57.169C212.31 57.169 211.872 57.0795 211.481 56.9006C211.09 56.7183 210.78 56.4548 210.552 56.1101C210.326 55.7654 210.214 55.3428 210.214 54.8423C210.214 54.4115 210.296 54.0568 210.462 53.7784C210.628 53.5 210.852 53.2796 211.133 53.1172C211.415 52.9548 211.73 52.8321 212.078 52.7493C212.426 52.6664 212.781 52.6035 213.142 52.5604C213.599 52.5073 213.97 52.4643 214.256 52.4311C214.541 52.3946 214.748 52.3366 214.877 52.2571C215.006 52.1776 215.071 52.0483 215.071 51.8693V51.8345C215.071 51.4003 214.948 51.0639 214.703 50.8253C214.461 50.5866 214.1 50.4673 213.619 50.4673C213.119 50.4673 212.724 50.5784 212.436 50.8004C212.151 51.0192 211.954 51.2628 211.844 51.5312L210.447 51.2131C210.613 50.7491 210.855 50.3745 211.173 50.0895C211.495 49.8011 211.864 49.5923 212.282 49.4631C212.699 49.3305 213.139 49.2642 213.599 49.2642C213.904 49.2642 214.227 49.3007 214.569 49.3736C214.913 49.4432 215.235 49.5724 215.533 49.7614C215.835 49.9503 216.082 50.2204 216.274 50.5717C216.466 50.9197 216.562 51.3722 216.562 51.929V57H215.111V55.956H215.051C214.955 56.1482 214.811 56.3371 214.618 56.5227C214.426 56.7083 214.179 56.8625 213.878 56.9851C213.576 57.1077 213.215 57.169 212.794 57.169ZM213.117 55.9759C213.528 55.9759 213.879 55.8946 214.171 55.7322C214.466 55.5698 214.69 55.3577 214.842 55.0959C214.998 54.8307 215.076 54.5473 215.076 54.2457V53.2614C215.023 53.3144 214.92 53.3641 214.768 53.4105C214.618 53.4536 214.448 53.4917 214.256 53.5249C214.063 53.5547 213.876 53.5829 213.694 53.6094C213.511 53.6326 213.359 53.6525 213.236 53.669C212.948 53.7055 212.684 53.7668 212.446 53.853C212.211 53.9392 212.022 54.0634 211.879 54.2259C211.74 54.3849 211.67 54.5971 211.67 54.8622C211.67 55.2301 211.806 55.5085 212.078 55.6974C212.35 55.883 212.696 55.9759 213.117 55.9759ZM221.401 57.1491C220.784 57.1491 220.234 56.9917 219.75 56.6768C219.27 56.3587 218.892 55.9062 218.617 55.3196C218.345 54.7296 218.209 54.022 218.209 53.1967C218.209 52.3714 218.347 51.6655 218.622 51.0788C218.9 50.4922 219.281 50.0431 219.765 49.7315C220.249 49.42 220.798 49.2642 221.411 49.2642C221.885 49.2642 222.266 49.3438 222.554 49.5028C222.846 49.6586 223.071 49.8409 223.23 50.0497C223.393 50.2585 223.519 50.4425 223.608 50.6016H223.698V46.8182H225.184V57H223.733V55.8118H223.608C223.519 55.9742 223.39 56.1598 223.221 56.3686C223.055 56.5774 222.826 56.7597 222.534 56.9155C222.243 57.0713 221.865 57.1491 221.401 57.1491ZM221.729 55.8814C222.157 55.8814 222.518 55.7687 222.813 55.5433C223.111 55.3146 223.337 54.9981 223.489 54.5938C223.645 54.1894 223.723 53.7187 223.723 53.1818C223.723 52.6515 223.646 52.1875 223.494 51.7898C223.342 51.392 223.118 51.0821 222.823 50.8601C222.528 50.638 222.163 50.527 221.729 50.527C221.282 50.527 220.909 50.643 220.61 50.875C220.312 51.107 220.087 51.4235 219.934 51.8246C219.785 52.2256 219.711 52.678 219.711 53.1818C219.711 53.6922 219.787 54.1513 219.939 54.5589C220.092 54.9666 220.317 55.2898 220.615 55.5284C220.917 55.7637 221.288 55.8814 221.729 55.8814Z" fill="#7FF252"/>
<path d="M96.6761 87.9119V86.8182H104.312V87.9119H101.111V97H99.8778V87.9119H96.6761ZM107.23 92.4062V97H106.056V86.8182H107.23V90.5568H107.329C107.508 90.1624 107.776 89.8492 108.134 89.6172C108.496 89.3819 108.976 89.2642 109.576 89.2642C110.097 89.2642 110.552 89.3686 110.943 89.5774C111.334 89.7829 111.638 90.0994 111.853 90.527C112.072 90.9512 112.181 91.4915 112.181 92.1477V97H111.008V92.2273C111.008 91.6207 110.851 91.1518 110.536 90.8203C110.224 90.4856 109.792 90.3182 109.238 90.3182C108.854 90.3182 108.509 90.3994 108.204 90.5618C107.902 90.7242 107.664 90.9612 107.488 91.2727C107.316 91.5843 107.23 91.9621 107.23 92.4062ZM117.529 97.1591C116.794 97.1591 116.159 96.9967 115.625 96.6719C115.095 96.3438 114.686 95.8864 114.397 95.2997C114.112 94.7098 113.97 94.0237 113.97 93.2415C113.97 92.4593 114.112 91.7699 114.397 91.1733C114.686 90.5734 115.087 90.1061 115.6 89.7713C116.118 89.4332 116.721 89.2642 117.41 89.2642C117.808 89.2642 118.201 89.3305 118.588 89.4631C118.976 89.5956 119.329 89.8111 119.647 90.1094C119.966 90.4044 120.219 90.7955 120.408 91.2827C120.597 91.7699 120.691 92.3698 120.691 93.0824V93.5795H114.805V92.5653H119.498C119.498 92.1345 119.412 91.75 119.24 91.4119C119.071 91.0739 118.829 90.8071 118.514 90.6115C118.202 90.416 117.834 90.3182 117.41 90.3182C116.943 90.3182 116.538 90.4342 116.197 90.6662C115.859 90.8949 115.599 91.1932 115.417 91.5611C115.234 91.929 115.143 92.3234 115.143 92.7443V93.4205C115.143 93.9972 115.243 94.486 115.441 94.8871C115.644 95.2848 115.924 95.5881 116.282 95.7969C116.64 96.0024 117.056 96.1051 117.529 96.1051C117.838 96.1051 118.116 96.062 118.365 95.9759C118.617 95.8864 118.834 95.7538 119.016 95.5781C119.198 95.3991 119.339 95.1771 119.439 94.9119L120.572 95.2301C120.453 95.6146 120.252 95.9527 119.971 96.2443C119.689 96.5327 119.341 96.758 118.926 96.9205C118.512 97.0795 118.047 97.1591 117.529 97.1591ZM129.297 97.1591C128.661 97.1591 128.099 96.9983 127.612 96.6768C127.125 96.352 126.743 95.8946 126.468 95.3047C126.193 94.7114 126.056 94.0104 126.056 93.2017C126.056 92.3996 126.193 91.7036 126.468 91.1136C126.743 90.5237 127.126 90.0679 127.617 89.7464C128.107 89.425 128.674 89.2642 129.317 89.2642C129.814 89.2642 130.207 89.3471 130.495 89.5128C130.787 89.6752 131.009 89.8608 131.162 90.0696C131.317 90.2751 131.438 90.4441 131.525 90.5767H131.624V86.8182H132.797V97H131.664V95.8267H131.525C131.438 95.9659 131.316 96.1416 131.157 96.3537C130.998 96.5625 130.77 96.7498 130.475 96.9155C130.181 97.0779 129.788 97.1591 129.297 97.1591ZM129.456 96.1051C129.927 96.1051 130.325 95.9825 130.65 95.7372C130.974 95.4886 131.221 95.1456 131.39 94.7081C131.559 94.2673 131.644 93.7585 131.644 93.1818C131.644 92.6117 131.561 92.1129 131.395 91.6854C131.23 91.2545 130.984 90.9197 130.659 90.6811C130.335 90.4392 129.934 90.3182 129.456 90.3182C128.959 90.3182 128.545 90.4458 128.213 90.701C127.885 90.9529 127.638 91.2959 127.473 91.7301C127.31 92.161 127.229 92.6449 127.229 93.1818C127.229 93.7254 127.312 94.2192 127.478 94.6634C127.647 95.1042 127.895 95.4555 128.223 95.7173C128.555 95.9759 128.966 96.1051 129.456 96.1051ZM138.311 97.1591C137.575 97.1591 136.94 96.9967 136.407 96.6719C135.876 96.3438 135.467 95.8864 135.179 95.2997C134.894 94.7098 134.751 94.0237 134.751 93.2415C134.751 92.4593 134.894 91.7699 135.179 91.1733C135.467 90.5734 135.868 90.1061 136.382 89.7713C136.899 89.4332 137.502 89.2642 138.191 89.2642C138.589 89.2642 138.982 89.3305 139.37 89.4631C139.757 89.5956 140.11 89.8111 140.429 90.1094C140.747 90.4044 141 90.7955 141.189 91.2827C141.378 91.7699 141.473 92.3698 141.473 93.0824V93.5795H135.586V92.5653H140.279C140.279 92.1345 140.193 91.75 140.021 91.4119C139.852 91.0739 139.61 90.8071 139.295 90.6115C138.984 90.416 138.616 90.3182 138.191 90.3182C137.724 90.3182 137.32 90.4342 136.978 90.6662C136.64 90.8949 136.38 91.1932 136.198 91.5611C136.016 91.929 135.924 92.3234 135.924 92.7443V93.4205C135.924 93.9972 136.024 94.486 136.223 94.8871C136.425 95.2848 136.705 95.5881 137.063 95.7969C137.421 96.0024 137.837 96.1051 138.311 96.1051C138.619 96.1051 138.897 96.062 139.146 95.9759C139.398 95.8864 139.615 95.7538 139.797 95.5781C139.98 95.3991 140.12 95.1771 140.22 94.9119L141.353 95.2301C141.234 95.6146 141.033 95.9527 140.752 96.2443C140.47 96.5327 140.122 96.758 139.708 96.9205C139.293 97.0795 138.828 97.1591 138.311 97.1591ZM148.667 91.0739L147.613 91.3722C147.546 91.1965 147.449 91.0258 147.319 90.8601C147.193 90.6911 147.021 90.5518 146.802 90.4425C146.583 90.3331 146.303 90.2784 145.962 90.2784C145.495 90.2784 145.105 90.3861 144.794 90.6016C144.485 90.8137 144.331 91.0838 144.331 91.4119C144.331 91.7036 144.437 91.9339 144.65 92.103C144.862 92.272 145.193 92.4129 145.644 92.5256L146.777 92.804C147.46 92.9697 147.969 93.2232 148.304 93.5646C148.638 93.9027 148.806 94.3385 148.806 94.8722C148.806 95.3097 148.68 95.7008 148.428 96.0455C148.179 96.3902 147.831 96.6619 147.384 96.8608C146.936 97.0597 146.416 97.1591 145.823 97.1591C145.044 97.1591 144.399 96.9901 143.889 96.652C143.378 96.3139 143.055 95.8201 142.919 95.1705L144.033 94.892C144.139 95.303 144.34 95.6113 144.635 95.8168C144.933 96.0223 145.322 96.125 145.803 96.125C146.35 96.125 146.784 96.009 147.105 95.777C147.43 95.5417 147.593 95.2599 147.593 94.9318C147.593 94.6667 147.5 94.4446 147.314 94.2656C147.129 94.0833 146.844 93.9474 146.459 93.858L145.186 93.5597C144.487 93.3939 143.973 93.1371 143.645 92.7891C143.32 92.4377 143.158 91.9986 143.158 91.4716C143.158 91.0407 143.279 90.6596 143.521 90.3281C143.766 89.9967 144.099 89.7365 144.52 89.5476C144.944 89.3587 145.425 89.2642 145.962 89.2642C146.718 89.2642 147.311 89.4299 147.742 89.7614C148.176 90.0928 148.484 90.5303 148.667 91.0739ZM153.893 89.3636V90.358H149.936V89.3636H153.893ZM151.089 87.5341H152.262V94.8125C152.262 95.1439 152.31 95.3925 152.406 95.5582C152.506 95.7206 152.632 95.83 152.784 95.8864C152.94 95.9394 153.104 95.9659 153.276 95.9659C153.406 95.9659 153.512 95.9593 153.595 95.946C153.677 95.9295 153.744 95.9162 153.794 95.9062L154.032 96.9602C153.953 96.9901 153.842 97.0199 153.699 97.0497C153.557 97.0829 153.376 97.0994 153.157 97.0994C152.826 97.0994 152.501 97.0282 152.183 96.8857C151.868 96.7431 151.606 96.526 151.397 96.2344C151.192 95.9427 151.089 95.5748 151.089 95.1307V87.5341ZM155.658 97V89.3636H156.831V97H155.658ZM156.254 88.0909C156.026 88.0909 155.829 88.013 155.663 87.8572C155.5 87.7015 155.419 87.5142 155.419 87.2955C155.419 87.0767 155.5 86.8894 155.663 86.7337C155.829 86.5779 156.026 86.5 156.254 86.5C156.483 86.5 156.679 86.5779 156.841 86.7337C157.007 86.8894 157.09 87.0767 157.09 87.2955C157.09 87.5142 157.007 87.7015 156.841 87.8572C156.679 88.013 156.483 88.0909 156.254 88.0909ZM160.153 92.4062V97H158.98V89.3636H160.114V90.5568H160.213C160.392 90.169 160.664 89.8575 161.028 89.6222C161.393 89.3835 161.864 89.2642 162.44 89.2642C162.957 89.2642 163.41 89.3703 163.798 89.5824C164.185 89.7912 164.487 90.1094 164.702 90.5369C164.918 90.9612 165.026 91.4981 165.026 92.1477V97H163.852V92.2273C163.852 91.6274 163.696 91.16 163.385 90.8253C163.073 90.4872 162.646 90.3182 162.102 90.3182C161.728 90.3182 161.393 90.3994 161.098 90.5618C160.806 90.7242 160.576 90.9612 160.407 91.2727C160.238 91.5843 160.153 91.9621 160.153 92.4062ZM169.417 97.179C168.933 97.179 168.494 97.0878 168.099 96.9055C167.705 96.7199 167.392 96.4531 167.16 96.1051C166.928 95.7538 166.812 95.3295 166.812 94.8324C166.812 94.3949 166.898 94.0402 167.07 93.7685C167.242 93.4934 167.473 93.2779 167.761 93.1222C168.05 92.9664 168.368 92.8504 168.716 92.7741C169.067 92.6946 169.42 92.6316 169.775 92.5852C170.239 92.5256 170.615 92.4808 170.903 92.451C171.195 92.4179 171.407 92.3632 171.54 92.2869C171.675 92.2107 171.743 92.0781 171.743 91.8892V91.8494C171.743 91.3589 171.609 90.9777 171.341 90.706C171.076 90.4342 170.673 90.2983 170.133 90.2983C169.573 90.2983 169.133 90.4209 168.815 90.6662C168.497 90.9115 168.273 91.1733 168.144 91.4517L167.03 91.054C167.229 90.59 167.494 90.2287 167.826 89.9702C168.161 89.7083 168.525 89.526 168.92 89.4233C169.317 89.3172 169.708 89.2642 170.093 89.2642C170.338 89.2642 170.62 89.294 170.938 89.3537C171.26 89.41 171.569 89.5277 171.868 89.7067C172.169 89.8857 172.42 90.1558 172.618 90.517C172.817 90.8783 172.917 91.3622 172.917 91.9688V97H171.743V95.9659H171.684C171.604 96.1316 171.472 96.3089 171.286 96.4979C171.1 96.6868 170.854 96.8475 170.545 96.9801C170.237 97.1127 169.861 97.179 169.417 97.179ZM169.596 96.125C170.06 96.125 170.451 96.0339 170.769 95.8516C171.09 95.6693 171.332 95.4339 171.495 95.1456C171.661 94.8572 171.743 94.554 171.743 94.2358V93.1619C171.694 93.2216 171.584 93.2763 171.415 93.326C171.25 93.3724 171.057 93.4138 170.839 93.4503C170.623 93.4834 170.413 93.5133 170.207 93.5398C170.005 93.563 169.841 93.5829 169.715 93.5994C169.41 93.6392 169.125 93.7038 168.86 93.7933C168.598 93.8795 168.386 94.0104 168.224 94.1861C168.064 94.3584 167.985 94.5937 167.985 94.892C167.985 95.2997 168.136 95.608 168.437 95.8168C168.742 96.0223 169.128 96.125 169.596 96.125ZM178.379 89.3636V90.358H174.422V89.3636H178.379ZM175.575 87.5341H176.749V94.8125C176.749 95.1439 176.797 95.3925 176.893 95.5582C176.992 95.7206 177.118 95.83 177.271 95.8864C177.426 95.9394 177.59 95.9659 177.763 95.9659C177.892 95.9659 177.998 95.9593 178.081 95.946C178.164 95.9295 178.23 95.9162 178.28 95.9062L178.518 96.9602C178.439 96.9901 178.328 97.0199 178.185 97.0497C178.043 97.0829 177.862 97.0994 177.643 97.0994C177.312 97.0994 176.987 97.0282 176.669 96.8857C176.354 96.7431 176.092 96.526 175.884 96.2344C175.678 95.9427 175.575 95.5748 175.575 95.1307V87.5341ZM180.144 97V89.3636H181.317V97H180.144ZM180.741 88.0909C180.512 88.0909 180.315 88.013 180.149 87.8572C179.987 87.7015 179.906 87.5142 179.906 87.2955C179.906 87.0767 179.987 86.8894 180.149 86.7337C180.315 86.5779 180.512 86.5 180.741 86.5C180.969 86.5 181.165 86.5779 181.327 86.7337C181.493 86.8894 181.576 87.0767 181.576 87.2955C181.576 87.5142 181.493 87.7015 181.327 87.8572C181.165 88.013 180.969 88.0909 180.741 88.0909ZM186.569 97.1591C185.879 97.1591 185.274 96.995 184.754 96.6669C184.237 96.3388 183.833 95.8797 183.541 95.2898C183.253 94.6998 183.108 94.0104 183.108 93.2216C183.108 92.4261 183.253 91.7318 183.541 91.1385C183.833 90.5452 184.237 90.0845 184.754 89.7564C185.274 89.4283 185.879 89.2642 186.569 89.2642C187.258 89.2642 187.861 89.4283 188.378 89.7564C188.899 90.0845 189.303 90.5452 189.591 91.1385C189.883 91.7318 190.029 92.4261 190.029 93.2216C190.029 94.0104 189.883 94.6998 189.591 95.2898C189.303 95.8797 188.899 96.3388 188.378 96.6669C187.861 96.995 187.258 97.1591 186.569 97.1591ZM186.569 96.1051C187.092 96.1051 187.523 95.9709 187.861 95.7024C188.199 95.4339 188.45 95.081 188.612 94.6435C188.774 94.206 188.856 93.732 188.856 93.2216C188.856 92.7112 188.774 92.2356 188.612 91.7947C188.45 91.3539 188.199 90.9976 187.861 90.7259C187.523 90.4541 187.092 90.3182 186.569 90.3182C186.045 90.3182 185.614 90.4541 185.276 90.7259C184.938 90.9976 184.688 91.3539 184.525 91.7947C184.363 92.2356 184.282 92.7112 184.282 93.2216C184.282 93.732 184.363 94.206 184.525 94.6435C184.688 95.081 184.938 95.4339 185.276 95.7024C185.614 95.9709 186.045 96.1051 186.569 96.1051ZM192.993 92.4062V97H191.82V89.3636H192.953V90.5568H193.053C193.232 90.169 193.504 89.8575 193.868 89.6222C194.233 89.3835 194.703 89.2642 195.28 89.2642C195.797 89.2642 196.25 89.3703 196.637 89.5824C197.025 89.7912 197.327 90.1094 197.542 90.5369C197.758 90.9612 197.865 91.4981 197.865 92.1477V97H196.692V92.2273C196.692 91.6274 196.536 91.16 196.225 90.8253C195.913 90.4872 195.486 90.3182 194.942 90.3182C194.568 90.3182 194.233 90.3994 193.938 90.5618C193.646 90.7242 193.416 90.9612 193.247 91.2727C193.078 91.5843 192.993 91.9621 192.993 92.4062ZM207.347 89.3636V90.358H203.231V89.3636H207.347ZM204.464 97V88.3097C204.464 87.8722 204.567 87.5076 204.772 87.2159C204.978 86.9242 205.244 86.7055 205.573 86.5597C205.901 86.4138 206.247 86.3409 206.612 86.3409C206.9 86.3409 207.135 86.3641 207.318 86.4105C207.5 86.4569 207.636 86.5 207.725 86.5398L207.387 87.554C207.328 87.5341 207.245 87.5092 207.139 87.4794C207.036 87.4496 206.9 87.4347 206.731 87.4347C206.343 87.4347 206.063 87.5324 205.891 87.728C205.722 87.9235 205.637 88.2102 205.637 88.5881V97H204.464ZM211.78 97.1591C211.09 97.1591 210.485 96.995 209.965 96.6669C209.448 96.3388 209.044 95.8797 208.752 95.2898C208.464 94.6998 208.319 94.0104 208.319 93.2216C208.319 92.4261 208.464 91.7318 208.752 91.1385C209.044 90.5452 209.448 90.0845 209.965 89.7564C210.485 89.4283 211.09 89.2642 211.78 89.2642C212.469 89.2642 213.072 89.4283 213.589 89.7564C214.11 90.0845 214.514 90.5452 214.802 91.1385C215.094 91.7318 215.24 92.4261 215.24 93.2216C215.24 94.0104 215.094 94.6998 214.802 95.2898C214.514 95.8797 214.11 96.3388 213.589 96.6669C213.072 96.995 212.469 97.1591 211.78 97.1591ZM211.78 96.1051C212.303 96.1051 212.734 95.9709 213.072 95.7024C213.41 95.4339 213.661 95.081 213.823 94.6435C213.985 94.206 214.067 93.732 214.067 93.2216C214.067 92.7112 213.985 92.2356 213.823 91.7947C213.661 91.3539 213.41 90.9976 213.072 90.7259C212.734 90.4541 212.303 90.3182 211.78 90.3182C211.256 90.3182 210.825 90.4541 210.487 90.7259C210.149 90.9976 209.899 91.3539 209.736 91.7947C209.574 92.2356 209.493 92.7112 209.493 93.2216C209.493 93.732 209.574 94.206 209.736 94.6435C209.899 95.081 210.149 95.4339 210.487 95.7024C210.825 95.9709 211.256 96.1051 211.78 96.1051ZM217.031 97V89.3636H218.164V90.517H218.244C218.383 90.1392 218.635 89.8326 219 89.5973C219.364 89.362 219.775 89.2443 220.233 89.2443C220.319 89.2443 220.426 89.246 220.556 89.2493C220.685 89.2526 220.783 89.2576 220.849 89.2642V90.4574C220.809 90.4474 220.718 90.4325 220.576 90.4126C220.436 90.3894 220.289 90.3778 220.133 90.3778C219.762 90.3778 219.431 90.4557 219.139 90.6115C218.85 90.764 218.622 90.9761 218.453 91.2479C218.287 91.5163 218.204 91.8229 218.204 92.1676V97H217.031ZM229.061 97.1591C228.425 97.1591 227.863 96.9983 227.376 96.6768C226.888 96.352 226.507 95.8946 226.232 95.3047C225.957 94.7114 225.819 94.0104 225.819 93.2017C225.819 92.3996 225.957 91.7036 226.232 91.1136C226.507 90.5237 226.89 90.0679 227.381 89.7464C227.871 89.425 228.438 89.2642 229.081 89.2642C229.578 89.2642 229.971 89.3471 230.259 89.5128C230.551 89.6752 230.773 89.8608 230.925 90.0696C231.081 90.2751 231.202 90.4441 231.288 90.5767H231.388V86.8182H232.561V97H231.427V95.8267H231.288C231.202 95.9659 231.079 96.1416 230.92 96.3537C230.761 96.5625 230.534 96.7498 230.239 96.9155C229.944 97.0779 229.551 97.1591 229.061 97.1591ZM229.22 96.1051C229.691 96.1051 230.088 95.9825 230.413 95.7372C230.738 95.4886 230.985 95.1456 231.154 94.7081C231.323 94.2673 231.407 93.7585 231.407 93.1818C231.407 92.6117 231.325 92.1129 231.159 91.6854C230.993 91.2545 230.748 90.9197 230.423 90.6811C230.098 90.4392 229.697 90.3182 229.22 90.3182C228.723 90.3182 228.309 90.4458 227.977 90.701C227.649 90.9529 227.402 91.2959 227.236 91.7301C227.074 92.161 226.993 92.6449 226.993 93.1818C226.993 93.7254 227.076 94.2192 227.241 94.6634C227.41 95.1042 227.659 95.4555 227.987 95.7173C228.318 95.9759 228.729 96.1051 229.22 96.1051ZM234.873 97V89.3636H236.046V97H234.873ZM235.469 88.0909C235.241 88.0909 235.043 88.013 234.878 87.8572C234.715 87.7015 234.634 87.5142 234.634 87.2955C234.634 87.0767 234.715 86.8894 234.878 86.7337C235.043 86.5779 235.241 86.5 235.469 86.5C235.698 86.5 235.894 86.5779 236.056 86.7337C236.222 86.8894 236.305 87.0767 236.305 87.2955C236.305 87.5142 236.222 87.7015 236.056 87.8572C235.894 88.013 235.698 88.0909 235.469 88.0909ZM241.277 100.023C240.711 100.023 240.223 99.9498 239.816 99.804C239.408 99.6615 239.068 99.4725 238.797 99.2372C238.528 99.0052 238.314 98.7566 238.155 98.4915L239.09 97.8352C239.196 97.9744 239.33 98.1335 239.493 98.3125C239.655 98.4948 239.877 98.6522 240.159 98.7848C240.444 98.9207 240.817 98.9886 241.277 98.9886C241.894 98.9886 242.403 98.8395 242.804 98.5412C243.205 98.2429 243.405 97.7756 243.405 97.1392V95.5881H243.306C243.22 95.7273 243.097 95.8996 242.938 96.1051C242.782 96.3073 242.557 96.4879 242.262 96.647C241.97 96.8028 241.576 96.8807 241.078 96.8807C240.462 96.8807 239.908 96.7348 239.418 96.4432C238.931 96.1515 238.545 95.7273 238.26 95.1705C237.978 94.6136 237.837 93.9375 237.837 93.142C237.837 92.3598 237.975 91.6787 238.25 91.0987C238.525 90.5154 238.908 90.0646 239.398 89.7464C239.889 89.425 240.455 89.2642 241.098 89.2642C241.596 89.2642 241.99 89.3471 242.282 89.5128C242.577 89.6752 242.802 89.8608 242.958 90.0696C243.117 90.2751 243.239 90.4441 243.326 90.5767H243.445V89.3636H244.578V97.2188C244.578 97.875 244.429 98.4086 244.131 98.8196C243.836 99.2339 243.438 99.5372 242.938 99.7294C242.441 99.925 241.887 100.023 241.277 100.023ZM241.238 95.8267C241.708 95.8267 242.106 95.719 242.431 95.5036C242.756 95.2881 243.002 94.9782 243.172 94.5739C243.341 94.1695 243.425 93.6856 243.425 93.1222C243.425 92.572 243.342 92.0864 243.176 91.6655C243.011 91.2446 242.766 90.9148 242.441 90.6761C242.116 90.4375 241.715 90.3182 241.238 90.3182C240.74 90.3182 240.326 90.4441 239.995 90.696C239.667 90.9479 239.42 91.286 239.254 91.7102C239.092 92.1345 239.01 92.6051 239.01 93.1222C239.01 93.6525 239.093 94.1214 239.259 94.5291C239.428 94.9335 239.676 95.2517 240.005 95.4837C240.336 95.7124 240.747 95.8267 241.238 95.8267ZM246.726 97V89.3636H247.9V97H246.726ZM247.323 88.0909C247.094 88.0909 246.897 88.013 246.731 87.8572C246.569 87.7015 246.488 87.5142 246.488 87.2955C246.488 87.0767 246.569 86.8894 246.731 86.7337C246.897 86.5779 247.094 86.5 247.323 86.5C247.551 86.5 247.747 86.5779 247.909 86.7337C248.075 86.8894 248.158 87.0767 248.158 87.2955C248.158 87.5142 248.075 87.7015 247.909 87.8572C247.747 88.013 247.551 88.0909 247.323 88.0909ZM253.369 89.3636V90.358H249.412V89.3636H253.369ZM250.566 87.5341H251.739V94.8125C251.739 95.1439 251.787 95.3925 251.883 95.5582C251.982 95.7206 252.108 95.83 252.261 95.8864C252.417 95.9394 252.581 95.9659 252.753 95.9659C252.882 95.9659 252.988 95.9593 253.071 95.946C253.154 95.9295 253.22 95.9162 253.27 95.9062L253.509 96.9602C253.429 96.9901 253.318 97.0199 253.176 97.0497C253.033 97.0829 252.852 97.0994 252.634 97.0994C252.302 97.0994 251.977 97.0282 251.659 96.8857C251.344 96.7431 251.083 96.526 250.874 96.2344C250.668 95.9427 250.566 95.5748 250.566 95.1307V87.5341ZM257.382 97.179C256.898 97.179 256.459 97.0878 256.064 96.9055C255.67 96.7199 255.356 96.4531 255.124 96.1051C254.892 95.7538 254.776 95.3295 254.776 94.8324C254.776 94.3949 254.863 94.0402 255.035 93.7685C255.207 93.4934 255.438 93.2779 255.726 93.1222C256.014 92.9664 256.333 92.8504 256.681 92.7741C257.032 92.6946 257.385 92.6316 257.74 92.5852C258.204 92.5256 258.58 92.4808 258.868 92.451C259.16 92.4179 259.372 92.3632 259.504 92.2869C259.64 92.2107 259.708 92.0781 259.708 91.8892V91.8494C259.708 91.3589 259.574 90.9777 259.306 90.706C259.04 90.4342 258.638 90.2983 258.097 90.2983C257.537 90.2983 257.098 90.4209 256.78 90.6662C256.462 90.9115 256.238 91.1733 256.109 91.4517L254.995 91.054C255.194 90.59 255.459 90.2287 255.791 89.9702C256.125 89.7083 256.49 89.526 256.884 89.4233C257.282 89.3172 257.673 89.2642 258.058 89.2642C258.303 89.2642 258.585 89.294 258.903 89.3537C259.224 89.41 259.534 89.5277 259.833 89.7067C260.134 89.8857 260.384 90.1558 260.583 90.517C260.782 90.8783 260.882 91.3622 260.882 91.9688V97H259.708V95.9659H259.649C259.569 96.1316 259.436 96.3089 259.251 96.4979C259.065 96.6868 258.818 96.8475 258.51 96.9801C258.202 97.1127 257.826 97.179 257.382 97.179ZM257.561 96.125C258.025 96.125 258.416 96.0339 258.734 95.8516C259.055 95.6693 259.297 95.4339 259.46 95.1456C259.625 94.8572 259.708 94.554 259.708 94.2358V93.1619C259.659 93.2216 259.549 93.2763 259.38 93.326C259.214 93.3724 259.022 93.4138 258.803 93.4503C258.588 93.4834 258.378 93.5133 258.172 93.5398C257.97 93.563 257.806 93.5829 257.68 93.5994C257.375 93.6392 257.09 93.7038 256.825 93.7933C256.563 93.8795 256.351 94.0104 256.188 94.1861C256.029 94.3584 255.95 94.5937 255.95 94.892C255.95 95.2997 256.101 95.608 256.402 95.8168C256.707 96.0223 257.093 96.125 257.561 96.125ZM264.196 86.8182V97H263.023V86.8182H264.196ZM272.53 97.179C272.046 97.179 271.607 97.0878 271.213 96.9055C270.818 96.7199 270.505 96.4531 270.273 96.1051C270.041 95.7538 269.925 95.3295 269.925 94.8324C269.925 94.3949 270.011 94.0402 270.183 93.7685C270.356 93.4934 270.586 93.2779 270.874 93.1222C271.163 92.9664 271.481 92.8504 271.829 92.7741C272.18 92.6946 272.533 92.6316 272.888 92.5852C273.352 92.5256 273.728 92.4808 274.017 92.451C274.308 92.4179 274.52 92.3632 274.653 92.2869C274.789 92.2107 274.857 92.0781 274.857 91.8892V91.8494C274.857 91.3589 274.722 90.9777 274.454 90.706C274.189 90.4342 273.786 90.2983 273.246 90.2983C272.686 90.2983 272.247 90.4209 271.928 90.6662C271.61 90.9115 271.387 91.1733 271.257 91.4517L270.144 91.054C270.343 90.59 270.608 90.2287 270.939 89.9702C271.274 89.7083 271.638 89.526 272.033 89.4233C272.431 89.3172 272.822 89.2642 273.206 89.2642C273.451 89.2642 273.733 89.294 274.051 89.3537C274.373 89.41 274.683 89.5277 274.981 89.7067C275.283 89.8857 275.533 90.1558 275.732 90.517C275.931 90.8783 276.03 91.3622 276.03 91.9688V97H274.857V95.9659H274.797C274.718 96.1316 274.585 96.3089 274.399 96.4979C274.214 96.6868 273.967 96.8475 273.659 96.9801C273.35 97.1127 272.974 97.179 272.53 97.179ZM272.709 96.125C273.173 96.125 273.564 96.0339 273.882 95.8516C274.204 95.6693 274.446 95.4339 274.608 95.1456C274.774 94.8572 274.857 94.554 274.857 94.2358V93.1619C274.807 93.2216 274.698 93.2763 274.529 93.326C274.363 93.3724 274.171 93.4138 273.952 93.4503C273.736 93.4834 273.526 93.5133 273.32 93.5398C273.118 93.563 272.954 93.5829 272.828 93.5994C272.523 93.6392 272.238 93.7038 271.973 93.7933C271.711 93.8795 271.499 94.0104 271.337 94.1861C271.178 94.3584 271.098 94.5937 271.098 94.892C271.098 95.2997 271.249 95.608 271.551 95.8168C271.856 96.0223 272.242 96.125 272.709 96.125ZM283.581 91.0739L282.527 91.3722C282.46 91.1965 282.363 91.0258 282.233 90.8601C282.107 90.6911 281.935 90.5518 281.716 90.4425C281.498 90.3331 281.217 90.2784 280.876 90.2784C280.409 90.2784 280.019 90.3861 279.708 90.6016C279.4 90.8137 279.245 91.0838 279.245 91.4119C279.245 91.7036 279.351 91.9339 279.564 92.103C279.776 92.272 280.107 92.4129 280.558 92.5256L281.691 92.804C282.374 92.9697 282.883 93.2232 283.218 93.5646C283.552 93.9027 283.72 94.3385 283.72 94.8722C283.72 95.3097 283.594 95.7008 283.342 96.0455C283.093 96.3902 282.745 96.6619 282.298 96.8608C281.85 97.0597 281.33 97.1591 280.737 97.1591C279.958 97.1591 279.313 96.9901 278.803 96.652C278.292 96.3139 277.969 95.8201 277.833 95.1705L278.947 94.892C279.053 95.303 279.254 95.6113 279.549 95.8168C279.847 96.0223 280.236 96.125 280.717 96.125C281.264 96.125 281.698 96.009 282.02 95.777C282.344 95.5417 282.507 95.2599 282.507 94.9318C282.507 94.6667 282.414 94.4446 282.228 94.2656C282.043 94.0833 281.758 93.9474 281.373 93.858L280.1 93.5597C279.401 93.3939 278.887 93.1371 278.559 92.7891C278.234 92.4377 278.072 91.9986 278.072 91.4716C278.072 91.0407 278.193 90.6596 278.435 90.3281C278.68 89.9967 279.013 89.7365 279.434 89.5476C279.859 89.3587 280.339 89.2642 280.876 89.2642C281.632 89.2642 282.225 89.4299 282.656 89.7614C283.09 90.0928 283.398 90.5303 283.581 91.0739ZM290.895 91.0739L289.841 91.3722C289.775 91.1965 289.677 91.0258 289.548 90.8601C289.422 90.6911 289.249 90.5518 289.031 90.4425C288.812 90.3331 288.532 90.2784 288.191 90.2784C287.723 90.2784 287.334 90.3861 287.022 90.6016C286.714 90.8137 286.56 91.0838 286.56 91.4119C286.56 91.7036 286.666 91.9339 286.878 92.103C287.09 92.272 287.422 92.4129 287.872 92.5256L289.006 92.804C289.689 92.9697 290.197 93.2232 290.532 93.5646C290.867 93.9027 291.034 94.3385 291.034 94.8722C291.034 95.3097 290.908 95.7008 290.656 96.0455C290.408 96.3902 290.06 96.6619 289.612 96.8608C289.165 97.0597 288.645 97.1591 288.051 97.1591C287.272 97.1591 286.628 96.9901 286.117 96.652C285.607 96.3139 285.284 95.8201 285.148 95.1705L286.262 94.892C286.368 95.303 286.568 95.6113 286.863 95.8168C287.161 96.0223 287.551 96.125 288.031 96.125C288.578 96.125 289.012 96.009 289.334 95.777C289.659 95.5417 289.821 95.2599 289.821 94.9318C289.821 94.6667 289.728 94.4446 289.543 94.2656C289.357 94.0833 289.072 93.9474 288.688 93.858L287.415 93.5597C286.716 93.3939 286.202 93.1371 285.874 92.7891C285.549 92.4377 285.387 91.9986 285.387 91.4716C285.387 91.0407 285.508 90.6596 285.749 90.3281C285.995 89.9967 286.328 89.7365 286.749 89.5476C287.173 89.3587 287.654 89.2642 288.191 89.2642C288.946 89.2642 289.539 89.4299 289.97 89.7614C290.405 90.0928 290.713 90.5303 290.895 91.0739ZM296.002 97.1591C295.266 97.1591 294.632 96.9967 294.098 96.6719C293.568 96.3438 293.158 95.8864 292.87 95.2997C292.585 94.7098 292.442 94.0237 292.442 93.2415C292.442 92.4593 292.585 91.7699 292.87 91.1733C293.158 90.5734 293.559 90.1061 294.073 89.7713C294.59 89.4332 295.193 89.2642 295.883 89.2642C296.281 89.2642 296.673 89.3305 297.061 89.4631C297.449 89.5956 297.802 89.8111 298.12 90.1094C298.438 90.4044 298.692 90.7955 298.881 91.2827C299.07 91.7699 299.164 92.3698 299.164 93.0824V93.5795H293.278V92.5653H297.971C297.971 92.1345 297.885 91.75 297.712 91.4119C297.543 91.0739 297.301 90.8071 296.987 90.6115C296.675 90.416 296.307 90.3182 295.883 90.3182C295.415 90.3182 295.011 90.4342 294.67 90.6662C294.332 90.8949 294.071 91.1932 293.889 91.5611C293.707 91.929 293.616 92.3234 293.616 92.7443V93.4205C293.616 93.9972 293.715 94.486 293.914 94.8871C294.116 95.2848 294.396 95.5881 294.754 95.7969C295.112 96.0024 295.528 96.1051 296.002 96.1051C296.31 96.1051 296.589 96.062 296.837 95.9759C297.089 95.8864 297.306 95.7538 297.489 95.5781C297.671 95.3991 297.812 95.1771 297.911 94.9119L299.045 95.2301C298.925 95.6146 298.725 95.9527 298.443 96.2443C298.161 96.5327 297.813 96.758 297.399 96.9205C296.985 97.0795 296.519 97.1591 296.002 97.1591ZM304.27 89.3636V90.358H300.312V89.3636H304.27ZM301.466 87.5341H302.639V94.8125C302.639 95.1439 302.687 95.3925 302.783 95.5582C302.883 95.7206 303.009 95.83 303.161 95.8864C303.317 95.9394 303.481 95.9659 303.653 95.9659C303.783 95.9659 303.889 95.9593 303.972 95.946C304.054 95.9295 304.121 95.9162 304.17 95.9062L304.409 96.9602C304.33 96.9901 304.219 97.0199 304.076 97.0497C303.933 97.0829 303.753 97.0994 303.534 97.0994C303.203 97.0994 302.878 97.0282 302.56 96.8857C302.245 96.7431 301.983 96.526 301.774 96.2344C301.569 95.9427 301.466 95.5748 301.466 95.1307V87.5341ZM313.293 89.3636V90.358H309.336V89.3636H313.293ZM310.489 87.5341H311.663V94.8125C311.663 95.1439 311.711 95.3925 311.807 95.5582C311.906 95.7206 312.032 95.83 312.185 95.8864C312.34 95.9394 312.504 95.9659 312.677 95.9659C312.806 95.9659 312.912 95.9593 312.995 95.946C313.078 95.9295 313.144 95.9162 313.194 95.9062L313.433 96.9602C313.353 96.9901 313.242 97.0199 313.099 97.0497C312.957 97.0829 312.776 97.0994 312.558 97.0994C312.226 97.0994 311.901 97.0282 311.583 96.8857C311.268 96.7431 311.006 96.526 310.798 96.2344C310.592 95.9427 310.489 95.5748 310.489 95.1307V87.5341ZM315.058 97V89.3636H316.192V90.517H316.271C316.411 90.1392 316.662 89.8326 317.027 89.5973C317.392 89.362 317.803 89.2443 318.26 89.2443C318.346 89.2443 318.454 89.246 318.583 89.2493C318.712 89.2526 318.81 89.2576 318.876 89.2642V90.4574C318.837 90.4474 318.746 90.4325 318.603 90.4126C318.464 90.3894 318.316 90.3778 318.161 90.3778C317.789 90.3778 317.458 90.4557 317.166 90.6115C316.878 90.764 316.649 90.9761 316.48 91.2479C316.314 91.5163 316.232 91.8229 316.232 92.1676V97H315.058ZM322.514 97.179C322.03 97.179 321.591 97.0878 321.197 96.9055C320.802 96.7199 320.489 96.4531 320.257 96.1051C320.025 95.7538 319.909 95.3295 319.909 94.8324C319.909 94.3949 319.995 94.0402 320.168 93.7685C320.34 93.4934 320.57 93.2779 320.859 93.1222C321.147 92.9664 321.465 92.8504 321.813 92.7741C322.165 92.6946 322.518 92.6316 322.872 92.5852C323.336 92.5256 323.713 92.4808 324.001 92.451C324.293 92.4179 324.505 92.3632 324.637 92.2869C324.773 92.2107 324.841 92.0781 324.841 91.8892V91.8494C324.841 91.3589 324.707 90.9777 324.438 90.706C324.173 90.4342 323.771 90.2983 323.23 90.2983C322.67 90.2983 322.231 90.4209 321.913 90.6662C321.595 90.9115 321.371 91.1733 321.242 91.4517L320.128 91.054C320.327 90.59 320.592 90.2287 320.923 89.9702C321.258 89.7083 321.623 89.526 322.017 89.4233C322.415 89.3172 322.806 89.2642 323.191 89.2642C323.436 89.2642 323.718 89.294 324.036 89.3537C324.357 89.41 324.667 89.5277 324.965 89.7067C325.267 89.8857 325.517 90.1558 325.716 90.517C325.915 90.8783 326.014 91.3622 326.014 91.9688V97H324.841V95.9659H324.781C324.702 96.1316 324.569 96.3089 324.384 96.4979C324.198 96.6868 323.951 96.8475 323.643 96.9801C323.335 97.1127 322.959 97.179 322.514 97.179ZM322.693 96.125C323.157 96.125 323.548 96.0339 323.867 95.8516C324.188 95.6693 324.43 95.4339 324.593 95.1456C324.758 94.8572 324.841 94.554 324.841 94.2358V93.1619C324.791 93.2216 324.682 93.2763 324.513 93.326C324.347 93.3724 324.155 93.4138 323.936 93.4503C323.721 93.4834 323.51 93.5133 323.305 93.5398C323.103 93.563 322.939 93.5829 322.813 93.5994C322.508 93.6392 322.223 93.7038 321.958 93.7933C321.696 93.8795 321.484 94.0104 321.321 94.1861C321.162 94.3584 321.083 94.5937 321.083 94.892C321.083 95.2997 321.233 95.608 321.535 95.8168C321.84 96.0223 322.226 96.125 322.693 96.125ZM331.039 97.1591C330.403 97.1591 329.841 96.9983 329.354 96.6768C328.867 96.352 328.486 95.8946 328.211 95.3047C327.935 94.7114 327.798 94.0104 327.798 93.2017C327.798 92.3996 327.935 91.7036 328.211 91.1136C328.486 90.5237 328.868 90.0679 329.359 89.7464C329.85 89.425 330.416 89.2642 331.059 89.2642C331.556 89.2642 331.949 89.3471 332.238 89.5128C332.529 89.6752 332.751 89.8608 332.904 90.0696C333.06 90.2751 333.181 90.4441 333.267 90.5767H333.366V86.8182H334.539V97H333.406V95.8267H333.267C333.181 95.9659 333.058 96.1416 332.899 96.3537C332.74 96.5625 332.513 96.7498 332.218 96.9155C331.923 97.0779 331.53 97.1591 331.039 97.1591ZM331.199 96.1051C331.669 96.1051 332.067 95.9825 332.392 95.7372C332.717 95.4886 332.963 95.1456 333.132 94.7081C333.301 94.2673 333.386 93.7585 333.386 93.1818C333.386 92.6117 333.303 92.1129 333.137 91.6854C332.972 91.2545 332.726 90.9197 332.402 90.6811C332.077 90.4392 331.676 90.3182 331.199 90.3182C330.701 90.3182 330.287 90.4458 329.956 90.701C329.627 90.9529 329.381 91.2959 329.215 91.7301C329.052 92.161 328.971 92.6449 328.971 93.1818C328.971 93.7254 329.054 94.2192 329.22 94.6634C329.389 95.1042 329.637 95.4555 329.966 95.7173C330.297 95.9759 330.708 96.1051 331.199 96.1051ZM336.851 97V89.3636H338.025V97H336.851ZM337.448 88.0909C337.219 88.0909 337.022 88.013 336.856 87.8572C336.694 87.7015 336.613 87.5142 336.613 87.2955C336.613 87.0767 336.694 86.8894 336.856 86.7337C337.022 86.5779 337.219 86.5 337.448 86.5C337.676 86.5 337.872 86.5779 338.034 86.7337C338.2 86.8894 338.283 87.0767 338.283 87.2955C338.283 87.5142 338.2 87.7015 338.034 87.8572C337.872 88.013 337.676 88.0909 337.448 88.0909ZM341.347 92.4062V97H340.173V89.3636H341.307V90.5568H341.406C341.585 90.169 341.857 89.8575 342.222 89.6222C342.586 89.3835 343.057 89.2642 343.634 89.2642C344.151 89.2642 344.603 89.3703 344.991 89.5824C345.379 89.7912 345.68 90.1094 345.896 90.5369C346.111 90.9612 346.219 91.4981 346.219 92.1477V97H345.046V92.2273C345.046 91.6274 344.89 91.16 344.578 90.8253C344.267 90.4872 343.839 90.3182 343.296 90.3182C342.921 90.3182 342.586 90.3994 342.291 90.5618C342 90.7242 341.769 90.9612 341.6 91.2727C341.431 91.5843 341.347 91.9621 341.347 92.4062ZM351.445 100.023C350.879 100.023 350.391 99.9498 349.984 99.804C349.576 99.6615 349.236 99.4725 348.964 99.2372C348.696 99.0052 348.482 98.7566 348.323 98.4915L349.258 97.8352C349.364 97.9744 349.498 98.1335 349.661 98.3125C349.823 98.4948 350.045 98.6522 350.327 98.7848C350.612 98.9207 350.985 98.9886 351.445 98.9886C352.062 98.9886 352.571 98.8395 352.972 98.5412C353.373 98.2429 353.573 97.7756 353.573 97.1392V95.5881H353.474C353.388 95.7273 353.265 95.8996 353.106 96.1051C352.95 96.3073 352.725 96.4879 352.43 96.647C352.138 96.8028 351.744 96.8807 351.246 96.8807C350.63 96.8807 350.076 96.7348 349.586 96.4432C349.099 96.1515 348.713 95.7273 348.428 95.1705C348.146 94.6136 348.005 93.9375 348.005 93.142C348.005 92.3598 348.143 91.6787 348.418 91.0987C348.693 90.5154 349.076 90.0646 349.566 89.7464C350.057 89.425 350.623 89.2642 351.266 89.2642C351.763 89.2642 352.158 89.3471 352.45 89.5128C352.745 89.6752 352.97 89.8608 353.126 90.0696C353.285 90.2751 353.407 90.4441 353.494 90.5767H353.613V89.3636H354.746V97.2188C354.746 97.875 354.597 98.4086 354.299 98.8196C354.004 99.2339 353.606 99.5372 353.106 99.7294C352.609 99.925 352.055 100.023 351.445 100.023ZM351.406 95.8267C351.876 95.8267 352.274 95.719 352.599 95.5036C352.924 95.2881 353.17 94.9782 353.339 94.5739C353.509 94.1695 353.593 93.6856 353.593 93.1222C353.593 92.572 353.51 92.0864 353.344 91.6655C353.179 91.2446 352.933 90.9148 352.609 90.6761C352.284 90.4375 351.883 90.3182 351.406 90.3182C350.908 90.3182 350.494 90.4441 350.163 90.696C349.835 90.9479 349.588 91.286 349.422 91.7102C349.259 92.1345 349.178 92.6051 349.178 93.1222C349.178 93.6525 349.261 94.1214 349.427 94.5291C349.596 94.9335 349.844 95.2517 350.173 95.4837C350.504 95.7124 350.915 95.8267 351.406 95.8267ZM363.715 97.1392C363.046 97.1392 362.469 97.0166 361.985 96.7713C361.501 96.526 361.128 96.1896 360.866 95.7621C360.605 95.3345 360.474 94.8456 360.474 94.2955C360.474 93.8712 360.563 93.495 360.742 93.1669C360.924 92.8355 361.175 92.5289 361.493 92.2472C361.814 91.9621 362.184 91.6771 362.602 91.392L364.073 90.2983C364.362 90.1094 364.592 89.9072 364.764 89.6918C364.94 89.4763 365.028 89.1946 365.028 88.8466C365.028 88.5881 364.913 88.3378 364.685 88.0959C364.459 87.8539 364.163 87.733 363.795 87.733C363.536 87.733 363.308 87.7992 363.109 87.9318C362.913 88.0611 362.759 88.2268 362.646 88.429C362.537 88.6278 362.482 88.8333 362.482 89.0455C362.482 89.2841 362.547 89.526 362.676 89.7713C362.809 90.0133 362.976 90.2618 363.178 90.517C363.384 90.7689 363.596 91.0275 363.815 91.2926L368.488 97H367.076L363.218 92.3466C362.86 91.9157 362.535 91.5246 362.244 91.1733C361.952 90.822 361.72 90.4756 361.548 90.1342C361.375 89.7929 361.289 89.4233 361.289 89.0256C361.289 88.5682 361.39 88.1671 361.592 87.8224C361.798 87.4744 362.085 87.2043 362.452 87.0121C362.824 86.8165 363.258 86.7188 363.755 86.7188C364.265 86.7188 364.705 86.8182 365.072 87.017C365.44 87.2126 365.724 87.4728 365.923 87.7976C366.121 88.1191 366.221 88.4688 366.221 88.8466C366.221 89.3338 366.1 89.7564 365.858 90.1143C365.616 90.4723 365.286 90.8054 364.869 91.1136L362.84 92.625C362.383 92.9631 362.073 93.2912 361.911 93.6094C361.748 93.9276 361.667 94.1562 361.667 94.2955C361.667 94.6136 361.75 94.9103 361.915 95.1854C362.081 95.4605 362.315 95.6825 362.616 95.8516C362.918 96.0206 363.271 96.1051 363.675 96.1051C364.06 96.1051 364.434 96.0239 364.799 95.8615C365.164 95.6958 365.493 95.4571 365.788 95.1456C366.087 94.834 366.322 94.4595 366.494 94.022C366.67 93.5845 366.758 93.0923 366.758 92.5455H367.891C367.891 93.2216 367.813 93.7734 367.658 94.201C367.502 94.6286 367.326 94.9633 367.131 95.2053C366.935 95.4472 366.778 95.6278 366.658 95.7472C366.619 95.7969 366.582 95.8466 366.549 95.8963C366.516 95.946 366.479 95.9957 366.44 96.0455C366.112 96.4134 365.697 96.6884 365.197 96.8707C364.696 97.0497 364.202 97.1392 363.715 97.1392ZM97.0739 117V109.364H98.2074V110.557H98.3068C98.4659 110.149 98.7228 109.833 99.0774 109.607C99.4321 109.379 99.858 109.264 100.355 109.264C100.859 109.264 101.278 109.379 101.613 109.607C101.951 109.833 102.214 110.149 102.403 110.557H102.483C102.679 110.162 102.972 109.849 103.363 109.617C103.754 109.382 104.223 109.264 104.77 109.264C105.453 109.264 106.011 109.478 106.445 109.906C106.879 110.33 107.097 110.991 107.097 111.889V117H105.923V111.889C105.923 111.326 105.769 110.923 105.461 110.681C105.153 110.439 104.79 110.318 104.372 110.318C103.835 110.318 103.419 110.481 103.124 110.805C102.829 111.127 102.682 111.535 102.682 112.028V117H101.489V111.77C101.489 111.336 101.348 110.986 101.066 110.721C100.784 110.452 100.421 110.318 99.9773 110.318C99.6723 110.318 99.3873 110.399 99.1222 110.562C98.8603 110.724 98.6482 110.95 98.4858 111.238C98.3267 111.523 98.2472 111.853 98.2472 112.227V117H97.0739ZM111.489 117.179C111.005 117.179 110.566 117.088 110.172 116.906C109.777 116.72 109.464 116.453 109.232 116.105C109 115.754 108.884 115.33 108.884 114.832C108.884 114.395 108.97 114.04 109.142 113.768C109.315 113.493 109.545 113.278 109.833 113.122C110.122 112.966 110.44 112.85 110.788 112.774C111.139 112.695 111.492 112.632 111.847 112.585C112.311 112.526 112.687 112.481 112.975 112.451C113.267 112.418 113.479 112.363 113.612 112.287C113.748 112.211 113.816 112.078 113.816 111.889V111.849C113.816 111.359 113.681 110.978 113.413 110.706C113.148 110.434 112.745 110.298 112.205 110.298C111.645 110.298 111.206 110.421 110.887 110.666C110.569 110.911 110.346 111.173 110.216 111.452L109.103 111.054C109.301 110.59 109.567 110.229 109.898 109.97C110.233 109.708 110.597 109.526 110.992 109.423C111.39 109.317 111.781 109.264 112.165 109.264C112.41 109.264 112.692 109.294 113.01 109.354C113.332 109.41 113.642 109.528 113.94 109.707C114.242 109.886 114.492 110.156 114.691 110.517C114.89 110.878 114.989 111.362 114.989 111.969V117H113.816V115.966H113.756C113.676 116.132 113.544 116.309 113.358 116.498C113.173 116.687 112.926 116.848 112.618 116.98C112.309 117.113 111.933 117.179 111.489 117.179ZM111.668 116.125C112.132 116.125 112.523 116.034 112.841 115.852C113.163 115.669 113.405 115.434 113.567 115.146C113.733 114.857 113.816 114.554 113.816 114.236V113.162C113.766 113.222 113.657 113.276 113.488 113.326C113.322 113.372 113.13 113.414 112.911 113.45C112.695 113.483 112.485 113.513 112.279 113.54C112.077 113.563 111.913 113.583 111.787 113.599C111.482 113.639 111.197 113.704 110.932 113.793C110.67 113.879 110.458 114.01 110.296 114.186C110.137 114.358 110.057 114.594 110.057 114.892C110.057 115.3 110.208 115.608 110.51 115.817C110.815 116.022 111.201 116.125 111.668 116.125ZM118.304 112.406V117H117.131V109.364H118.264V110.557H118.363C118.542 110.169 118.814 109.857 119.179 109.622C119.543 109.384 120.014 109.264 120.591 109.264C121.108 109.264 121.56 109.37 121.948 109.582C122.336 109.791 122.637 110.109 122.853 110.537C123.068 110.961 123.176 111.498 123.176 112.148V117H122.003V112.227C122.003 111.627 121.847 111.16 121.535 110.825C121.224 110.487 120.796 110.318 120.253 110.318C119.878 110.318 119.543 110.399 119.248 110.562C118.957 110.724 118.726 110.961 118.557 111.273C118.388 111.584 118.304 111.962 118.304 112.406ZM127.567 117.179C127.083 117.179 126.644 117.088 126.25 116.906C125.855 116.72 125.542 116.453 125.31 116.105C125.078 115.754 124.962 115.33 124.962 114.832C124.962 114.395 125.048 114.04 125.221 113.768C125.393 113.493 125.623 113.278 125.912 113.122C126.2 112.966 126.518 112.85 126.866 112.774C127.217 112.695 127.57 112.632 127.925 112.585C128.389 112.526 128.765 112.481 129.054 112.451C129.345 112.418 129.557 112.363 129.69 112.287C129.826 112.211 129.894 112.078 129.894 111.889V111.849C129.894 111.359 129.76 110.978 129.491 110.706C129.226 110.434 128.823 110.298 128.283 110.298C127.723 110.298 127.284 110.421 126.966 110.666C126.647 110.911 126.424 111.173 126.294 111.452L125.181 111.054C125.38 110.59 125.645 110.229 125.976 109.97C126.311 109.708 126.676 109.526 127.07 109.423C127.468 109.317 127.859 109.264 128.243 109.264C128.489 109.264 128.77 109.294 129.088 109.354C129.41 109.41 129.72 109.528 130.018 109.707C130.32 109.886 130.57 110.156 130.769 110.517C130.968 110.878 131.067 111.362 131.067 111.969V117H129.894V115.966H129.834C129.755 116.132 129.622 116.309 129.436 116.498C129.251 116.687 129.004 116.848 128.696 116.98C128.387 117.113 128.011 117.179 127.567 117.179ZM127.746 116.125C128.21 116.125 128.601 116.034 128.919 115.852C129.241 115.669 129.483 115.434 129.645 115.146C129.811 114.857 129.894 114.554 129.894 114.236V113.162C129.844 113.222 129.735 113.276 129.566 113.326C129.4 113.372 129.208 113.414 128.989 113.45C128.774 113.483 128.563 113.513 128.358 113.54C128.155 113.563 127.991 113.583 127.865 113.599C127.56 113.639 127.275 113.704 127.01 113.793C126.748 113.879 126.536 114.01 126.374 114.186C126.215 114.358 126.135 114.594 126.135 114.892C126.135 115.3 126.286 115.608 126.588 115.817C126.893 116.022 127.279 116.125 127.746 116.125ZM136.291 120.023C135.724 120.023 135.237 119.95 134.829 119.804C134.422 119.661 134.082 119.473 133.81 119.237C133.542 119.005 133.328 118.757 133.169 118.491L134.104 117.835C134.21 117.974 134.344 118.134 134.506 118.312C134.669 118.495 134.891 118.652 135.172 118.785C135.457 118.921 135.83 118.989 136.291 118.989C136.907 118.989 137.416 118.839 137.817 118.541C138.218 118.243 138.419 117.776 138.419 117.139V115.588H138.319C138.233 115.727 138.111 115.9 137.952 116.105C137.796 116.307 137.57 116.488 137.275 116.647C136.984 116.803 136.589 116.881 136.092 116.881C135.476 116.881 134.922 116.735 134.432 116.443C133.944 116.152 133.558 115.727 133.273 115.17C132.992 114.614 132.851 113.937 132.851 113.142C132.851 112.36 132.988 111.679 133.263 111.099C133.538 110.515 133.921 110.065 134.412 109.746C134.902 109.425 135.469 109.264 136.112 109.264C136.609 109.264 137.004 109.347 137.295 109.513C137.59 109.675 137.816 109.861 137.971 110.07C138.131 110.275 138.253 110.444 138.339 110.577H138.459V109.364H139.592V117.219C139.592 117.875 139.443 118.409 139.145 118.82C138.85 119.234 138.452 119.537 137.952 119.729C137.454 119.925 136.901 120.023 136.291 120.023ZM136.251 115.827C136.722 115.827 137.12 115.719 137.444 115.504C137.769 115.288 138.016 114.978 138.185 114.574C138.354 114.17 138.439 113.686 138.439 113.122C138.439 112.572 138.356 112.086 138.19 111.665C138.024 111.245 137.779 110.915 137.454 110.676C137.13 110.437 136.729 110.318 136.251 110.318C135.754 110.318 135.34 110.444 135.008 110.696C134.68 110.948 134.433 111.286 134.268 111.71C134.105 112.134 134.024 112.605 134.024 113.122C134.024 113.652 134.107 114.121 134.273 114.529C134.442 114.933 134.69 115.252 135.018 115.484C135.35 115.712 135.761 115.827 136.251 115.827ZM144.942 117.159C144.206 117.159 143.571 116.997 143.037 116.672C142.507 116.344 142.098 115.886 141.809 115.3C141.524 114.71 141.382 114.024 141.382 113.241C141.382 112.459 141.524 111.77 141.809 111.173C142.098 110.573 142.499 110.106 143.013 109.771C143.53 109.433 144.133 109.264 144.822 109.264C145.22 109.264 145.613 109.33 146.001 109.463C146.388 109.596 146.741 109.811 147.059 110.109C147.378 110.404 147.631 110.795 147.82 111.283C148.009 111.77 148.104 112.37 148.104 113.082V113.58H142.217V112.565H146.91C146.91 112.134 146.824 111.75 146.652 111.412C146.483 111.074 146.241 110.807 145.926 110.612C145.614 110.416 145.247 110.318 144.822 110.318C144.355 110.318 143.951 110.434 143.609 110.666C143.271 110.895 143.011 111.193 142.829 111.561C142.646 111.929 142.555 112.323 142.555 112.744V113.42C142.555 113.997 142.655 114.486 142.854 114.887C143.056 115.285 143.336 115.588 143.694 115.797C144.052 116.002 144.468 116.105 144.942 116.105C145.25 116.105 145.528 116.062 145.777 115.976C146.029 115.886 146.246 115.754 146.428 115.578C146.61 115.399 146.751 115.177 146.851 114.912L147.984 115.23C147.865 115.615 147.664 115.953 147.383 116.244C147.101 116.533 146.753 116.758 146.339 116.92C145.924 117.08 145.459 117.159 144.942 117.159ZM149.888 117V109.364H151.022V110.557H151.121C151.28 110.149 151.537 109.833 151.892 109.607C152.247 109.379 152.672 109.264 153.17 109.264C153.673 109.264 154.093 109.379 154.427 109.607C154.765 109.833 155.029 110.149 155.218 110.557H155.297C155.493 110.162 155.786 109.849 156.177 109.617C156.568 109.382 157.037 109.264 157.584 109.264C158.267 109.264 158.826 109.478 159.26 109.906C159.694 110.33 159.911 110.991 159.911 111.889V117H158.738V111.889C158.738 111.326 158.584 110.923 158.275 110.681C157.967 110.439 157.604 110.318 157.187 110.318C156.65 110.318 156.234 110.481 155.939 110.805C155.644 111.127 155.496 111.535 155.496 112.028V117H154.303V111.77C154.303 111.336 154.162 110.986 153.881 110.721C153.599 110.452 153.236 110.318 152.792 110.318C152.487 110.318 152.202 110.399 151.937 110.562C151.675 110.724 151.463 110.95 151.3 111.238C151.141 111.523 151.062 111.853 151.062 112.227V117H149.888ZM165.258 117.159C164.522 117.159 163.887 116.997 163.354 116.672C162.824 116.344 162.414 115.886 162.126 115.3C161.841 114.71 161.698 114.024 161.698 113.241C161.698 112.459 161.841 111.77 162.126 111.173C162.414 110.573 162.815 110.106 163.329 109.771C163.846 109.433 164.449 109.264 165.139 109.264C165.536 109.264 165.929 109.33 166.317 109.463C166.705 109.596 167.058 109.811 167.376 110.109C167.694 110.404 167.948 110.795 168.137 111.283C168.325 111.77 168.42 112.37 168.42 113.082V113.58H162.534V112.565H167.227C167.227 112.134 167.141 111.75 166.968 111.412C166.799 111.074 166.557 110.807 166.242 110.612C165.931 110.416 165.563 110.318 165.139 110.318C164.671 110.318 164.267 110.434 163.926 110.666C163.588 110.895 163.327 111.193 163.145 111.561C162.963 111.929 162.872 112.323 162.872 112.744V113.42C162.872 113.997 162.971 114.486 163.17 114.887C163.372 115.285 163.652 115.588 164.01 115.797C164.368 116.002 164.784 116.105 165.258 116.105C165.566 116.105 165.845 116.062 166.093 115.976C166.345 115.886 166.562 115.754 166.744 115.578C166.927 115.399 167.068 115.177 167.167 114.912L168.301 115.23C168.181 115.615 167.981 115.953 167.699 116.244C167.417 116.533 167.069 116.758 166.655 116.92C166.241 117.08 165.775 117.159 165.258 117.159ZM171.378 112.406V117H170.205V109.364H171.338V110.557H171.438C171.617 110.169 171.888 109.857 172.253 109.622C172.618 109.384 173.088 109.264 173.665 109.264C174.182 109.264 174.634 109.37 175.022 109.582C175.41 109.791 175.712 110.109 175.927 110.537C176.142 110.961 176.25 111.498 176.25 112.148V117H175.077V112.227C175.077 111.627 174.921 111.16 174.61 110.825C174.298 110.487 173.87 110.318 173.327 110.318C172.952 110.318 172.618 110.399 172.323 110.562C172.031 110.724 171.801 110.961 171.632 111.273C171.463 111.584 171.378 111.962 171.378 112.406ZM181.715 109.364V110.358H177.758V109.364H181.715ZM178.911 107.534H180.085V114.812C180.085 115.144 180.133 115.393 180.229 115.558C180.328 115.721 180.454 115.83 180.607 115.886C180.762 115.939 180.926 115.966 181.099 115.966C181.228 115.966 181.334 115.959 181.417 115.946C181.5 115.929 181.566 115.916 181.616 115.906L181.854 116.96C181.775 116.99 181.664 117.02 181.521 117.05C181.379 117.083 181.198 117.099 180.979 117.099C180.648 117.099 180.323 117.028 180.005 116.886C179.69 116.743 179.428 116.526 179.219 116.234C179.014 115.943 178.911 115.575 178.911 115.131V107.534ZM190.739 109.364V110.358H186.781V109.364H190.739ZM187.935 107.534H189.108V114.812C189.108 115.144 189.156 115.393 189.252 115.558C189.352 115.721 189.478 115.83 189.63 115.886C189.786 115.939 189.95 115.966 190.122 115.966C190.251 115.966 190.357 115.959 190.44 115.946C190.523 115.929 190.589 115.916 190.639 115.906L190.878 116.96C190.798 116.99 190.687 117.02 190.545 117.05C190.402 117.083 190.222 117.099 190.003 117.099C189.671 117.099 189.347 117.028 189.028 116.886C188.714 116.743 188.452 116.526 188.243 116.234C188.037 115.943 187.935 115.575 187.935 115.131V107.534ZM195.524 117.159C194.834 117.159 194.23 116.995 193.709 116.667C193.192 116.339 192.788 115.88 192.496 115.29C192.208 114.7 192.064 114.01 192.064 113.222C192.064 112.426 192.208 111.732 192.496 111.138C192.788 110.545 193.192 110.085 193.709 109.756C194.23 109.428 194.834 109.264 195.524 109.264C196.213 109.264 196.816 109.428 197.333 109.756C197.854 110.085 198.258 110.545 198.547 111.138C198.838 111.732 198.984 112.426 198.984 113.222C198.984 114.01 198.838 114.7 198.547 115.29C198.258 115.88 197.854 116.339 197.333 116.667C196.816 116.995 196.213 117.159 195.524 117.159ZM195.524 116.105C196.047 116.105 196.478 115.971 196.816 115.702C197.154 115.434 197.405 115.081 197.567 114.643C197.73 114.206 197.811 113.732 197.811 113.222C197.811 112.711 197.73 112.236 197.567 111.795C197.405 111.354 197.154 110.998 196.816 110.726C196.478 110.454 196.047 110.318 195.524 110.318C195 110.318 194.569 110.454 194.231 110.726C193.893 110.998 193.643 111.354 193.48 111.795C193.318 112.236 193.237 112.711 193.237 113.222C193.237 113.732 193.318 114.206 193.48 114.643C193.643 115.081 193.893 115.434 194.231 115.702C194.569 115.971 195 116.105 195.524 116.105ZM204.713 117V109.364H205.886V117H204.713ZM205.309 108.091C205.08 108.091 204.883 108.013 204.718 107.857C204.555 107.701 204.474 107.514 204.474 107.295C204.474 107.077 204.555 106.889 204.718 106.734C204.883 106.578 205.08 106.5 205.309 106.5C205.538 106.5 205.733 106.578 205.896 106.734C206.061 106.889 206.144 107.077 206.144 107.295C206.144 107.514 206.061 107.701 205.896 107.857C205.733 108.013 205.538 108.091 205.309 108.091ZM211.356 109.364V110.358H207.398V109.364H211.356ZM208.552 107.534H209.725V114.812C209.725 115.144 209.773 115.393 209.869 115.558C209.969 115.721 210.095 115.83 210.247 115.886C210.403 115.939 210.567 115.966 210.739 115.966C210.869 115.966 210.975 115.959 211.058 115.946C211.14 115.929 211.207 115.916 211.256 115.906L211.495 116.96C211.415 116.99 211.304 117.02 211.162 117.05C211.019 117.083 210.839 117.099 210.62 117.099C210.289 117.099 209.964 117.028 209.646 116.886C209.331 116.743 209.069 116.526 208.86 116.234C208.655 115.943 208.552 115.575 208.552 115.131V107.534ZM218.393 111.074L217.339 111.372C217.273 111.196 217.175 111.026 217.046 110.86C216.92 110.691 216.748 110.552 216.529 110.442C216.31 110.333 216.03 110.278 215.689 110.278C215.221 110.278 214.832 110.386 214.52 110.602C214.212 110.814 214.058 111.084 214.058 111.412C214.058 111.704 214.164 111.934 214.376 112.103C214.588 112.272 214.92 112.413 215.37 112.526L216.504 112.804C217.187 112.97 217.695 113.223 218.03 113.565C218.365 113.903 218.532 114.339 218.532 114.872C218.532 115.31 218.406 115.701 218.154 116.045C217.906 116.39 217.558 116.662 217.11 116.861C216.663 117.06 216.143 117.159 215.549 117.159C214.77 117.159 214.126 116.99 213.615 116.652C213.105 116.314 212.782 115.82 212.646 115.17L213.76 114.892C213.866 115.303 214.066 115.611 214.361 115.817C214.659 116.022 215.049 116.125 215.529 116.125C216.076 116.125 216.511 116.009 216.832 115.777C217.157 115.542 217.319 115.26 217.319 114.932C217.319 114.667 217.226 114.445 217.041 114.266C216.855 114.083 216.57 113.947 216.186 113.858L214.913 113.56C214.214 113.394 213.7 113.137 213.372 112.789C213.047 112.438 212.885 111.999 212.885 111.472C212.885 111.041 213.006 110.66 213.248 110.328C213.493 109.997 213.826 109.737 214.247 109.548C214.671 109.359 215.152 109.264 215.689 109.264C216.444 109.264 217.038 109.43 217.468 109.761C217.903 110.093 218.211 110.53 218.393 111.074ZM224.236 119.864V109.364H225.369V110.577H225.509C225.595 110.444 225.714 110.275 225.867 110.07C226.022 109.861 226.244 109.675 226.533 109.513C226.825 109.347 227.219 109.264 227.716 109.264C228.359 109.264 228.926 109.425 229.416 109.746C229.907 110.068 230.29 110.524 230.565 111.114C230.84 111.704 230.977 112.4 230.977 113.202C230.977 114.01 230.84 114.711 230.565 115.305C230.29 115.895 229.909 116.352 229.421 116.677C228.934 116.998 228.372 117.159 227.736 117.159C227.245 117.159 226.853 117.078 226.558 116.915C226.263 116.75 226.036 116.562 225.877 116.354C225.718 116.142 225.595 115.966 225.509 115.827H225.409V119.864H224.236ZM225.389 113.182C225.389 113.759 225.474 114.267 225.643 114.708C225.812 115.146 226.059 115.489 226.384 115.737C226.709 115.982 227.106 116.105 227.577 116.105C228.067 116.105 228.477 115.976 228.805 115.717C229.136 115.455 229.385 115.104 229.551 114.663C229.72 114.219 229.804 113.725 229.804 113.182C229.804 112.645 229.721 112.161 229.556 111.73C229.393 111.296 229.146 110.953 228.815 110.701C228.487 110.446 228.074 110.318 227.577 110.318C227.1 110.318 226.699 110.439 226.374 110.681C226.049 110.92 225.804 111.254 225.638 111.685C225.472 112.113 225.389 112.612 225.389 113.182ZM233.941 106.818V117H232.767V106.818H233.941ZM238.337 117.179C237.853 117.179 237.414 117.088 237.019 116.906C236.625 116.72 236.312 116.453 236.08 116.105C235.848 115.754 235.732 115.33 235.732 114.832C235.732 114.395 235.818 114.04 235.99 113.768C236.162 113.493 236.393 113.278 236.681 113.122C236.969 112.966 237.288 112.85 237.636 112.774C237.987 112.695 238.34 112.632 238.695 112.585C239.159 112.526 239.535 112.481 239.823 112.451C240.115 112.418 240.327 112.363 240.46 112.287C240.595 112.211 240.663 112.078 240.663 111.889V111.849C240.663 111.359 240.529 110.978 240.261 110.706C239.996 110.434 239.593 110.298 239.053 110.298C238.492 110.298 238.053 110.421 237.735 110.666C237.417 110.911 237.193 111.173 237.064 111.452L235.95 111.054C236.149 110.59 236.414 110.229 236.746 109.97C237.08 109.708 237.445 109.526 237.839 109.423C238.237 109.317 238.628 109.264 239.013 109.264C239.258 109.264 239.54 109.294 239.858 109.354C240.179 109.41 240.489 109.528 240.788 109.707C241.089 109.886 241.339 110.156 241.538 110.517C241.737 110.878 241.837 111.362 241.837 111.969V117H240.663V115.966H240.604C240.524 116.132 240.392 116.309 240.206 116.498C240.02 116.687 239.773 116.848 239.465 116.98C239.157 117.113 238.781 117.179 238.337 117.179ZM238.516 116.125C238.98 116.125 239.371 116.034 239.689 115.852C240.01 115.669 240.252 115.434 240.415 115.146C240.58 114.857 240.663 114.554 240.663 114.236V113.162C240.614 113.222 240.504 113.276 240.335 113.326C240.17 113.372 239.977 113.414 239.759 113.45C239.543 113.483 239.333 113.513 239.127 113.54C238.925 113.563 238.761 113.583 238.635 113.599C238.33 113.639 238.045 113.704 237.78 113.793C237.518 113.879 237.306 114.01 237.143 114.186C236.984 114.358 236.905 114.594 236.905 114.892C236.905 115.3 237.056 115.608 237.357 115.817C237.662 116.022 238.048 116.125 238.516 116.125ZM247.299 109.364V110.358H243.342V109.364H247.299ZM244.495 107.534H245.669V114.812C245.669 115.144 245.717 115.393 245.813 115.558C245.912 115.721 246.038 115.83 246.191 115.886C246.346 115.939 246.51 115.966 246.683 115.966C246.812 115.966 246.918 115.959 247.001 115.946C247.084 115.929 247.15 115.916 247.2 115.906L247.438 116.96C247.359 116.99 247.248 117.02 247.105 117.05C246.963 117.083 246.782 117.099 246.563 117.099C246.232 117.099 245.907 117.028 245.589 116.886C245.274 116.743 245.012 116.526 244.803 116.234C244.598 115.943 244.495 115.575 244.495 115.131V107.534ZM252.465 109.364V110.358H248.348V109.364H252.465ZM249.581 117V108.31C249.581 107.872 249.684 107.508 249.889 107.216C250.095 106.924 250.362 106.705 250.69 106.56C251.018 106.414 251.364 106.341 251.729 106.341C252.017 106.341 252.253 106.364 252.435 106.411C252.617 106.457 252.753 106.5 252.843 106.54L252.504 107.554C252.445 107.534 252.362 107.509 252.256 107.479C252.153 107.45 252.017 107.435 251.848 107.435C251.46 107.435 251.18 107.532 251.008 107.728C250.839 107.924 250.754 108.21 250.754 108.588V117H249.581ZM256.897 117.159C256.207 117.159 255.603 116.995 255.082 116.667C254.565 116.339 254.161 115.88 253.869 115.29C253.581 114.7 253.437 114.01 253.437 113.222C253.437 112.426 253.581 111.732 253.869 111.138C254.161 110.545 254.565 110.085 255.082 109.756C255.603 109.428 256.207 109.264 256.897 109.264C257.586 109.264 258.189 109.428 258.706 109.756C259.227 110.085 259.631 110.545 259.92 111.138C260.211 111.732 260.357 112.426 260.357 113.222C260.357 114.01 260.211 114.7 259.92 115.29C259.631 115.88 259.227 116.339 258.706 116.667C258.189 116.995 257.586 117.159 256.897 117.159ZM256.897 116.105C257.421 116.105 257.851 115.971 258.189 115.702C258.528 115.434 258.778 115.081 258.94 114.643C259.103 114.206 259.184 113.732 259.184 113.222C259.184 112.711 259.103 112.236 258.94 111.795C258.778 111.354 258.528 110.998 258.189 110.726C257.851 110.454 257.421 110.318 256.897 110.318C256.373 110.318 255.942 110.454 255.604 110.726C255.266 110.998 255.016 111.354 254.854 111.795C254.691 112.236 254.61 112.711 254.61 113.222C254.61 113.732 254.691 114.206 254.854 114.643C255.016 115.081 255.266 115.434 255.604 115.702C255.942 115.971 256.373 116.105 256.897 116.105ZM262.148 117V109.364H263.282V110.517H263.361C263.5 110.139 263.752 109.833 264.117 109.597C264.481 109.362 264.892 109.244 265.35 109.244C265.436 109.244 265.544 109.246 265.673 109.249C265.802 109.253 265.9 109.258 265.966 109.264V110.457C265.926 110.447 265.835 110.433 265.693 110.413C265.554 110.389 265.406 110.378 265.25 110.378C264.879 110.378 264.548 110.456 264.256 110.612C263.968 110.764 263.739 110.976 263.57 111.248C263.404 111.516 263.321 111.823 263.321 112.168V117H262.148ZM267.357 117V109.364H268.491V110.557H268.59C268.749 110.149 269.006 109.833 269.361 109.607C269.715 109.379 270.141 109.264 270.638 109.264C271.142 109.264 271.561 109.379 271.896 109.607C272.234 109.833 272.498 110.149 272.687 110.557H272.766C272.962 110.162 273.255 109.849 273.646 109.617C274.037 109.382 274.506 109.264 275.053 109.264C275.736 109.264 276.294 109.478 276.729 109.906C277.163 110.33 277.38 110.991 277.38 111.889V117H276.206V111.889C276.206 111.326 276.052 110.923 275.744 110.681C275.436 110.439 275.073 110.318 274.655 110.318C274.118 110.318 273.702 110.481 273.407 110.805C273.113 111.127 272.965 111.535 272.965 112.028V117H271.772V111.77C271.772 111.336 271.631 110.986 271.349 110.721C271.068 110.452 270.705 110.318 270.26 110.318C269.956 110.318 269.671 110.399 269.405 110.562C269.144 110.724 268.931 110.95 268.769 111.238C268.61 111.523 268.53 111.853 268.53 112.227V117H267.357ZM288.275 113.878V109.364H289.448V117H288.275V115.707H288.195C288.017 116.095 287.738 116.425 287.36 116.697C286.982 116.965 286.505 117.099 285.928 117.099C285.451 117.099 285.027 116.995 284.656 116.786C284.285 116.574 283.993 116.256 283.781 115.832C283.569 115.404 283.463 114.866 283.463 114.216V109.364H284.636V114.136C284.636 114.693 284.792 115.137 285.103 115.469C285.418 115.8 285.819 115.966 286.306 115.966C286.598 115.966 286.895 115.891 287.196 115.742C287.501 115.593 287.756 115.364 287.962 115.056C288.171 114.748 288.275 114.355 288.275 113.878ZM297.006 111.074L295.952 111.372C295.886 111.196 295.788 111.026 295.659 110.86C295.533 110.691 295.361 110.552 295.142 110.442C294.923 110.333 294.643 110.278 294.302 110.278C293.835 110.278 293.445 110.386 293.134 110.602C292.825 110.814 292.671 111.084 292.671 111.412C292.671 111.704 292.777 111.934 292.989 112.103C293.201 112.272 293.533 112.413 293.984 112.526L295.117 112.804C295.8 112.97 296.309 113.223 296.643 113.565C296.978 113.903 297.146 114.339 297.146 114.872C297.146 115.31 297.02 115.701 296.768 116.045C296.519 116.39 296.171 116.662 295.724 116.861C295.276 117.06 294.756 117.159 294.163 117.159C293.384 117.159 292.739 116.99 292.229 116.652C291.718 116.314 291.395 115.82 291.259 115.17L292.373 114.892C292.479 115.303 292.679 115.611 292.974 115.817C293.273 116.022 293.662 116.125 294.143 116.125C294.69 116.125 295.124 116.009 295.445 115.777C295.77 115.542 295.933 115.26 295.933 114.932C295.933 114.667 295.84 114.445 295.654 114.266C295.469 114.083 295.183 113.947 294.799 113.858L293.526 113.56C292.827 113.394 292.313 113.137 291.985 112.789C291.66 112.438 291.498 111.999 291.498 111.472C291.498 111.041 291.619 110.66 291.861 110.328C292.106 109.997 292.439 109.737 292.86 109.548C293.284 109.359 293.765 109.264 294.302 109.264C295.058 109.264 295.651 109.43 296.082 109.761C296.516 110.093 296.824 110.53 297.006 111.074ZM302.113 117.159C301.378 117.159 300.743 116.997 300.209 116.672C299.679 116.344 299.27 115.886 298.981 115.3C298.696 114.71 298.554 114.024 298.554 113.241C298.554 112.459 298.696 111.77 298.981 111.173C299.27 110.573 299.671 110.106 300.184 109.771C300.702 109.433 301.305 109.264 301.994 109.264C302.392 109.264 302.785 109.33 303.172 109.463C303.56 109.596 303.913 109.811 304.231 110.109C304.55 110.404 304.803 110.795 304.992 111.283C305.181 111.77 305.275 112.37 305.275 113.082V113.58H299.389V112.565H304.082C304.082 112.134 303.996 111.75 303.824 111.412C303.655 111.074 303.413 110.807 303.098 110.612C302.786 110.416 302.418 110.318 301.994 110.318C301.527 110.318 301.122 110.434 300.781 110.666C300.443 110.895 300.183 111.193 300.001 111.561C299.818 111.929 299.727 112.323 299.727 112.744V113.42C299.727 113.997 299.827 114.486 300.025 114.887C300.228 115.285 300.508 115.588 300.866 115.797C301.224 116.002 301.64 116.105 302.113 116.105C302.422 116.105 302.7 116.062 302.949 115.976C303.201 115.886 303.418 115.754 303.6 115.578C303.782 115.399 303.923 115.177 304.023 114.912L305.156 115.23C305.037 115.615 304.836 115.953 304.555 116.244C304.273 116.533 303.925 116.758 303.51 116.92C303.096 117.08 302.631 117.159 302.113 117.159ZM307.06 117V109.364H308.194V110.517H308.273C308.412 110.139 308.664 109.833 309.029 109.597C309.394 109.362 309.805 109.244 310.262 109.244C310.348 109.244 310.456 109.246 310.585 109.249C310.714 109.253 310.812 109.258 310.878 109.264V110.457C310.839 110.447 310.747 110.433 310.605 110.413C310.466 110.389 310.318 110.378 310.162 110.378C309.791 110.378 309.46 110.456 309.168 110.612C308.88 110.764 308.651 110.976 308.482 111.248C308.316 111.516 308.233 111.823 308.233 112.168V117H307.06ZM317.678 111.074L316.624 111.372C316.558 111.196 316.46 111.026 316.331 110.86C316.205 110.691 316.033 110.552 315.814 110.442C315.595 110.333 315.315 110.278 314.974 110.278C314.506 110.278 314.117 110.386 313.805 110.602C313.497 110.814 313.343 111.084 313.343 111.412C313.343 111.704 313.449 111.934 313.661 112.103C313.873 112.272 314.205 112.413 314.656 112.526L315.789 112.804C316.472 112.97 316.981 113.223 317.315 113.565C317.65 113.903 317.817 114.339 317.817 114.872C317.817 115.31 317.692 115.701 317.44 116.045C317.191 116.39 316.843 116.662 316.396 116.861C315.948 117.06 315.428 117.159 314.835 117.159C314.056 117.159 313.411 116.99 312.901 116.652C312.39 116.314 312.067 115.82 311.931 115.17L313.045 114.892C313.151 115.303 313.351 115.611 313.646 115.817C313.945 116.022 314.334 116.125 314.815 116.125C315.362 116.125 315.796 116.009 316.117 115.777C316.442 115.542 316.604 115.26 316.604 114.932C316.604 114.667 316.512 114.445 316.326 114.266C316.14 114.083 315.855 113.947 315.471 113.858L314.198 113.56C313.499 113.394 312.985 113.137 312.657 112.789C312.332 112.438 312.17 111.999 312.17 111.472C312.17 111.041 312.291 110.66 312.533 110.328C312.778 109.997 313.111 109.737 313.532 109.548C313.956 109.359 314.437 109.264 314.974 109.264C315.729 109.264 316.323 109.43 316.754 109.761C317.188 110.093 317.496 110.53 317.678 111.074ZM320.439 117.08C320.193 117.08 319.983 116.992 319.807 116.816C319.632 116.64 319.544 116.43 319.544 116.185C319.544 115.939 319.632 115.729 319.807 115.553C319.983 115.378 320.193 115.29 320.439 115.29C320.684 115.29 320.894 115.378 321.07 115.553C321.246 115.729 321.334 115.939 321.334 116.185C321.334 116.347 321.292 116.496 321.209 116.632C321.13 116.768 321.022 116.877 320.886 116.96C320.754 117.04 320.604 117.08 320.439 117.08Z" fill="#C8C8C8"/>
<defs>
<filter id="filter0_d_716_77" x="22" y="50" width="60" height="60" filterUnits="userSpaceOnUse" color-interpolation-filters="sRGB">
<feFlood flood-opacity="0" result="BackgroundImageFix"/>
<feColorMatrix in="SourceAlpha" type="matrix" values="0 0 0 0 0 0 0 0 0 0 0 0 0 0 0 0 0 0 127 0" result="hardAlpha"/>
<feOffset/>
<feGaussianBlur stdDeviation="5"/>
<feComposite in2="hardAlpha" operator="out"/>
<feColorMatrix type="matrix" values="0 0 0 0 0 0 0 0 0 0 0 0 0 0 0 0 0 0 0.2 0"/>
<feBlend mode="normal" in2="BackgroundImageFix" result="effect1_dropShadow_716_77"/>
<feBlend mode="normal" in="SourceGraphic" in2="effect1_dropShadow_716_77" result="shape"/>
</filter>
</defs>
</svg>
