<svg width="450" height="160" viewBox="0 0 450 160" fill="none" xmlns="http://www.w3.org/2000/svg">
<g clip-path="url(#clip0_716_86)">
<path d="M55.1626 100.411C53.2027 101.561 50.7973 101.561 48.7483 100.411L35.2071 92.6282C33.1581 91.4785 32 89.3559 32 87.0564V71.4905C32 69.191 33.1581 67.0684 35.2071 65.9187L48.7483 58.1357C50.7973 56.986 53.2027 56.986 55.1626 58.1357L68.7929 65.9187C70.8419 67.0684 72 69.191 72 71.4905V87.0564C72 89.3559 70.8419 91.4785 68.7929 92.6282L55.1626 100.411ZM40.4633 71.6674C40.2851 71.0483 39.5724 70.6945 38.8597 70.783C38.2361 70.9599 37.7016 71.4905 37.7016 72.1981V86.3488C37.7016 87.1448 38.4143 87.7639 39.1269 87.7639C39.9287 87.7639 40.5523 87.1448 40.5523 86.3488V79.5388L43.5813 86.8795C43.7595 87.4986 44.4722 87.8523 45.0958 87.7639C45.8085 87.587 46.2539 87.0564 46.2539 86.3488V72.1981C46.2539 71.4021 45.6303 70.783 44.8285 70.783C44.1158 70.783 43.4031 71.4021 43.4031 72.1981V79.0081L40.4633 71.6674ZM49.1047 72.1981V79.2734V86.3488C49.1047 87.1448 49.8174 87.7639 50.5301 87.7639C51.3318 87.7639 51.9555 87.1448 51.9555 86.3488V80.6885H54.8062C55.608 80.6885 56.2316 80.0694 56.2316 79.2734C56.2316 78.4775 55.608 77.8584 54.8062 77.8584H51.9555V73.6131H54.8062C55.608 73.6131 56.2316 72.994 56.2316 72.1981C56.2316 71.4021 55.608 70.783 54.8062 70.783H50.5301C49.8174 70.783 49.1047 71.4021 49.1047 72.1981ZM59.0824 70.783C58.3697 70.783 57.657 71.4021 57.657 72.1981C57.657 72.994 58.3697 73.6131 59.0824 73.6131H60.5078V86.3488C60.5078 87.1448 61.2205 87.7639 61.9332 87.7639C62.735 87.7639 63.3586 87.1448 63.3586 86.3488V73.6131H64.784C65.5857 73.6131 66.2094 72.994 66.2094 72.1981C66.2094 71.4021 65.5857 70.783 64.784 70.783H59.0824Z" fill="white"/>
</g>
<path d="M109.43 44.4545V59H106.774L100.446 49.8452H100.339V59H97.2642V44.4545H99.9631L106.241 53.6023H106.369V44.4545H109.43ZM111.971 59V44.4545H121.602V46.9901H115.047V50.456H120.963V52.9915H115.047V59H111.971ZM123.116 46.9901V44.4545H135.062V46.9901H130.609V59H127.57V46.9901H123.116ZM141.659 44.4545H145.451L149.457 54.2273H149.627L153.633 44.4545H157.426V59H154.443V49.5327H154.322L150.558 58.929H148.527L144.762 49.4972H144.642V59H141.659V44.4545ZM163.013 59.206C162.317 59.206 161.697 59.0852 161.153 58.8438C160.608 58.5975 160.177 58.2353 159.86 57.7571C159.548 57.2741 159.391 56.6728 159.391 55.9531C159.391 55.3471 159.503 54.8381 159.725 54.4261C159.948 54.0142 160.251 53.6828 160.634 53.4318C161.018 53.1809 161.453 52.9915 161.941 52.8636C162.433 52.7358 162.95 52.6458 163.489 52.5938C164.124 52.5275 164.635 52.4659 165.023 52.4091C165.412 52.3475 165.693 52.2576 165.869 52.1392C166.044 52.0208 166.131 51.8456 166.131 51.6136V51.571C166.131 51.1212 165.989 50.7732 165.705 50.527C165.426 50.2808 165.028 50.1577 164.512 50.1577C163.968 50.1577 163.534 50.2784 163.212 50.5199C162.89 50.7566 162.677 51.0549 162.573 51.4148L159.775 51.1875C159.917 50.5246 160.196 49.9517 160.613 49.4688C161.03 48.9811 161.567 48.607 162.225 48.3466C162.888 48.0814 163.655 47.9489 164.526 47.9489C165.132 47.9489 165.712 48.0199 166.266 48.1619C166.825 48.304 167.32 48.5241 167.751 48.8224C168.186 49.1207 168.53 49.5043 168.781 49.973C169.031 50.437 169.157 50.9934 169.157 51.642V59H166.288V57.4872H166.202C166.027 57.8281 165.793 58.1288 165.499 58.3892C165.206 58.6449 164.853 58.8461 164.441 58.9929C164.029 59.1349 163.553 59.206 163.013 59.206ZM163.88 57.1179C164.325 57.1179 164.718 57.0303 165.059 56.8551C165.4 56.6752 165.667 56.4337 165.862 56.1307C166.056 55.8277 166.153 55.4844 166.153 55.1009V53.9432C166.058 54.0047 165.928 54.0616 165.762 54.1136C165.601 54.161 165.419 54.206 165.215 54.2486C165.012 54.2865 164.808 54.322 164.604 54.3551C164.401 54.3835 164.216 54.4096 164.05 54.4332C163.695 54.4853 163.385 54.5682 163.12 54.6818C162.855 54.7955 162.649 54.9493 162.502 55.1435C162.355 55.3329 162.282 55.5696 162.282 55.8537C162.282 56.2656 162.431 56.5805 162.729 56.7983C163.032 57.0114 163.416 57.1179 163.88 57.1179ZM171.504 59V48.0909H174.438V49.9943H174.551C174.75 49.3172 175.084 48.8059 175.553 48.4602C176.021 48.1098 176.561 47.9347 177.172 47.9347C177.323 47.9347 177.487 47.9441 177.662 47.9631C177.837 47.982 177.991 48.008 178.124 48.0412V50.7259C177.982 50.6832 177.785 50.6454 177.534 50.6122C177.283 50.5791 177.054 50.5625 176.845 50.5625C176.4 50.5625 176.002 50.6596 175.652 50.8537C175.306 51.0431 175.032 51.3082 174.828 51.6491C174.629 51.9901 174.53 52.383 174.53 52.8281V59H171.504ZM182.429 55.8608L182.436 52.2315H182.877L186.371 48.0909H189.844L185.15 53.5739H184.432L182.429 55.8608ZM179.688 59V44.4545H182.713V59H179.688ZM186.506 59L183.296 54.2486L185.313 52.1108L190.05 59H186.506ZM195.851 59.2131C194.729 59.2131 193.763 58.9858 192.953 58.5312C192.148 58.072 191.528 57.4233 191.092 56.5852C190.657 55.7424 190.439 54.7457 190.439 53.5952C190.439 52.473 190.657 51.4882 191.092 50.6406C191.528 49.7931 192.141 49.1326 192.932 48.6591C193.727 48.1856 194.66 47.9489 195.73 47.9489C196.45 47.9489 197.12 48.0649 197.74 48.2969C198.365 48.5241 198.91 48.8674 199.374 49.3267C199.842 49.786 200.207 50.3636 200.467 51.0597C200.728 51.7509 200.858 52.5606 200.858 53.4886V54.3196H191.646V52.4446H198.01C198.01 52.009 197.915 51.6231 197.726 51.2869C197.536 50.9508 197.274 50.688 196.938 50.4986C196.606 50.3045 196.22 50.2074 195.78 50.2074C195.321 50.2074 194.913 50.3139 194.558 50.527C194.208 50.7353 193.933 51.017 193.734 51.3722C193.536 51.7225 193.434 52.1132 193.429 52.544V54.3267C193.429 54.8665 193.528 55.3329 193.727 55.7259C193.931 56.1188 194.217 56.4219 194.587 56.6349C194.956 56.848 195.394 56.9545 195.901 56.9545C196.237 56.9545 196.545 56.9072 196.824 56.8125C197.103 56.7178 197.342 56.5758 197.541 56.3864C197.74 56.197 197.892 55.965 197.996 55.6903L200.794 55.875C200.652 56.5473 200.361 57.1345 199.92 57.6364C199.485 58.1335 198.921 58.5218 198.23 58.8011C197.544 59.0758 196.75 59.2131 195.851 59.2131ZM208.635 48.0909V50.3636H202.065V48.0909H208.635ZM203.557 45.4773H206.582V55.6477C206.582 55.9271 206.625 56.1449 206.71 56.3011C206.795 56.4527 206.914 56.5592 207.065 56.6207C207.222 56.6823 207.402 56.7131 207.605 56.7131C207.747 56.7131 207.889 56.7012 208.031 56.6776C208.173 56.6491 208.282 56.6278 208.358 56.6136L208.834 58.8651C208.682 58.9124 208.469 58.9669 208.195 59.0284C207.92 59.0947 207.586 59.1349 207.193 59.1491C206.464 59.1776 205.825 59.0805 205.276 58.858C204.731 58.6354 204.307 58.2898 204.004 57.821C203.701 57.3523 203.552 56.7604 203.557 56.0455V45.4773Z" fill="white"/>
<rect x="218" y="38" width="99" height="28" rx="14" fill="#7FF252" fill-opacity="0.1"/>
<path d="M231.119 57V46.8182H232.655V55.6776H237.268V57H231.119ZM241.124 57.169C240.64 57.169 240.203 57.0795 239.811 56.9006C239.42 56.7183 239.11 56.4548 238.882 56.1101C238.656 55.7654 238.544 55.3428 238.544 54.8423C238.544 54.4115 238.627 54.0568 238.792 53.7784C238.958 53.5 239.182 53.2796 239.463 53.1172C239.745 52.9548 240.06 52.8321 240.408 52.7493C240.756 52.6664 241.111 52.6035 241.472 52.5604C241.929 52.5073 242.301 52.4643 242.586 52.4311C242.871 52.3946 243.078 52.3366 243.207 52.2571C243.336 52.1776 243.401 52.0483 243.401 51.8693V51.8345C243.401 51.4003 243.278 51.0639 243.033 50.8253C242.791 50.5866 242.43 50.4673 241.949 50.4673C241.449 50.4673 241.054 50.5784 240.766 50.8004C240.481 51.0192 240.284 51.2628 240.174 51.5312L238.777 51.2131C238.943 50.7491 239.185 50.3745 239.503 50.0895C239.825 49.8011 240.194 49.5923 240.612 49.4631C241.029 49.3305 241.469 49.2642 241.929 49.2642C242.234 49.2642 242.557 49.3007 242.899 49.3736C243.243 49.4432 243.565 49.5724 243.863 49.7614C244.165 49.9503 244.412 50.2204 244.604 50.5717C244.796 50.9197 244.892 51.3722 244.892 51.929V57H243.441V55.956H243.381C243.285 56.1482 243.141 56.3371 242.949 56.5227C242.756 56.7083 242.509 56.8625 242.208 56.9851C241.906 57.1077 241.545 57.169 241.124 57.169ZM241.447 55.9759C241.858 55.9759 242.209 55.8946 242.501 55.7322C242.796 55.5698 243.02 55.3577 243.172 55.0959C243.328 54.8307 243.406 54.5473 243.406 54.2457V53.2614C243.353 53.3144 243.25 53.3641 243.098 53.4105C242.949 53.4536 242.778 53.4917 242.586 53.5249C242.393 53.5547 242.206 53.5829 242.024 53.6094C241.842 53.6326 241.689 53.6525 241.566 53.669C241.278 53.7055 241.015 53.7668 240.776 53.853C240.541 53.9392 240.352 54.0634 240.209 54.2259C240.07 54.3849 240 54.5971 240 54.8622C240 55.2301 240.136 55.5085 240.408 55.6974C240.68 55.883 241.026 55.9759 241.447 55.9759ZM251.71 53.8331V49.3636H253.201V57H251.74V55.6776H251.66C251.484 56.0852 251.203 56.425 250.815 56.6967C250.43 56.9652 249.951 57.0994 249.378 57.0994C248.887 57.0994 248.453 56.9917 248.075 56.7763C247.701 56.5575 247.406 56.2344 247.191 55.8068C246.978 55.3793 246.872 54.8506 246.872 54.2209V49.3636H248.359V54.0419C248.359 54.5623 248.503 54.9766 248.791 55.2848C249.08 55.593 249.454 55.7472 249.915 55.7472C250.193 55.7472 250.47 55.6776 250.745 55.5384C251.024 55.3991 251.254 55.1887 251.436 54.907C251.622 54.6252 251.713 54.2673 251.71 53.8331ZM256.685 52.4659V57H255.199V49.3636H256.625V50.6065H256.72C256.895 50.2022 257.171 49.8774 257.545 49.6321C257.923 49.3868 258.399 49.2642 258.972 49.2642C259.492 49.2642 259.948 49.3736 260.339 49.5923C260.73 49.8078 261.033 50.1293 261.249 50.5568C261.464 50.9844 261.572 51.513 261.572 52.1428V57H260.086V52.3217C260.086 51.7682 259.941 51.3357 259.653 51.0241C259.365 50.7093 258.969 50.5518 258.465 50.5518C258.12 50.5518 257.814 50.6264 257.545 50.7756C257.28 50.9247 257.069 51.1435 256.914 51.4318C256.761 51.7169 256.685 52.0616 256.685 52.4659ZM266.782 57.1541C266.043 57.1541 265.407 56.9867 264.873 56.652C264.343 56.3139 263.935 55.8482 263.65 55.255C263.365 54.6617 263.223 53.9822 263.223 53.2166C263.223 52.4411 263.368 51.7566 263.66 51.1634C263.952 50.5668 264.363 50.1011 264.893 49.7663C265.423 49.4316 266.048 49.2642 266.767 49.2642C267.347 49.2642 267.864 49.3719 268.319 49.5874C268.773 49.7995 269.139 50.0978 269.417 50.4822C269.699 50.8667 269.866 51.3158 269.919 51.8295H268.473C268.393 51.4716 268.211 51.1634 267.926 50.9048C267.644 50.6463 267.266 50.517 266.792 50.517C266.378 50.517 266.015 50.6264 265.703 50.8452C265.395 51.0606 265.155 51.3688 264.983 51.7699C264.81 52.1676 264.724 52.6383 264.724 53.1818C264.724 53.7386 264.809 54.2192 264.978 54.6236C265.147 55.0279 265.385 55.3411 265.694 55.5632C266.005 55.7853 266.371 55.8963 266.792 55.8963C267.074 55.8963 267.329 55.8449 267.558 55.7422C267.79 55.6361 267.984 55.4853 268.14 55.2898C268.299 55.0942 268.41 54.8589 268.473 54.5838H269.919C269.866 55.0777 269.706 55.5185 269.437 55.9062C269.169 56.294 268.809 56.599 268.358 56.821C267.911 57.0431 267.386 57.1541 266.782 57.1541ZM272.996 52.4659V57H271.509V46.8182H272.976V50.6065H273.07C273.249 50.1955 273.523 49.8691 273.89 49.6271C274.258 49.3852 274.739 49.2642 275.332 49.2642C275.856 49.2642 276.313 49.3719 276.704 49.5874C277.099 49.8028 277.404 50.1243 277.619 50.5518C277.838 50.9761 277.947 51.5064 277.947 52.1428V57H276.461V52.3217C276.461 51.7616 276.317 51.3274 276.028 51.0192C275.74 50.7076 275.339 50.5518 274.825 50.5518C274.474 50.5518 274.159 50.6264 273.881 50.7756C273.605 50.9247 273.388 51.1435 273.229 51.4318C273.073 51.7169 272.996 52.0616 272.996 52.4659ZM279.931 59.8636V49.3636H281.383V50.6016H281.507C281.593 50.4425 281.717 50.2585 281.88 50.0497C282.042 49.8409 282.268 49.6586 282.556 49.5028C282.844 49.3438 283.225 49.2642 283.699 49.2642C284.316 49.2642 284.866 49.42 285.35 49.7315C285.834 50.0431 286.213 50.4922 286.488 51.0788C286.767 51.6655 286.906 52.3714 286.906 53.1967C286.906 54.022 286.769 54.7296 286.493 55.3196C286.218 55.9062 285.84 56.3587 285.36 56.6768C284.879 56.9917 284.331 57.1491 283.714 57.1491C283.25 57.1491 282.871 57.0713 282.576 56.9155C282.284 56.7597 282.055 56.5774 281.89 56.3686C281.724 56.1598 281.596 55.9742 281.507 55.8118H281.417V59.8636H279.931ZM281.388 53.1818C281.388 53.7187 281.465 54.1894 281.621 54.5938C281.777 54.9981 282.002 55.3146 282.297 55.5433C282.592 55.7687 282.954 55.8814 283.381 55.8814C283.825 55.8814 284.197 55.7637 284.495 55.5284C284.793 55.2898 285.019 54.9666 285.171 54.5589C285.327 54.1513 285.405 53.6922 285.405 53.1818C285.405 52.678 285.328 52.2256 285.176 51.8246C285.027 51.4235 284.801 51.107 284.5 50.875C284.202 50.643 283.829 50.527 283.381 50.527C282.95 50.527 282.586 50.638 282.287 50.8601C281.992 51.0821 281.769 51.392 281.616 51.7898C281.464 52.1875 281.388 52.6515 281.388 53.1818ZM290.794 57.169C290.31 57.169 289.872 57.0795 289.481 56.9006C289.09 56.7183 288.78 56.4548 288.552 56.1101C288.326 55.7654 288.214 55.3428 288.214 54.8423C288.214 54.4115 288.296 54.0568 288.462 53.7784C288.628 53.5 288.852 53.2796 289.133 53.1172C289.415 52.9548 289.73 52.8321 290.078 52.7493C290.426 52.6664 290.781 52.6035 291.142 52.5604C291.599 52.5073 291.97 52.4643 292.256 52.4311C292.541 52.3946 292.748 52.3366 292.877 52.2571C293.006 52.1776 293.071 52.0483 293.071 51.8693V51.8345C293.071 51.4003 292.948 51.0639 292.703 50.8253C292.461 50.5866 292.1 50.4673 291.619 50.4673C291.119 50.4673 290.724 50.5784 290.436 50.8004C290.151 51.0192 289.954 51.2628 289.844 51.5312L288.447 51.2131C288.613 50.7491 288.855 50.3745 289.173 50.0895C289.495 49.8011 289.864 49.5923 290.282 49.4631C290.699 49.3305 291.139 49.2642 291.599 49.2642C291.904 49.2642 292.227 49.3007 292.569 49.3736C292.913 49.4432 293.235 49.5724 293.533 49.7614C293.835 49.9503 294.082 50.2204 294.274 50.5717C294.466 50.9197 294.562 51.3722 294.562 51.929V57H293.111V55.956H293.051C292.955 56.1482 292.811 56.3371 292.618 56.5227C292.426 56.7083 292.179 56.8625 291.878 56.9851C291.576 57.1077 291.215 57.169 290.794 57.169ZM291.117 55.9759C291.528 55.9759 291.879 55.8946 292.171 55.7322C292.466 55.5698 292.69 55.3577 292.842 55.0959C292.998 54.8307 293.076 54.5473 293.076 54.2457V53.2614C293.023 53.3144 292.92 53.3641 292.768 53.4105C292.618 53.4536 292.448 53.4917 292.256 53.5249C292.063 53.5547 291.876 53.5829 291.694 53.6094C291.511 53.6326 291.359 53.6525 291.236 53.669C290.948 53.7055 290.684 53.7668 290.446 53.853C290.211 53.9392 290.022 54.0634 289.879 54.2259C289.74 54.3849 289.67 54.5971 289.67 54.8622C289.67 55.2301 289.806 55.5085 290.078 55.6974C290.35 55.883 290.696 55.9759 291.117 55.9759ZM299.401 57.1491C298.784 57.1491 298.234 56.9917 297.75 56.6768C297.27 56.3587 296.892 55.9062 296.617 55.3196C296.345 54.7296 296.209 54.022 296.209 53.1967C296.209 52.3714 296.347 51.6655 296.622 51.0788C296.9 50.4922 297.281 50.0431 297.765 49.7315C298.249 49.42 298.798 49.2642 299.411 49.2642C299.885 49.2642 300.266 49.3438 300.554 49.5028C300.846 49.6586 301.071 49.8409 301.23 50.0497C301.393 50.2585 301.519 50.4425 301.608 50.6016H301.698V46.8182H303.184V57H301.733V55.8118H301.608C301.519 55.9742 301.39 56.1598 301.221 56.3686C301.055 56.5774 300.826 56.7597 300.534 56.9155C300.243 57.0713 299.865 57.1491 299.401 57.1491ZM299.729 55.8814C300.157 55.8814 300.518 55.7687 300.813 55.5433C301.111 55.3146 301.337 54.9981 301.489 54.5938C301.645 54.1894 301.723 53.7187 301.723 53.1818C301.723 52.6515 301.646 52.1875 301.494 51.7898C301.342 51.392 301.118 51.0821 300.823 50.8601C300.528 50.638 300.163 50.527 299.729 50.527C299.282 50.527 298.909 50.643 298.61 50.875C298.312 51.107 298.087 51.4235 297.934 51.8246C297.785 52.2256 297.711 52.678 297.711 53.1818C297.711 53.6922 297.787 54.1513 297.939 54.5589C298.092 54.9666 298.317 55.2898 298.615 55.5284C298.917 55.7637 299.288 55.8814 299.729 55.8814Z" fill="#7FF252"/>
<path d="M97.6506 97H96.358L100.097 86.8182H101.369L105.108 97H103.815L100.773 88.429H100.693L97.6506 97ZM98.1278 93.0227H103.338V94.1165H98.1278V93.0227ZM107.708 92.4062V97H106.535V89.3636H107.668V90.5568H107.768C107.947 90.169 108.219 89.8575 108.583 89.6222C108.948 89.3835 109.418 89.2642 109.995 89.2642C110.512 89.2642 110.964 89.3703 111.352 89.5824C111.74 89.7912 112.042 90.1094 112.257 90.5369C112.473 90.9612 112.58 91.4981 112.58 92.1477V97H111.407V92.2273C111.407 91.6274 111.251 91.16 110.94 90.8253C110.628 90.4872 110.201 90.3182 109.657 90.3182C109.282 90.3182 108.948 90.3994 108.653 90.5618C108.361 90.7242 108.131 90.9612 107.962 91.2727C107.793 91.5843 107.708 91.9621 107.708 92.4062ZM120.909 97.179C120.425 97.179 119.986 97.0878 119.591 96.9055C119.197 96.7199 118.884 96.4531 118.652 96.1051C118.42 95.7538 118.304 95.3295 118.304 94.8324C118.304 94.3949 118.39 94.0402 118.562 93.7685C118.735 93.4934 118.965 93.2779 119.253 93.1222C119.542 92.9664 119.86 92.8504 120.208 92.7741C120.559 92.6946 120.912 92.6316 121.267 92.5852C121.731 92.5256 122.107 92.4808 122.395 92.451C122.687 92.4179 122.899 92.3632 123.032 92.2869C123.168 92.2107 123.236 92.0781 123.236 91.8892V91.8494C123.236 91.3589 123.101 90.9777 122.833 90.706C122.568 90.4342 122.165 90.2983 121.625 90.2983C121.065 90.2983 120.626 90.4209 120.307 90.6662C119.989 90.9115 119.765 91.1733 119.636 91.4517L118.523 91.054C118.721 90.59 118.987 90.2287 119.318 89.9702C119.653 89.7083 120.017 89.526 120.412 89.4233C120.809 89.3172 121.201 89.2642 121.585 89.2642C121.83 89.2642 122.112 89.294 122.43 89.3537C122.752 89.41 123.062 89.5277 123.36 89.7067C123.662 89.8857 123.912 90.1558 124.111 90.517C124.309 90.8783 124.409 91.3622 124.409 91.9688V97H123.236V95.9659H123.176C123.096 96.1316 122.964 96.3089 122.778 96.4979C122.593 96.6868 122.346 96.8475 122.037 96.9801C121.729 97.1127 121.353 97.179 120.909 97.179ZM121.088 96.125C121.552 96.125 121.943 96.0339 122.261 95.8516C122.583 95.6693 122.825 95.4339 122.987 95.1456C123.153 94.8572 123.236 94.554 123.236 94.2358V93.1619C123.186 93.2216 123.077 93.2763 122.907 93.326C122.742 93.3724 122.55 93.4138 122.331 93.4503C122.115 93.4834 121.905 93.5133 121.699 93.5398C121.497 93.563 121.333 93.5829 121.207 93.5994C120.902 93.6392 120.617 93.7038 120.352 93.7933C120.09 93.8795 119.878 94.0104 119.716 94.1861C119.557 94.3584 119.477 94.5937 119.477 94.892C119.477 95.2997 119.628 95.608 119.93 95.8168C120.234 96.0223 120.621 96.125 121.088 96.125ZM129.434 97.1591C128.798 97.1591 128.236 96.9983 127.749 96.6768C127.261 96.352 126.88 95.8946 126.605 95.3047C126.33 94.7114 126.192 94.0104 126.192 93.2017C126.192 92.3996 126.33 91.7036 126.605 91.1136C126.88 90.5237 127.263 90.0679 127.754 89.7464C128.244 89.425 128.811 89.2642 129.454 89.2642C129.951 89.2642 130.344 89.3471 130.632 89.5128C130.924 89.6752 131.146 89.8608 131.298 90.0696C131.454 90.2751 131.575 90.4441 131.661 90.5767H131.761V86.8182H132.934V97H131.8V95.8267H131.661C131.575 95.9659 131.452 96.1416 131.293 96.3537C131.134 96.5625 130.907 96.7498 130.612 96.9155C130.317 97.0779 129.924 97.1591 129.434 97.1591ZM129.593 96.1051C130.064 96.1051 130.461 95.9825 130.786 95.7372C131.111 95.4886 131.358 95.1456 131.527 94.7081C131.696 94.2673 131.781 93.7585 131.781 93.1818C131.781 92.6117 131.698 92.1129 131.532 91.6854C131.366 91.2545 131.121 90.9197 130.796 90.6811C130.471 90.4392 130.07 90.3182 129.593 90.3182C129.096 90.3182 128.682 90.4458 128.35 90.701C128.022 90.9529 127.775 91.2959 127.609 91.7301C127.447 92.161 127.366 92.6449 127.366 93.1818C127.366 93.7254 127.449 94.2192 127.614 94.6634C127.783 95.1042 128.032 95.4555 128.36 95.7173C128.692 95.9759 129.103 96.1051 129.593 96.1051ZM141.49 89.3636L138.666 97H137.473L134.649 89.3636H135.922L138.03 95.4489H138.109L140.217 89.3636H141.49ZM145.053 97.179C144.57 97.179 144.13 97.0878 143.736 96.9055C143.342 96.7199 143.028 96.4531 142.796 96.1051C142.564 95.7538 142.448 95.3295 142.448 94.8324C142.448 94.3949 142.535 94.0402 142.707 93.7685C142.879 93.4934 143.11 93.2779 143.398 93.1222C143.686 92.9664 144.004 92.8504 144.352 92.7741C144.704 92.6946 145.057 92.6316 145.411 92.5852C145.875 92.5256 146.252 92.4808 146.54 92.451C146.832 92.4179 147.044 92.3632 147.176 92.2869C147.312 92.2107 147.38 92.0781 147.38 91.8892V91.8494C147.38 91.3589 147.246 90.9777 146.977 90.706C146.712 90.4342 146.31 90.2983 145.769 90.2983C145.209 90.2983 144.77 90.4209 144.452 90.6662C144.134 90.9115 143.91 91.1733 143.781 91.4517L142.667 91.054C142.866 90.59 143.131 90.2287 143.463 89.9702C143.797 89.7083 144.162 89.526 144.556 89.4233C144.954 89.3172 145.345 89.2642 145.73 89.2642C145.975 89.2642 146.257 89.294 146.575 89.3537C146.896 89.41 147.206 89.5277 147.504 89.7067C147.806 89.8857 148.056 90.1558 148.255 90.517C148.454 90.8783 148.553 91.3622 148.553 91.9688V97H147.38V95.9659H147.32C147.241 96.1316 147.108 96.3089 146.923 96.4979C146.737 96.6868 146.49 96.8475 146.182 96.9801C145.874 97.1127 145.498 97.179 145.053 97.179ZM145.232 96.125C145.696 96.125 146.088 96.0339 146.406 95.8516C146.727 95.6693 146.969 95.4339 147.132 95.1456C147.297 94.8572 147.38 94.554 147.38 94.2358V93.1619C147.33 93.2216 147.221 93.2763 147.052 93.326C146.886 93.3724 146.694 93.4138 146.475 93.4503C146.26 93.4834 146.049 93.5133 145.844 93.5398C145.642 93.563 145.478 93.5829 145.352 93.5994C145.047 93.6392 144.762 93.7038 144.497 93.7933C144.235 93.8795 144.023 94.0104 143.86 94.1861C143.701 94.3584 143.622 94.5937 143.622 94.892C143.622 95.2997 143.772 95.608 144.074 95.8168C144.379 96.0223 144.765 96.125 145.232 96.125ZM151.868 92.4062V97H150.695V89.3636H151.828V90.5568H151.928C152.107 90.169 152.379 89.8575 152.743 89.6222C153.108 89.3835 153.578 89.2642 154.155 89.2642C154.672 89.2642 155.125 89.3703 155.512 89.5824C155.9 89.7912 156.202 90.1094 156.417 90.5369C156.633 90.9612 156.74 91.4981 156.74 92.1477V97H155.567V92.2273C155.567 91.6274 155.411 91.16 155.1 90.8253C154.788 90.4872 154.361 90.3182 153.817 90.3182C153.443 90.3182 153.108 90.3994 152.813 90.5618C152.521 90.7242 152.291 90.9612 152.122 91.2727C151.953 91.5843 151.868 91.9621 151.868 92.4062ZM161.987 97.1591C161.271 97.1591 160.654 96.9901 160.137 96.652C159.62 96.3139 159.222 95.8482 158.944 95.255C158.666 94.6617 158.526 93.9839 158.526 93.2216C158.526 92.446 158.669 91.7616 158.954 91.1683C159.242 90.5717 159.643 90.1061 160.157 89.7713C160.674 89.4332 161.277 89.2642 161.967 89.2642C162.504 89.2642 162.988 89.3636 163.419 89.5625C163.849 89.7614 164.202 90.0398 164.477 90.3977C164.753 90.7557 164.923 91.1733 164.99 91.6506H163.816C163.727 91.3026 163.528 90.9943 163.22 90.7259C162.915 90.4541 162.504 90.3182 161.987 90.3182C161.529 90.3182 161.128 90.4375 160.784 90.6761C160.442 90.9115 160.175 91.2446 159.983 91.6754C159.794 92.103 159.7 92.6051 159.7 93.1818C159.7 93.7718 159.793 94.2855 159.978 94.723C160.167 95.1605 160.432 95.5002 160.774 95.7422C161.118 95.9841 161.523 96.1051 161.987 96.1051C162.292 96.1051 162.568 96.0521 162.817 95.946C163.066 95.84 163.276 95.6875 163.448 95.4886C163.621 95.2898 163.743 95.0511 163.816 94.7727H164.99C164.923 95.2235 164.759 95.6295 164.497 95.9908C164.239 96.3487 163.896 96.6338 163.468 96.8459C163.044 97.0547 162.55 97.1591 161.987 97.1591ZM169.906 97.1591C169.171 97.1591 168.536 96.9967 168.002 96.6719C167.472 96.3438 167.063 95.8864 166.774 95.2997C166.489 94.7098 166.347 94.0237 166.347 93.2415C166.347 92.4593 166.489 91.7699 166.774 91.1733C167.063 90.5734 167.464 90.1061 167.977 89.7713C168.494 89.4332 169.098 89.2642 169.787 89.2642C170.185 89.2642 170.578 89.3305 170.965 89.4631C171.353 89.5956 171.706 89.8111 172.024 90.1094C172.343 90.4044 172.596 90.7955 172.785 91.2827C172.974 91.7699 173.068 92.3698 173.068 93.0824V93.5795H167.182V92.5653H171.875C171.875 92.1345 171.789 91.75 171.617 91.4119C171.448 91.0739 171.206 90.8071 170.891 90.6115C170.579 90.416 170.211 90.3182 169.787 90.3182C169.32 90.3182 168.915 90.4342 168.574 90.6662C168.236 90.8949 167.976 91.1932 167.794 91.5611C167.611 91.929 167.52 92.3234 167.52 92.7443V93.4205C167.52 93.9972 167.619 94.486 167.818 94.8871C168.021 95.2848 168.301 95.5881 168.659 95.7969C169.017 96.0024 169.432 96.1051 169.906 96.1051C170.215 96.1051 170.493 96.062 170.742 95.9759C170.994 95.8864 171.211 95.7538 171.393 95.5781C171.575 95.3991 171.716 95.1771 171.816 94.9119L172.949 95.2301C172.83 95.6146 172.629 95.9527 172.347 96.2443C172.066 96.5327 171.718 96.758 171.303 96.9205C170.889 97.0795 170.423 97.1591 169.906 97.1591ZM177.737 97.1591C177.1 97.1591 176.539 96.9983 176.051 96.6768C175.564 96.352 175.183 95.8946 174.908 95.3047C174.633 94.7114 174.495 94.0104 174.495 93.2017C174.495 92.3996 174.633 91.7036 174.908 91.1136C175.183 90.5237 175.566 90.0679 176.056 89.7464C176.547 89.425 177.114 89.2642 177.757 89.2642C178.254 89.2642 178.646 89.3471 178.935 89.5128C179.227 89.6752 179.449 89.8608 179.601 90.0696C179.757 90.2751 179.878 90.4441 179.964 90.5767H180.063V86.8182H181.237V97H180.103V95.8267H179.964C179.878 95.9659 179.755 96.1416 179.596 96.3537C179.437 96.5625 179.21 96.7498 178.915 96.9155C178.62 97.0779 178.227 97.1591 177.737 97.1591ZM177.896 96.1051C178.366 96.1051 178.764 95.9825 179.089 95.7372C179.414 95.4886 179.661 95.1456 179.83 94.7081C179.999 94.2673 180.083 93.7585 180.083 93.1818C180.083 92.6117 180 92.1129 179.835 91.6854C179.669 91.2545 179.424 90.9197 179.099 90.6811C178.774 90.4392 178.373 90.3182 177.896 90.3182C177.399 90.3182 176.984 90.4458 176.653 90.701C176.325 90.9529 176.078 91.2959 175.912 91.7301C175.75 92.161 175.669 92.6449 175.669 93.1818C175.669 93.7254 175.751 94.2192 175.917 94.6634C176.086 95.1042 176.335 95.4555 176.663 95.7173C176.994 95.9759 177.405 96.1051 177.896 96.1051ZM193.73 89.3636L190.906 97H189.713L186.889 89.3636H188.162L190.27 95.4489H190.35L192.458 89.3636H193.73ZM195.279 97V89.3636H196.452V97H195.279ZM195.876 88.0909C195.647 88.0909 195.45 88.013 195.284 87.8572C195.122 87.7015 195.04 87.5142 195.04 87.2955C195.04 87.0767 195.122 86.8894 195.284 86.7337C195.45 86.5779 195.647 86.5 195.876 86.5C196.104 86.5 196.3 86.5779 196.462 86.7337C196.628 86.8894 196.711 87.0767 196.711 87.2955C196.711 87.5142 196.628 87.7015 196.462 87.8572C196.3 88.013 196.104 88.0909 195.876 88.0909ZM198.601 97V89.3636H199.735V90.517H199.814C199.953 90.1392 200.205 89.8326 200.57 89.5973C200.935 89.362 201.346 89.2443 201.803 89.2443C201.889 89.2443 201.997 89.246 202.126 89.2493C202.255 89.2526 202.353 89.2576 202.419 89.2642V90.4574C202.38 90.4474 202.288 90.4325 202.146 90.4126C202.007 90.3894 201.859 90.3778 201.703 90.3778C201.332 90.3778 201.001 90.4557 200.709 90.6115C200.421 90.764 200.192 90.9761 200.023 91.2479C199.857 91.5163 199.775 91.8229 199.775 92.1676V97H198.601ZM207.61 89.3636V90.358H203.652V89.3636H207.61ZM204.806 87.5341H205.979V94.8125C205.979 95.1439 206.027 95.3925 206.123 95.5582C206.223 95.7206 206.349 95.83 206.501 95.8864C206.657 95.9394 206.821 95.9659 206.993 95.9659C207.123 95.9659 207.229 95.9593 207.311 95.946C207.394 95.9295 207.461 95.9162 207.51 95.9062L207.749 96.9602C207.669 96.9901 207.558 97.0199 207.416 97.0497C207.273 97.0829 207.093 97.0994 206.874 97.0994C206.542 97.0994 206.218 97.0282 205.9 96.8857C205.585 96.7431 205.323 96.526 205.114 96.2344C204.908 95.9427 204.806 95.5748 204.806 95.1307V87.5341ZM214.187 93.8778V89.3636H215.36V97H214.187V95.7074H214.108C213.929 96.0952 213.65 96.425 213.272 96.6967C212.895 96.9652 212.417 97.0994 211.841 97.0994C211.363 97.0994 210.939 96.995 210.568 96.7862C210.197 96.5741 209.905 96.2559 209.693 95.8317C209.481 95.4041 209.375 94.8655 209.375 94.2159V89.3636H210.548V94.1364C210.548 94.6932 210.704 95.1373 211.015 95.4688C211.33 95.8002 211.731 95.9659 212.218 95.9659C212.51 95.9659 212.807 95.8913 213.108 95.7422C213.413 95.593 213.668 95.3643 213.874 95.0561C214.083 94.7479 214.187 94.3551 214.187 93.8778ZM219.757 97.179C219.273 97.179 218.834 97.0878 218.439 96.9055C218.045 96.7199 217.731 96.4531 217.499 96.1051C217.267 95.7538 217.151 95.3295 217.151 94.8324C217.151 94.3949 217.238 94.0402 217.41 93.7685C217.582 93.4934 217.813 93.2779 218.101 93.1222C218.389 92.9664 218.708 92.8504 219.056 92.7741C219.407 92.6946 219.76 92.6316 220.115 92.5852C220.579 92.5256 220.955 92.4808 221.243 92.451C221.535 92.4179 221.747 92.3632 221.879 92.2869C222.015 92.2107 222.083 92.0781 222.083 91.8892V91.8494C222.083 91.3589 221.949 90.9777 221.681 90.706C221.415 90.4342 221.013 90.2983 220.472 90.2983C219.912 90.2983 219.473 90.4209 219.155 90.6662C218.837 90.9115 218.613 91.1733 218.484 91.4517L217.37 91.054C217.569 90.59 217.834 90.2287 218.166 89.9702C218.5 89.7083 218.865 89.526 219.259 89.4233C219.657 89.3172 220.048 89.2642 220.433 89.2642C220.678 89.2642 220.96 89.294 221.278 89.3537C221.599 89.41 221.909 89.5277 222.208 89.7067C222.509 89.8857 222.759 90.1558 222.958 90.517C223.157 90.8783 223.257 91.3622 223.257 91.9688V97H222.083V95.9659H222.024C221.944 96.1316 221.811 96.3089 221.626 96.4979C221.44 96.6868 221.193 96.8475 220.885 96.9801C220.577 97.1127 220.201 97.179 219.757 97.179ZM219.936 96.125C220.4 96.125 220.791 96.0339 221.109 95.8516C221.43 95.6693 221.672 95.4339 221.835 95.1456C222 94.8572 222.083 94.554 222.083 94.2358V93.1619C222.034 93.2216 221.924 93.2763 221.755 93.326C221.589 93.3724 221.397 93.4138 221.178 93.4503C220.963 93.4834 220.753 93.5133 220.547 93.5398C220.345 93.563 220.181 93.5829 220.055 93.5994C219.75 93.6392 219.465 93.7038 219.2 93.7933C218.938 93.8795 218.726 94.0104 218.563 94.1861C218.404 94.3584 218.325 94.5937 218.325 94.892C218.325 95.2997 218.476 95.608 218.777 95.8168C219.082 96.0223 219.468 96.125 219.936 96.125ZM226.571 86.8182V97H225.398V86.8182H226.571ZM232.658 99.8636V89.3636H233.791V90.5767H233.931C234.017 90.4441 234.136 90.2751 234.289 90.0696C234.444 89.8608 234.666 89.6752 234.955 89.5128C235.246 89.3471 235.641 89.2642 236.138 89.2642C236.781 89.2642 237.348 89.425 237.838 89.7464C238.329 90.0679 238.712 90.5237 238.987 91.1136C239.262 91.7036 239.399 92.3996 239.399 93.2017C239.399 94.0104 239.262 94.7114 238.987 95.3047C238.712 95.8946 238.33 96.352 237.843 96.6768C237.356 96.9983 236.794 97.1591 236.158 97.1591C235.667 97.1591 235.275 97.0779 234.98 96.9155C234.685 96.7498 234.458 96.5625 234.298 96.3537C234.139 96.1416 234.017 95.9659 233.931 95.8267H233.831V99.8636H232.658ZM233.811 93.1818C233.811 93.7585 233.896 94.2673 234.065 94.7081C234.234 95.1456 234.481 95.4886 234.806 95.7372C235.13 95.9825 235.528 96.1051 235.999 96.1051C236.489 96.1051 236.899 95.9759 237.227 95.7173C237.558 95.4555 237.807 95.1042 237.972 94.6634C238.142 94.2192 238.226 93.7254 238.226 93.1818C238.226 92.6449 238.143 92.161 237.977 91.7301C237.815 91.2959 237.568 90.9529 237.237 90.701C236.909 90.4458 236.496 90.3182 235.999 90.3182C235.521 90.3182 235.12 90.4392 234.796 90.6811C234.471 90.9197 234.226 91.2545 234.06 91.6854C233.894 92.1129 233.811 92.6117 233.811 93.1818ZM242.362 86.8182V97H241.189V86.8182H242.362ZM246.759 97.179C246.275 97.179 245.835 97.0878 245.441 96.9055C245.047 96.7199 244.733 96.4531 244.501 96.1051C244.269 95.7538 244.153 95.3295 244.153 94.8324C244.153 94.3949 244.24 94.0402 244.412 93.7685C244.584 93.4934 244.815 93.2779 245.103 93.1222C245.391 92.9664 245.71 92.8504 246.058 92.7741C246.409 92.6946 246.762 92.6316 247.116 92.5852C247.58 92.5256 247.957 92.4808 248.245 92.451C248.537 92.4179 248.749 92.3632 248.881 92.2869C249.017 92.2107 249.085 92.0781 249.085 91.8892V91.8494C249.085 91.3589 248.951 90.9777 248.683 90.706C248.417 90.4342 248.015 90.2983 247.474 90.2983C246.914 90.2983 246.475 90.4209 246.157 90.6662C245.839 90.9115 245.615 91.1733 245.486 91.4517L244.372 91.054C244.571 90.59 244.836 90.2287 245.168 89.9702C245.502 89.7083 245.867 89.526 246.261 89.4233C246.659 89.3172 247.05 89.2642 247.435 89.2642C247.68 89.2642 247.962 89.294 248.28 89.3537C248.601 89.41 248.911 89.5277 249.21 89.7067C249.511 89.8857 249.761 90.1558 249.96 90.517C250.159 90.8783 250.259 91.3622 250.259 91.9688V97H249.085V95.9659H249.026C248.946 96.1316 248.813 96.3089 248.628 96.4979C248.442 96.6868 248.195 96.8475 247.887 96.9801C247.579 97.1127 247.203 97.179 246.759 97.179ZM246.938 96.125C247.402 96.125 247.793 96.0339 248.111 95.8516C248.432 95.6693 248.674 95.4339 248.837 95.1456C249.002 94.8572 249.085 94.554 249.085 94.2358V93.1619C249.036 93.2216 248.926 93.2763 248.757 93.326C248.591 93.3724 248.399 93.4138 248.18 93.4503C247.965 93.4834 247.754 93.5133 247.549 93.5398C247.347 93.563 247.183 93.5829 247.057 93.5994C246.752 93.6392 246.467 93.7038 246.202 93.7933C245.94 93.8795 245.728 94.0104 245.565 94.1861C245.406 94.3584 245.327 94.5937 245.327 94.892C245.327 95.2997 245.478 95.608 245.779 95.8168C246.084 96.0223 246.47 96.125 246.938 96.125ZM252.181 97V96.1051L256.517 90.5369V90.4574H252.32V89.3636H258.028V90.2983L253.812 95.8267V95.9062H258.167V97H252.181ZM262.221 97.179C261.738 97.179 261.298 97.0878 260.904 96.9055C260.51 96.7199 260.196 96.4531 259.964 96.1051C259.732 95.7538 259.616 95.3295 259.616 94.8324C259.616 94.3949 259.702 94.0402 259.875 93.7685C260.047 93.4934 260.278 93.2779 260.566 93.1222C260.854 92.9664 261.172 92.8504 261.52 92.7741C261.872 92.6946 262.225 92.6316 262.579 92.5852C263.043 92.5256 263.42 92.4808 263.708 92.451C264 92.4179 264.212 92.3632 264.344 92.2869C264.48 92.2107 264.548 92.0781 264.548 91.8892V91.8494C264.548 91.3589 264.414 90.9777 264.145 90.706C263.88 90.4342 263.478 90.2983 262.937 90.2983C262.377 90.2983 261.938 90.4209 261.62 90.6662C261.302 90.9115 261.078 91.1733 260.949 91.4517L259.835 91.054C260.034 90.59 260.299 90.2287 260.631 89.9702C260.965 89.7083 261.33 89.526 261.724 89.4233C262.122 89.3172 262.513 89.2642 262.898 89.2642C263.143 89.2642 263.425 89.294 263.743 89.3537C264.064 89.41 264.374 89.5277 264.672 89.7067C264.974 89.8857 265.224 90.1558 265.423 90.517C265.622 90.8783 265.721 91.3622 265.721 91.9688V97H264.548V95.9659H264.488C264.409 96.1316 264.276 96.3089 264.091 96.4979C263.905 96.6868 263.658 96.8475 263.35 96.9801C263.042 97.1127 262.666 97.179 262.221 97.179ZM262.4 96.125C262.864 96.125 263.256 96.0339 263.574 95.8516C263.895 95.6693 264.137 95.4339 264.3 95.1456C264.465 94.8572 264.548 94.554 264.548 94.2358V93.1619C264.498 93.2216 264.389 93.2763 264.22 93.326C264.054 93.3724 263.862 93.4138 263.643 93.4503C263.428 93.4834 263.217 93.5133 263.012 93.5398C262.81 93.563 262.646 93.5829 262.52 93.5994C262.215 93.6392 261.93 93.7038 261.665 93.7933C261.403 93.8795 261.191 94.0104 261.028 94.1861C260.869 94.3584 260.79 94.5937 260.79 94.892C260.79 95.2997 260.94 95.608 261.242 95.8168C261.547 96.0223 261.933 96.125 262.4 96.125ZM274.903 97.1591C274.213 97.1591 273.608 96.995 273.088 96.6669C272.571 96.3388 272.167 95.8797 271.875 95.2898C271.587 94.6998 271.442 94.0104 271.442 93.2216C271.442 92.4261 271.587 91.7318 271.875 91.1385C272.167 90.5452 272.571 90.0845 273.088 89.7564C273.608 89.4283 274.213 89.2642 274.903 89.2642C275.592 89.2642 276.195 89.4283 276.712 89.7564C277.233 90.0845 277.637 90.5452 277.925 91.1385C278.217 91.7318 278.363 92.4261 278.363 93.2216C278.363 94.0104 278.217 94.6998 277.925 95.2898C277.637 95.8797 277.233 96.3388 276.712 96.6669C276.195 96.995 275.592 97.1591 274.903 97.1591ZM274.903 96.1051C275.426 96.1051 275.857 95.9709 276.195 95.7024C276.533 95.4339 276.784 95.081 276.946 94.6435C277.108 94.206 277.19 93.732 277.19 93.2216C277.19 92.7112 277.108 92.2356 276.946 91.7947C276.784 91.3539 276.533 90.9976 276.195 90.7259C275.857 90.4541 275.426 90.3182 274.903 90.3182C274.379 90.3182 273.948 90.4541 273.61 90.7259C273.272 90.9976 273.022 91.3539 272.859 91.7947C272.697 92.2356 272.616 92.7112 272.616 93.2216C272.616 93.732 272.697 94.206 272.859 94.6435C273.022 95.081 273.272 95.4339 273.61 95.7024C273.948 95.9709 274.379 96.1051 274.903 96.1051ZM283.555 89.3636V90.358H279.438V89.3636H283.555ZM280.671 97V88.3097C280.671 87.8722 280.774 87.5076 280.979 87.2159C281.185 86.9242 281.452 86.7055 281.78 86.5597C282.108 86.4138 282.454 86.3409 282.819 86.3409C283.107 86.3409 283.342 86.3641 283.525 86.4105C283.707 86.4569 283.843 86.5 283.932 86.5398L283.594 87.554C283.535 87.5341 283.452 87.5092 283.346 87.4794C283.243 87.4496 283.107 87.4347 282.938 87.4347C282.55 87.4347 282.27 87.5324 282.098 87.728C281.929 87.9235 281.844 88.2102 281.844 88.5881V97H280.671ZM290.866 97L288.54 89.3636H289.773L291.423 95.2102H291.503L293.134 89.3636H294.386L295.997 95.1903H296.077L297.727 89.3636H298.96L296.634 97H295.48L293.81 91.1335H293.69L292.02 97H290.866ZM303.453 97.1591C302.718 97.1591 302.083 96.9967 301.549 96.6719C301.019 96.3438 300.61 95.8864 300.321 95.2997C300.036 94.7098 299.894 94.0237 299.894 93.2415C299.894 92.4593 300.036 91.7699 300.321 91.1733C300.61 90.5734 301.011 90.1061 301.524 89.7713C302.041 89.4332 302.645 89.2642 303.334 89.2642C303.732 89.2642 304.124 89.3305 304.512 89.4631C304.9 89.5956 305.253 89.8111 305.571 90.1094C305.889 90.4044 306.143 90.7955 306.332 91.2827C306.521 91.7699 306.615 92.3698 306.615 93.0824V93.5795H300.729V92.5653H305.422C305.422 92.1345 305.336 91.75 305.164 91.4119C304.994 91.0739 304.753 90.8071 304.438 90.6115C304.126 90.416 303.758 90.3182 303.334 90.3182C302.867 90.3182 302.462 90.4342 302.121 90.6662C301.783 90.8949 301.523 91.1932 301.34 91.5611C301.158 91.929 301.067 92.3234 301.067 92.7443V93.4205C301.067 93.9972 301.166 94.486 301.365 94.8871C301.567 95.2848 301.847 95.5881 302.205 95.7969C302.563 96.0024 302.979 96.1051 303.453 96.1051C303.762 96.1051 304.04 96.062 304.289 95.9759C304.54 95.8864 304.758 95.7538 304.94 95.5781C305.122 95.3991 305.263 95.1771 305.362 94.9119L306.496 95.2301C306.377 95.6146 306.176 95.9527 305.894 96.2443C305.613 96.5327 305.265 96.758 304.85 96.9205C304.436 97.0795 303.97 97.1591 303.453 97.1591ZM308.559 97V86.8182H309.732V90.5767H309.832C309.918 90.4441 310.037 90.2751 310.19 90.0696C310.346 89.8608 310.568 89.6752 310.856 89.5128C311.148 89.3471 311.542 89.2642 312.039 89.2642C312.682 89.2642 313.249 89.425 313.74 89.7464C314.23 90.0679 314.613 90.5237 314.888 91.1136C315.163 91.7036 315.301 92.3996 315.301 93.2017C315.301 94.0104 315.163 94.7114 314.888 95.3047C314.613 95.8946 314.232 96.352 313.744 96.6768C313.257 96.9983 312.695 97.1591 312.059 97.1591C311.569 97.1591 311.176 97.0779 310.881 96.9155C310.586 96.7498 310.359 96.5625 310.2 96.3537C310.041 96.1416 309.918 95.9659 309.832 95.8267H309.693V97H308.559ZM309.713 93.1818C309.713 93.7585 309.797 94.2673 309.966 94.7081C310.135 95.1456 310.382 95.4886 310.707 95.7372C311.032 95.9825 311.429 96.1051 311.9 96.1051C312.391 96.1051 312.8 95.9759 313.128 95.7173C313.459 95.4555 313.708 95.1042 313.874 94.6634C314.043 94.2192 314.127 93.7254 314.127 93.1818C314.127 92.6449 314.044 92.161 313.879 91.7301C313.716 91.2959 313.469 90.9529 313.138 90.701C312.81 90.4458 312.397 90.3182 311.9 90.3182C311.423 90.3182 311.022 90.4392 310.697 90.6811C310.372 90.9197 310.127 91.2545 309.961 91.6854C309.795 92.1129 309.713 92.6117 309.713 93.1818ZM320.516 97.1392C319.86 97.1392 319.275 97.0265 318.761 96.8011C318.25 96.5758 317.844 96.2625 317.543 95.8615C317.244 95.4571 317.082 94.9882 317.056 94.4545H318.308C318.335 94.7827 318.448 95.0661 318.646 95.3047C318.845 95.54 319.106 95.7223 319.427 95.8516C319.749 95.9808 320.105 96.0455 320.496 96.0455C320.933 96.0455 321.321 95.9692 321.659 95.8168C321.997 95.6643 322.262 95.4522 322.455 95.1804C322.647 94.9086 322.743 94.5938 322.743 94.2358C322.743 93.8613 322.65 93.5315 322.465 93.2464C322.279 92.9581 322.007 92.7327 321.649 92.5703C321.291 92.4079 320.854 92.3267 320.337 92.3267H319.521V91.233H320.337C320.741 91.233 321.096 91.16 321.401 91.0142C321.709 90.8684 321.949 90.6629 322.122 90.3977C322.297 90.1326 322.385 89.821 322.385 89.4631C322.385 89.1184 322.309 88.8184 322.156 88.5632C322.004 88.308 321.789 88.1091 321.51 87.9666C321.235 87.8241 320.91 87.7528 320.536 87.7528C320.184 87.7528 319.853 87.8175 319.541 87.9467C319.233 88.0727 318.981 88.2566 318.786 88.4986C318.59 88.7372 318.484 89.0256 318.468 89.3636H317.274C317.294 88.83 317.455 88.3627 317.757 87.9616C318.058 87.5573 318.453 87.2424 318.94 87.017C319.43 86.7917 319.969 86.679 320.556 86.679C321.185 86.679 321.726 86.8066 322.176 87.0618C322.627 87.3137 322.973 87.6468 323.215 88.0611C323.457 88.4754 323.578 88.9228 323.578 89.4034C323.578 89.9768 323.427 90.4657 323.126 90.87C322.828 91.2744 322.422 91.5545 321.908 91.7102V91.7898C322.551 91.8958 323.053 92.1693 323.414 92.6101C323.776 93.0476 323.956 93.5895 323.956 94.2358C323.956 94.7893 323.805 95.2865 323.504 95.7273C323.205 96.1648 322.798 96.5095 322.281 96.7614C321.764 97.0133 321.175 97.1392 320.516 97.1392ZM332.83 97.1591C332.194 97.1591 331.632 96.9983 331.145 96.6768C330.658 96.352 330.277 95.8946 330.002 95.3047C329.727 94.7114 329.589 94.0104 329.589 93.2017C329.589 92.3996 329.727 91.7036 330.002 91.1136C330.277 90.5237 330.66 90.0679 331.15 89.7464C331.641 89.425 332.207 89.2642 332.85 89.2642C333.347 89.2642 333.74 89.3471 334.029 89.5128C334.32 89.6752 334.542 89.8608 334.695 90.0696C334.851 90.2751 334.972 90.4441 335.058 90.5767H335.157V86.8182H336.33V97H335.197V95.8267H335.058C334.972 95.9659 334.849 96.1416 334.69 96.3537C334.531 96.5625 334.304 96.7498 334.009 96.9155C333.714 97.0779 333.321 97.1591 332.83 97.1591ZM332.99 96.1051C333.46 96.1051 333.858 95.9825 334.183 95.7372C334.508 95.4886 334.754 95.1456 334.923 94.7081C335.093 94.2673 335.177 93.7585 335.177 93.1818C335.177 92.6117 335.094 92.1129 334.928 91.6854C334.763 91.2545 334.517 90.9197 334.193 90.6811C333.868 90.4392 333.467 90.3182 332.99 90.3182C332.492 90.3182 332.078 90.4458 331.747 90.701C331.419 90.9529 331.172 91.2959 331.006 91.7301C330.843 92.161 330.762 92.6449 330.762 93.1818C330.762 93.7254 330.845 94.2192 331.011 94.6634C331.18 95.1042 331.428 95.4555 331.757 95.7173C332.088 95.9759 332.499 96.1051 332.99 96.1051ZM338.642 97V89.3636H339.816V97H338.642ZM339.239 88.0909C339.01 88.0909 338.813 88.013 338.647 87.8572C338.485 87.7015 338.404 87.5142 338.404 87.2955C338.404 87.0767 338.485 86.8894 338.647 86.7337C338.813 86.5779 339.01 86.5 339.239 86.5C339.468 86.5 339.663 86.5779 339.825 86.7337C339.991 86.8894 340.074 87.0767 340.074 87.2955C340.074 87.5142 339.991 87.7015 339.825 87.8572C339.663 88.013 339.468 88.0909 339.239 88.0909ZM345.047 100.023C344.48 100.023 343.993 99.9498 343.585 99.804C343.178 99.6615 342.838 99.4725 342.566 99.2372C342.298 99.0052 342.084 98.7566 341.925 98.4915L342.859 97.8352C342.965 97.9744 343.1 98.1335 343.262 98.3125C343.424 98.4948 343.647 98.6522 343.928 98.7848C344.213 98.9207 344.586 98.9886 345.047 98.9886C345.663 98.9886 346.172 98.8395 346.573 98.5412C346.974 98.2429 347.175 97.7756 347.175 97.1392V95.5881H347.075C346.989 95.7273 346.866 95.8996 346.707 96.1051C346.552 96.3073 346.326 96.4879 346.031 96.647C345.74 96.8028 345.345 96.8807 344.848 96.8807C344.232 96.8807 343.678 96.7348 343.188 96.4432C342.7 96.1515 342.314 95.7273 342.029 95.1705C341.747 94.6136 341.607 93.9375 341.607 93.142C341.607 92.3598 341.744 91.6787 342.019 91.0987C342.294 90.5154 342.677 90.0646 343.168 89.7464C343.658 89.425 344.225 89.2642 344.868 89.2642C345.365 89.2642 345.759 89.3471 346.051 89.5128C346.346 89.6752 346.571 89.8608 346.727 90.0696C346.886 90.2751 347.009 90.4441 347.095 90.5767H347.214V89.3636H348.348V97.2188C348.348 97.875 348.199 98.4086 347.901 98.8196C347.606 99.2339 347.208 99.5372 346.707 99.7294C346.21 99.925 345.657 100.023 345.047 100.023ZM345.007 95.8267C345.478 95.8267 345.875 95.719 346.2 95.5036C346.525 95.2881 346.772 94.9782 346.941 94.5739C347.11 94.1695 347.195 93.6856 347.195 93.1222C347.195 92.572 347.112 92.0864 346.946 91.6655C346.78 91.2446 346.535 90.9148 346.21 90.6761C345.885 90.4375 345.484 90.3182 345.007 90.3182C344.51 90.3182 344.096 90.4441 343.764 90.696C343.436 90.9479 343.189 91.286 343.023 91.7102C342.861 92.1345 342.78 92.6051 342.78 93.1222C342.78 93.6525 342.863 94.1214 343.028 94.5291C343.197 94.9335 343.446 95.2517 343.774 95.4837C344.106 95.7124 344.517 95.8267 345.007 95.8267ZM350.496 97V89.3636H351.669V97H350.496ZM351.092 88.0909C350.864 88.0909 350.666 88.013 350.501 87.8572C350.338 87.7015 350.257 87.5142 350.257 87.2955C350.257 87.0767 350.338 86.8894 350.501 86.7337C350.666 86.5779 350.864 86.5 351.092 86.5C351.321 86.5 351.517 86.5779 351.679 86.7337C351.845 86.8894 351.928 87.0767 351.928 87.2955C351.928 87.5142 351.845 87.7015 351.679 87.8572C351.517 88.013 351.321 88.0909 351.092 88.0909ZM357.139 89.3636V90.358H353.182V89.3636H357.139ZM354.335 87.5341H355.508V94.8125C355.508 95.1439 355.556 95.3925 355.653 95.5582C355.752 95.7206 355.878 95.83 356.03 95.8864C356.186 95.9394 356.35 95.9659 356.523 95.9659C356.652 95.9659 356.758 95.9593 356.841 95.946C356.924 95.9295 356.99 95.9162 357.04 95.9062L357.278 96.9602C357.199 96.9901 357.088 97.0199 356.945 97.0497C356.803 97.0829 356.622 97.0994 356.403 97.0994C356.072 97.0994 355.747 97.0282 355.429 96.8857C355.114 96.7431 354.852 96.526 354.643 96.2344C354.438 95.9427 354.335 95.5748 354.335 95.1307V87.5341ZM361.151 97.179C360.667 97.179 360.228 97.0878 359.834 96.9055C359.439 96.7199 359.126 96.4531 358.894 96.1051C358.662 95.7538 358.546 95.3295 358.546 94.8324C358.546 94.3949 358.632 94.0402 358.805 93.7685C358.977 93.4934 359.207 93.2779 359.496 93.1222C359.784 92.9664 360.102 92.8504 360.45 92.7741C360.801 92.6946 361.154 92.6316 361.509 92.5852C361.973 92.5256 362.349 92.4808 362.638 92.451C362.929 92.4179 363.141 92.3632 363.274 92.2869C363.41 92.2107 363.478 92.0781 363.478 91.8892V91.8494C363.478 91.3589 363.344 90.9777 363.075 90.706C362.81 90.4342 362.407 90.2983 361.867 90.2983C361.307 90.2983 360.868 90.4209 360.55 90.6662C360.231 90.9115 360.008 91.1733 359.878 91.4517L358.765 91.054C358.964 90.59 359.229 90.2287 359.56 89.9702C359.895 89.7083 360.26 89.526 360.654 89.4233C361.052 89.3172 361.443 89.2642 361.827 89.2642C362.073 89.2642 362.354 89.294 362.672 89.3537C362.994 89.41 363.304 89.5277 363.602 89.7067C363.904 89.8857 364.154 90.1558 364.353 90.517C364.552 90.8783 364.651 91.3622 364.651 91.9688V97H363.478V95.9659H363.418C363.339 96.1316 363.206 96.3089 363.02 96.4979C362.835 96.6868 362.588 96.8475 362.28 96.9801C361.971 97.1127 361.595 97.179 361.151 97.179ZM361.33 96.125C361.794 96.125 362.185 96.0339 362.503 95.8516C362.825 95.6693 363.067 95.4339 363.229 95.1456C363.395 94.8572 363.478 94.554 363.478 94.2358V93.1619C363.428 93.2216 363.319 93.2763 363.15 93.326C362.984 93.3724 362.792 93.4138 362.573 93.4503C362.358 93.4834 362.147 93.5133 361.942 93.5398C361.739 93.563 361.575 93.5829 361.449 93.5994C361.144 93.6392 360.859 93.7038 360.594 93.7933C360.332 93.8795 360.12 94.0104 359.958 94.1861C359.799 94.3584 359.719 94.5937 359.719 94.892C359.719 95.2997 359.87 95.608 360.172 95.8168C360.477 96.0223 360.863 96.125 361.33 96.125ZM367.966 86.8182V97H366.793V86.8182H367.966ZM100.176 117.159C99.4602 117.159 98.8438 116.99 98.3267 116.652C97.8097 116.314 97.4119 115.848 97.1335 115.255C96.8551 114.662 96.7159 113.984 96.7159 113.222C96.7159 112.446 96.8584 111.762 97.1435 111.168C97.4318 110.572 97.8329 110.106 98.3466 109.771C98.8636 109.433 99.4669 109.264 100.156 109.264C100.693 109.264 101.177 109.364 101.608 109.562C102.039 109.761 102.392 110.04 102.667 110.398C102.942 110.756 103.113 111.173 103.179 111.651H102.006C101.916 111.303 101.717 110.994 101.409 110.726C101.104 110.454 100.693 110.318 100.176 110.318C99.7188 110.318 99.3177 110.437 98.973 110.676C98.6316 110.911 98.3648 111.245 98.1726 111.675C97.9837 112.103 97.8892 112.605 97.8892 113.182C97.8892 113.772 97.982 114.286 98.1676 114.723C98.3565 115.161 98.6217 115.5 98.9631 115.742C99.3078 115.984 99.7121 116.105 100.176 116.105C100.481 116.105 100.758 116.052 101.006 115.946C101.255 115.84 101.465 115.688 101.638 115.489C101.81 115.29 101.933 115.051 102.006 114.773H103.179C103.113 115.223 102.949 115.629 102.687 115.991C102.428 116.349 102.085 116.634 101.658 116.846C101.233 117.055 100.74 117.159 100.176 117.159ZM107.996 117.159C107.307 117.159 106.702 116.995 106.182 116.667C105.665 116.339 105.26 115.88 104.969 115.29C104.68 114.7 104.536 114.01 104.536 113.222C104.536 112.426 104.68 111.732 104.969 111.138C105.26 110.545 105.665 110.085 106.182 109.756C106.702 109.428 107.307 109.264 107.996 109.264C108.686 109.264 109.289 109.428 109.806 109.756C110.326 110.085 110.731 110.545 111.019 111.138C111.311 111.732 111.457 112.426 111.457 113.222C111.457 114.01 111.311 114.7 111.019 115.29C110.731 115.88 110.326 116.339 109.806 116.667C109.289 116.995 108.686 117.159 107.996 117.159ZM107.996 116.105C108.52 116.105 108.951 115.971 109.289 115.702C109.627 115.434 109.877 115.081 110.04 114.643C110.202 114.206 110.283 113.732 110.283 113.222C110.283 112.711 110.202 112.236 110.04 111.795C109.877 111.354 109.627 110.998 109.289 110.726C108.951 110.454 108.52 110.318 107.996 110.318C107.473 110.318 107.042 110.454 106.704 110.726C106.366 110.998 106.116 111.354 105.953 111.795C105.791 112.236 105.71 112.711 105.71 113.222C105.71 113.732 105.791 114.206 105.953 114.643C106.116 115.081 106.366 115.434 106.704 115.702C107.042 115.971 107.473 116.105 107.996 116.105ZM114.421 106.818V117H113.248V106.818H114.421ZM117.743 106.818V117H116.57V106.818H117.743ZM123.094 117.159C122.358 117.159 121.723 116.997 121.19 116.672C120.66 116.344 120.25 115.886 119.962 115.3C119.677 114.71 119.534 114.024 119.534 113.241C119.534 112.459 119.677 111.77 119.962 111.173C120.25 110.573 120.651 110.106 121.165 109.771C121.682 109.433 122.285 109.264 122.975 109.264C123.372 109.264 123.765 109.33 124.153 109.463C124.541 109.596 124.894 109.811 125.212 110.109C125.53 110.404 125.784 110.795 125.972 111.283C126.161 111.77 126.256 112.37 126.256 113.082V113.58H120.369V112.565H125.063C125.063 112.134 124.977 111.75 124.804 111.412C124.635 111.074 124.393 110.807 124.078 110.612C123.767 110.416 123.399 110.318 122.975 110.318C122.507 110.318 122.103 110.434 121.762 110.666C121.423 110.895 121.163 111.193 120.981 111.561C120.799 111.929 120.708 112.323 120.708 112.744V113.42C120.708 113.997 120.807 114.486 121.006 114.887C121.208 115.285 121.488 115.588 121.846 115.797C122.204 116.002 122.62 116.105 123.094 116.105C123.402 116.105 123.681 116.062 123.929 115.976C124.181 115.886 124.398 115.754 124.58 115.578C124.763 115.399 124.904 115.177 125.003 114.912L126.137 115.23C126.017 115.615 125.817 115.953 125.535 116.244C125.253 116.533 124.905 116.758 124.491 116.92C124.077 117.08 123.611 117.159 123.094 117.159ZM131.143 117.159C130.427 117.159 129.811 116.99 129.294 116.652C128.776 116.314 128.379 115.848 128.1 115.255C127.822 114.662 127.683 113.984 127.683 113.222C127.683 112.446 127.825 111.762 128.11 111.168C128.399 110.572 128.8 110.106 129.313 109.771C129.83 109.433 130.434 109.264 131.123 109.264C131.66 109.264 132.144 109.364 132.575 109.562C133.006 109.761 133.359 110.04 133.634 110.398C133.909 110.756 134.079 111.173 134.146 111.651H132.972C132.883 111.303 132.684 110.994 132.376 110.726C132.071 110.454 131.66 110.318 131.143 110.318C130.686 110.318 130.285 110.437 129.94 110.676C129.598 110.911 129.332 111.245 129.139 111.675C128.95 112.103 128.856 112.605 128.856 113.182C128.856 113.772 128.949 114.286 129.134 114.723C129.323 115.161 129.588 115.5 129.93 115.742C130.275 115.984 130.679 116.105 131.143 116.105C131.448 116.105 131.725 116.052 131.973 115.946C132.222 115.84 132.432 115.688 132.605 115.489C132.777 115.29 132.9 115.051 132.972 114.773H134.146C134.079 115.223 133.915 115.629 133.654 115.991C133.395 116.349 133.052 116.634 132.624 116.846C132.2 117.055 131.706 117.159 131.143 117.159ZM139.182 109.364V110.358H135.225V109.364H139.182ZM136.378 107.534H137.551V114.812C137.551 115.144 137.599 115.393 137.695 115.558C137.795 115.721 137.921 115.83 138.073 115.886C138.229 115.939 138.393 115.966 138.566 115.966C138.695 115.966 138.801 115.959 138.884 115.946C138.967 115.929 139.033 115.916 139.083 115.906L139.321 116.96C139.242 116.99 139.131 117.02 138.988 117.05C138.846 117.083 138.665 117.099 138.446 117.099C138.115 117.099 137.79 117.028 137.472 116.886C137.157 116.743 136.895 116.526 136.686 116.234C136.481 115.943 136.378 115.575 136.378 115.131V107.534ZM140.947 117V109.364H142.12V117H140.947ZM141.544 108.091C141.315 108.091 141.118 108.013 140.952 107.857C140.789 107.701 140.708 107.514 140.708 107.295C140.708 107.077 140.789 106.889 140.952 106.734C141.118 106.578 141.315 106.5 141.544 106.5C141.772 106.5 141.968 106.578 142.13 106.734C142.296 106.889 142.379 107.077 142.379 107.295C142.379 107.514 142.296 107.701 142.13 107.857C141.968 108.013 141.772 108.091 141.544 108.091ZM144.428 117V106.818H145.602V110.577H145.701C145.787 110.444 145.906 110.275 146.059 110.07C146.215 109.861 146.437 109.675 146.725 109.513C147.017 109.347 147.411 109.264 147.908 109.264C148.551 109.264 149.118 109.425 149.609 109.746C150.099 110.068 150.482 110.524 150.757 111.114C151.032 111.704 151.17 112.4 151.17 113.202C151.17 114.01 151.032 114.711 150.757 115.305C150.482 115.895 150.101 116.352 149.614 116.677C149.126 116.998 148.565 117.159 147.928 117.159C147.438 117.159 147.045 117.078 146.75 116.915C146.455 116.75 146.228 116.562 146.069 116.354C145.91 116.142 145.787 115.966 145.701 115.827H145.562V117H144.428ZM145.582 113.182C145.582 113.759 145.666 114.267 145.835 114.708C146.004 115.146 146.251 115.489 146.576 115.737C146.901 115.982 147.299 116.105 147.769 116.105C148.26 116.105 148.669 115.976 148.997 115.717C149.329 115.455 149.577 115.104 149.743 114.663C149.912 114.219 149.996 113.725 149.996 113.182C149.996 112.645 149.914 112.161 149.748 111.73C149.585 111.296 149.339 110.953 149.007 110.701C148.679 110.446 148.266 110.318 147.769 110.318C147.292 110.318 146.891 110.439 146.566 110.681C146.241 110.92 145.996 111.254 145.83 111.685C145.665 112.113 145.582 112.612 145.582 113.182ZM154.138 106.818V117H152.964V106.818H154.138ZM159.488 117.159C158.753 117.159 158.118 116.997 157.584 116.672C157.054 116.344 156.645 115.886 156.356 115.3C156.071 114.71 155.929 114.024 155.929 113.241C155.929 112.459 156.071 111.77 156.356 111.173C156.645 110.573 157.046 110.106 157.559 109.771C158.077 109.433 158.68 109.264 159.369 109.264C159.767 109.264 160.16 109.33 160.547 109.463C160.935 109.596 161.288 109.811 161.606 110.109C161.925 110.404 162.178 110.795 162.367 111.283C162.556 111.77 162.65 112.37 162.65 113.082V113.58H156.764V112.565H161.457C161.457 112.134 161.371 111.75 161.199 111.412C161.03 111.074 160.788 110.807 160.473 110.612C160.161 110.416 159.793 110.318 159.369 110.318C158.902 110.318 158.497 110.434 158.156 110.666C157.818 110.895 157.558 111.193 157.376 111.561C157.193 111.929 157.102 112.323 157.102 112.744V113.42C157.102 113.997 157.202 114.486 157.4 114.887C157.603 115.285 157.883 115.588 158.241 115.797C158.599 116.002 159.015 116.105 159.488 116.105C159.797 116.105 160.075 116.062 160.324 115.976C160.576 115.886 160.793 115.754 160.975 115.578C161.157 115.399 161.298 115.177 161.398 114.912L162.531 115.23C162.412 115.615 162.211 115.953 161.93 116.244C161.648 116.533 161.3 116.758 160.885 116.92C160.471 117.08 160.006 117.159 159.488 117.159ZM169.844 111.074L168.79 111.372C168.724 111.196 168.626 111.026 168.497 110.86C168.371 110.691 168.199 110.552 167.98 110.442C167.761 110.333 167.481 110.278 167.14 110.278C166.672 110.278 166.283 110.386 165.971 110.602C165.663 110.814 165.509 111.084 165.509 111.412C165.509 111.704 165.615 111.934 165.827 112.103C166.039 112.272 166.371 112.413 166.822 112.526L167.955 112.804C168.638 112.97 169.147 113.223 169.481 113.565C169.816 113.903 169.983 114.339 169.983 114.872C169.983 115.31 169.858 115.701 169.606 116.045C169.357 116.39 169.009 116.662 168.562 116.861C168.114 117.06 167.594 117.159 167.001 117.159C166.222 117.159 165.577 116.99 165.067 116.652C164.556 116.314 164.233 115.82 164.097 115.17L165.211 114.892C165.317 115.303 165.517 115.611 165.812 115.817C166.111 116.022 166.5 116.125 166.981 116.125C167.528 116.125 167.962 116.009 168.283 115.777C168.608 115.542 168.77 115.26 168.77 114.932C168.77 114.667 168.678 114.445 168.492 114.266C168.306 114.083 168.021 113.947 167.637 113.858L166.364 113.56C165.665 113.394 165.151 113.137 164.823 112.789C164.498 112.438 164.336 111.999 164.336 111.472C164.336 111.041 164.457 110.66 164.699 110.328C164.944 109.997 165.277 109.737 165.698 109.548C166.122 109.359 166.603 109.264 167.14 109.264C167.895 109.264 168.489 109.43 168.92 109.761C169.354 110.093 169.662 110.53 169.844 111.074Z" fill="#C8C8C8"/>
<defs>
<clipPath id="clip0_716_86">
<rect width="40" height="50" fill="white" transform="translate(32 55)"/>
</clipPath>
</defs>
</svg>
