<svg width="40" height="41" viewBox="0 0 40 41" fill="none" xmlns="http://www.w3.org/2000/svg">
    <g id="c-add 1" clip-path="url(#clip0_458_176)">
        <g id="Group">
            <path id="&#238;&#148;&#133;"
                d="M23.1626 46.3863C21.2027 47.5361 18.7973 47.5361 16.7483 46.3863L3.20713 38.6034C1.15813 37.4537 0 35.3311 0 33.0316V17.4657C0 15.1662 1.15813 13.0436 3.20713 11.8939L16.7483 4.11097C18.7973 2.96122 21.2027 2.96122 23.1626 4.11097L36.7929 11.8939C38.8419 13.0436 40 15.1662 40 17.4657V33.0316C40 35.3311 38.8419 37.4537 36.7929 38.6034L23.1626 46.3863ZM8.46325 17.6426C8.28508 17.0235 7.57238 16.6698 6.85969 16.7582C6.23608 16.9351 5.70156 17.4657 5.70156 18.1733V32.324C5.70156 33.12 6.41425 33.7391 7.12695 33.7391C7.92873 33.7391 8.55234 33.12 8.55234 32.324V25.514L11.5813 32.8547C11.7595 33.4738 12.4722 33.8276 13.0958 33.7391C13.8085 33.5622 14.2539 33.0316 14.2539 32.324V18.1733C14.2539 17.3773 13.6303 16.7582 12.8285 16.7582C12.1158 16.7582 11.4031 17.3773 11.4031 18.1733V24.9833L8.46325 17.6426ZM17.1047 18.1733V25.2487V32.324C17.1047 33.12 17.8174 33.7391 18.5301 33.7391C19.3318 33.7391 19.9555 33.12 19.9555 32.324V26.6637H22.8062C23.608 26.6637 24.2316 26.0446 24.2316 25.2487C24.2316 24.4527 23.608 23.8336 22.8062 23.8336H19.9555V19.5884H22.8062C23.608 19.5884 24.2316 18.9693 24.2316 18.1733C24.2316 17.3773 23.608 16.7582 22.8062 16.7582H18.5301C17.8174 16.7582 17.1047 17.3773 17.1047 18.1733ZM27.0824 16.7582C26.3697 16.7582 25.657 17.3773 25.657 18.1733C25.657 18.9693 26.3697 19.5884 27.0824 19.5884H28.5078V32.324C28.5078 33.12 29.2205 33.7391 29.9332 33.7391C30.735 33.7391 31.3586 33.12 31.3586 32.324V19.5884H32.784C33.5857 19.5884 34.2094 18.9693 34.2094 18.1733C34.2094 17.3773 33.5857 16.7582 32.784 16.7582H27.0824Z"
                fill="white" />
        </g>
    </g>
    <defs>
        <clipPath id="clip0_458_176">
            <rect width="40" height="40" fill="white" transform="translate(0 0.975952)" />
        </clipPath>
    </defs>
</svg>