<svg width="450" height="160" viewBox="0 0 450 160" fill="none" xmlns="http://www.w3.org/2000/svg">
<path d="M51.9999 105.231C40.5971 105.231 32 101.861 32 97.3987C32 92.9361 40.5971 89.5664 51.9999 89.5664C63.4028 89.5664 71.9998 92.9361 71.9998 97.3987C71.9998 101.861 63.4028 105.231 51.9999 105.231ZM51.9999 91.4351C41.3685 91.4351 33.9604 94.5781 33.9604 97.3987C33.9604 100.219 41.3685 103.362 51.9999 103.362C62.6313 103.362 70.0395 100.219 70.0395 97.3987C70.0395 94.5781 62.6313 91.4351 51.9999 91.4351Z" fill="white"/>
<path d="M51.9999 105.231C40.5971 105.231 32 101.861 32 97.3987C32 92.9361 40.5971 89.5664 51.9999 89.5664C63.4028 89.5664 71.9998 92.9361 71.9998 97.3987C71.9998 101.861 63.4028 105.231 51.9999 105.231ZM51.9999 91.4351C41.3685 91.4351 33.9604 94.5781 33.9604 97.3987C33.9604 100.219 41.3685 103.362 51.9999 103.362C62.6313 103.362 70.0395 100.219 70.0395 97.3987C70.0395 94.5781 62.6313 91.4351 51.9999 91.4351Z" fill="white"/>
<path d="M51.9991 105.23C44.2052 105.23 35.9199 102.984 35.9199 98.8182C35.9199 96.9394 37.7165 95.2521 40.9767 94.0734C43.9357 93.0006 47.8512 92.4062 52.0044 92.4062C59.7983 92.4062 68.0836 94.6527 68.0836 98.8182C68.0836 100.697 66.287 102.384 63.0268 103.563C60.0678 104.636 56.1523 105.23 51.9991 105.23ZM51.9991 94.2749C48.0837 94.2749 44.4166 94.8239 41.6689 95.8162C39.2964 96.6775 37.8803 97.7957 37.8803 98.8131C37.8803 99.8306 39.2964 100.949 41.6689 101.81C44.4113 102.807 48.0784 103.351 51.9991 103.351C55.9198 103.351 59.5816 102.802 62.3293 101.81C64.7018 100.949 66.1179 99.8306 66.1179 98.8131C66.1179 97.7957 64.7018 96.6775 62.3293 95.8162C59.5869 94.8189 55.9198 94.2749 51.9991 94.2749Z" fill="white"/>
<path d="M51.9991 105.23C44.2052 105.23 35.9199 102.984 35.9199 98.8182C35.9199 96.9394 37.7165 95.2521 40.9767 94.0734C43.9357 93.0006 47.8512 92.4062 52.0044 92.4062C59.7983 92.4062 68.0836 94.6527 68.0836 98.8182C68.0836 100.697 66.287 102.384 63.0268 103.563C60.0678 104.636 56.1523 105.23 51.9991 105.23ZM51.9991 94.2749C48.0837 94.2749 44.4166 94.8239 41.6689 95.8162C39.2964 96.6775 37.8803 97.7957 37.8803 98.8131C37.8803 99.8306 39.2964 100.949 41.6689 101.81C44.4113 102.807 48.0784 103.351 51.9991 103.351C55.9198 103.351 59.5816 102.802 62.3293 101.81C64.7018 100.949 66.1179 99.8306 66.1179 98.8131C66.1179 97.7957 64.7018 96.6775 62.3293 95.8162C59.5869 94.8189 55.9198 94.2749 51.9991 94.2749Z" fill="white"/>
<path d="M51.9996 105.232C49.141 105.232 46.4356 104.824 44.3907 104.079C42.0446 103.228 40.75 101.983 40.75 100.573C40.75 99.1628 42.0446 97.9187 44.3907 97.0675C46.4409 96.322 49.141 95.9141 51.9996 95.9141C54.8583 95.9141 57.5637 96.322 59.6086 97.0675C61.9547 97.9187 63.2492 99.1628 63.2492 100.573C63.2492 101.983 61.9547 103.228 59.6086 104.079C57.5584 104.824 54.8583 105.232 51.9996 105.232ZM51.9996 97.7827C45.4739 97.7827 42.7104 99.7773 42.7104 100.573C42.7104 101.369 45.4739 103.364 51.9996 103.364C58.5254 103.364 61.2889 101.369 61.2889 100.573C61.2889 99.7773 58.5254 97.7827 51.9996 97.7827Z" fill="white"/>
<path d="M51.9996 105.232C49.141 105.232 46.4356 104.824 44.3907 104.079C42.0446 103.228 40.75 101.983 40.75 100.573C40.75 99.1628 42.0446 97.9187 44.3907 97.0675C46.4409 96.322 49.141 95.9141 51.9996 95.9141C54.8583 95.9141 57.5637 96.322 59.6086 97.0675C61.9547 97.9187 63.2492 99.1628 63.2492 100.573C63.2492 101.983 61.9547 103.228 59.6086 104.079C57.5584 104.824 54.8583 105.232 51.9996 105.232ZM51.9996 97.7827C45.4739 97.7827 42.7104 99.7773 42.7104 100.573C42.7104 101.369 45.4739 103.364 51.9996 103.364C58.5254 103.364 61.2889 101.369 61.2889 100.573C61.2889 99.7773 58.5254 97.7827 51.9996 97.7827Z" fill="white"/>
<path d="M70.0858 82.691L62.5509 70.4967C62.2232 69.9679 61.4729 69.8571 60.9921 70.26L51.1744 78.5557C50.7464 78.9184 50.7147 79.5429 51.1004 79.9459L53.5734 82.5247C53.9485 82.9126 54.5773 82.9478 54.9947 82.6053L57.679 80.4093C58.1017 80.0668 58.7305 80.102 59.1004 80.4949L59.7398 81.1648C60.0885 81.5325 60.0938 82.0865 59.7556 82.4593C58.4769 83.8595 55.4809 87.1435 54.1493 88.5992C53.7847 88.9971 53.1559 89.0475 52.7279 88.71L45.2458 82.4593C44.1203 81.5778 43.9301 80.0063 44.8125 78.8982L58.5297 65.3138C58.7834 64.9965 58.8098 64.5684 58.5984 64.2258L52.5588 54.3637C52.4796 54.2277 52.358 54.1118 52.2048 54.0615C52.0727 54.0212 51.9247 54.0212 51.7926 54.0615C51.6394 54.1068 51.5179 54.2277 51.4386 54.3637L33.9169 82.691C33.6527 82.9428 33.6527 83.3508 33.9169 83.6026L50.7993 99.6954C51.4598 100.325 52.543 100.325 53.2035 99.6954L70.0858 83.6026C70.35 83.3508 70.35 82.9428 70.0858 82.691Z" fill="white"/>
<path d="M70.0858 82.691L62.5509 70.4967C62.2232 69.9679 61.4729 69.8571 60.9921 70.26L51.1744 78.5557C50.7464 78.9184 50.7147 79.5429 51.1004 79.9459L53.5734 82.5247C53.9485 82.9126 54.5773 82.9478 54.9947 82.6053L57.679 80.4093C58.1017 80.0668 58.7305 80.102 59.1004 80.4949L59.7398 81.1648C60.0885 81.5325 60.0938 82.0865 59.7556 82.4593C58.4769 83.8595 55.4809 87.1435 54.1493 88.5992C53.7847 88.9971 53.1559 89.0475 52.7279 88.71L45.2458 82.4593C44.1203 81.5778 43.9301 80.0063 44.8125 78.8982L58.5297 65.3138C58.7834 64.9965 58.8098 64.5684 58.5984 64.2258L52.5588 54.3637C52.4796 54.2277 52.358 54.1118 52.2048 54.0615C52.0727 54.0212 51.9247 54.0212 51.7926 54.0615C51.6394 54.1068 51.5179 54.2277 51.4386 54.3637L33.9169 82.691C33.6527 82.9428 33.6527 83.3508 33.9169 83.6026L50.7993 99.6954C51.4598 100.325 52.543 100.325 53.2035 99.6954L70.0858 83.6026C70.35 83.3508 70.35 82.9428 70.0858 82.691Z" fill="white"/>
<path d="M110.631 51.7273C110.631 53.3134 110.33 54.6629 109.729 55.7756C109.132 56.8883 108.318 57.7382 107.286 58.3253C106.258 58.9077 105.103 59.1989 103.82 59.1989C102.527 59.1989 101.367 58.9053 100.339 58.3182C99.312 57.7311 98.5 56.8812 97.9034 55.7685C97.3068 54.6558 97.0085 53.3087 97.0085 51.7273C97.0085 50.1411 97.3068 48.7917 97.9034 47.679C98.5 46.5663 99.312 45.7187 100.339 45.1364C101.367 44.5492 102.527 44.2557 103.82 44.2557C105.103 44.2557 106.258 44.5492 107.286 45.1364C108.318 45.7187 109.132 46.5663 109.729 47.679C110.33 48.7917 110.631 50.1411 110.631 51.7273ZM107.513 51.7273C107.513 50.6998 107.359 49.8333 107.051 49.1278C106.748 48.4223 106.32 47.8873 105.766 47.5227C105.212 47.1581 104.563 46.9759 103.82 46.9759C103.076 46.9759 102.428 47.1581 101.874 47.5227C101.32 47.8873 100.889 48.4223 100.581 49.1278C100.278 49.8333 100.126 50.6998 100.126 51.7273C100.126 52.7547 100.278 53.6212 100.581 54.3267C100.889 55.0322 101.32 55.5672 101.874 55.9318C102.428 56.2964 103.076 56.4787 103.82 56.4787C104.563 56.4787 105.212 56.2964 105.766 55.9318C106.32 55.5672 106.748 55.0322 107.051 54.3267C107.359 53.6212 107.513 52.7547 107.513 51.7273ZM115.963 59.206C115.267 59.206 114.646 59.0852 114.102 58.8438C113.557 58.5975 113.127 58.2353 112.809 57.7571C112.497 57.2741 112.341 56.6728 112.341 55.9531C112.341 55.3471 112.452 54.8381 112.674 54.4261C112.897 54.0142 113.2 53.6828 113.583 53.4318C113.967 53.1809 114.403 52.9915 114.89 52.8636C115.383 52.7358 115.899 52.6458 116.439 52.5938C117.073 52.5275 117.584 52.4659 117.973 52.4091C118.361 52.3475 118.643 52.2576 118.818 52.1392C118.993 52.0208 119.081 51.8456 119.081 51.6136V51.571C119.081 51.1212 118.939 50.7732 118.654 50.527C118.375 50.2808 117.977 50.1577 117.461 50.1577C116.917 50.1577 116.484 50.2784 116.162 50.5199C115.84 50.7566 115.627 51.0549 115.522 51.4148L112.724 51.1875C112.866 50.5246 113.145 49.9517 113.562 49.4688C113.979 48.9811 114.516 48.607 115.174 48.3466C115.837 48.0814 116.604 47.9489 117.475 47.9489C118.082 47.9489 118.662 48.0199 119.216 48.1619C119.774 48.304 120.269 48.5241 120.7 48.8224C121.136 49.1207 121.479 49.5043 121.73 49.973C121.981 50.437 122.106 50.9934 122.106 51.642V59H119.237V57.4872H119.152C118.976 57.8281 118.742 58.1288 118.449 58.3892C118.155 58.6449 117.802 58.8461 117.39 58.9929C116.978 59.1349 116.502 59.206 115.963 59.206ZM116.829 57.1179C117.274 57.1179 117.667 57.0303 118.008 56.8551C118.349 56.6752 118.617 56.4337 118.811 56.1307C119.005 55.8277 119.102 55.4844 119.102 55.1009V53.9432C119.007 54.0047 118.877 54.0616 118.711 54.1136C118.55 54.161 118.368 54.206 118.164 54.2486C117.961 54.2865 117.757 54.322 117.554 54.3551C117.35 54.3835 117.165 54.4096 117 54.4332C116.645 54.4853 116.334 54.5682 116.069 54.6818C115.804 54.7955 115.598 54.9493 115.451 55.1435C115.305 55.3329 115.231 55.5696 115.231 55.8537C115.231 56.2656 115.38 56.5805 115.679 56.7983C115.982 57.0114 116.365 57.1179 116.829 57.1179ZM133.53 51.2017L130.76 51.3722C130.713 51.1354 130.611 50.9223 130.455 50.733C130.299 50.5388 130.093 50.3849 129.837 50.2713C129.586 50.1529 129.285 50.0938 128.935 50.0938C128.466 50.0938 128.071 50.1932 127.749 50.392C127.427 50.5862 127.266 50.8466 127.266 51.1733C127.266 51.4337 127.37 51.6539 127.578 51.8338C127.787 52.0137 128.144 52.1581 128.651 52.267L130.625 52.6648C131.686 52.8826 132.477 53.233 132.998 53.7159C133.518 54.1989 133.779 54.8333 133.779 55.6193C133.779 56.3343 133.568 56.9616 133.147 57.5014C132.73 58.0412 132.157 58.4626 131.428 58.7656C130.703 59.0639 129.868 59.2131 128.921 59.2131C127.477 59.2131 126.326 58.9124 125.469 58.3111C124.617 57.705 124.117 56.8812 123.971 55.8395L126.946 55.6832C127.036 56.1236 127.254 56.4598 127.6 56.6918C127.945 56.919 128.388 57.0327 128.928 57.0327C129.458 57.0327 129.884 56.9309 130.206 56.7273C130.533 56.5189 130.699 56.2514 130.703 55.9247C130.699 55.6501 130.583 55.4252 130.355 55.25C130.128 55.0701 129.778 54.9328 129.304 54.8381L127.415 54.4616C126.35 54.2486 125.557 53.8793 125.036 53.3537C124.52 52.8281 124.262 52.1581 124.262 51.3438C124.262 50.643 124.451 50.0393 124.83 49.5327C125.213 49.026 125.751 48.6354 126.442 48.3608C127.138 48.0862 127.953 47.9489 128.885 47.9489C130.263 47.9489 131.347 48.2401 132.138 48.8224C132.934 49.4048 133.398 50.1979 133.53 51.2017ZM137.552 63.0909C137.168 63.0909 136.808 63.0601 136.472 62.9986C136.141 62.9418 135.866 62.8684 135.648 62.7784L136.33 60.5199C136.685 60.6288 137.005 60.688 137.289 60.6974C137.578 60.7069 137.826 60.6406 138.035 60.4986C138.248 60.3565 138.421 60.1151 138.553 59.7741L138.731 59.3125L134.817 48.0909H137.999L140.258 56.1023H140.371L142.651 48.0909H145.854L141.614 60.179C141.411 60.7661 141.134 61.2775 140.783 61.7131C140.438 62.1534 140 62.492 139.469 62.7287C138.939 62.9702 138.3 63.0909 137.552 63.0909ZM156.479 51.2017L153.71 51.3722C153.662 51.1354 153.56 50.9223 153.404 50.733C153.248 50.5388 153.042 50.3849 152.786 50.2713C152.535 50.1529 152.235 50.0938 151.884 50.0938C151.415 50.0938 151.02 50.1932 150.698 50.392C150.376 50.5862 150.215 50.8466 150.215 51.1733C150.215 51.4337 150.319 51.6539 150.528 51.8338C150.736 52.0137 151.094 52.1581 151.6 52.267L153.575 52.6648C154.635 52.8826 155.426 53.233 155.947 53.7159C156.468 54.1989 156.728 54.8333 156.728 55.6193C156.728 56.3343 156.517 56.9616 156.096 57.5014C155.679 58.0412 155.106 58.4626 154.377 58.7656C153.653 59.0639 152.817 59.2131 151.87 59.2131C150.426 59.2131 149.275 58.9124 148.418 58.3111C147.566 57.705 147.067 56.8812 146.92 55.8395L149.896 55.6832C149.986 56.1236 150.203 56.4598 150.549 56.6918C150.895 56.919 151.337 57.0327 151.877 57.0327C152.407 57.0327 152.834 56.9309 153.156 56.7273C153.482 56.5189 153.648 56.2514 153.653 55.9247C153.648 55.6501 153.532 55.4252 153.305 55.25C153.077 55.0701 152.727 54.9328 152.254 54.8381L150.364 54.4616C149.299 54.2486 148.506 53.8793 147.985 53.3537C147.469 52.8281 147.211 52.1581 147.211 51.3438C147.211 50.643 147.4 50.0393 147.779 49.5327C148.163 49.026 148.7 48.6354 149.391 48.3608C150.087 48.0862 150.902 47.9489 151.835 47.9489C153.212 47.9489 154.297 48.2401 155.087 48.8224C155.883 49.4048 156.347 50.1979 156.479 51.2017ZM175.485 44.4545V59H172.829L166.501 49.8452H166.394V59H163.319V44.4545H166.018L172.296 53.6023H172.424V44.4545H175.485ZM181.08 59.206C180.384 59.206 179.764 59.0852 179.219 58.8438C178.675 58.5975 178.244 58.2353 177.926 57.7571C177.614 57.2741 177.458 56.6728 177.458 55.9531C177.458 55.3471 177.569 54.8381 177.792 54.4261C178.014 54.0142 178.317 53.6828 178.701 53.4318C179.084 53.1809 179.52 52.9915 180.007 52.8636C180.5 52.7358 181.016 52.6458 181.556 52.5938C182.19 52.5275 182.702 52.4659 183.09 52.4091C183.478 52.3475 183.76 52.2576 183.935 52.1392C184.11 52.0208 184.198 51.8456 184.198 51.6136V51.571C184.198 51.1212 184.056 50.7732 183.772 50.527C183.492 50.2808 183.095 50.1577 182.578 50.1577C182.034 50.1577 181.601 50.2784 181.279 50.5199C180.957 50.7566 180.744 51.0549 180.64 51.4148L177.841 51.1875C177.983 50.5246 178.263 49.9517 178.679 49.4688C179.096 48.9811 179.633 48.607 180.292 48.3466C180.954 48.0814 181.721 47.9489 182.593 47.9489C183.199 47.9489 183.779 48.0199 184.333 48.1619C184.891 48.304 185.386 48.5241 185.817 48.8224C186.253 49.1207 186.596 49.5043 186.847 49.973C187.098 50.437 187.223 50.9934 187.223 51.642V59H184.354V57.4872H184.269C184.094 57.8281 183.859 58.1288 183.566 58.3892C183.272 58.6449 182.919 58.8461 182.507 58.9929C182.096 59.1349 181.62 59.206 181.08 59.206ZM181.946 57.1179C182.391 57.1179 182.784 57.0303 183.125 56.8551C183.466 56.6752 183.734 56.4337 183.928 56.1307C184.122 55.8277 184.219 55.4844 184.219 55.1009V53.9432C184.124 54.0047 183.994 54.0616 183.828 54.1136C183.667 54.161 183.485 54.206 183.282 54.2486C183.078 54.2865 182.874 54.322 182.671 54.3551C182.467 54.3835 182.283 54.4096 182.117 54.4332C181.762 54.4853 181.452 54.5682 181.186 54.6818C180.921 54.7955 180.715 54.9493 180.569 55.1435C180.422 55.3329 180.348 55.5696 180.348 55.8537C180.348 56.2656 180.498 56.5805 180.796 56.7983C181.099 57.0114 181.482 57.1179 181.946 57.1179ZM199.35 48.0909L195.537 59H192.127L188.314 48.0909H191.51L193.775 55.8963H193.889L196.147 48.0909H199.35ZM200.899 59V48.0909H203.924V59H200.899ZM202.419 46.6847C201.969 46.6847 201.583 46.5355 201.261 46.2372C200.944 45.9342 200.785 45.572 200.785 45.1506C200.785 44.7339 200.944 44.3764 201.261 44.0781C201.583 43.7751 201.969 43.6236 202.419 43.6236C202.868 43.6236 203.252 43.7751 203.569 44.0781C203.891 44.3764 204.052 44.7339 204.052 45.1506C204.052 45.572 203.891 45.9342 203.569 46.2372C203.252 46.5355 202.868 46.6847 202.419 46.6847Z" fill="white"/>
<rect x="214" y="38" width="102" height="28" rx="14" fill="#00F0FF" fill-opacity="0.1"/>
<path d="M234.009 50.0348C233.913 49.7332 233.784 49.4631 233.621 49.2244C233.462 48.9825 233.272 48.777 233.05 48.608C232.828 48.4356 232.574 48.3047 232.289 48.2152C232.007 48.1257 231.697 48.081 231.359 48.081C230.786 48.081 230.269 48.2285 229.808 48.5234C229.348 48.8184 228.983 49.2509 228.714 49.821C228.449 50.3878 228.317 51.0821 228.317 51.9041C228.317 52.7294 228.451 53.4271 228.719 53.9972C228.988 54.5672 229.356 54.9998 229.823 55.2947C230.29 55.5897 230.822 55.7372 231.419 55.7372C231.973 55.7372 232.455 55.6245 232.866 55.3991C233.28 55.1738 233.6 54.8556 233.825 54.4446C234.054 54.0303 234.168 53.5431 234.168 52.983L234.566 53.0575H231.653V51.7898H235.655V52.9482C235.655 53.8033 235.473 54.5457 235.108 55.1754C234.747 55.8018 234.246 56.2857 233.607 56.6271C232.97 56.9685 232.241 57.1392 231.419 57.1392C230.498 57.1392 229.689 56.9271 228.993 56.5028C228.3 56.0786 227.76 55.477 227.372 54.6982C226.984 53.916 226.79 52.9879 226.79 51.9141C226.79 51.102 226.903 50.3729 227.129 49.7266C227.354 49.0803 227.67 48.5317 228.078 48.081C228.489 47.6269 228.971 47.2805 229.525 47.0419C230.082 46.8 230.69 46.679 231.349 46.679C231.9 46.679 232.412 46.7602 232.886 46.9226C233.363 47.085 233.787 47.3153 234.158 47.6136C234.533 47.9119 234.843 48.2666 235.088 48.6776C235.333 49.0852 235.499 49.5376 235.585 50.0348H234.009ZM239.708 57.169C239.224 57.169 238.787 57.0795 238.395 56.9006C238.004 56.7183 237.694 56.4548 237.466 56.1101C237.24 55.7654 237.128 55.3428 237.128 54.8423C237.128 54.4115 237.211 54.0568 237.376 53.7784C237.542 53.5 237.766 53.2796 238.047 53.1172C238.329 52.9548 238.644 52.8321 238.992 52.7493C239.34 52.6664 239.695 52.6035 240.056 52.5604C240.513 52.5073 240.885 52.4643 241.17 52.4311C241.455 52.3946 241.662 52.3366 241.791 52.2571C241.92 52.1776 241.985 52.0483 241.985 51.8693V51.8345C241.985 51.4003 241.862 51.0639 241.617 50.8253C241.375 50.5866 241.014 50.4673 240.533 50.4673C240.033 50.4673 239.638 50.5784 239.35 50.8004C239.065 51.0192 238.868 51.2628 238.758 51.5312L237.361 51.2131C237.527 50.7491 237.769 50.3745 238.087 50.0895C238.409 49.8011 238.778 49.5923 239.196 49.4631C239.613 49.3305 240.053 49.2642 240.513 49.2642C240.818 49.2642 241.141 49.3007 241.483 49.3736C241.827 49.4432 242.149 49.5724 242.447 49.7614C242.749 49.9503 242.996 50.2204 243.188 50.5717C243.38 50.9197 243.476 51.3722 243.476 51.929V57H242.025V55.956H241.965C241.869 56.1482 241.725 56.3371 241.532 56.5227C241.34 56.7083 241.093 56.8625 240.792 56.9851C240.49 57.1077 240.129 57.169 239.708 57.169ZM240.031 55.9759C240.442 55.9759 240.793 55.8946 241.085 55.7322C241.38 55.5698 241.604 55.3577 241.756 55.0959C241.912 54.8307 241.99 54.5473 241.99 54.2457V53.2614C241.937 53.3144 241.834 53.3641 241.682 53.4105C241.532 53.4536 241.362 53.4917 241.17 53.5249C240.977 53.5547 240.79 53.5829 240.608 53.6094C240.425 53.6326 240.273 53.6525 240.15 53.669C239.862 53.7055 239.599 53.7668 239.36 53.853C239.125 53.9392 238.936 54.0634 238.793 54.2259C238.654 54.3849 238.584 54.5971 238.584 54.8622C238.584 55.2301 238.72 55.5085 238.992 55.6974C239.264 55.883 239.61 55.9759 240.031 55.9759ZM245.456 57V49.3636H246.883V50.6065H246.978C247.137 50.1856 247.397 49.8575 247.758 49.6222C248.119 49.3835 248.552 49.2642 249.056 49.2642C249.566 49.2642 249.994 49.3835 250.338 49.6222C250.686 49.8608 250.943 50.1889 251.109 50.6065H251.189C251.371 50.1989 251.661 49.8741 252.059 49.6321C252.456 49.3868 252.93 49.2642 253.48 49.2642C254.173 49.2642 254.738 49.4813 255.176 49.9155C255.617 50.3497 255.837 51.0043 255.837 51.8793V57H254.35V52.0185C254.35 51.5014 254.21 51.1269 253.928 50.8949C253.646 50.6629 253.31 50.5469 252.919 50.5469C252.435 50.5469 252.059 50.696 251.79 50.9943C251.522 51.2893 251.387 51.6688 251.387 52.1328V57H249.906V51.924C249.906 51.5097 249.777 51.1766 249.518 50.9247C249.26 50.6728 248.923 50.5469 248.509 50.5469C248.227 50.5469 247.967 50.6214 247.728 50.7706C247.493 50.9164 247.302 51.1203 247.157 51.3821C247.014 51.6439 246.943 51.9472 246.943 52.2919V57H245.456ZM261.121 57.1541C260.368 57.1541 259.72 56.9934 259.177 56.6719C258.636 56.3471 258.219 55.8913 257.924 55.3047C257.632 54.7147 257.486 54.0237 257.486 53.2315C257.486 52.4493 257.632 51.7599 257.924 51.1634C258.219 50.5668 258.63 50.1011 259.157 49.7663C259.687 49.4316 260.307 49.2642 261.016 49.2642C261.447 49.2642 261.865 49.3355 262.269 49.478C262.673 49.6205 263.036 49.8442 263.358 50.1491C263.679 50.4541 263.933 50.8501 264.118 51.3374C264.304 51.8213 264.397 52.4096 264.397 53.1023V53.6293H258.327V52.5156H262.94C262.94 52.1245 262.861 51.7782 262.702 51.4766C262.542 51.1716 262.319 50.9313 262.03 50.7557C261.745 50.58 261.411 50.4922 261.026 50.4922C260.608 50.4922 260.244 50.5949 259.932 50.8004C259.624 51.0026 259.385 51.2678 259.216 51.5959C259.051 51.9207 258.968 52.2737 258.968 52.6548V53.5249C258.968 54.0353 259.057 54.4695 259.236 54.8274C259.419 55.1854 259.672 55.4588 259.997 55.6477C260.322 55.8333 260.701 55.9261 261.135 55.9261C261.417 55.9261 261.674 55.8864 261.906 55.8068C262.138 55.724 262.339 55.6013 262.508 55.4389C262.677 55.2765 262.806 55.076 262.895 54.8374L264.302 55.0909C264.19 55.5052 263.988 55.8681 263.696 56.1797C263.407 56.4879 263.045 56.7282 262.607 56.9006C262.173 57.0696 261.677 57.1541 261.121 57.1541ZM267.448 57L264.624 46.8182H266.24L268.224 54.7031H268.318L270.381 46.8182H271.982L274.045 54.7081H274.14L276.119 46.8182H277.739L274.911 57H273.364L271.222 49.3736H271.142L268.999 57H267.448ZM281.485 57.1541C280.77 57.1541 280.145 56.9901 279.611 56.6619C279.078 56.3338 278.663 55.8748 278.368 55.2848C278.073 54.6948 277.926 54.0054 277.926 53.2166C277.926 52.4245 278.073 51.7318 278.368 51.1385C278.663 50.5452 279.078 50.0845 279.611 49.7564C280.145 49.4283 280.77 49.2642 281.485 49.2642C282.201 49.2642 282.826 49.4283 283.36 49.7564C283.893 50.0845 284.308 50.5452 284.603 51.1385C284.898 51.7318 285.045 52.4245 285.045 53.2166C285.045 54.0054 284.898 54.6948 284.603 55.2848C284.308 55.8748 283.893 56.3338 283.36 56.6619C282.826 56.9901 282.201 57.1541 281.485 57.1541ZM281.49 55.9062C281.954 55.9062 282.339 55.7836 282.644 55.5384C282.949 55.2931 283.174 54.9666 283.32 54.5589C283.469 54.1513 283.544 53.7022 283.544 53.2116C283.544 52.7244 283.469 52.277 283.32 51.8693C283.174 51.4583 282.949 51.1286 282.644 50.88C282.339 50.6314 281.954 50.5071 281.49 50.5071C281.023 50.5071 280.635 50.6314 280.327 50.88C280.022 51.1286 279.795 51.4583 279.646 51.8693C279.5 52.277 279.427 52.7244 279.427 53.2116C279.427 53.7022 279.5 54.1513 279.646 54.5589C279.795 54.9666 280.022 55.2931 280.327 55.5384C280.635 55.7836 281.023 55.9062 281.49 55.9062ZM286.704 57V49.3636H288.141V50.5767H288.221C288.36 50.1657 288.605 49.8426 288.956 49.6072C289.311 49.3686 289.712 49.2493 290.16 49.2493C290.252 49.2493 290.362 49.2526 290.488 49.2592C290.617 49.2659 290.718 49.2741 290.791 49.2841V50.706C290.731 50.6894 290.625 50.6712 290.473 50.6513C290.32 50.6281 290.168 50.6165 290.015 50.6165C289.664 50.6165 289.351 50.6911 289.076 50.8402C288.804 50.986 288.589 51.1899 288.43 51.4517C288.27 51.7102 288.191 52.0052 288.191 52.3366V57H286.704ZM293.564 46.8182V57H292.077V46.8182H293.564ZM298.422 57.1491C297.806 57.1491 297.256 56.9917 296.772 56.6768C296.291 56.3587 295.913 55.9062 295.638 55.3196C295.367 54.7296 295.231 54.022 295.231 53.1967C295.231 52.3714 295.368 51.6655 295.643 51.0788C295.922 50.4922 296.303 50.0431 296.787 49.7315C297.271 49.42 297.819 49.2642 298.432 49.2642C298.906 49.2642 299.287 49.3438 299.576 49.5028C299.867 49.6586 300.093 49.8409 300.252 50.0497C300.414 50.2585 300.54 50.4425 300.63 50.6016H300.719V46.8182H302.206V57H300.754V55.8118H300.63C300.54 55.9742 300.411 56.1598 300.242 56.3686C300.076 56.5774 299.848 56.7597 299.556 56.9155C299.264 57.0713 298.886 57.1491 298.422 57.1491ZM298.751 55.8814C299.178 55.8814 299.539 55.7687 299.834 55.5433C300.133 55.3146 300.358 54.9981 300.51 54.5938C300.666 54.1894 300.744 53.7187 300.744 53.1818C300.744 52.6515 300.668 52.1875 300.515 51.7898C300.363 51.392 300.139 51.0821 299.844 50.8601C299.549 50.638 299.185 50.527 298.751 50.527C298.303 50.527 297.93 50.643 297.632 50.875C297.334 51.107 297.108 51.4235 296.956 51.8246C296.807 52.2256 296.732 52.678 296.732 53.1818C296.732 53.6922 296.808 54.1513 296.961 54.5589C297.113 54.9666 297.339 55.2898 297.637 55.5284C297.939 55.7637 298.31 55.8814 298.751 55.8814Z" fill="#00F0FF"/>
<path d="M97.6506 97H96.358L100.097 86.8182H101.369L105.108 97H103.815L100.773 88.429H100.693L97.6506 97ZM98.1278 93.0227H103.338V94.1165H98.1278V93.0227ZM107.708 86.8182V97H106.535V86.8182H107.708ZM111.03 86.8182V97H109.857V86.8182H111.03ZM119.364 97.179C118.88 97.179 118.441 97.0878 118.047 96.9055C117.652 96.7199 117.339 96.4531 117.107 96.1051C116.875 95.7538 116.759 95.3295 116.759 94.8324C116.759 94.3949 116.845 94.0402 117.017 93.7685C117.19 93.4934 117.42 93.2779 117.708 93.1222C117.997 92.9664 118.315 92.8504 118.663 92.7741C119.014 92.6946 119.367 92.6316 119.722 92.5852C120.186 92.5256 120.562 92.4808 120.85 92.451C121.142 92.4179 121.354 92.3632 121.487 92.2869C121.623 92.2107 121.691 92.0781 121.691 91.8892V91.8494C121.691 91.3589 121.556 90.9777 121.288 90.706C121.023 90.4342 120.62 90.2983 120.08 90.2983C119.52 90.2983 119.081 90.4209 118.762 90.6662C118.444 90.9115 118.221 91.1733 118.091 91.4517L116.978 91.054C117.176 90.59 117.442 90.2287 117.773 89.9702C118.108 89.7083 118.472 89.526 118.867 89.4233C119.265 89.3172 119.656 89.2642 120.04 89.2642C120.285 89.2642 120.567 89.294 120.885 89.3537C121.207 89.41 121.517 89.5277 121.815 89.7067C122.117 89.8857 122.367 90.1558 122.566 90.517C122.765 90.8783 122.864 91.3622 122.864 91.9688V97H121.691V95.9659H121.631C121.551 96.1316 121.419 96.3089 121.233 96.4979C121.048 96.6868 120.801 96.8475 120.493 96.9801C120.184 97.1127 119.808 97.179 119.364 97.179ZM119.543 96.125C120.007 96.125 120.398 96.0339 120.716 95.8516C121.038 95.6693 121.28 95.4339 121.442 95.1456C121.608 94.8572 121.691 94.554 121.691 94.2358V93.1619C121.641 93.2216 121.532 93.2763 121.363 93.326C121.197 93.3724 121.005 93.4138 120.786 93.4503C120.57 93.4834 120.36 93.5133 120.154 93.5398C119.952 93.563 119.788 93.5829 119.662 93.5994C119.357 93.6392 119.072 93.7038 118.807 93.7933C118.545 93.8795 118.333 94.0104 118.171 94.1861C118.012 94.3584 117.932 94.5937 117.932 94.892C117.932 95.2997 118.083 95.608 118.385 95.8168C118.69 96.0223 119.076 96.125 119.543 96.125ZM125.165 97V86.8182H126.338V90.5767H126.437C126.523 90.4441 126.643 90.2751 126.795 90.0696C126.951 89.8608 127.173 89.6752 127.461 89.5128C127.753 89.3471 128.148 89.2642 128.645 89.2642C129.288 89.2642 129.854 89.425 130.345 89.7464C130.836 90.0679 131.218 90.5237 131.493 91.1136C131.769 91.7036 131.906 92.3996 131.906 93.2017C131.906 94.0104 131.769 94.7114 131.493 95.3047C131.218 95.8946 130.837 96.352 130.35 96.6768C129.863 96.9983 129.301 97.1591 128.665 97.1591C128.174 97.1591 127.781 97.0779 127.486 96.9155C127.191 96.7498 126.964 96.5625 126.805 96.3537C126.646 96.1416 126.523 95.9659 126.437 95.8267H126.298V97H125.165ZM126.318 93.1818C126.318 93.7585 126.403 94.2673 126.572 94.7081C126.741 95.1456 126.988 95.4886 127.312 95.7372C127.637 95.9825 128.035 96.1051 128.506 96.1051C128.996 96.1051 129.405 95.9759 129.733 95.7173C130.065 95.4555 130.314 95.1042 130.479 94.6634C130.648 94.2192 130.733 93.7254 130.733 93.1818C130.733 92.6449 130.65 92.161 130.484 91.7301C130.322 91.2959 130.075 90.9529 129.743 90.701C129.415 90.4458 129.003 90.3182 128.506 90.3182C128.028 90.3182 127.627 90.4392 127.302 90.6811C126.978 90.9197 126.732 91.2545 126.567 91.6854C126.401 92.1129 126.318 92.6117 126.318 93.1818ZM136.803 97.1591C136.114 97.1591 135.509 96.995 134.988 96.6669C134.471 96.3388 134.067 95.8797 133.775 95.2898C133.487 94.6998 133.343 94.0104 133.343 93.2216C133.343 92.4261 133.487 91.7318 133.775 91.1385C134.067 90.5452 134.471 90.0845 134.988 89.7564C135.509 89.4283 136.114 89.2642 136.803 89.2642C137.492 89.2642 138.096 89.4283 138.613 89.7564C139.133 90.0845 139.537 90.5452 139.826 91.1385C140.117 91.7318 140.263 92.4261 140.263 93.2216C140.263 94.0104 140.117 94.6998 139.826 95.2898C139.537 95.8797 139.133 96.3388 138.613 96.6669C138.096 96.995 137.492 97.1591 136.803 97.1591ZM136.803 96.1051C137.327 96.1051 137.758 95.9709 138.096 95.7024C138.434 95.4339 138.684 95.081 138.846 94.6435C139.009 94.206 139.09 93.732 139.09 93.2216C139.09 92.7112 139.009 92.2356 138.846 91.7947C138.684 91.3539 138.434 90.9976 138.096 90.7259C137.758 90.4541 137.327 90.3182 136.803 90.3182C136.279 90.3182 135.849 90.4541 135.51 90.7259C135.172 90.9976 134.922 91.3539 134.76 91.7947C134.597 92.2356 134.516 92.7112 134.516 93.2216C134.516 93.732 134.597 94.206 134.76 94.6435C134.922 95.081 135.172 95.4339 135.51 95.7024C135.849 95.9709 136.279 96.1051 136.803 96.1051ZM146.867 93.8778V89.3636H148.04V97H146.867V95.7074H146.787C146.608 96.0952 146.33 96.425 145.952 96.6967C145.574 96.9652 145.097 97.0994 144.52 97.0994C144.043 97.0994 143.619 96.995 143.248 96.7862C142.876 96.5741 142.585 96.2559 142.373 95.8317C142.16 95.4041 142.054 94.8655 142.054 94.2159V89.3636H143.228V94.1364C143.228 94.6932 143.383 95.1373 143.695 95.4688C144.01 95.8002 144.411 95.9659 144.898 95.9659C145.19 95.9659 145.486 95.8913 145.788 95.7422C146.093 95.593 146.348 95.3643 146.554 95.0561C146.762 94.7479 146.867 94.3551 146.867 93.8778ZM153.51 89.3636V90.358H149.553V89.3636H153.51ZM150.706 87.5341H151.879V94.8125C151.879 95.1439 151.927 95.3925 152.024 95.5582C152.123 95.7206 152.249 95.83 152.401 95.8864C152.557 95.9394 152.721 95.9659 152.894 95.9659C153.023 95.9659 153.129 95.9593 153.212 95.946C153.295 95.9295 153.361 95.9162 153.411 95.9062L153.649 96.9602C153.57 96.9901 153.459 97.0199 153.316 97.0497C153.174 97.0829 152.993 97.0994 152.774 97.0994C152.443 97.0994 152.118 97.0282 151.8 96.8857C151.485 96.7431 151.223 96.526 151.014 96.2344C150.809 95.9427 150.706 95.5748 150.706 95.1307V87.5341ZM167.963 91.9091C167.963 92.983 167.769 93.911 167.381 94.6932C166.993 95.4754 166.461 96.0786 165.785 96.5028C165.109 96.9271 164.337 97.1392 163.468 97.1392C162.6 97.1392 161.828 96.9271 161.151 96.5028C160.475 96.0786 159.943 95.4754 159.556 94.6932C159.168 93.911 158.974 92.983 158.974 91.9091C158.974 90.8352 159.168 89.9072 159.556 89.125C159.943 88.3428 160.475 87.7396 161.151 87.3153C161.828 86.8911 162.6 86.679 163.468 86.679C164.337 86.679 165.109 86.8911 165.785 87.3153C166.461 87.7396 166.993 88.3428 167.381 89.125C167.769 89.9072 167.963 90.8352 167.963 91.9091ZM166.769 91.9091C166.769 91.0275 166.622 90.2834 166.327 89.6768C166.035 89.0703 165.639 88.6113 165.139 88.2997C164.642 87.9882 164.085 87.8324 163.468 87.8324C162.852 87.8324 162.293 87.9882 161.793 88.2997C161.296 88.6113 160.9 89.0703 160.605 89.6768C160.313 90.2834 160.167 91.0275 160.167 91.9091C160.167 92.7907 160.313 93.5348 160.605 94.1413C160.9 94.7479 161.296 95.2069 161.793 95.5185C162.293 95.83 162.852 95.9858 163.468 95.9858C164.085 95.9858 164.642 95.83 165.139 95.5185C165.639 95.2069 166.035 94.7479 166.327 94.1413C166.622 93.5348 166.769 92.7907 166.769 91.9091ZM172.124 97.179C171.64 97.179 171.201 97.0878 170.806 96.9055C170.412 96.7199 170.099 96.4531 169.867 96.1051C169.635 95.7538 169.519 95.3295 169.519 94.8324C169.519 94.3949 169.605 94.0402 169.777 93.7685C169.95 93.4934 170.18 93.2779 170.468 93.1222C170.757 92.9664 171.075 92.8504 171.423 92.7741C171.774 92.6946 172.127 92.6316 172.482 92.5852C172.946 92.5256 173.322 92.4808 173.61 92.451C173.902 92.4179 174.114 92.3632 174.247 92.2869C174.383 92.2107 174.45 92.0781 174.45 91.8892V91.8494C174.45 91.3589 174.316 90.9777 174.048 90.706C173.783 90.4342 173.38 90.2983 172.84 90.2983C172.28 90.2983 171.84 90.4209 171.522 90.6662C171.204 90.9115 170.98 91.1733 170.851 91.4517L169.737 91.054C169.936 90.59 170.201 90.2287 170.533 89.9702C170.868 89.7083 171.232 89.526 171.627 89.4233C172.024 89.3172 172.415 89.2642 172.8 89.2642C173.045 89.2642 173.327 89.294 173.645 89.3537C173.967 89.41 174.276 89.5277 174.575 89.7067C174.876 89.8857 175.127 90.1558 175.325 90.517C175.524 90.8783 175.624 91.3622 175.624 91.9688V97H174.45V95.9659H174.391C174.311 96.1316 174.179 96.3089 173.993 96.4979C173.807 96.6868 173.561 96.8475 173.252 96.9801C172.944 97.1127 172.568 97.179 172.124 97.179ZM172.303 96.125C172.767 96.125 173.158 96.0339 173.476 95.8516C173.798 95.6693 174.039 95.4339 174.202 95.1456C174.368 94.8572 174.45 94.554 174.45 94.2358V93.1619C174.401 93.2216 174.291 93.2763 174.122 93.326C173.957 93.3724 173.764 93.4138 173.546 93.4503C173.33 93.4834 173.12 93.5133 172.914 93.5398C172.712 93.563 172.548 93.5829 172.422 93.5994C172.117 93.6392 171.832 93.7038 171.567 93.7933C171.305 93.8795 171.093 94.0104 170.931 94.1861C170.771 94.3584 170.692 94.5937 170.692 94.892C170.692 95.2997 170.843 95.608 171.144 95.8168C171.449 96.0223 171.835 96.125 172.303 96.125ZM183.174 91.0739L182.12 91.3722C182.054 91.1965 181.956 91.0258 181.827 90.8601C181.701 90.6911 181.529 90.5518 181.31 90.4425C181.091 90.3331 180.811 90.2784 180.47 90.2784C180.002 90.2784 179.613 90.3861 179.301 90.6016C178.993 90.8137 178.839 91.0838 178.839 91.4119C178.839 91.7036 178.945 91.9339 179.157 92.103C179.369 92.272 179.701 92.4129 180.152 92.5256L181.285 92.804C181.968 92.9697 182.477 93.2232 182.811 93.5646C183.146 93.9027 183.314 94.3385 183.314 94.8722C183.314 95.3097 183.188 95.7008 182.936 96.0455C182.687 96.3902 182.339 96.6619 181.892 96.8608C181.444 97.0597 180.924 97.1591 180.331 97.1591C179.552 97.1591 178.907 96.9901 178.397 96.652C177.886 96.3139 177.563 95.8201 177.427 95.1705L178.541 94.892C178.647 95.303 178.847 95.6113 179.142 95.8168C179.441 96.0223 179.83 96.125 180.311 96.125C180.858 96.125 181.292 96.009 181.613 95.777C181.938 95.5417 182.1 95.2599 182.1 94.9318C182.1 94.6667 182.008 94.4446 181.822 94.2656C181.636 94.0833 181.351 93.9474 180.967 93.858L179.694 93.5597C178.995 93.3939 178.481 93.1371 178.153 92.7891C177.828 92.4377 177.666 91.9986 177.666 91.4716C177.666 91.0407 177.787 90.6596 178.029 90.3281C178.274 89.9967 178.607 89.7365 179.028 89.5476C179.452 89.3587 179.933 89.2642 180.47 89.2642C181.225 89.2642 181.819 89.4299 182.25 89.7614C182.684 90.0928 182.992 90.5303 183.174 91.0739ZM185.835 99.8636C185.637 99.8636 185.459 99.8471 185.303 99.8139C185.148 99.7841 185.04 99.7543 184.98 99.7244L185.279 98.6903C185.564 98.7633 185.816 98.7898 186.034 98.7699C186.253 98.75 186.447 98.6522 186.616 98.4766C186.788 98.3042 186.946 98.0241 187.088 97.6364L187.307 97.0398L184.483 89.3636H185.756L187.864 95.4489H187.943L190.051 89.3636H191.324L188.083 98.1136C187.937 98.508 187.756 98.8345 187.541 99.093C187.325 99.3549 187.075 99.5488 186.79 99.6747C186.508 99.8007 186.19 99.8636 185.835 99.8636ZM198.282 91.0739L197.228 91.3722C197.162 91.1965 197.064 91.0258 196.934 90.8601C196.809 90.6911 196.636 90.5518 196.417 90.4425C196.199 90.3331 195.919 90.2784 195.577 90.2784C195.11 90.2784 194.72 90.3861 194.409 90.6016C194.101 90.8137 193.947 91.0838 193.947 91.4119C193.947 91.7036 194.053 91.9339 194.265 92.103C194.477 92.272 194.808 92.4129 195.259 92.5256L196.393 92.804C197.075 92.9697 197.584 93.2232 197.919 93.5646C198.254 93.9027 198.421 94.3385 198.421 94.8722C198.421 95.3097 198.295 95.7008 198.043 96.0455C197.795 96.3902 197.447 96.6619 196.999 96.8608C196.552 97.0597 196.031 97.1591 195.438 97.1591C194.659 97.1591 194.015 96.9901 193.504 96.652C192.994 96.3139 192.671 95.8201 192.535 95.1705L193.648 94.892C193.754 95.303 193.955 95.6113 194.25 95.8168C194.548 96.0223 194.938 96.125 195.418 96.125C195.965 96.125 196.399 96.009 196.721 95.777C197.046 95.5417 197.208 95.2599 197.208 94.9318C197.208 94.6667 197.115 94.4446 196.93 94.2656C196.744 94.0833 196.459 93.9474 196.074 93.858L194.802 93.5597C194.102 93.3939 193.589 93.1371 193.26 92.7891C192.936 92.4377 192.773 91.9986 192.773 91.4716C192.773 91.0407 192.894 90.6596 193.136 90.3281C193.381 89.9967 193.715 89.7365 194.135 89.5476C194.56 89.3587 195.04 89.2642 195.577 89.2642C196.333 89.2642 196.926 89.4299 197.357 89.7614C197.791 90.0928 198.099 90.5303 198.282 91.0739ZM212.477 90H211.244C211.171 89.6454 211.043 89.3338 210.861 89.0653C210.682 88.7969 210.463 88.5715 210.205 88.3892C209.95 88.2036 209.666 88.0644 209.355 87.9716C209.043 87.8788 208.718 87.8324 208.38 87.8324C207.764 87.8324 207.205 87.9882 206.705 88.2997C206.208 88.6113 205.812 89.0703 205.517 89.6768C205.225 90.2834 205.079 91.0275 205.079 91.9091C205.079 92.7907 205.225 93.5348 205.517 94.1413C205.812 94.7479 206.208 95.2069 206.705 95.5185C207.205 95.83 207.764 95.9858 208.38 95.9858C208.718 95.9858 209.043 95.9394 209.355 95.8466C209.666 95.7538 209.95 95.6162 210.205 95.4339C210.463 95.2483 210.682 95.0213 210.861 94.7528C211.043 94.4811 211.171 94.1695 211.244 93.8182H212.477C212.384 94.3385 212.215 94.8042 211.97 95.2152C211.725 95.6262 211.42 95.9759 211.055 96.2642C210.69 96.5492 210.281 96.7663 209.827 96.9155C209.376 97.0646 208.894 97.1392 208.38 97.1392C207.512 97.1392 206.74 96.9271 206.064 96.5028C205.387 96.0786 204.855 95.4754 204.468 94.6932C204.08 93.911 203.886 92.983 203.886 91.9091C203.886 90.8352 204.08 89.9072 204.468 89.125C204.855 88.3428 205.387 87.7396 206.064 87.3153C206.74 86.8911 207.512 86.679 208.38 86.679C208.894 86.679 209.376 86.7536 209.827 86.9027C210.281 87.0518 210.69 87.2706 211.055 87.5589C211.42 87.844 211.725 88.192 211.97 88.603C212.215 89.0107 212.384 89.4763 212.477 90ZM215.483 92.4062V97H214.31V86.8182H215.483V90.5568H215.583C215.762 90.1624 216.03 89.8492 216.388 89.6172C216.75 89.3819 217.23 89.2642 217.83 89.2642C218.35 89.2642 218.806 89.3686 219.197 89.5774C219.588 89.7829 219.892 90.0994 220.107 90.527C220.326 90.9512 220.435 91.4915 220.435 92.1477V97H219.262V92.2273C219.262 91.6207 219.104 91.1518 218.79 90.8203C218.478 90.4856 218.046 90.3182 217.492 90.3182C217.108 90.3182 216.763 90.3994 216.458 90.5618C216.156 90.7242 215.918 90.9612 215.742 91.2727C215.57 91.5843 215.483 91.9621 215.483 92.4062ZM224.829 97.179C224.345 97.179 223.906 97.0878 223.511 96.9055C223.117 96.7199 222.804 96.4531 222.572 96.1051C222.34 95.7538 222.224 95.3295 222.224 94.8324C222.224 94.3949 222.31 94.0402 222.482 93.7685C222.655 93.4934 222.885 93.2779 223.173 93.1222C223.462 92.9664 223.78 92.8504 224.128 92.7741C224.479 92.6946 224.832 92.6316 225.187 92.5852C225.651 92.5256 226.027 92.4808 226.315 92.451C226.607 92.4179 226.819 92.3632 226.952 92.2869C227.088 92.2107 227.156 92.0781 227.156 91.8892V91.8494C227.156 91.3589 227.021 90.9777 226.753 90.706C226.488 90.4342 226.085 90.2983 225.545 90.2983C224.985 90.2983 224.545 90.4209 224.227 90.6662C223.909 90.9115 223.685 91.1733 223.556 91.4517L222.442 91.054C222.641 90.59 222.906 90.2287 223.238 89.9702C223.573 89.7083 223.937 89.526 224.332 89.4233C224.729 89.3172 225.121 89.2642 225.505 89.2642C225.75 89.2642 226.032 89.294 226.35 89.3537C226.672 89.41 226.982 89.5277 227.28 89.7067C227.581 89.8857 227.832 90.1558 228.031 90.517C228.229 90.8783 228.329 91.3622 228.329 91.9688V97H227.156V95.9659H227.096C227.016 96.1316 226.884 96.3089 226.698 96.4979C226.513 96.6868 226.266 96.8475 225.957 96.9801C225.649 97.1127 225.273 97.179 224.829 97.179ZM225.008 96.125C225.472 96.125 225.863 96.0339 226.181 95.8516C226.503 95.6693 226.745 95.4339 226.907 95.1456C227.073 94.8572 227.156 94.554 227.156 94.2358V93.1619C227.106 93.2216 226.996 93.2763 226.827 93.326C226.662 93.3724 226.469 93.4138 226.251 93.4503C226.035 93.4834 225.825 93.5133 225.619 93.5398C225.417 93.563 225.253 93.5829 225.127 93.5994C224.822 93.6392 224.537 93.7038 224.272 93.7933C224.01 93.8795 223.798 94.0104 223.636 94.1861C223.477 94.3584 223.397 94.5937 223.397 94.892C223.397 95.2997 223.548 95.608 223.849 95.8168C224.154 96.0223 224.54 96.125 225.008 96.125ZM230.47 97V89.3636H231.644V97H230.47ZM231.067 88.0909C230.838 88.0909 230.641 88.013 230.475 87.8572C230.313 87.7015 230.232 87.5142 230.232 87.2955C230.232 87.0767 230.313 86.8894 230.475 86.7337C230.641 86.5779 230.838 86.5 231.067 86.5C231.296 86.5 231.491 86.5779 231.654 86.7337C231.819 86.8894 231.902 87.0767 231.902 87.2955C231.902 87.5142 231.819 87.7015 231.654 87.8572C231.491 88.013 231.296 88.0909 231.067 88.0909ZM234.966 92.4062V97H233.793V89.3636H234.926V90.5568H235.026C235.205 90.169 235.476 89.8575 235.841 89.6222C236.205 89.3835 236.676 89.2642 237.253 89.2642C237.77 89.2642 238.222 89.3703 238.61 89.5824C238.998 89.7912 239.299 90.1094 239.515 90.5369C239.73 90.9612 239.838 91.4981 239.838 92.1477V97H238.665V92.2273C238.665 91.6274 238.509 91.16 238.197 90.8253C237.886 90.4872 237.458 90.3182 236.915 90.3182C236.54 90.3182 236.205 90.3994 235.911 90.5618C235.619 90.7242 235.388 90.9612 235.219 91.2727C235.05 91.5843 234.966 91.9621 234.966 92.4062ZM242.996 86.8182V90.3182H241.903V86.8182H242.996ZM250.495 91.0739L249.441 91.3722C249.374 91.1965 249.277 91.0258 249.147 90.8601C249.021 90.6911 248.849 90.5518 248.63 90.4425C248.412 90.3331 248.132 90.2784 247.79 90.2784C247.323 90.2784 246.933 90.3861 246.622 90.6016C246.314 90.8137 246.159 91.0838 246.159 91.4119C246.159 91.7036 246.266 91.9339 246.478 92.103C246.69 92.272 247.021 92.4129 247.472 92.5256L248.605 92.804C249.288 92.9697 249.797 93.2232 250.132 93.5646C250.467 93.9027 250.634 94.3385 250.634 94.8722C250.634 95.3097 250.508 95.7008 250.256 96.0455C250.007 96.3902 249.659 96.6619 249.212 96.8608C248.765 97.0597 248.244 97.1591 247.651 97.1591C246.872 97.1591 246.227 96.9901 245.717 96.652C245.207 96.3139 244.883 95.8201 244.748 95.1705L245.861 94.892C245.967 95.303 246.168 95.6113 246.463 95.8168C246.761 96.0223 247.15 96.125 247.631 96.125C248.178 96.125 248.612 96.009 248.934 95.777C249.258 95.5417 249.421 95.2599 249.421 94.9318C249.421 94.6667 249.328 94.4446 249.142 94.2656C248.957 94.0833 248.672 93.9474 248.287 93.858L247.015 93.5597C246.315 93.3939 245.801 93.1371 245.473 92.7891C245.149 92.4377 244.986 91.9986 244.986 91.4716C244.986 91.0407 245.107 90.6596 245.349 90.3281C245.594 89.9967 245.927 89.7365 246.348 89.5476C246.773 89.3587 247.253 89.2642 247.79 89.2642C248.546 89.2642 249.139 89.4299 249.57 89.7614C250.004 90.0928 250.312 90.5303 250.495 91.0739ZM259.42 100.023C258.853 100.023 258.366 99.9498 257.958 99.804C257.551 99.6615 257.211 99.4725 256.939 99.2372C256.671 99.0052 256.457 98.7566 256.298 98.4915L257.232 97.8352C257.338 97.9744 257.473 98.1335 257.635 98.3125C257.798 98.4948 258.02 98.6522 258.301 98.7848C258.586 98.9207 258.959 98.9886 259.42 98.9886C260.036 98.9886 260.545 98.8395 260.946 98.5412C261.347 98.2429 261.548 97.7756 261.548 97.1392V95.5881H261.448C261.362 95.7273 261.24 95.8996 261.08 96.1051C260.925 96.3073 260.699 96.4879 260.404 96.647C260.113 96.8028 259.718 96.8807 259.221 96.8807C258.605 96.8807 258.051 96.7348 257.561 96.4432C257.073 96.1515 256.687 95.7273 256.402 95.1705C256.12 94.6136 255.98 93.9375 255.98 93.142C255.98 92.3598 256.117 91.6787 256.392 91.0987C256.667 90.5154 257.05 90.0646 257.541 89.7464C258.031 89.425 258.598 89.2642 259.241 89.2642C259.738 89.2642 260.133 89.3471 260.424 89.5128C260.719 89.6752 260.945 89.8608 261.1 90.0696C261.259 90.2751 261.382 90.4441 261.468 90.5767H261.588V89.3636H262.721V97.2188C262.721 97.875 262.572 98.4086 262.274 98.8196C261.979 99.2339 261.581 99.5372 261.08 99.7294C260.583 99.925 260.03 100.023 259.42 100.023ZM259.38 95.8267C259.851 95.8267 260.249 95.719 260.573 95.5036C260.898 95.2881 261.145 94.9782 261.314 94.5739C261.483 94.1695 261.568 93.6856 261.568 93.1222C261.568 92.572 261.485 92.0864 261.319 91.6655C261.153 91.2446 260.908 90.9148 260.583 90.6761C260.258 90.4375 259.857 90.3182 259.38 90.3182C258.883 90.3182 258.469 90.4441 258.137 90.696C257.809 90.9479 257.562 91.286 257.396 91.7102C257.234 92.1345 257.153 92.6051 257.153 93.1222C257.153 93.6525 257.236 94.1214 257.401 94.5291C257.57 94.9335 257.819 95.2517 258.147 95.4837C258.479 95.7124 258.89 95.8267 259.38 95.8267ZM267.116 97.179C266.632 97.179 266.193 97.0878 265.798 96.9055C265.404 96.7199 265.091 96.4531 264.859 96.1051C264.627 95.7538 264.511 95.3295 264.511 94.8324C264.511 94.3949 264.597 94.0402 264.769 93.7685C264.942 93.4934 265.172 93.2779 265.46 93.1222C265.749 92.9664 266.067 92.8504 266.415 92.7741C266.766 92.6946 267.119 92.6316 267.474 92.5852C267.938 92.5256 268.314 92.4808 268.602 92.451C268.894 92.4179 269.106 92.3632 269.239 92.2869C269.375 92.2107 269.443 92.0781 269.443 91.8892V91.8494C269.443 91.3589 269.308 90.9777 269.04 90.706C268.775 90.4342 268.372 90.2983 267.832 90.2983C267.272 90.2983 266.833 90.4209 266.514 90.6662C266.196 90.9115 265.972 91.1733 265.843 91.4517L264.73 91.054C264.928 90.59 265.194 90.2287 265.525 89.9702C265.86 89.7083 266.224 89.526 266.619 89.4233C267.017 89.3172 267.408 89.2642 267.792 89.2642C268.037 89.2642 268.319 89.294 268.637 89.3537C268.959 89.41 269.269 89.5277 269.567 89.7067C269.869 89.8857 270.119 90.1558 270.318 90.517C270.517 90.8783 270.616 91.3622 270.616 91.9688V97H269.443V95.9659H269.383C269.303 96.1316 269.171 96.3089 268.985 96.4979C268.8 96.6868 268.553 96.8475 268.244 96.9801C267.936 97.1127 267.56 97.179 267.116 97.179ZM267.295 96.125C267.759 96.125 268.15 96.0339 268.468 95.8516C268.79 95.6693 269.032 95.4339 269.194 95.1456C269.36 94.8572 269.443 94.554 269.443 94.2358V93.1619C269.393 93.2216 269.284 93.2763 269.115 93.326C268.949 93.3724 268.757 93.4138 268.538 93.4503C268.322 93.4834 268.112 93.5133 267.906 93.5398C267.704 93.563 267.54 93.5829 267.414 93.5994C267.109 93.6392 266.824 93.7038 266.559 93.7933C266.297 93.8795 266.085 94.0104 265.923 94.1861C265.764 94.3584 265.684 94.5937 265.684 94.892C265.684 95.2997 265.835 95.608 266.137 95.8168C266.441 96.0223 266.828 96.125 267.295 96.125ZM272.757 97V89.3636H273.891V90.5568H273.99C274.15 90.1491 274.406 89.8326 274.761 89.6072C275.116 89.3786 275.542 89.2642 276.039 89.2642C276.542 89.2642 276.962 89.3786 277.297 89.6072C277.635 89.8326 277.898 90.1491 278.087 90.5568H278.167C278.362 90.1624 278.655 89.8492 279.047 89.6172C279.438 89.3819 279.907 89.2642 280.453 89.2642C281.136 89.2642 281.695 89.478 282.129 89.9055C282.563 90.3298 282.78 90.991 282.78 91.8892V97H281.607V91.8892C281.607 91.3258 281.453 90.9231 281.145 90.6811C280.836 90.4392 280.473 90.3182 280.056 90.3182C279.519 90.3182 279.103 90.4806 278.808 90.8054C278.513 91.1269 278.365 91.5346 278.365 92.0284V97H277.172V91.7699C277.172 91.3357 277.031 90.986 276.75 90.7209C276.468 90.4524 276.105 90.3182 275.661 90.3182C275.356 90.3182 275.071 90.3994 274.806 90.5618C274.544 90.7242 274.332 90.9496 274.169 91.2379C274.01 91.523 273.931 91.8527 273.931 92.2273V97H272.757ZM284.925 97V89.3636H286.099V97H284.925ZM285.522 88.0909C285.293 88.0909 285.096 88.013 284.93 87.8572C284.768 87.7015 284.687 87.5142 284.687 87.2955C284.687 87.0767 284.768 86.8894 284.93 86.7337C285.096 86.5779 285.293 86.5 285.522 86.5C285.751 86.5 285.946 86.5779 286.109 86.7337C286.274 86.8894 286.357 87.0767 286.357 87.2955C286.357 87.5142 286.274 87.7015 286.109 87.8572C285.946 88.013 285.751 88.0909 285.522 88.0909ZM289.421 92.4062V97H288.248V89.3636H289.381V90.5568H289.481C289.66 90.169 289.931 89.8575 290.296 89.6222C290.661 89.3835 291.131 89.2642 291.708 89.2642C292.225 89.2642 292.677 89.3703 293.065 89.5824C293.453 89.7912 293.755 90.1094 293.97 90.5369C294.185 90.9612 294.293 91.4981 294.293 92.1477V97H293.12V92.2273C293.12 91.6274 292.964 91.16 292.653 90.8253C292.341 90.4872 291.913 90.3182 291.37 90.3182C290.995 90.3182 290.661 90.3994 290.366 90.5618C290.074 90.7242 289.844 90.9612 289.675 91.2727C289.506 91.5843 289.421 91.9621 289.421 92.4062ZM299.52 100.023C298.953 100.023 298.466 99.9498 298.058 99.804C297.65 99.6615 297.31 99.4725 297.039 99.2372C296.77 99.0052 296.556 98.7566 296.397 98.4915L297.332 97.8352C297.438 97.9744 297.572 98.1335 297.735 98.3125C297.897 98.4948 298.119 98.6522 298.401 98.7848C298.686 98.9207 299.059 98.9886 299.52 98.9886C300.136 98.9886 300.645 98.8395 301.046 98.5412C301.447 98.2429 301.647 97.7756 301.647 97.1392V95.5881H301.548C301.462 95.7273 301.339 95.8996 301.18 96.1051C301.024 96.3073 300.799 96.4879 300.504 96.647C300.212 96.8028 299.818 96.8807 299.321 96.8807C298.704 96.8807 298.151 96.7348 297.66 96.4432C297.173 96.1515 296.787 95.7273 296.502 95.1705C296.22 94.6136 296.079 93.9375 296.079 93.142C296.079 92.3598 296.217 91.6787 296.492 91.0987C296.767 90.5154 297.15 90.0646 297.64 89.7464C298.131 89.425 298.698 89.2642 299.341 89.2642C299.838 89.2642 300.232 89.3471 300.524 89.5128C300.819 89.6752 301.044 89.8608 301.2 90.0696C301.359 90.2751 301.482 90.4441 301.568 90.5767H301.687V89.3636H302.821V97.2188C302.821 97.875 302.672 98.4086 302.373 98.8196C302.078 99.2339 301.681 99.5372 301.18 99.7294C300.683 99.925 300.129 100.023 299.52 100.023ZM299.48 95.8267C299.95 95.8267 300.348 95.719 300.673 95.5036C300.998 95.2881 301.245 94.9782 301.414 94.5739C301.583 94.1695 301.667 93.6856 301.667 93.1222C301.667 92.572 301.584 92.0864 301.419 91.6655C301.253 91.2446 301.008 90.9148 300.683 90.6761C300.358 90.4375 299.957 90.3182 299.48 90.3182C298.983 90.3182 298.568 90.4441 298.237 90.696C297.909 90.9479 297.662 91.286 297.496 91.7102C297.334 92.1345 297.252 92.6051 297.252 93.1222C297.252 93.6525 297.335 94.1214 297.501 94.5291C297.67 94.9335 297.919 95.2517 298.247 95.4837C298.578 95.7124 298.989 95.8267 299.48 95.8267ZM313.718 93.8778V89.3636H314.892V97H313.718V95.7074H313.639C313.46 96.0952 313.181 96.425 312.804 96.6967C312.426 96.9652 311.949 97.0994 311.372 97.0994C310.895 97.0994 310.47 96.995 310.099 96.7862C309.728 96.5741 309.436 96.2559 309.224 95.8317C309.012 95.4041 308.906 94.8655 308.906 94.2159V89.3636H310.079V94.1364C310.079 94.6932 310.235 95.1373 310.547 95.4688C310.861 95.8002 311.262 95.9659 311.75 95.9659C312.041 95.9659 312.338 95.8913 312.64 95.7422C312.944 95.593 313.2 95.3643 313.405 95.0561C313.614 94.7479 313.718 94.3551 313.718 93.8778ZM318.214 92.4062V97H317.041V89.3636H318.174V90.5568H318.274C318.453 90.169 318.724 89.8575 319.089 89.6222C319.454 89.3835 319.924 89.2642 320.501 89.2642C321.018 89.2642 321.47 89.3703 321.858 89.5824C322.246 89.7912 322.548 90.1094 322.763 90.5369C322.978 90.9612 323.086 91.4981 323.086 92.1477V97H321.913V92.2273C321.913 91.6274 321.757 91.16 321.445 90.8253C321.134 90.4872 320.706 90.3182 320.163 90.3182C319.788 90.3182 319.454 90.3994 319.159 90.5618C318.867 90.7242 318.637 90.9612 318.468 91.2727C318.298 91.5843 318.214 91.9621 318.214 92.4062ZM325.23 97V89.3636H326.403V97H325.23ZM325.827 88.0909C325.598 88.0909 325.401 88.013 325.235 87.8572C325.073 87.7015 324.991 87.5142 324.991 87.2955C324.991 87.0767 325.073 86.8894 325.235 86.7337C325.401 86.5779 325.598 86.5 325.827 86.5C326.055 86.5 326.251 86.5779 326.413 86.7337C326.579 86.8894 326.662 87.0767 326.662 87.2955C326.662 87.5142 326.579 87.7015 326.413 87.8572C326.251 88.013 326.055 88.0909 325.827 88.0909ZM334.797 89.3636L331.973 97H330.78L327.956 89.3636H329.229L331.336 95.4489H331.416L333.524 89.3636H334.797ZM339.274 97.1591C338.538 97.1591 337.903 96.9967 337.369 96.6719C336.839 96.3438 336.43 95.8864 336.142 95.2997C335.856 94.7098 335.714 94.0237 335.714 93.2415C335.714 92.4593 335.856 91.7699 336.142 91.1733C336.43 90.5734 336.831 90.1061 337.345 89.7713C337.862 89.4332 338.465 89.2642 339.154 89.2642C339.552 89.2642 339.945 89.3305 340.333 89.4631C340.72 89.5956 341.073 89.8111 341.392 90.1094C341.71 90.4044 341.963 90.7955 342.152 91.2827C342.341 91.7699 342.436 92.3698 342.436 93.0824V93.5795H336.549V92.5653H341.242C341.242 92.1345 341.156 91.75 340.984 91.4119C340.815 91.0739 340.573 90.8071 340.258 90.6115C339.946 90.416 339.579 90.3182 339.154 90.3182C338.687 90.3182 338.283 90.4342 337.941 90.6662C337.603 90.8949 337.343 91.1932 337.161 91.5611C336.978 91.929 336.887 92.3234 336.887 92.7443V93.4205C336.887 93.9972 336.987 94.486 337.186 94.8871C337.388 95.2848 337.668 95.5881 338.026 95.7969C338.384 96.0024 338.8 96.1051 339.274 96.1051C339.582 96.1051 339.86 96.062 340.109 95.9759C340.361 95.8864 340.578 95.7538 340.76 95.5781C340.942 95.3991 341.083 95.1771 341.183 94.9119L342.316 95.2301C342.197 95.6146 341.996 95.9527 341.715 96.2443C341.433 96.5327 341.085 96.758 340.671 96.9205C340.256 97.0795 339.791 97.1591 339.274 97.1591ZM344.22 97V89.3636H345.354V90.517H345.433C345.573 90.1392 345.825 89.8326 346.189 89.5973C346.554 89.362 346.965 89.2443 347.422 89.2443C347.508 89.2443 347.616 89.246 347.745 89.2493C347.874 89.2526 347.972 89.2576 348.039 89.2642V90.4574C347.999 90.4474 347.908 90.4325 347.765 90.4126C347.626 90.3894 347.478 90.3778 347.323 90.3778C346.951 90.3778 346.62 90.4557 346.328 90.6115C346.04 90.764 345.811 90.9761 345.642 91.2479C345.477 91.5163 345.394 91.8229 345.394 92.1676V97H344.22ZM354.838 91.0739L353.784 91.3722C353.718 91.1965 353.62 91.0258 353.491 90.8601C353.365 90.6911 353.193 90.5518 352.974 90.4425C352.755 90.3331 352.475 90.2784 352.134 90.2784C351.667 90.2784 351.277 90.3861 350.966 90.6016C350.657 90.8137 350.503 91.0838 350.503 91.4119C350.503 91.7036 350.609 91.9339 350.821 92.103C351.033 92.272 351.365 92.4129 351.816 92.5256L352.949 92.804C353.632 92.9697 354.141 93.2232 354.475 93.5646C354.81 93.9027 354.978 94.3385 354.978 94.8722C354.978 95.3097 354.852 95.7008 354.6 96.0455C354.351 96.3902 354.003 96.6619 353.556 96.8608C353.108 97.0597 352.588 97.1591 351.995 97.1591C351.216 97.1591 350.571 96.9901 350.061 96.652C349.55 96.3139 349.227 95.8201 349.091 95.1705L350.205 94.892C350.311 95.303 350.511 95.6113 350.806 95.8168C351.105 96.0223 351.494 96.125 351.975 96.125C352.522 96.125 352.956 96.009 353.277 95.777C353.602 95.5417 353.765 95.2599 353.765 94.9318C353.765 94.6667 353.672 94.4446 353.486 94.2656C353.301 94.0833 353.016 93.9474 352.631 93.858L351.358 93.5597C350.659 93.3939 350.145 93.1371 349.817 92.7891C349.492 92.4377 349.33 91.9986 349.33 91.4716C349.33 91.0407 349.451 90.6596 349.693 90.3281C349.938 89.9967 350.271 89.7365 350.692 89.5476C351.116 89.3587 351.597 89.2642 352.134 89.2642C352.89 89.2642 353.483 89.4299 353.914 89.7614C354.348 90.0928 354.656 90.5303 354.838 91.0739ZM359.945 97.1591C359.21 97.1591 358.575 96.9967 358.041 96.6719C357.511 96.3438 357.102 95.8864 356.813 95.2997C356.528 94.7098 356.386 94.0237 356.386 93.2415C356.386 92.4593 356.528 91.7699 356.813 91.1733C357.102 90.5734 357.503 90.1061 358.017 89.7713C358.534 89.4332 359.137 89.2642 359.826 89.2642C360.224 89.2642 360.617 89.3305 361.004 89.4631C361.392 89.5956 361.745 89.8111 362.063 90.1094C362.382 90.4044 362.635 90.7955 362.824 91.2827C363.013 91.7699 363.107 92.3698 363.107 93.0824V93.5795H357.221V92.5653H361.914C361.914 92.1345 361.828 91.75 361.656 91.4119C361.487 91.0739 361.245 90.8071 360.93 90.6115C360.618 90.416 360.25 90.3182 359.826 90.3182C359.359 90.3182 358.954 90.4342 358.613 90.6662C358.275 90.8949 358.015 91.1932 357.833 91.5611C357.65 91.929 357.559 92.3234 357.559 92.7443V93.4205C357.559 93.9972 357.659 94.486 357.857 94.8871C358.06 95.2848 358.34 95.5881 358.698 95.7969C359.056 96.0024 359.472 96.1051 359.945 96.1051C360.254 96.1051 360.532 96.062 360.781 95.9759C361.033 95.8864 361.25 95.7538 361.432 95.5781C361.614 95.3991 361.755 95.1771 361.855 94.9119L362.988 95.2301C362.869 95.6146 362.668 95.9527 362.387 96.2443C362.105 96.5327 361.757 96.758 361.343 96.9205C360.928 97.0795 360.463 97.1591 359.945 97.1591Z" fill="#C8C8C8"/>
</svg>
