<svg width="40" height="52" viewBox="0 0 40 52" fill="none" xmlns="http://www.w3.org/2000/svg">
<path d="M20.0002 51.2315C8.5973 51.2315 0.000244141 47.8619 0.000244141 43.3992C0.000244141 38.9365 8.5973 35.5669 20.0002 35.5669C31.403 35.5669 40.0001 38.9365 40.0001 43.3992C40.0001 47.8619 31.403 51.2315 20.0002 51.2315ZM20.0002 37.4356C9.36876 37.4356 1.96061 40.5786 1.96061 43.3992C1.96061 46.2198 9.36876 49.3628 20.0002 49.3628C30.6315 49.3628 38.0397 46.2198 38.0397 43.3992C38.0397 40.5786 30.6315 37.4356 20.0002 37.4356Z" fill="white"/>
<path d="M20.0002 51.2315C8.5973 51.2315 0.000244141 47.8619 0.000244141 43.3992C0.000244141 38.9365 8.5973 35.5669 20.0002 35.5669C31.403 35.5669 40.0001 38.9365 40.0001 43.3992C40.0001 47.8619 31.403 51.2315 20.0002 51.2315ZM20.0002 37.4356C9.36876 37.4356 1.96061 40.5786 1.96061 43.3992C1.96061 46.2198 9.36876 49.3628 20.0002 49.3628C30.6315 49.3628 38.0397 46.2198 38.0397 43.3992C38.0397 40.5786 30.6315 37.4356 20.0002 37.4356Z" fill="white"/>
<path d="M19.9998 51.2318C12.206 51.2318 3.92065 48.9854 3.92065 44.8199C3.92065 42.9411 5.71721 41.2538 8.97743 40.0752C11.9365 39.0023 15.8519 38.408 20.0051 38.408C27.799 38.408 36.0843 40.6544 36.0843 44.8199C36.0843 46.6986 34.2878 48.386 31.0275 49.5646C28.0685 50.6374 24.1531 51.2318 19.9998 51.2318ZM19.9998 40.2766C16.0844 40.2766 12.4173 40.8256 9.66964 41.8179C7.29713 42.6792 5.88102 43.7974 5.88102 44.8148C5.88102 45.8323 7.29713 46.9505 9.66964 47.8118C12.412 48.8091 16.0791 49.353 19.9998 49.353C23.9206 49.353 27.5824 48.804 30.33 47.8118C32.7026 46.9505 34.1187 45.8323 34.1187 44.8148C34.1187 43.7974 32.7026 42.6792 30.33 41.8179C27.5877 40.8206 23.9206 40.2766 19.9998 40.2766Z" fill="white"/>
<path d="M19.9998 51.2318C12.206 51.2318 3.92065 48.9854 3.92065 44.8199C3.92065 42.9411 5.71721 41.2538 8.97743 40.0752C11.9365 39.0023 15.8519 38.408 20.0051 38.408C27.799 38.408 36.0843 40.6544 36.0843 44.8199C36.0843 46.6986 34.2878 48.386 31.0275 49.5646C28.0685 50.6374 24.1531 51.2318 19.9998 51.2318ZM19.9998 40.2766C16.0844 40.2766 12.4173 40.8256 9.66964 41.8179C7.29713 42.6792 5.88102 43.7974 5.88102 44.8148C5.88102 45.8323 7.29713 46.9505 9.66964 47.8118C12.412 48.8091 16.0791 49.353 19.9998 49.353C23.9206 49.353 27.5824 48.804 30.33 47.8118C32.7026 46.9505 34.1187 45.8323 34.1187 44.8148C34.1187 43.7974 32.7026 42.6792 30.33 41.8179C27.5877 40.8206 23.9206 40.2766 19.9998 40.2766Z" fill="white"/>
<path d="M19.9999 51.2319C17.1412 51.2319 14.4358 50.8239 12.3909 50.0784C10.0448 49.2272 8.75024 47.9831 8.75024 46.5728C8.75024 45.1625 10.0448 43.9184 12.3909 43.0671C14.4411 42.3217 17.1412 41.9137 19.9999 41.9137C22.8585 41.9137 25.5639 42.3217 27.6088 43.0671C29.9549 43.9184 31.2495 45.1625 31.2495 46.5728C31.2495 47.9831 29.9549 49.2272 27.6088 50.0784C25.5586 50.8239 22.8585 51.2319 19.9999 51.2319ZM19.9999 43.7824C13.4741 43.7824 10.7106 45.777 10.7106 46.5728C10.7106 47.3686 13.4741 49.3632 19.9999 49.3632C26.5256 49.3632 29.2891 47.3686 29.2891 46.5728C29.2891 45.777 26.5256 43.7824 19.9999 43.7824Z" fill="white"/>
<path d="M19.9999 51.2319C17.1412 51.2319 14.4358 50.8239 12.3909 50.0784C10.0448 49.2272 8.75024 47.9831 8.75024 46.5728C8.75024 45.1625 10.0448 43.9184 12.3909 43.0671C14.4411 42.3217 17.1412 41.9137 19.9999 41.9137C22.8585 41.9137 25.5639 42.3217 27.6088 43.0671C29.9549 43.9184 31.2495 45.1625 31.2495 46.5728C31.2495 47.9831 29.9549 49.2272 27.6088 50.0784C25.5586 50.8239 22.8585 51.2319 19.9999 51.2319ZM19.9999 43.7824C13.4741 43.7824 10.7106 45.777 10.7106 46.5728C10.7106 47.3686 13.4741 49.3632 19.9999 49.3632C26.5256 49.3632 29.2891 47.3686 29.2891 46.5728C29.2891 45.777 26.5256 43.7824 19.9999 43.7824Z" fill="white"/>
<path d="M38.0871 28.6918L30.5521 16.4976C30.2245 15.9687 29.4741 15.8579 28.9933 16.2609L19.1756 24.5566C18.7476 24.9192 18.7159 25.5438 19.1017 25.9467L21.5746 28.5256C21.9497 28.9134 22.5785 28.9487 22.996 28.6062L25.6802 26.4101C26.103 26.0676 26.7318 26.1029 27.1016 26.4957L27.741 27.1656C28.0897 27.5333 28.095 28.0874 27.7568 28.4601C26.4781 29.8604 23.4821 33.1444 22.1505 34.6C21.7859 34.998 21.1571 35.0483 20.7291 34.7109L13.247 28.4601C12.1215 27.5787 11.9313 26.0072 12.8137 24.8991L26.531 11.3147C26.7846 10.9973 26.811 10.5692 26.5997 10.2267L20.56 0.364537C20.4808 0.228542 20.3593 0.112694 20.206 0.0623256C20.0739 0.0220308 19.926 0.0220308 19.7939 0.0623256C19.6406 0.107657 19.5191 0.228542 19.4398 0.364537L1.91812 28.6918C1.65392 28.9437 1.65392 29.3516 1.91812 29.6035L18.8005 45.6962C19.461 46.3258 20.5442 46.3258 21.2047 45.6962L38.0871 29.6035C38.3513 29.3516 38.3513 28.9437 38.0871 28.6918Z" fill="white"/>
<path d="M38.0871 28.6918L30.5521 16.4976C30.2245 15.9687 29.4741 15.8579 28.9933 16.2609L19.1756 24.5566C18.7476 24.9192 18.7159 25.5438 19.1017 25.9467L21.5746 28.5256C21.9497 28.9134 22.5785 28.9487 22.996 28.6062L25.6802 26.4101C26.103 26.0676 26.7318 26.1029 27.1016 26.4957L27.741 27.1656C28.0897 27.5333 28.095 28.0874 27.7568 28.4601C26.4781 29.8604 23.4821 33.1444 22.1505 34.6C21.7859 34.998 21.1571 35.0483 20.7291 34.7109L13.247 28.4601C12.1215 27.5787 11.9313 26.0072 12.8137 24.8991L26.531 11.3147C26.7846 10.9973 26.811 10.5692 26.5997 10.2267L20.56 0.364537C20.4808 0.228542 20.3593 0.112694 20.206 0.0623256C20.0739 0.0220308 19.926 0.0220308 19.7939 0.0623256C19.6406 0.107657 19.5191 0.228542 19.4398 0.364537L1.91812 28.6918C1.65392 28.9437 1.65392 29.3516 1.91812 29.6035L18.8005 45.6962C19.461 46.3258 20.5442 46.3258 21.2047 45.6962L38.0871 29.6035C38.3513 29.3516 38.3513 28.9437 38.0871 28.6918Z" fill="white"/>
</svg>
