<svg width="40" height="40" viewBox="0 0 40 40" fill="none" xmlns="http://www.w3.org/2000/svg">
<path d="M31.316 11.9297C31.1725 11.9102 31.029 11.9102 30.8854 11.9297C27.7072 11.8324 25.1851 9.361 25.1851 6.32533C25.1851 3.23127 27.8302 0.701538 31.111 0.701538C34.3713 0.701538 37.0369 3.21181 37.0369 6.32533C37.0164 9.361 34.4943 11.8324 31.316 11.9297Z" fill="white"/>
<path d="M37.5645 24.9764C35.2455 26.3887 31.9947 26.9159 28.9924 26.5581C29.7793 25.0141 30.1934 23.3006 30.2141 21.4929C30.2141 19.6099 29.7585 17.821 28.8889 16.2581C31.9533 15.8815 35.2041 16.4088 37.5438 17.821C40.8153 19.7793 40.8153 22.9993 37.5645 24.9764Z" fill="white"/>
<path d="M8.67339 11.9297C8.81717 11.9102 8.96095 11.9102 9.10474 11.9297C12.2885 11.8324 14.815 9.361 14.815 6.32533C14.815 3.21181 12.1653 0.701538 8.87879 0.701538C5.61286 0.701538 2.96313 3.21181 2.96313 6.32533C2.96313 9.361 5.48961 11.8324 8.67339 11.9297Z" fill="white"/>
<path d="M9.11033 21.4834C9.11033 23.3066 9.53034 25.0358 10.2904 26.5958C7.47027 26.8777 4.53016 26.3139 2.37009 24.9794C-0.790028 23.0058 -0.790028 19.7918 2.37009 17.8183C4.51016 16.465 7.53027 15.9199 10.3704 16.2207C9.55034 17.7995 9.11033 19.5851 9.11033 21.4834Z" fill="white"/>
<path d="M20.2418 27.3683C20.087 27.3489 19.9128 27.3489 19.7387 27.3683C16.178 27.2519 13.3333 24.3212 13.3333 20.7113C13.3526 17.0238 16.3134 14.0349 20.0096 14.0349C23.6864 14.0349 26.6666 17.0238 26.6666 20.7113C26.6472 24.3212 23.8219 27.2519 20.2418 27.3683Z" fill="white"/>
<path d="M13.4728 31.1565C10.3239 33.1271 10.3239 36.366 13.4728 38.3171C17.0596 40.5609 22.9403 40.5609 26.5272 38.3171C29.6761 36.3465 29.6761 33.1076 26.5272 31.1565C22.9612 28.9127 17.0805 28.9127 13.4728 31.1565Z" fill="white"/>
</svg>
